%TF.GenerationSoftware,KiCad,Pcbnew,(5.1.5)-3*%
%TF.CreationDate,2021-10-20T10:58:06+01:00*%
%TF.ProjectId,pHAT_PASSIVE_TAG,70484154-5f50-4415-9353-4956455f5441,1*%
%TF.SameCoordinates,Original*%
%TF.FileFunction,Legend,Top*%
%TF.FilePolarity,Positive*%
%FSLAX46Y46*%
G04 Gerber Fmt 4.6, Leading zero omitted, Abs format (unit mm)*
G04 Created by KiCad (PCBNEW (5.1.5)-3) date 2021-10-20 10:58:06*
%MOMM*%
%LPD*%
G04 APERTURE LIST*
%ADD10C,0.100000*%
%ADD11C,0.150000*%
%ADD12C,0.300000*%
%ADD13C,0.400000*%
%ADD14C,0.120000*%
%ADD15C,0.010000*%
%ADD16C,0.450000*%
%ADD17C,0.800000*%
%ADD18C,6.200000*%
%ADD19O,1.700000X1.700000*%
%ADD20R,1.700000X1.700000*%
%ADD21R,0.750000X0.800000*%
%ADD22R,0.800000X0.750000*%
G04 APERTURE END LIST*
D10*
D11*
X177002200Y-166007200D02*
X177002200Y-198007200D01*
X285002200Y-198007200D01*
X285002200Y-166007200D01*
X177002200Y-166007200D01*
D10*
D11*
X10000000Y-10000000D02*
X10000000Y-200007200D01*
X287002200Y-200007200D01*
X287002200Y-10000000D01*
X10000000Y-10000000D01*
D10*
D11*
X12000000Y-12000000D02*
X12000000Y-198007200D01*
X285002200Y-198007200D01*
X285002200Y-12000000D01*
X12000000Y-12000000D01*
D10*
D11*
X60000000Y-12000000D02*
X60000000Y-10000000D01*
D10*
D11*
X110000000Y-12000000D02*
X110000000Y-10000000D01*
D10*
D11*
X160000000Y-12000000D02*
X160000000Y-10000000D01*
D10*
D11*
X210000000Y-12000000D02*
X210000000Y-10000000D01*
D10*
D11*
X260000000Y-12000000D02*
X260000000Y-10000000D01*
D10*
D11*
X36065476Y-11588095D02*
X35322619Y-11588095D01*
X35694047Y-11588095D02*
X35694047Y-10288095D01*
X35570238Y-10473809D01*
X35446428Y-10597619D01*
X35322619Y-10659523D01*
D10*
D11*
X85322619Y-10411904D02*
X85384523Y-10350000D01*
X85508333Y-10288095D01*
X85817857Y-10288095D01*
X85941666Y-10350000D01*
X86003571Y-10411904D01*
X86065476Y-10535714D01*
X86065476Y-10659523D01*
X86003571Y-10845238D01*
X85260714Y-11588095D01*
X86065476Y-11588095D01*
D10*
D11*
X135260714Y-10288095D02*
X136065476Y-10288095D01*
X135632142Y-10783333D01*
X135817857Y-10783333D01*
X135941666Y-10845238D01*
X136003571Y-10907142D01*
X136065476Y-11030952D01*
X136065476Y-11340476D01*
X136003571Y-11464285D01*
X135941666Y-11526190D01*
X135817857Y-11588095D01*
X135446428Y-11588095D01*
X135322619Y-11526190D01*
X135260714Y-11464285D01*
D10*
D11*
X185941666Y-10721428D02*
X185941666Y-11588095D01*
X185632142Y-10226190D02*
X185322619Y-11154761D01*
X186127380Y-11154761D01*
D10*
D11*
X236003571Y-10288095D02*
X235384523Y-10288095D01*
X235322619Y-10907142D01*
X235384523Y-10845238D01*
X235508333Y-10783333D01*
X235817857Y-10783333D01*
X235941666Y-10845238D01*
X236003571Y-10907142D01*
X236065476Y-11030952D01*
X236065476Y-11340476D01*
X236003571Y-11464285D01*
X235941666Y-11526190D01*
X235817857Y-11588095D01*
X235508333Y-11588095D01*
X235384523Y-11526190D01*
X235322619Y-11464285D01*
D10*
D11*
X285941666Y-10288095D02*
X285694047Y-10288095D01*
X285570238Y-10350000D01*
X285508333Y-10411904D01*
X285384523Y-10597619D01*
X285322619Y-10845238D01*
X285322619Y-11340476D01*
X285384523Y-11464285D01*
X285446428Y-11526190D01*
X285570238Y-11588095D01*
X285817857Y-11588095D01*
X285941666Y-11526190D01*
X286003571Y-11464285D01*
X286065476Y-11340476D01*
X286065476Y-11030952D01*
X286003571Y-10907142D01*
X285941666Y-10845238D01*
X285817857Y-10783333D01*
X285570238Y-10783333D01*
X285446428Y-10845238D01*
X285384523Y-10907142D01*
X285322619Y-11030952D01*
D10*
D11*
X60000000Y-198007200D02*
X60000000Y-200007200D01*
D10*
D11*
X110000000Y-198007200D02*
X110000000Y-200007200D01*
D10*
D11*
X160000000Y-198007200D02*
X160000000Y-200007200D01*
D10*
D11*
X210000000Y-198007200D02*
X210000000Y-200007200D01*
D10*
D11*
X260000000Y-198007200D02*
X260000000Y-200007200D01*
D10*
D11*
X36065476Y-199595295D02*
X35322619Y-199595295D01*
X35694047Y-199595295D02*
X35694047Y-198295295D01*
X35570238Y-198481009D01*
X35446428Y-198604819D01*
X35322619Y-198666723D01*
D10*
D11*
X85322619Y-198419104D02*
X85384523Y-198357200D01*
X85508333Y-198295295D01*
X85817857Y-198295295D01*
X85941666Y-198357200D01*
X86003571Y-198419104D01*
X86065476Y-198542914D01*
X86065476Y-198666723D01*
X86003571Y-198852438D01*
X85260714Y-199595295D01*
X86065476Y-199595295D01*
D10*
D11*
X135260714Y-198295295D02*
X136065476Y-198295295D01*
X135632142Y-198790533D01*
X135817857Y-198790533D01*
X135941666Y-198852438D01*
X136003571Y-198914342D01*
X136065476Y-199038152D01*
X136065476Y-199347676D01*
X136003571Y-199471485D01*
X135941666Y-199533390D01*
X135817857Y-199595295D01*
X135446428Y-199595295D01*
X135322619Y-199533390D01*
X135260714Y-199471485D01*
D10*
D11*
X185941666Y-198728628D02*
X185941666Y-199595295D01*
X185632142Y-198233390D02*
X185322619Y-199161961D01*
X186127380Y-199161961D01*
D10*
D11*
X236003571Y-198295295D02*
X235384523Y-198295295D01*
X235322619Y-198914342D01*
X235384523Y-198852438D01*
X235508333Y-198790533D01*
X235817857Y-198790533D01*
X235941666Y-198852438D01*
X236003571Y-198914342D01*
X236065476Y-199038152D01*
X236065476Y-199347676D01*
X236003571Y-199471485D01*
X235941666Y-199533390D01*
X235817857Y-199595295D01*
X235508333Y-199595295D01*
X235384523Y-199533390D01*
X235322619Y-199471485D01*
D10*
D11*
X285941666Y-198295295D02*
X285694047Y-198295295D01*
X285570238Y-198357200D01*
X285508333Y-198419104D01*
X285384523Y-198604819D01*
X285322619Y-198852438D01*
X285322619Y-199347676D01*
X285384523Y-199471485D01*
X285446428Y-199533390D01*
X285570238Y-199595295D01*
X285817857Y-199595295D01*
X285941666Y-199533390D01*
X286003571Y-199471485D01*
X286065476Y-199347676D01*
X286065476Y-199038152D01*
X286003571Y-198914342D01*
X285941666Y-198852438D01*
X285817857Y-198790533D01*
X285570238Y-198790533D01*
X285446428Y-198852438D01*
X285384523Y-198914342D01*
X285322619Y-199038152D01*
D10*
D11*
X10000000Y-60000000D02*
X12000000Y-60000000D01*
D10*
D11*
X10000000Y-110000000D02*
X12000000Y-110000000D01*
D10*
D11*
X10000000Y-160000000D02*
X12000000Y-160000000D01*
D10*
D11*
X10690476Y-35216666D02*
X11309523Y-35216666D01*
X10566666Y-35588095D02*
X11000000Y-34288095D01*
X11433333Y-35588095D01*
D10*
D11*
X11092857Y-84907142D02*
X11278571Y-84969047D01*
X11340476Y-85030952D01*
X11402380Y-85154761D01*
X11402380Y-85340476D01*
X11340476Y-85464285D01*
X11278571Y-85526190D01*
X11154761Y-85588095D01*
X10659523Y-85588095D01*
X10659523Y-84288095D01*
X11092857Y-84288095D01*
X11216666Y-84350000D01*
X11278571Y-84411904D01*
X11340476Y-84535714D01*
X11340476Y-84659523D01*
X11278571Y-84783333D01*
X11216666Y-84845238D01*
X11092857Y-84907142D01*
X10659523Y-84907142D01*
D10*
D11*
X11402380Y-135464285D02*
X11340476Y-135526190D01*
X11154761Y-135588095D01*
X11030952Y-135588095D01*
X10845238Y-135526190D01*
X10721428Y-135402380D01*
X10659523Y-135278571D01*
X10597619Y-135030952D01*
X10597619Y-134845238D01*
X10659523Y-134597619D01*
X10721428Y-134473809D01*
X10845238Y-134350000D01*
X11030952Y-134288095D01*
X11154761Y-134288095D01*
X11340476Y-134350000D01*
X11402380Y-134411904D01*
D10*
D11*
X10659523Y-185588095D02*
X10659523Y-184288095D01*
X10969047Y-184288095D01*
X11154761Y-184350000D01*
X11278571Y-184473809D01*
X11340476Y-184597619D01*
X11402380Y-184845238D01*
X11402380Y-185030952D01*
X11340476Y-185278571D01*
X11278571Y-185402380D01*
X11154761Y-185526190D01*
X10969047Y-185588095D01*
X10659523Y-185588095D01*
D10*
D11*
X287002200Y-60000000D02*
X285002200Y-60000000D01*
D10*
D11*
X287002200Y-110000000D02*
X285002200Y-110000000D01*
D10*
D11*
X287002200Y-160000000D02*
X285002200Y-160000000D01*
D10*
D11*
X285692676Y-35216666D02*
X286311723Y-35216666D01*
X285568866Y-35588095D02*
X286002200Y-34288095D01*
X286435533Y-35588095D01*
D10*
D11*
X286095057Y-84907142D02*
X286280771Y-84969047D01*
X286342676Y-85030952D01*
X286404580Y-85154761D01*
X286404580Y-85340476D01*
X286342676Y-85464285D01*
X286280771Y-85526190D01*
X286156961Y-85588095D01*
X285661723Y-85588095D01*
X285661723Y-84288095D01*
X286095057Y-84288095D01*
X286218866Y-84350000D01*
X286280771Y-84411904D01*
X286342676Y-84535714D01*
X286342676Y-84659523D01*
X286280771Y-84783333D01*
X286218866Y-84845238D01*
X286095057Y-84907142D01*
X285661723Y-84907142D01*
D10*
D11*
X286404580Y-135464285D02*
X286342676Y-135526190D01*
X286156961Y-135588095D01*
X286033152Y-135588095D01*
X285847438Y-135526190D01*
X285723628Y-135402380D01*
X285661723Y-135278571D01*
X285599819Y-135030952D01*
X285599819Y-134845238D01*
X285661723Y-134597619D01*
X285723628Y-134473809D01*
X285847438Y-134350000D01*
X286033152Y-134288095D01*
X286156961Y-134288095D01*
X286342676Y-134350000D01*
X286404580Y-134411904D01*
D10*
D11*
X285661723Y-185588095D02*
X285661723Y-184288095D01*
X285971247Y-184288095D01*
X286156961Y-184350000D01*
X286280771Y-184473809D01*
X286342676Y-184597619D01*
X286404580Y-184845238D01*
X286404580Y-185030952D01*
X286342676Y-185278571D01*
X286280771Y-185402380D01*
X286156961Y-185526190D01*
X285971247Y-185588095D01*
X285661723Y-185588095D01*
D10*
D11*
X200434342Y-193785771D02*
X200434342Y-192285771D01*
X200791485Y-192285771D01*
X201005771Y-192357200D01*
X201148628Y-192500057D01*
X201220057Y-192642914D01*
X201291485Y-192928628D01*
X201291485Y-193142914D01*
X201220057Y-193428628D01*
X201148628Y-193571485D01*
X201005771Y-193714342D01*
X200791485Y-193785771D01*
X200434342Y-193785771D01*
X202577200Y-193785771D02*
X202577200Y-193000057D01*
X202505771Y-192857200D01*
X202362914Y-192785771D01*
X202077200Y-192785771D01*
X201934342Y-192857200D01*
X202577200Y-193714342D02*
X202434342Y-193785771D01*
X202077200Y-193785771D01*
X201934342Y-193714342D01*
X201862914Y-193571485D01*
X201862914Y-193428628D01*
X201934342Y-193285771D01*
X202077200Y-193214342D01*
X202434342Y-193214342D01*
X202577200Y-193142914D01*
X203077200Y-192785771D02*
X203648628Y-192785771D01*
X203291485Y-192285771D02*
X203291485Y-193571485D01*
X203362914Y-193714342D01*
X203505771Y-193785771D01*
X203648628Y-193785771D01*
X204720057Y-193714342D02*
X204577200Y-193785771D01*
X204291485Y-193785771D01*
X204148628Y-193714342D01*
X204077200Y-193571485D01*
X204077200Y-193000057D01*
X204148628Y-192857200D01*
X204291485Y-192785771D01*
X204577200Y-192785771D01*
X204720057Y-192857200D01*
X204791485Y-193000057D01*
X204791485Y-193142914D01*
X204077200Y-193285771D01*
X205434342Y-193642914D02*
X205505771Y-193714342D01*
X205434342Y-193785771D01*
X205362914Y-193714342D01*
X205434342Y-193642914D01*
X205434342Y-193785771D01*
X205434342Y-192857200D02*
X205505771Y-192928628D01*
X205434342Y-193000057D01*
X205362914Y-192928628D01*
X205434342Y-192857200D01*
X205434342Y-193000057D01*
X207220057Y-192428628D02*
X207291485Y-192357200D01*
X207434342Y-192285771D01*
X207791485Y-192285771D01*
X207934342Y-192357200D01*
X208005771Y-192428628D01*
X208077200Y-192571485D01*
X208077200Y-192714342D01*
X208005771Y-192928628D01*
X207148628Y-193785771D01*
X208077200Y-193785771D01*
X209005771Y-192285771D02*
X209148628Y-192285771D01*
X209291485Y-192357200D01*
X209362914Y-192428628D01*
X209434342Y-192571485D01*
X209505771Y-192857200D01*
X209505771Y-193214342D01*
X209434342Y-193500057D01*
X209362914Y-193642914D01*
X209291485Y-193714342D01*
X209148628Y-193785771D01*
X209005771Y-193785771D01*
X208862914Y-193714342D01*
X208791485Y-193642914D01*
X208720057Y-193500057D01*
X208648628Y-193214342D01*
X208648628Y-192857200D01*
X208720057Y-192571485D01*
X208791485Y-192428628D01*
X208862914Y-192357200D01*
X209005771Y-192285771D01*
X210934342Y-193785771D02*
X210077200Y-193785771D01*
X210505771Y-193785771D02*
X210505771Y-192285771D01*
X210362914Y-192500057D01*
X210220057Y-192642914D01*
X210077200Y-192714342D01*
X211648628Y-193785771D02*
X211934342Y-193785771D01*
X212077200Y-193714342D01*
X212148628Y-193642914D01*
X212291485Y-193428628D01*
X212362914Y-193142914D01*
X212362914Y-192571485D01*
X212291485Y-192428628D01*
X212220057Y-192357200D01*
X212077200Y-192285771D01*
X211791485Y-192285771D01*
X211648628Y-192357200D01*
X211577200Y-192428628D01*
X211505771Y-192571485D01*
X211505771Y-192928628D01*
X211577200Y-193071485D01*
X211648628Y-193142914D01*
X211791485Y-193214342D01*
X212077200Y-193214342D01*
X212220057Y-193142914D01*
X212291485Y-193071485D01*
X212362914Y-192928628D01*
X213005771Y-193214342D02*
X214148628Y-193214342D01*
X215148628Y-192285771D02*
X215291485Y-192285771D01*
X215434342Y-192357200D01*
X215505771Y-192428628D01*
X215577200Y-192571485D01*
X215648628Y-192857200D01*
X215648628Y-193214342D01*
X215577200Y-193500057D01*
X215505771Y-193642914D01*
X215434342Y-193714342D01*
X215291485Y-193785771D01*
X215148628Y-193785771D01*
X215005771Y-193714342D01*
X214934342Y-193642914D01*
X214862914Y-193500057D01*
X214791485Y-193214342D01*
X214791485Y-192857200D01*
X214862914Y-192571485D01*
X214934342Y-192428628D01*
X215005771Y-192357200D01*
X215148628Y-192285771D01*
X216934342Y-192785771D02*
X216934342Y-193785771D01*
X216577200Y-192214342D02*
X216220057Y-193285771D01*
X217148628Y-193285771D01*
X217720057Y-193214342D02*
X218862914Y-193214342D01*
X219505771Y-192428628D02*
X219577200Y-192357200D01*
X219720057Y-192285771D01*
X220077200Y-192285771D01*
X220220057Y-192357200D01*
X220291485Y-192428628D01*
X220362914Y-192571485D01*
X220362914Y-192714342D01*
X220291485Y-192928628D01*
X219434342Y-193785771D01*
X220362914Y-193785771D01*
X221077200Y-193785771D02*
X221362914Y-193785771D01*
X221505771Y-193714342D01*
X221577200Y-193642914D01*
X221720057Y-193428628D01*
X221791485Y-193142914D01*
X221791485Y-192571485D01*
X221720057Y-192428628D01*
X221648628Y-192357200D01*
X221505771Y-192285771D01*
X221220057Y-192285771D01*
X221077200Y-192357200D01*
X221005771Y-192428628D01*
X220934342Y-192571485D01*
X220934342Y-192928628D01*
X221005771Y-193071485D01*
X221077200Y-193142914D01*
X221220057Y-193214342D01*
X221505771Y-193214342D01*
X221648628Y-193142914D01*
X221720057Y-193071485D01*
X221791485Y-192928628D01*
D10*
D11*
X177002200Y-194507200D02*
X285002200Y-194507200D01*
D10*
D11*
X178434342Y-196585771D02*
X178434342Y-195085771D01*
X179291485Y-196585771D02*
X178648628Y-195728628D01*
X179291485Y-195085771D02*
X178434342Y-195942914D01*
X179934342Y-196585771D02*
X179934342Y-195585771D01*
X179934342Y-195085771D02*
X179862914Y-195157200D01*
X179934342Y-195228628D01*
X180005771Y-195157200D01*
X179934342Y-195085771D01*
X179934342Y-195228628D01*
X181505771Y-196442914D02*
X181434342Y-196514342D01*
X181220057Y-196585771D01*
X181077200Y-196585771D01*
X180862914Y-196514342D01*
X180720057Y-196371485D01*
X180648628Y-196228628D01*
X180577200Y-195942914D01*
X180577200Y-195728628D01*
X180648628Y-195442914D01*
X180720057Y-195300057D01*
X180862914Y-195157200D01*
X181077200Y-195085771D01*
X181220057Y-195085771D01*
X181434342Y-195157200D01*
X181505771Y-195228628D01*
X182791485Y-196585771D02*
X182791485Y-195800057D01*
X182720057Y-195657200D01*
X182577200Y-195585771D01*
X182291485Y-195585771D01*
X182148628Y-195657200D01*
X182791485Y-196514342D02*
X182648628Y-196585771D01*
X182291485Y-196585771D01*
X182148628Y-196514342D01*
X182077200Y-196371485D01*
X182077200Y-196228628D01*
X182148628Y-196085771D01*
X182291485Y-196014342D01*
X182648628Y-196014342D01*
X182791485Y-195942914D01*
X184148628Y-196585771D02*
X184148628Y-195085771D01*
X184148628Y-196514342D02*
X184005771Y-196585771D01*
X183720057Y-196585771D01*
X183577200Y-196514342D01*
X183505771Y-196442914D01*
X183434342Y-196300057D01*
X183434342Y-195871485D01*
X183505771Y-195728628D01*
X183577200Y-195657200D01*
X183720057Y-195585771D01*
X184005771Y-195585771D01*
X184148628Y-195657200D01*
X186005771Y-195800057D02*
X186505771Y-195800057D01*
X186720057Y-196585771D02*
X186005771Y-196585771D01*
X186005771Y-195085771D01*
X186720057Y-195085771D01*
X187362914Y-196442914D02*
X187434342Y-196514342D01*
X187362914Y-196585771D01*
X187291485Y-196514342D01*
X187362914Y-196442914D01*
X187362914Y-196585771D01*
X188077200Y-196585771D02*
X188077200Y-195085771D01*
X188434342Y-195085771D01*
X188648628Y-195157200D01*
X188791485Y-195300057D01*
X188862914Y-195442914D01*
X188934342Y-195728628D01*
X188934342Y-195942914D01*
X188862914Y-196228628D01*
X188791485Y-196371485D01*
X188648628Y-196514342D01*
X188434342Y-196585771D01*
X188077200Y-196585771D01*
X189577200Y-196442914D02*
X189648628Y-196514342D01*
X189577200Y-196585771D01*
X189505771Y-196514342D01*
X189577200Y-196442914D01*
X189577200Y-196585771D01*
X190220057Y-196157200D02*
X190934342Y-196157200D01*
X190077200Y-196585771D02*
X190577200Y-195085771D01*
X191077200Y-196585771D01*
X191577200Y-196442914D02*
X191648628Y-196514342D01*
X191577200Y-196585771D01*
X191505771Y-196514342D01*
X191577200Y-196442914D01*
X191577200Y-196585771D01*
X194577200Y-196585771D02*
X194577200Y-195085771D01*
X194720057Y-196014342D02*
X195148628Y-196585771D01*
X195148628Y-195585771D02*
X194577200Y-196157200D01*
X195791485Y-196585771D02*
X195791485Y-195585771D01*
X195791485Y-195085771D02*
X195720057Y-195157200D01*
X195791485Y-195228628D01*
X195862914Y-195157200D01*
X195791485Y-195085771D01*
X195791485Y-195228628D01*
X197148628Y-196514342D02*
X197005771Y-196585771D01*
X196720057Y-196585771D01*
X196577200Y-196514342D01*
X196505771Y-196442914D01*
X196434342Y-196300057D01*
X196434342Y-195871485D01*
X196505771Y-195728628D01*
X196577200Y-195657200D01*
X196720057Y-195585771D01*
X197005771Y-195585771D01*
X197148628Y-195657200D01*
X198434342Y-196585771D02*
X198434342Y-195800057D01*
X198362914Y-195657200D01*
X198220057Y-195585771D01*
X197934342Y-195585771D01*
X197791485Y-195657200D01*
X198434342Y-196514342D02*
X198291485Y-196585771D01*
X197934342Y-196585771D01*
X197791485Y-196514342D01*
X197720057Y-196371485D01*
X197720057Y-196228628D01*
X197791485Y-196085771D01*
X197934342Y-196014342D01*
X198291485Y-196014342D01*
X198434342Y-195942914D01*
X199791485Y-196585771D02*
X199791485Y-195085771D01*
X199791485Y-196514342D02*
X199648628Y-196585771D01*
X199362914Y-196585771D01*
X199220057Y-196514342D01*
X199148628Y-196442914D01*
X199077200Y-196300057D01*
X199077200Y-195871485D01*
X199148628Y-195728628D01*
X199220057Y-195657200D01*
X199362914Y-195585771D01*
X199648628Y-195585771D01*
X199791485Y-195657200D01*
X202077200Y-197157200D02*
X202005771Y-197085771D01*
X201862914Y-196871485D01*
X201791485Y-196728628D01*
X201720057Y-196514342D01*
X201648628Y-196157200D01*
X201648628Y-195871485D01*
X201720057Y-195514342D01*
X201791485Y-195300057D01*
X201862914Y-195157200D01*
X202005771Y-194942914D01*
X202077200Y-194871485D01*
X203362914Y-195085771D02*
X202648628Y-195085771D01*
X202577200Y-195800057D01*
X202648628Y-195728628D01*
X202791485Y-195657200D01*
X203148628Y-195657200D01*
X203291485Y-195728628D01*
X203362914Y-195800057D01*
X203434342Y-195942914D01*
X203434342Y-196300057D01*
X203362914Y-196442914D01*
X203291485Y-196514342D01*
X203148628Y-196585771D01*
X202791485Y-196585771D01*
X202648628Y-196514342D01*
X202577200Y-196442914D01*
X204077200Y-196442914D02*
X204148628Y-196514342D01*
X204077200Y-196585771D01*
X204005771Y-196514342D01*
X204077200Y-196442914D01*
X204077200Y-196585771D01*
X205577200Y-196585771D02*
X204720057Y-196585771D01*
X205148628Y-196585771D02*
X205148628Y-195085771D01*
X205005771Y-195300057D01*
X204862914Y-195442914D01*
X204720057Y-195514342D01*
X206220057Y-196442914D02*
X206291485Y-196514342D01*
X206220057Y-196585771D01*
X206148628Y-196514342D01*
X206220057Y-196442914D01*
X206220057Y-196585771D01*
X207648628Y-195085771D02*
X206934342Y-195085771D01*
X206862914Y-195800057D01*
X206934342Y-195728628D01*
X207077200Y-195657200D01*
X207434342Y-195657200D01*
X207577200Y-195728628D01*
X207648628Y-195800057D01*
X207720057Y-195942914D01*
X207720057Y-196300057D01*
X207648628Y-196442914D01*
X207577200Y-196514342D01*
X207434342Y-196585771D01*
X207077200Y-196585771D01*
X206934342Y-196514342D01*
X206862914Y-196442914D01*
X208220057Y-197157200D02*
X208291485Y-197085771D01*
X208434342Y-196871485D01*
X208505771Y-196728628D01*
X208577200Y-196514342D01*
X208648628Y-196157200D01*
X208648628Y-195871485D01*
X208577200Y-195514342D01*
X208505771Y-195300057D01*
X208434342Y-195157200D01*
X208291485Y-194942914D01*
X208220057Y-194871485D01*
X209362914Y-196014342D02*
X210505771Y-196014342D01*
X211077200Y-195085771D02*
X212005771Y-195085771D01*
X211505771Y-195657200D01*
X211720057Y-195657200D01*
X211862914Y-195728628D01*
X211934342Y-195800057D01*
X212005771Y-195942914D01*
X212005771Y-196300057D01*
X211934342Y-196442914D01*
X211862914Y-196514342D01*
X211720057Y-196585771D01*
X211291485Y-196585771D01*
X211148628Y-196514342D01*
X211077200Y-196442914D01*
D10*
D11*
X177002200Y-191507200D02*
X285002200Y-191507200D01*
D10*
D12*
X264411485Y-193785771D02*
X263911485Y-193071485D01*
X263554342Y-193785771D02*
X263554342Y-192285771D01*
X264125771Y-192285771D01*
X264268628Y-192357200D01*
X264340057Y-192428628D01*
X264411485Y-192571485D01*
X264411485Y-192785771D01*
X264340057Y-192928628D01*
X264268628Y-193000057D01*
X264125771Y-193071485D01*
X263554342Y-193071485D01*
X265625771Y-193714342D02*
X265482914Y-193785771D01*
X265197200Y-193785771D01*
X265054342Y-193714342D01*
X264982914Y-193571485D01*
X264982914Y-193000057D01*
X265054342Y-192857200D01*
X265197200Y-192785771D01*
X265482914Y-192785771D01*
X265625771Y-192857200D01*
X265697200Y-193000057D01*
X265697200Y-193142914D01*
X264982914Y-193285771D01*
X266197200Y-192785771D02*
X266554342Y-193785771D01*
X266911485Y-192785771D01*
X267482914Y-193642914D02*
X267554342Y-193714342D01*
X267482914Y-193785771D01*
X267411485Y-193714342D01*
X267482914Y-193642914D01*
X267482914Y-193785771D01*
X267482914Y-192857200D02*
X267554342Y-192928628D01*
X267482914Y-193000057D01*
X267411485Y-192928628D01*
X267482914Y-192857200D01*
X267482914Y-193000057D01*
X270125771Y-193785771D02*
X269268628Y-193785771D01*
X269697200Y-193785771D02*
X269697200Y-192285771D01*
X269554342Y-192500057D01*
X269411485Y-192642914D01*
X269268628Y-192714342D01*
D10*
D11*
X178362914Y-193714342D02*
X178577200Y-193785771D01*
X178934342Y-193785771D01*
X179077200Y-193714342D01*
X179148628Y-193642914D01*
X179220057Y-193500057D01*
X179220057Y-193357200D01*
X179148628Y-193214342D01*
X179077200Y-193142914D01*
X178934342Y-193071485D01*
X178648628Y-193000057D01*
X178505771Y-192928628D01*
X178434342Y-192857200D01*
X178362914Y-192714342D01*
X178362914Y-192571485D01*
X178434342Y-192428628D01*
X178505771Y-192357200D01*
X178648628Y-192285771D01*
X179005771Y-192285771D01*
X179220057Y-192357200D01*
X179862914Y-193785771D02*
X179862914Y-192785771D01*
X179862914Y-192285771D02*
X179791485Y-192357200D01*
X179862914Y-192428628D01*
X179934342Y-192357200D01*
X179862914Y-192285771D01*
X179862914Y-192428628D01*
X180434342Y-192785771D02*
X181220057Y-192785771D01*
X180434342Y-193785771D01*
X181220057Y-193785771D01*
X182362914Y-193714342D02*
X182220057Y-193785771D01*
X181934342Y-193785771D01*
X181791485Y-193714342D01*
X181720057Y-193571485D01*
X181720057Y-193000057D01*
X181791485Y-192857200D01*
X181934342Y-192785771D01*
X182220057Y-192785771D01*
X182362914Y-192857200D01*
X182434342Y-193000057D01*
X182434342Y-193142914D01*
X181720057Y-193285771D01*
X183077200Y-193642914D02*
X183148628Y-193714342D01*
X183077200Y-193785771D01*
X183005771Y-193714342D01*
X183077200Y-193642914D01*
X183077200Y-193785771D01*
X183077200Y-192857200D02*
X183148628Y-192928628D01*
X183077200Y-193000057D01*
X183005771Y-192928628D01*
X183077200Y-192857200D01*
X183077200Y-193000057D01*
X184862914Y-193357200D02*
X185577200Y-193357200D01*
X184720057Y-193785771D02*
X185220057Y-192285771D01*
X185720057Y-193785771D01*
X186862914Y-192785771D02*
X186862914Y-193785771D01*
X186505771Y-192214342D02*
X186148628Y-193285771D01*
X187077200Y-193285771D01*
D10*
D11*
X263434342Y-196585771D02*
X263434342Y-195085771D01*
X264791485Y-196585771D02*
X264791485Y-195085771D01*
X264791485Y-196514342D02*
X264648628Y-196585771D01*
X264362914Y-196585771D01*
X264220057Y-196514342D01*
X264148628Y-196442914D01*
X264077200Y-196300057D01*
X264077200Y-195871485D01*
X264148628Y-195728628D01*
X264220057Y-195657200D01*
X264362914Y-195585771D01*
X264648628Y-195585771D01*
X264791485Y-195657200D01*
X265505771Y-196442914D02*
X265577200Y-196514342D01*
X265505771Y-196585771D01*
X265434342Y-196514342D01*
X265505771Y-196442914D01*
X265505771Y-196585771D01*
X265505771Y-195657200D02*
X265577200Y-195728628D01*
X265505771Y-195800057D01*
X265434342Y-195728628D01*
X265505771Y-195657200D01*
X265505771Y-195800057D01*
X268148628Y-196585771D02*
X267291485Y-196585771D01*
X267720057Y-196585771D02*
X267720057Y-195085771D01*
X267577200Y-195300057D01*
X267434342Y-195442914D01*
X267291485Y-195514342D01*
X269862914Y-195014342D02*
X268577200Y-196942914D01*
X271148628Y-196585771D02*
X270291485Y-196585771D01*
X270720057Y-196585771D02*
X270720057Y-195085771D01*
X270577200Y-195300057D01*
X270434342Y-195442914D01*
X270291485Y-195514342D01*
D10*
D11*
X177002200Y-187507200D02*
X285002200Y-187507200D01*
D10*
D13*
X178714580Y-188211961D02*
X179857438Y-188211961D01*
X179036009Y-190211961D02*
X179286009Y-188211961D01*
X180274104Y-190211961D02*
X180440771Y-188878628D01*
X180524104Y-188211961D02*
X180416961Y-188307200D01*
X180500295Y-188402438D01*
X180607438Y-188307200D01*
X180524104Y-188211961D01*
X180500295Y-188402438D01*
X181107438Y-188878628D02*
X181869342Y-188878628D01*
X181476485Y-188211961D02*
X181262200Y-189926247D01*
X181333628Y-190116723D01*
X181512200Y-190211961D01*
X181702676Y-190211961D01*
X182655057Y-190211961D02*
X182476485Y-190116723D01*
X182405057Y-189926247D01*
X182619342Y-188211961D01*
X184190771Y-190116723D02*
X183988390Y-190211961D01*
X183607438Y-190211961D01*
X183428866Y-190116723D01*
X183357438Y-189926247D01*
X183452676Y-189164342D01*
X183571723Y-188973866D01*
X183774104Y-188878628D01*
X184155057Y-188878628D01*
X184333628Y-188973866D01*
X184405057Y-189164342D01*
X184381247Y-189354819D01*
X183405057Y-189545295D01*
X185155057Y-190021485D02*
X185238390Y-190116723D01*
X185131247Y-190211961D01*
X185047914Y-190116723D01*
X185155057Y-190021485D01*
X185131247Y-190211961D01*
X185286009Y-188973866D02*
X185369342Y-189069104D01*
X185262200Y-189164342D01*
X185178866Y-189069104D01*
X185286009Y-188973866D01*
X185262200Y-189164342D01*
X188750295Y-190211961D02*
X188202676Y-189259580D01*
X187607438Y-190211961D02*
X187857438Y-188211961D01*
X188619342Y-188211961D01*
X188797914Y-188307200D01*
X188881247Y-188402438D01*
X188952676Y-188592914D01*
X188916961Y-188878628D01*
X188797914Y-189069104D01*
X188690771Y-189164342D01*
X188488390Y-189259580D01*
X187726485Y-189259580D01*
X190405057Y-189164342D02*
X189738390Y-189164342D01*
X189607438Y-190211961D02*
X189857438Y-188211961D01*
X190809819Y-188211961D01*
X191321723Y-190211961D02*
X191571723Y-188211961D01*
X192059819Y-189640533D01*
X192905057Y-188211961D01*
X192655057Y-190211961D01*
X194714580Y-188211961D02*
X194333628Y-188211961D01*
X194131247Y-188307200D01*
X194024104Y-188402438D01*
X193797914Y-188688152D01*
X193655057Y-189069104D01*
X193559819Y-189831009D01*
X193631247Y-190021485D01*
X193714580Y-190116723D01*
X193893152Y-190211961D01*
X194274104Y-190211961D01*
X194476485Y-190116723D01*
X194583628Y-190021485D01*
X194702676Y-189831009D01*
X194762200Y-189354819D01*
X194690771Y-189164342D01*
X194607438Y-189069104D01*
X194428866Y-188973866D01*
X194047914Y-188973866D01*
X193845533Y-189069104D01*
X193738390Y-189164342D01*
X193619342Y-189354819D01*
X195607438Y-190211961D02*
X195988390Y-190211961D01*
X196190771Y-190116723D01*
X196297914Y-190021485D01*
X196524104Y-189735771D01*
X196666961Y-189354819D01*
X196762200Y-188592914D01*
X196690771Y-188402438D01*
X196607438Y-188307200D01*
X196428866Y-188211961D01*
X196047914Y-188211961D01*
X195845533Y-188307200D01*
X195738390Y-188402438D01*
X195619342Y-188592914D01*
X195559819Y-189069104D01*
X195631247Y-189259580D01*
X195714580Y-189354819D01*
X195893152Y-189450057D01*
X196274104Y-189450057D01*
X196476485Y-189354819D01*
X196583628Y-189259580D01*
X196702676Y-189069104D01*
X197416961Y-190211961D02*
X197666961Y-188211961D01*
X197547914Y-189164342D02*
X198690771Y-189164342D01*
X198559819Y-190211961D02*
X198809819Y-188211961D01*
X200678866Y-190021485D02*
X200571723Y-190116723D01*
X200274104Y-190211961D01*
X200083628Y-190211961D01*
X199809819Y-190116723D01*
X199643152Y-189926247D01*
X199571723Y-189735771D01*
X199524104Y-189354819D01*
X199559819Y-189069104D01*
X199702676Y-188688152D01*
X199821723Y-188497676D01*
X200036009Y-188307200D01*
X200333628Y-188211961D01*
X200524104Y-188211961D01*
X200797914Y-188307200D01*
X200881247Y-188402438D01*
X201571723Y-188211961D02*
X201797914Y-190211961D01*
X202357438Y-188783390D01*
X202559819Y-190211961D01*
X203286009Y-188211961D01*
X203893152Y-189450057D02*
X205416961Y-189450057D01*
X206702676Y-189069104D02*
X206524104Y-188973866D01*
X206440771Y-188878628D01*
X206369342Y-188688152D01*
X206381247Y-188592914D01*
X206500295Y-188402438D01*
X206607438Y-188307200D01*
X206809819Y-188211961D01*
X207190771Y-188211961D01*
X207369342Y-188307200D01*
X207452676Y-188402438D01*
X207524104Y-188592914D01*
X207512200Y-188688152D01*
X207393152Y-188878628D01*
X207286009Y-188973866D01*
X207083628Y-189069104D01*
X206702676Y-189069104D01*
X206500295Y-189164342D01*
X206393152Y-189259580D01*
X206274104Y-189450057D01*
X206226485Y-189831009D01*
X206297914Y-190021485D01*
X206381247Y-190116723D01*
X206559819Y-190211961D01*
X206940771Y-190211961D01*
X207143152Y-190116723D01*
X207250295Y-190021485D01*
X207369342Y-189831009D01*
X207416961Y-189450057D01*
X207345533Y-189259580D01*
X207262200Y-189164342D01*
X207083628Y-189069104D01*
X209286009Y-188211961D02*
X208905057Y-188211961D01*
X208702676Y-188307200D01*
X208595533Y-188402438D01*
X208369342Y-188688152D01*
X208226485Y-189069104D01*
X208131247Y-189831009D01*
X208202676Y-190021485D01*
X208286009Y-190116723D01*
X208464580Y-190211961D01*
X208845533Y-190211961D01*
X209047914Y-190116723D01*
X209155057Y-190021485D01*
X209274104Y-189831009D01*
X209333628Y-189354819D01*
X209262200Y-189164342D01*
X209178866Y-189069104D01*
X209000295Y-188973866D01*
X208619342Y-188973866D01*
X208416961Y-189069104D01*
X208309819Y-189164342D01*
X208190771Y-189354819D01*
X210512200Y-189069104D02*
X210333628Y-188973866D01*
X210250295Y-188878628D01*
X210178866Y-188688152D01*
X210190771Y-188592914D01*
X210309819Y-188402438D01*
X210416961Y-188307200D01*
X210619342Y-188211961D01*
X211000295Y-188211961D01*
X211178866Y-188307200D01*
X211262200Y-188402438D01*
X211333628Y-188592914D01*
X211321723Y-188688152D01*
X211202676Y-188878628D01*
X211095533Y-188973866D01*
X210893152Y-189069104D01*
X210512200Y-189069104D01*
X210309819Y-189164342D01*
X210202676Y-189259580D01*
X210083628Y-189450057D01*
X210036009Y-189831009D01*
X210107438Y-190021485D01*
X210190771Y-190116723D01*
X210369342Y-190211961D01*
X210750295Y-190211961D01*
X210952676Y-190116723D01*
X211059819Y-190021485D01*
X211178866Y-189831009D01*
X211226485Y-189450057D01*
X211155057Y-189259580D01*
X211071723Y-189164342D01*
X210893152Y-189069104D01*
X212083628Y-189450057D02*
X213607438Y-189450057D01*
X214381247Y-190116723D02*
X214655057Y-190211961D01*
X215131247Y-190211961D01*
X215333628Y-190116723D01*
X215440771Y-190021485D01*
X215559819Y-189831009D01*
X215583628Y-189640533D01*
X215512200Y-189450057D01*
X215428866Y-189354819D01*
X215250295Y-189259580D01*
X214881247Y-189164342D01*
X214702676Y-189069104D01*
X214619342Y-188973866D01*
X214547914Y-188783390D01*
X214571723Y-188592914D01*
X214690771Y-188402438D01*
X214797914Y-188307200D01*
X215000295Y-188211961D01*
X215476485Y-188211961D01*
X215750295Y-188307200D01*
X216500295Y-188402438D02*
X216607438Y-188307200D01*
X216809819Y-188211961D01*
X217286009Y-188211961D01*
X217464580Y-188307200D01*
X217547914Y-188402438D01*
X217619342Y-188592914D01*
X217595533Y-188783390D01*
X217464580Y-189069104D01*
X216178866Y-190211961D01*
X217416961Y-190211961D01*
X219964580Y-188878628D02*
X219714580Y-190878628D01*
X219952676Y-188973866D02*
X220155057Y-188878628D01*
X220536009Y-188878628D01*
X220714580Y-188973866D01*
X220797914Y-189069104D01*
X220869342Y-189259580D01*
X220797914Y-189831009D01*
X220678866Y-190021485D01*
X220571723Y-190116723D01*
X220369342Y-190211961D01*
X219988390Y-190211961D01*
X219809819Y-190116723D01*
X222464580Y-190211961D02*
X222595533Y-189164342D01*
X222524104Y-188973866D01*
X222345533Y-188878628D01*
X221964580Y-188878628D01*
X221762200Y-188973866D01*
X222476485Y-190116723D02*
X222274104Y-190211961D01*
X221797914Y-190211961D01*
X221619342Y-190116723D01*
X221547914Y-189926247D01*
X221571723Y-189735771D01*
X221690771Y-189545295D01*
X221893152Y-189450057D01*
X222369342Y-189450057D01*
X222571723Y-189354819D01*
X223416961Y-190211961D02*
X223583628Y-188878628D01*
X223536009Y-189259580D02*
X223655057Y-189069104D01*
X223762199Y-188973866D01*
X223964580Y-188878628D01*
X224155057Y-188878628D01*
X224536009Y-188878628D02*
X225297914Y-188878628D01*
X224905057Y-188211961D02*
X224690771Y-189926247D01*
X224762200Y-190116723D01*
X224940771Y-190211961D01*
X225131247Y-190211961D01*
X225797914Y-190211961D02*
X225964580Y-188878628D01*
X226047914Y-188211961D02*
X225940771Y-188307200D01*
X226024104Y-188402438D01*
X226131247Y-188307200D01*
X226047914Y-188211961D01*
X226024104Y-188402438D01*
X227607438Y-190211961D02*
X227738390Y-189164342D01*
X227666961Y-188973866D01*
X227488390Y-188878628D01*
X227107438Y-188878628D01*
X226905057Y-188973866D01*
X227619342Y-190116723D02*
X227416961Y-190211961D01*
X226940771Y-190211961D01*
X226762200Y-190116723D01*
X226690771Y-189926247D01*
X226714580Y-189735771D01*
X226833628Y-189545295D01*
X227036009Y-189450057D01*
X227512200Y-189450057D01*
X227714580Y-189354819D01*
X228845533Y-190211961D02*
X228666961Y-190116723D01*
X228595533Y-189926247D01*
X228809819Y-188211961D01*
X231131247Y-190211961D02*
X231381247Y-188211961D01*
X231262199Y-189164342D02*
X232405057Y-189164342D01*
X232274104Y-190211961D02*
X232524104Y-188211961D01*
X233202676Y-189640533D02*
X234155057Y-189640533D01*
X232940771Y-190211961D02*
X233857438Y-188211961D01*
X234274104Y-190211961D01*
X234905057Y-188211961D02*
X236047914Y-188211961D01*
X235226485Y-190211961D02*
X235476485Y-188211961D01*
X237869342Y-188878628D02*
X238631247Y-188878628D01*
X237988390Y-190211961D02*
X238202676Y-188497676D01*
X238321723Y-188307200D01*
X238524104Y-188211961D01*
X238714580Y-188211961D01*
X239416961Y-190211961D02*
X239238390Y-190116723D01*
X239155057Y-190021485D01*
X239083628Y-189831009D01*
X239155057Y-189259580D01*
X239274104Y-189069104D01*
X239381247Y-188973866D01*
X239583628Y-188878628D01*
X239869342Y-188878628D01*
X240047914Y-188973866D01*
X240131247Y-189069104D01*
X240202676Y-189259580D01*
X240131247Y-189831009D01*
X240012199Y-190021485D01*
X239905057Y-190116723D01*
X239702676Y-190211961D01*
X239416961Y-190211961D01*
X240940771Y-190211961D02*
X241107438Y-188878628D01*
X241059819Y-189259580D02*
X241178866Y-189069104D01*
X241286009Y-188973866D01*
X241488390Y-188878628D01*
X241678866Y-188878628D01*
X243869342Y-188878628D02*
X243619342Y-190878628D01*
X243857438Y-188973866D02*
X244059819Y-188878628D01*
X244440771Y-188878628D01*
X244619342Y-188973866D01*
X244702676Y-189069104D01*
X244774104Y-189259580D01*
X244702676Y-189831009D01*
X244583628Y-190021485D01*
X244476485Y-190116723D01*
X244274104Y-190211961D01*
X243893152Y-190211961D01*
X243714580Y-190116723D01*
X245512199Y-190211961D02*
X245678866Y-188878628D01*
X245762199Y-188211961D02*
X245655057Y-188307200D01*
X245738390Y-188402438D01*
X245845533Y-188307200D01*
X245762199Y-188211961D01*
X245738390Y-188402438D01*
X248047914Y-188211961D02*
X249381247Y-188211961D01*
X247797914Y-190211961D01*
X249131247Y-190211961D01*
X250666961Y-190116723D02*
X250464580Y-190211961D01*
X250083628Y-190211961D01*
X249905057Y-190116723D01*
X249833628Y-189926247D01*
X249928866Y-189164342D01*
X250047914Y-188973866D01*
X250250295Y-188878628D01*
X250631247Y-188878628D01*
X250809819Y-188973866D01*
X250881247Y-189164342D01*
X250857438Y-189354819D01*
X249881247Y-189545295D01*
X251607438Y-190211961D02*
X251774104Y-188878628D01*
X251726485Y-189259580D02*
X251845533Y-189069104D01*
X251952676Y-188973866D01*
X252155057Y-188878628D01*
X252345533Y-188878628D01*
X253131247Y-190211961D02*
X252952676Y-190116723D01*
X252869342Y-190021485D01*
X252797914Y-189831009D01*
X252869342Y-189259580D01*
X252988390Y-189069104D01*
X253095533Y-188973866D01*
X253297914Y-188878628D01*
X253583628Y-188878628D01*
X253762200Y-188973866D01*
X253845533Y-189069104D01*
X253916961Y-189259580D01*
X253845533Y-189831009D01*
X253726485Y-190021485D01*
X253619342Y-190116723D01*
X253416961Y-190211961D01*
X253131247Y-190211961D01*
D10*
D11*
X178934342Y-185600057D02*
X178434342Y-185600057D01*
X178434342Y-186385771D02*
X178434342Y-184885771D01*
X179148628Y-184885771D01*
X179720057Y-186385771D02*
X179720057Y-185385771D01*
X179720057Y-184885771D02*
X179648628Y-184957200D01*
X179720057Y-185028628D01*
X179791485Y-184957200D01*
X179720057Y-184885771D01*
X179720057Y-185028628D01*
X180648628Y-186385771D02*
X180505771Y-186314342D01*
X180434342Y-186171485D01*
X180434342Y-184885771D01*
X181791485Y-186314342D02*
X181648628Y-186385771D01*
X181362914Y-186385771D01*
X181220057Y-186314342D01*
X181148628Y-186171485D01*
X181148628Y-185600057D01*
X181220057Y-185457200D01*
X181362914Y-185385771D01*
X181648628Y-185385771D01*
X181791485Y-185457200D01*
X181862914Y-185600057D01*
X181862914Y-185742914D01*
X181148628Y-185885771D01*
X182505771Y-186242914D02*
X182577200Y-186314342D01*
X182505771Y-186385771D01*
X182434342Y-186314342D01*
X182505771Y-186242914D01*
X182505771Y-186385771D01*
X182505771Y-185457200D02*
X182577200Y-185528628D01*
X182505771Y-185600057D01*
X182434342Y-185528628D01*
X182505771Y-185457200D01*
X182505771Y-185600057D01*
X184362914Y-185385771D02*
X184362914Y-186885771D01*
X184362914Y-185457200D02*
X184505771Y-185385771D01*
X184791485Y-185385771D01*
X184934342Y-185457200D01*
X185005771Y-185528628D01*
X185077200Y-185671485D01*
X185077200Y-186100057D01*
X185005771Y-186242914D01*
X184934342Y-186314342D01*
X184791485Y-186385771D01*
X184505771Y-186385771D01*
X184362914Y-186314342D01*
X185720057Y-186385771D02*
X185720057Y-184885771D01*
X185720057Y-185600057D02*
X186577200Y-185600057D01*
X186577200Y-186385771D02*
X186577200Y-184885771D01*
X187220057Y-185957200D02*
X187934342Y-185957200D01*
X187077200Y-186385771D02*
X187577200Y-184885771D01*
X188077200Y-186385771D01*
X188362914Y-184885771D02*
X189220057Y-184885771D01*
X188791485Y-186385771D02*
X188791485Y-184885771D01*
X189362914Y-186528628D02*
X190505771Y-186528628D01*
X190862914Y-186385771D02*
X190862914Y-184885771D01*
X191434342Y-184885771D01*
X191577200Y-184957200D01*
X191648628Y-185028628D01*
X191720057Y-185171485D01*
X191720057Y-185385771D01*
X191648628Y-185528628D01*
X191577200Y-185600057D01*
X191434342Y-185671485D01*
X190862914Y-185671485D01*
X192291485Y-185957200D02*
X193005771Y-185957200D01*
X192148628Y-186385771D02*
X192648628Y-184885771D01*
X193148628Y-186385771D01*
X193577200Y-186314342D02*
X193791485Y-186385771D01*
X194148628Y-186385771D01*
X194291485Y-186314342D01*
X194362914Y-186242914D01*
X194434342Y-186100057D01*
X194434342Y-185957200D01*
X194362914Y-185814342D01*
X194291485Y-185742914D01*
X194148628Y-185671485D01*
X193862914Y-185600057D01*
X193720057Y-185528628D01*
X193648628Y-185457200D01*
X193577200Y-185314342D01*
X193577200Y-185171485D01*
X193648628Y-185028628D01*
X193720057Y-184957200D01*
X193862914Y-184885771D01*
X194220057Y-184885771D01*
X194434342Y-184957200D01*
X195005771Y-186314342D02*
X195220057Y-186385771D01*
X195577200Y-186385771D01*
X195720057Y-186314342D01*
X195791485Y-186242914D01*
X195862914Y-186100057D01*
X195862914Y-185957200D01*
X195791485Y-185814342D01*
X195720057Y-185742914D01*
X195577200Y-185671485D01*
X195291485Y-185600057D01*
X195148628Y-185528628D01*
X195077200Y-185457200D01*
X195005771Y-185314342D01*
X195005771Y-185171485D01*
X195077200Y-185028628D01*
X195148628Y-184957200D01*
X195291485Y-184885771D01*
X195648628Y-184885771D01*
X195862914Y-184957200D01*
X196505771Y-186385771D02*
X196505771Y-184885771D01*
X197005771Y-184885771D02*
X197505771Y-186385771D01*
X198005771Y-184885771D01*
X198505771Y-185600057D02*
X199005771Y-185600057D01*
X199220057Y-186385771D02*
X198505771Y-186385771D01*
X198505771Y-184885771D01*
X199220057Y-184885771D01*
X199505771Y-186528628D02*
X200648628Y-186528628D01*
X200791485Y-184885771D02*
X201648628Y-184885771D01*
X201220057Y-186385771D02*
X201220057Y-184885771D01*
X202077200Y-185957200D02*
X202791485Y-185957200D01*
X201934342Y-186385771D02*
X202434342Y-184885771D01*
X202934342Y-186385771D01*
X204220057Y-184957200D02*
X204077200Y-184885771D01*
X203862914Y-184885771D01*
X203648628Y-184957200D01*
X203505771Y-185100057D01*
X203434342Y-185242914D01*
X203362914Y-185528628D01*
X203362914Y-185742914D01*
X203434342Y-186028628D01*
X203505771Y-186171485D01*
X203648628Y-186314342D01*
X203862914Y-186385771D01*
X204005771Y-186385771D01*
X204220057Y-186314342D01*
X204291485Y-186242914D01*
X204291485Y-185742914D01*
X204005771Y-185742914D01*
X204934342Y-186242914D02*
X205005771Y-186314342D01*
X204934342Y-186385771D01*
X204862914Y-186314342D01*
X204934342Y-186242914D01*
X204934342Y-186385771D01*
X205648628Y-186385771D02*
X205648628Y-184885771D01*
X205791485Y-185814342D02*
X206220057Y-186385771D01*
X206220057Y-185385771D02*
X205648628Y-185957200D01*
X206862914Y-186385771D02*
X206862914Y-185385771D01*
X206862914Y-184885771D02*
X206791485Y-184957200D01*
X206862914Y-185028628D01*
X206934342Y-184957200D01*
X206862914Y-184885771D01*
X206862914Y-185028628D01*
X208220057Y-186314342D02*
X208077200Y-186385771D01*
X207791485Y-186385771D01*
X207648628Y-186314342D01*
X207577200Y-186242914D01*
X207505771Y-186100057D01*
X207505771Y-185671485D01*
X207577200Y-185528628D01*
X207648628Y-185457200D01*
X207791485Y-185385771D01*
X208077200Y-185385771D01*
X208220057Y-185457200D01*
X209505771Y-186385771D02*
X209505771Y-185600057D01*
X209434342Y-185457200D01*
X209291485Y-185385771D01*
X209005771Y-185385771D01*
X208862914Y-185457200D01*
X209505771Y-186314342D02*
X209362914Y-186385771D01*
X209005771Y-186385771D01*
X208862914Y-186314342D01*
X208791485Y-186171485D01*
X208791485Y-186028628D01*
X208862914Y-185885771D01*
X209005771Y-185814342D01*
X209362914Y-185814342D01*
X209505771Y-185742914D01*
X210862914Y-186385771D02*
X210862914Y-184885771D01*
X210862914Y-186314342D02*
X210720057Y-186385771D01*
X210434342Y-186385771D01*
X210291485Y-186314342D01*
X210220057Y-186242914D01*
X210148628Y-186100057D01*
X210148628Y-185671485D01*
X210220057Y-185528628D01*
X210291485Y-185457200D01*
X210434342Y-185385771D01*
X210720057Y-185385771D01*
X210862914Y-185457200D01*
X211220057Y-186528628D02*
X212362914Y-186528628D01*
X212720057Y-185385771D02*
X212720057Y-186885771D01*
X212720057Y-185457200D02*
X212862914Y-185385771D01*
X213148628Y-185385771D01*
X213291485Y-185457200D01*
X213362914Y-185528628D01*
X213434342Y-185671485D01*
X213434342Y-186100057D01*
X213362914Y-186242914D01*
X213291485Y-186314342D01*
X213148628Y-186385771D01*
X212862914Y-186385771D01*
X212720057Y-186314342D01*
X214720057Y-186314342D02*
X214577200Y-186385771D01*
X214291485Y-186385771D01*
X214148628Y-186314342D01*
X214077200Y-186242914D01*
X214005771Y-186100057D01*
X214005771Y-185671485D01*
X214077200Y-185528628D01*
X214148628Y-185457200D01*
X214291485Y-185385771D01*
X214577200Y-185385771D01*
X214720057Y-185457200D01*
X215362914Y-186385771D02*
X215362914Y-184885771D01*
X215362914Y-185457200D02*
X215505771Y-185385771D01*
X215791485Y-185385771D01*
X215934342Y-185457200D01*
X216005771Y-185528628D01*
X216077200Y-185671485D01*
X216077200Y-186100057D01*
X216005771Y-186242914D01*
X215934342Y-186314342D01*
X215791485Y-186385771D01*
X215505771Y-186385771D01*
X215362914Y-186314342D01*
D10*
D11*
X177002200Y-181507200D02*
X285002200Y-181507200D01*
D10*
D11*
X178362914Y-183614342D02*
X178577200Y-183685771D01*
X178934342Y-183685771D01*
X179077200Y-183614342D01*
X179148628Y-183542914D01*
X179220057Y-183400057D01*
X179220057Y-183257200D01*
X179148628Y-183114342D01*
X179077200Y-183042914D01*
X178934342Y-182971485D01*
X178648628Y-182900057D01*
X178505771Y-182828628D01*
X178434342Y-182757200D01*
X178362914Y-182614342D01*
X178362914Y-182471485D01*
X178434342Y-182328628D01*
X178505771Y-182257200D01*
X178648628Y-182185771D01*
X179005771Y-182185771D01*
X179220057Y-182257200D01*
X179862914Y-183685771D02*
X179862914Y-182185771D01*
X180505771Y-183685771D02*
X180505771Y-182900057D01*
X180434342Y-182757200D01*
X180291485Y-182685771D01*
X180077200Y-182685771D01*
X179934342Y-182757200D01*
X179862914Y-182828628D01*
X181791485Y-183614342D02*
X181648628Y-183685771D01*
X181362914Y-183685771D01*
X181220057Y-183614342D01*
X181148628Y-183471485D01*
X181148628Y-182900057D01*
X181220057Y-182757200D01*
X181362914Y-182685771D01*
X181648628Y-182685771D01*
X181791485Y-182757200D01*
X181862914Y-182900057D01*
X181862914Y-183042914D01*
X181148628Y-183185771D01*
X183077200Y-183614342D02*
X182934342Y-183685771D01*
X182648628Y-183685771D01*
X182505771Y-183614342D01*
X182434342Y-183471485D01*
X182434342Y-182900057D01*
X182505771Y-182757200D01*
X182648628Y-182685771D01*
X182934342Y-182685771D01*
X183077200Y-182757200D01*
X183148628Y-182900057D01*
X183148628Y-183042914D01*
X182434342Y-183185771D01*
X183577200Y-182685771D02*
X184148628Y-182685771D01*
X183791485Y-182185771D02*
X183791485Y-183471485D01*
X183862914Y-183614342D01*
X184005771Y-183685771D01*
X184148628Y-183685771D01*
X184648628Y-183542914D02*
X184720057Y-183614342D01*
X184648628Y-183685771D01*
X184577200Y-183614342D01*
X184648628Y-183542914D01*
X184648628Y-183685771D01*
X184648628Y-182757200D02*
X184720057Y-182828628D01*
X184648628Y-182900057D01*
X184577200Y-182828628D01*
X184648628Y-182757200D01*
X184648628Y-182900057D01*
D10*
D12*
X178554342Y-180685771D02*
X178554342Y-179185771D01*
X179054342Y-180257200D01*
X179554342Y-179185771D01*
X179554342Y-180685771D01*
X180268628Y-180685771D02*
X180268628Y-179185771D01*
X180768628Y-180257200D01*
X181268628Y-179185771D01*
X181268628Y-180685771D01*
X183125771Y-179900057D02*
X183625771Y-179900057D01*
X183840057Y-180685771D02*
X183125771Y-180685771D01*
X183125771Y-179185771D01*
X183840057Y-179185771D01*
X184697200Y-180685771D02*
X184554342Y-180614342D01*
X184482914Y-180471485D01*
X184482914Y-179185771D01*
X185840057Y-180614342D02*
X185697200Y-180685771D01*
X185411485Y-180685771D01*
X185268628Y-180614342D01*
X185197200Y-180471485D01*
X185197200Y-179900057D01*
X185268628Y-179757200D01*
X185411485Y-179685771D01*
X185697200Y-179685771D01*
X185840057Y-179757200D01*
X185911485Y-179900057D01*
X185911485Y-180042914D01*
X185197200Y-180185771D01*
X187197200Y-180614342D02*
X187054342Y-180685771D01*
X186768628Y-180685771D01*
X186625771Y-180614342D01*
X186554342Y-180542914D01*
X186482914Y-180400057D01*
X186482914Y-179971485D01*
X186554342Y-179828628D01*
X186625771Y-179757200D01*
X186768628Y-179685771D01*
X187054342Y-179685771D01*
X187197200Y-179757200D01*
X187625771Y-179685771D02*
X188197200Y-179685771D01*
X187840057Y-179185771D02*
X187840057Y-180471485D01*
X187911485Y-180614342D01*
X188054342Y-180685771D01*
X188197200Y-180685771D01*
X188697200Y-180685771D02*
X188697200Y-179685771D01*
X188697200Y-179971485D02*
X188768628Y-179828628D01*
X188840057Y-179757200D01*
X188982914Y-179685771D01*
X189125771Y-179685771D01*
X189840057Y-180685771D02*
X189697200Y-180614342D01*
X189625771Y-180542914D01*
X189554342Y-180400057D01*
X189554342Y-179971485D01*
X189625771Y-179828628D01*
X189697200Y-179757200D01*
X189840057Y-179685771D01*
X190054342Y-179685771D01*
X190197200Y-179757200D01*
X190268628Y-179828628D01*
X190340057Y-179971485D01*
X190340057Y-180400057D01*
X190268628Y-180542914D01*
X190197200Y-180614342D01*
X190054342Y-180685771D01*
X189840057Y-180685771D01*
X190982914Y-179685771D02*
X190982914Y-180685771D01*
X190982914Y-179828628D02*
X191054342Y-179757200D01*
X191197200Y-179685771D01*
X191411485Y-179685771D01*
X191554342Y-179757200D01*
X191625771Y-179900057D01*
X191625771Y-180685771D01*
X192340057Y-180685771D02*
X192340057Y-179685771D01*
X192340057Y-179185771D02*
X192268628Y-179257200D01*
X192340057Y-179328628D01*
X192411485Y-179257200D01*
X192340057Y-179185771D01*
X192340057Y-179328628D01*
X193697200Y-180614342D02*
X193554342Y-180685771D01*
X193268628Y-180685771D01*
X193125771Y-180614342D01*
X193054342Y-180542914D01*
X192982914Y-180400057D01*
X192982914Y-179971485D01*
X193054342Y-179828628D01*
X193125771Y-179757200D01*
X193268628Y-179685771D01*
X193554342Y-179685771D01*
X193697200Y-179757200D01*
X194268628Y-180614342D02*
X194411485Y-180685771D01*
X194697200Y-180685771D01*
X194840057Y-180614342D01*
X194911485Y-180471485D01*
X194911485Y-180400057D01*
X194840057Y-180257200D01*
X194697200Y-180185771D01*
X194482914Y-180185771D01*
X194340057Y-180114342D01*
X194268628Y-179971485D01*
X194268628Y-179900057D01*
X194340057Y-179757200D01*
X194482914Y-179685771D01*
X194697200Y-179685771D01*
X194840057Y-179757200D01*
D10*
D11*
X178434342Y-177685771D02*
X178434342Y-176185771D01*
X178934342Y-177257200D01*
X179434342Y-176185771D01*
X179434342Y-177685771D01*
X180148628Y-177685771D02*
X180148628Y-176185771D01*
X180648628Y-176185771D02*
X181505771Y-176185771D01*
X181077200Y-177685771D02*
X181077200Y-176185771D01*
X183862914Y-177685771D02*
X183148628Y-177685771D01*
X183148628Y-176185771D01*
X184362914Y-177685771D02*
X184362914Y-176685771D01*
X184362914Y-176185771D02*
X184291485Y-176257200D01*
X184362914Y-176328628D01*
X184434342Y-176257200D01*
X184362914Y-176185771D01*
X184362914Y-176328628D01*
X185720057Y-177614342D02*
X185577200Y-177685771D01*
X185291485Y-177685771D01*
X185148628Y-177614342D01*
X185077200Y-177542914D01*
X185005771Y-177400057D01*
X185005771Y-176971485D01*
X185077200Y-176828628D01*
X185148628Y-176757200D01*
X185291485Y-176685771D01*
X185577200Y-176685771D01*
X185720057Y-176757200D01*
X186934342Y-177614342D02*
X186791485Y-177685771D01*
X186505771Y-177685771D01*
X186362914Y-177614342D01*
X186291485Y-177471485D01*
X186291485Y-176900057D01*
X186362914Y-176757200D01*
X186505771Y-176685771D01*
X186791485Y-176685771D01*
X186934342Y-176757200D01*
X187005771Y-176900057D01*
X187005771Y-177042914D01*
X186291485Y-177185771D01*
X187648628Y-176685771D02*
X187648628Y-177685771D01*
X187648628Y-176828628D02*
X187720057Y-176757200D01*
X187862914Y-176685771D01*
X188077200Y-176685771D01*
X188220057Y-176757200D01*
X188291485Y-176900057D01*
X188291485Y-177685771D01*
X188934342Y-177614342D02*
X189077200Y-177685771D01*
X189362914Y-177685771D01*
X189505771Y-177614342D01*
X189577200Y-177471485D01*
X189577200Y-177400057D01*
X189505771Y-177257200D01*
X189362914Y-177185771D01*
X189148628Y-177185771D01*
X189005771Y-177114342D01*
X188934342Y-176971485D01*
X188934342Y-176900057D01*
X189005771Y-176757200D01*
X189148628Y-176685771D01*
X189362914Y-176685771D01*
X189505771Y-176757200D01*
X190791485Y-177614342D02*
X190648628Y-177685771D01*
X190362914Y-177685771D01*
X190220057Y-177614342D01*
X190148628Y-177471485D01*
X190148628Y-176900057D01*
X190220057Y-176757200D01*
X190362914Y-176685771D01*
X190648628Y-176685771D01*
X190791485Y-176757200D01*
X190862914Y-176900057D01*
X190862914Y-177042914D01*
X190148628Y-177185771D01*
X192148628Y-177685771D02*
X192148628Y-176185771D01*
X192148628Y-177614342D02*
X192005771Y-177685771D01*
X191720057Y-177685771D01*
X191577200Y-177614342D01*
X191505771Y-177542914D01*
X191434342Y-177400057D01*
X191434342Y-176971485D01*
X191505771Y-176828628D01*
X191577200Y-176757200D01*
X191720057Y-176685771D01*
X192005771Y-176685771D01*
X192148628Y-176757200D01*
X194291485Y-176185771D02*
X194577200Y-176185771D01*
X194720057Y-176257200D01*
X194862914Y-176400057D01*
X194934342Y-176685771D01*
X194934342Y-177185771D01*
X194862914Y-177471485D01*
X194720057Y-177614342D01*
X194577200Y-177685771D01*
X194291485Y-177685771D01*
X194148628Y-177614342D01*
X194005771Y-177471485D01*
X193934342Y-177185771D01*
X193934342Y-176685771D01*
X194005771Y-176400057D01*
X194148628Y-176257200D01*
X194291485Y-176185771D01*
X195577200Y-176685771D02*
X195577200Y-178185771D01*
X195577200Y-176757200D02*
X195720057Y-176685771D01*
X196005771Y-176685771D01*
X196148628Y-176757200D01*
X196220057Y-176828628D01*
X196291485Y-176971485D01*
X196291485Y-177400057D01*
X196220057Y-177542914D01*
X196148628Y-177614342D01*
X196005771Y-177685771D01*
X195720057Y-177685771D01*
X195577200Y-177614342D01*
X197505771Y-177614342D02*
X197362914Y-177685771D01*
X197077200Y-177685771D01*
X196934342Y-177614342D01*
X196862914Y-177471485D01*
X196862914Y-176900057D01*
X196934342Y-176757200D01*
X197077200Y-176685771D01*
X197362914Y-176685771D01*
X197505771Y-176757200D01*
X197577200Y-176900057D01*
X197577200Y-177042914D01*
X196862914Y-177185771D01*
X198220057Y-176685771D02*
X198220057Y-177685771D01*
X198220057Y-176828628D02*
X198291485Y-176757200D01*
X198434342Y-176685771D01*
X198648628Y-176685771D01*
X198791485Y-176757200D01*
X198862914Y-176900057D01*
X198862914Y-177685771D01*
X200648628Y-177614342D02*
X200862914Y-177685771D01*
X201220057Y-177685771D01*
X201362914Y-177614342D01*
X201434342Y-177542914D01*
X201505771Y-177400057D01*
X201505771Y-177257200D01*
X201434342Y-177114342D01*
X201362914Y-177042914D01*
X201220057Y-176971485D01*
X200934342Y-176900057D01*
X200791485Y-176828628D01*
X200720057Y-176757200D01*
X200648628Y-176614342D01*
X200648628Y-176471485D01*
X200720057Y-176328628D01*
X200791485Y-176257200D01*
X200934342Y-176185771D01*
X201291485Y-176185771D01*
X201505771Y-176257200D01*
X202362914Y-177685771D02*
X202220057Y-177614342D01*
X202148628Y-177542914D01*
X202077200Y-177400057D01*
X202077200Y-176971485D01*
X202148628Y-176828628D01*
X202220057Y-176757200D01*
X202362914Y-176685771D01*
X202577200Y-176685771D01*
X202720057Y-176757200D01*
X202791485Y-176828628D01*
X202862914Y-176971485D01*
X202862914Y-177400057D01*
X202791485Y-177542914D01*
X202720057Y-177614342D01*
X202577200Y-177685771D01*
X202362914Y-177685771D01*
X204148628Y-176685771D02*
X204148628Y-177685771D01*
X203505771Y-176685771D02*
X203505771Y-177471485D01*
X203577200Y-177614342D01*
X203720057Y-177685771D01*
X203934342Y-177685771D01*
X204077200Y-177614342D01*
X204148628Y-177542914D01*
X204862914Y-177685771D02*
X204862914Y-176685771D01*
X204862914Y-176971485D02*
X204934342Y-176828628D01*
X205005771Y-176757200D01*
X205148628Y-176685771D01*
X205291485Y-176685771D01*
X206434342Y-177614342D02*
X206291485Y-177685771D01*
X206005771Y-177685771D01*
X205862914Y-177614342D01*
X205791485Y-177542914D01*
X205720057Y-177400057D01*
X205720057Y-176971485D01*
X205791485Y-176828628D01*
X205862914Y-176757200D01*
X206005771Y-176685771D01*
X206291485Y-176685771D01*
X206434342Y-176757200D01*
X207648628Y-177614342D02*
X207505771Y-177685771D01*
X207220057Y-177685771D01*
X207077200Y-177614342D01*
X207005771Y-177471485D01*
X207005771Y-176900057D01*
X207077200Y-176757200D01*
X207220057Y-176685771D01*
X207505771Y-176685771D01*
X207648628Y-176757200D01*
X207720057Y-176900057D01*
X207720057Y-177042914D01*
X207005771Y-177185771D01*
X209505771Y-177685771D02*
X209505771Y-176185771D01*
X209505771Y-176900057D02*
X210362914Y-176900057D01*
X210362914Y-177685771D02*
X210362914Y-176185771D01*
X211720057Y-177685771D02*
X211720057Y-176900057D01*
X211648628Y-176757200D01*
X211505771Y-176685771D01*
X211220057Y-176685771D01*
X211077200Y-176757200D01*
X211720057Y-177614342D02*
X211577200Y-177685771D01*
X211220057Y-177685771D01*
X211077200Y-177614342D01*
X211005771Y-177471485D01*
X211005771Y-177328628D01*
X211077200Y-177185771D01*
X211220057Y-177114342D01*
X211577200Y-177114342D01*
X211720057Y-177042914D01*
X212434342Y-177685771D02*
X212434342Y-176685771D01*
X212434342Y-176971485D02*
X212505771Y-176828628D01*
X212577200Y-176757200D01*
X212720057Y-176685771D01*
X212862914Y-176685771D01*
X214005771Y-177685771D02*
X214005771Y-176185771D01*
X214005771Y-177614342D02*
X213862914Y-177685771D01*
X213577200Y-177685771D01*
X213434342Y-177614342D01*
X213362914Y-177542914D01*
X213291485Y-177400057D01*
X213291485Y-176971485D01*
X213362914Y-176828628D01*
X213434342Y-176757200D01*
X213577200Y-176685771D01*
X213862914Y-176685771D01*
X214005771Y-176757200D01*
X214577200Y-176685771D02*
X214862914Y-177685771D01*
X215148628Y-176971485D01*
X215434342Y-177685771D01*
X215720057Y-176685771D01*
X216934342Y-177685771D02*
X216934342Y-176900057D01*
X216862914Y-176757200D01*
X216720057Y-176685771D01*
X216434342Y-176685771D01*
X216291485Y-176757200D01*
X216934342Y-177614342D02*
X216791485Y-177685771D01*
X216434342Y-177685771D01*
X216291485Y-177614342D01*
X216220057Y-177471485D01*
X216220057Y-177328628D01*
X216291485Y-177185771D01*
X216434342Y-177114342D01*
X216791485Y-177114342D01*
X216934342Y-177042914D01*
X217648628Y-177685771D02*
X217648628Y-176685771D01*
X217648628Y-176971485D02*
X217720057Y-176828628D01*
X217791485Y-176757200D01*
X217934342Y-176685771D01*
X218077200Y-176685771D01*
X219148628Y-177614342D02*
X219005771Y-177685771D01*
X218720057Y-177685771D01*
X218577200Y-177614342D01*
X218505771Y-177471485D01*
X218505771Y-176900057D01*
X218577200Y-176757200D01*
X218720057Y-176685771D01*
X219005771Y-176685771D01*
X219148628Y-176757200D01*
X219220057Y-176900057D01*
X219220057Y-177042914D01*
X218505771Y-177185771D01*
D10*
D11*
X197002200Y-191507200D02*
X197002200Y-194507200D01*
D10*
D11*
X261002200Y-191507200D02*
X261002200Y-198007200D01*
D14*
X36205333Y-54560666D02*
X36172000Y-54627333D01*
X36172000Y-54760666D01*
X36205333Y-54827333D01*
X36272000Y-54894000D01*
X36338666Y-54927333D01*
X36472000Y-54927333D01*
X36538666Y-54894000D01*
X36605333Y-54827333D01*
X36638666Y-54760666D01*
X36638666Y-54627333D01*
X36605333Y-54560666D01*
X35938666Y-54694000D02*
X35972000Y-54860666D01*
X36072000Y-55027333D01*
X36238666Y-55127333D01*
X36405333Y-55160666D01*
X36572000Y-55127333D01*
X36738666Y-55027333D01*
X36838666Y-54860666D01*
X36872000Y-54694000D01*
X36838666Y-54527333D01*
X36738666Y-54360666D01*
X36572000Y-54260666D01*
X36405333Y-54227333D01*
X36238666Y-54260666D01*
X36072000Y-54360666D01*
X35972000Y-54527333D01*
X35938666Y-54694000D01*
X36105333Y-53427333D02*
X36072000Y-53394000D01*
X36038666Y-53327333D01*
X36038666Y-53160666D01*
X36072000Y-53094000D01*
X36105333Y-53060666D01*
X36172000Y-53027333D01*
X36238666Y-53027333D01*
X36338666Y-53060666D01*
X36738666Y-53460666D01*
X36738666Y-53027333D01*
X36038666Y-52594000D02*
X36038666Y-52527333D01*
X36072000Y-52460666D01*
X36105333Y-52427333D01*
X36172000Y-52394000D01*
X36305333Y-52360666D01*
X36472000Y-52360666D01*
X36605333Y-52394000D01*
X36672000Y-52427333D01*
X36705333Y-52460666D01*
X36738666Y-52527333D01*
X36738666Y-52594000D01*
X36705333Y-52660666D01*
X36672000Y-52694000D01*
X36605333Y-52727333D01*
X36472000Y-52760666D01*
X36305333Y-52760666D01*
X36172000Y-52727333D01*
X36105333Y-52694000D01*
X36072000Y-52660666D01*
X36038666Y-52594000D01*
X36105333Y-52094000D02*
X36072000Y-52060666D01*
X36038666Y-51994000D01*
X36038666Y-51827333D01*
X36072000Y-51760666D01*
X36105333Y-51727333D01*
X36172000Y-51694000D01*
X36238666Y-51694000D01*
X36338666Y-51727333D01*
X36738666Y-52127333D01*
X36738666Y-51694000D01*
X36738666Y-51027333D02*
X36738666Y-51427333D01*
X36738666Y-51227333D02*
X36038666Y-51227333D01*
X36138666Y-51294000D01*
X36205333Y-51360666D01*
X36238666Y-51427333D01*
X36738666Y-50194000D02*
X36038666Y-50194000D01*
X36038666Y-49927333D01*
X36072000Y-49860666D01*
X36105333Y-49827333D01*
X36172000Y-49794000D01*
X36272000Y-49794000D01*
X36338666Y-49827333D01*
X36372000Y-49860666D01*
X36405333Y-49927333D01*
X36405333Y-50194000D01*
X36738666Y-49160666D02*
X36738666Y-49494000D01*
X36038666Y-49494000D01*
X36038666Y-48794000D02*
X36038666Y-48660666D01*
X36072000Y-48594000D01*
X36138666Y-48527333D01*
X36272000Y-48494000D01*
X36505333Y-48494000D01*
X36638666Y-48527333D01*
X36705333Y-48594000D01*
X36738666Y-48660666D01*
X36738666Y-48794000D01*
X36705333Y-48860666D01*
X36638666Y-48927333D01*
X36505333Y-48960666D01*
X36272000Y-48960666D01*
X36138666Y-48927333D01*
X36072000Y-48860666D01*
X36038666Y-48794000D01*
X36038666Y-48294000D02*
X36038666Y-47894000D01*
X36738666Y-48094000D02*
X36038666Y-48094000D01*
X36705333Y-47694000D02*
X36738666Y-47594000D01*
X36738666Y-47427333D01*
X36705333Y-47360666D01*
X36672000Y-47327333D01*
X36605333Y-47294000D01*
X36538666Y-47294000D01*
X36472000Y-47327333D01*
X36438666Y-47360666D01*
X36405333Y-47427333D01*
X36372000Y-47560666D01*
X36338666Y-47627333D01*
X36305333Y-47660666D01*
X36238666Y-47694000D01*
X36172000Y-47694000D01*
X36105333Y-47660666D01*
X36072000Y-47627333D01*
X36038666Y-47560666D01*
X36038666Y-47394000D01*
X36072000Y-47294000D01*
X36372000Y-46994000D02*
X36372000Y-46760666D01*
X36738666Y-46660666D02*
X36738666Y-46994000D01*
X36038666Y-46994000D01*
X36038666Y-46660666D01*
X36738666Y-46360666D02*
X36038666Y-46360666D01*
X36738666Y-45960666D01*
X36038666Y-45960666D01*
X36705333Y-45660666D02*
X36738666Y-45560666D01*
X36738666Y-45394000D01*
X36705333Y-45327333D01*
X36672000Y-45294000D01*
X36605333Y-45260666D01*
X36538666Y-45260666D01*
X36472000Y-45294000D01*
X36438666Y-45327333D01*
X36405333Y-45394000D01*
X36372000Y-45527333D01*
X36338666Y-45594000D01*
X36305333Y-45627333D01*
X36238666Y-45660666D01*
X36172000Y-45660666D01*
X36105333Y-45627333D01*
X36072000Y-45594000D01*
X36038666Y-45527333D01*
X36038666Y-45360666D01*
X36072000Y-45260666D01*
X36038666Y-44827333D02*
X36038666Y-44694000D01*
X36072000Y-44627333D01*
X36138666Y-44560666D01*
X36272000Y-44527333D01*
X36505333Y-44527333D01*
X36638666Y-44560666D01*
X36705333Y-44627333D01*
X36738666Y-44694000D01*
X36738666Y-44827333D01*
X36705333Y-44894000D01*
X36638666Y-44960666D01*
X36505333Y-44994000D01*
X36272000Y-44994000D01*
X36138666Y-44960666D01*
X36072000Y-44894000D01*
X36038666Y-44827333D01*
X36738666Y-43827333D02*
X36405333Y-44060666D01*
X36738666Y-44227333D02*
X36038666Y-44227333D01*
X36038666Y-43960666D01*
X36072000Y-43894000D01*
X36105333Y-43860666D01*
X36172000Y-43827333D01*
X36272000Y-43827333D01*
X36338666Y-43860666D01*
X36372000Y-43894000D01*
X36405333Y-43960666D01*
X36405333Y-44227333D01*
X36738666Y-42660666D02*
X36738666Y-42994000D01*
X36038666Y-42994000D01*
X36038666Y-42527333D02*
X36038666Y-42127333D01*
X36738666Y-42327333D02*
X36038666Y-42327333D01*
X36738666Y-41894000D02*
X36038666Y-41894000D01*
X36038666Y-41727333D01*
X36072000Y-41627333D01*
X36138666Y-41560666D01*
X36205333Y-41527333D01*
X36338666Y-41494000D01*
X36438666Y-41494000D01*
X36572000Y-41527333D01*
X36638666Y-41560666D01*
X36705333Y-41627333D01*
X36738666Y-41727333D01*
X36738666Y-41894000D01*
X36672000Y-41194000D02*
X36705333Y-41160666D01*
X36738666Y-41194000D01*
X36705333Y-41227333D01*
X36672000Y-41194000D01*
X36738666Y-41194000D01*
X37908666Y-54794000D02*
X37908666Y-55127333D01*
X37208666Y-55127333D01*
X37908666Y-54560666D02*
X37208666Y-54560666D01*
X37842000Y-53827333D02*
X37875333Y-53860666D01*
X37908666Y-53960666D01*
X37908666Y-54027333D01*
X37875333Y-54127333D01*
X37808666Y-54194000D01*
X37742000Y-54227333D01*
X37608666Y-54260666D01*
X37508666Y-54260666D01*
X37375333Y-54227333D01*
X37308666Y-54194000D01*
X37242000Y-54127333D01*
X37208666Y-54027333D01*
X37208666Y-53960666D01*
X37242000Y-53860666D01*
X37275333Y-53827333D01*
X37542000Y-53527333D02*
X37542000Y-53294000D01*
X37908666Y-53194000D02*
X37908666Y-53527333D01*
X37208666Y-53527333D01*
X37208666Y-53194000D01*
X37908666Y-52894000D02*
X37208666Y-52894000D01*
X37908666Y-52494000D01*
X37208666Y-52494000D01*
X37842000Y-51760666D02*
X37875333Y-51794000D01*
X37908666Y-51894000D01*
X37908666Y-51960666D01*
X37875333Y-52060666D01*
X37808666Y-52127333D01*
X37742000Y-52160666D01*
X37608666Y-52194000D01*
X37508666Y-52194000D01*
X37375333Y-52160666D01*
X37308666Y-52127333D01*
X37242000Y-52060666D01*
X37208666Y-51960666D01*
X37208666Y-51894000D01*
X37242000Y-51794000D01*
X37275333Y-51760666D01*
X37542000Y-51460666D02*
X37542000Y-51227333D01*
X37908666Y-51127333D02*
X37908666Y-51460666D01*
X37208666Y-51460666D01*
X37208666Y-51127333D01*
X37908666Y-50827333D02*
X37208666Y-50827333D01*
X37208666Y-50660666D01*
X37242000Y-50560666D01*
X37308666Y-50494000D01*
X37375333Y-50460666D01*
X37508666Y-50427333D01*
X37608666Y-50427333D01*
X37742000Y-50460666D01*
X37808666Y-50494000D01*
X37875333Y-50560666D01*
X37908666Y-50660666D01*
X37908666Y-50827333D01*
X37208666Y-49594000D02*
X37775333Y-49594000D01*
X37842000Y-49560666D01*
X37875333Y-49527333D01*
X37908666Y-49460666D01*
X37908666Y-49327333D01*
X37875333Y-49260666D01*
X37842000Y-49227333D01*
X37775333Y-49194000D01*
X37208666Y-49194000D01*
X37908666Y-48860666D02*
X37208666Y-48860666D01*
X37908666Y-48460666D01*
X37208666Y-48460666D01*
X37908666Y-48127333D02*
X37208666Y-48127333D01*
X37208666Y-47960666D01*
X37242000Y-47860666D01*
X37308666Y-47794000D01*
X37375333Y-47760666D01*
X37508666Y-47727333D01*
X37608666Y-47727333D01*
X37742000Y-47760666D01*
X37808666Y-47794000D01*
X37875333Y-47860666D01*
X37908666Y-47960666D01*
X37908666Y-48127333D01*
X37542000Y-47427333D02*
X37542000Y-47194000D01*
X37908666Y-47094000D02*
X37908666Y-47427333D01*
X37208666Y-47427333D01*
X37208666Y-47094000D01*
X37908666Y-46394000D02*
X37575333Y-46627333D01*
X37908666Y-46794000D02*
X37208666Y-46794000D01*
X37208666Y-46527333D01*
X37242000Y-46460666D01*
X37275333Y-46427333D01*
X37342000Y-46394000D01*
X37442000Y-46394000D01*
X37508666Y-46427333D01*
X37542000Y-46460666D01*
X37575333Y-46527333D01*
X37575333Y-46794000D01*
X39012000Y-54727333D02*
X39045333Y-54760666D01*
X39078666Y-54860666D01*
X39078666Y-54927333D01*
X39045333Y-55027333D01*
X38978666Y-55094000D01*
X38912000Y-55127333D01*
X38778666Y-55160666D01*
X38678666Y-55160666D01*
X38545333Y-55127333D01*
X38478666Y-55094000D01*
X38412000Y-55027333D01*
X38378666Y-54927333D01*
X38378666Y-54860666D01*
X38412000Y-54760666D01*
X38445333Y-54727333D01*
X38712000Y-54427333D02*
X38712000Y-54194000D01*
X39078666Y-54094000D02*
X39078666Y-54427333D01*
X38378666Y-54427333D01*
X38378666Y-54094000D01*
X39078666Y-53394000D02*
X38745333Y-53627333D01*
X39078666Y-53794000D02*
X38378666Y-53794000D01*
X38378666Y-53527333D01*
X38412000Y-53460666D01*
X38445333Y-53427333D01*
X38512000Y-53394000D01*
X38612000Y-53394000D01*
X38678666Y-53427333D01*
X38712000Y-53460666D01*
X38745333Y-53527333D01*
X38745333Y-53794000D01*
X39078666Y-53094000D02*
X38378666Y-53094000D01*
X39078666Y-52694000D01*
X38378666Y-52694000D01*
X38812000Y-52360666D02*
X38812000Y-51827333D01*
X38378666Y-51360666D02*
X38378666Y-51227333D01*
X38412000Y-51160666D01*
X38478666Y-51094000D01*
X38612000Y-51060666D01*
X38845333Y-51060666D01*
X38978666Y-51094000D01*
X39045333Y-51160666D01*
X39078666Y-51227333D01*
X39078666Y-51360666D01*
X39045333Y-51427333D01*
X38978666Y-51494000D01*
X38845333Y-51527333D01*
X38612000Y-51527333D01*
X38478666Y-51494000D01*
X38412000Y-51427333D01*
X38378666Y-51360666D01*
X39078666Y-50760666D02*
X38378666Y-50760666D01*
X38712000Y-50760666D02*
X38712000Y-50360666D01*
X39078666Y-50360666D02*
X38378666Y-50360666D01*
X39078666Y-49694000D02*
X39078666Y-50027333D01*
X38378666Y-50027333D01*
X38812000Y-49460666D02*
X38812000Y-48927333D01*
X39045333Y-48627333D02*
X39078666Y-48527333D01*
X39078666Y-48360666D01*
X39045333Y-48294000D01*
X39012000Y-48260666D01*
X38945333Y-48227333D01*
X38878666Y-48227333D01*
X38812000Y-48260666D01*
X38778666Y-48294000D01*
X38745333Y-48360666D01*
X38712000Y-48494000D01*
X38678666Y-48560666D01*
X38645333Y-48594000D01*
X38578666Y-48627333D01*
X38512000Y-48627333D01*
X38445333Y-48594000D01*
X38412000Y-48560666D01*
X38378666Y-48494000D01*
X38378666Y-48327333D01*
X38412000Y-48227333D01*
X38612000Y-47460666D02*
X39078666Y-47294000D01*
X38612000Y-47127333D01*
X38445333Y-46894000D02*
X38412000Y-46860666D01*
X38378666Y-46794000D01*
X38378666Y-46627333D01*
X38412000Y-46560666D01*
X38445333Y-46527333D01*
X38512000Y-46494000D01*
X38578666Y-46494000D01*
X38678666Y-46527333D01*
X39078666Y-46927333D01*
X39078666Y-46494000D01*
X38378666Y-45527333D02*
X38378666Y-45394000D01*
X38412000Y-45327333D01*
X38478666Y-45260666D01*
X38612000Y-45227333D01*
X38845333Y-45227333D01*
X38978666Y-45260666D01*
X39045333Y-45327333D01*
X39078666Y-45394000D01*
X39078666Y-45527333D01*
X39045333Y-45594000D01*
X38978666Y-45660666D01*
X38845333Y-45694000D01*
X38612000Y-45694000D01*
X38478666Y-45660666D01*
X38412000Y-45594000D01*
X38378666Y-45527333D01*
X39078666Y-44527333D02*
X38745333Y-44760666D01*
X39078666Y-44927333D02*
X38378666Y-44927333D01*
X38378666Y-44660666D01*
X38412000Y-44594000D01*
X38445333Y-44560666D01*
X38512000Y-44527333D01*
X38612000Y-44527333D01*
X38678666Y-44560666D01*
X38712000Y-44594000D01*
X38745333Y-44660666D01*
X38745333Y-44927333D01*
X39078666Y-43360666D02*
X39078666Y-43694000D01*
X38378666Y-43694000D01*
X38878666Y-43160666D02*
X38878666Y-42827333D01*
X39078666Y-43227333D02*
X38378666Y-42994000D01*
X39078666Y-42760666D01*
X38378666Y-42627333D02*
X38378666Y-42227333D01*
X39078666Y-42427333D02*
X38378666Y-42427333D01*
X38712000Y-41994000D02*
X38712000Y-41760666D01*
X39078666Y-41660666D02*
X39078666Y-41994000D01*
X38378666Y-41994000D01*
X38378666Y-41660666D01*
X39078666Y-40960666D02*
X38745333Y-41194000D01*
X39078666Y-41360666D02*
X38378666Y-41360666D01*
X38378666Y-41094000D01*
X38412000Y-41027333D01*
X38445333Y-40994000D01*
X38512000Y-40960666D01*
X38612000Y-40960666D01*
X38678666Y-40994000D01*
X38712000Y-41027333D01*
X38745333Y-41094000D01*
X38745333Y-41360666D01*
X94141866Y-54727333D02*
X93808533Y-54960666D01*
X94141866Y-55127333D02*
X93441866Y-55127333D01*
X93441866Y-54860666D01*
X93475200Y-54794000D01*
X93508533Y-54760666D01*
X93575200Y-54727333D01*
X93675200Y-54727333D01*
X93741866Y-54760666D01*
X93775200Y-54794000D01*
X93808533Y-54860666D01*
X93808533Y-55127333D01*
X93775200Y-54427333D02*
X93775200Y-54194000D01*
X94141866Y-54094000D02*
X94141866Y-54427333D01*
X93441866Y-54427333D01*
X93441866Y-54094000D01*
X93441866Y-53894000D02*
X94141866Y-53660666D01*
X93441866Y-53427333D01*
X94141866Y-52827333D02*
X94141866Y-53227333D01*
X94141866Y-53027333D02*
X93441866Y-53027333D01*
X93541866Y-53094000D01*
X93608533Y-53160666D01*
X93641866Y-53227333D01*
X94141866Y-51627333D02*
X94141866Y-52027333D01*
X94141866Y-51827333D02*
X93441866Y-51827333D01*
X93541866Y-51894000D01*
X93608533Y-51960666D01*
X93641866Y-52027333D01*
X93441866Y-51194000D02*
X93441866Y-51127333D01*
X93475200Y-51060666D01*
X93508533Y-51027333D01*
X93575200Y-50994000D01*
X93708533Y-50960666D01*
X93875200Y-50960666D01*
X94008533Y-50994000D01*
X94075200Y-51027333D01*
X94108533Y-51060666D01*
X94141866Y-51127333D01*
X94141866Y-51194000D01*
X94108533Y-51260666D01*
X94075200Y-51294000D01*
X94008533Y-51327333D01*
X93875200Y-51360666D01*
X93708533Y-51360666D01*
X93575200Y-51327333D01*
X93508533Y-51294000D01*
X93475200Y-51260666D01*
X93441866Y-51194000D01*
X93408533Y-50160666D02*
X94308533Y-50760666D01*
X93508533Y-49960666D02*
X93475200Y-49927333D01*
X93441866Y-49860666D01*
X93441866Y-49694000D01*
X93475200Y-49627333D01*
X93508533Y-49594000D01*
X93575200Y-49560666D01*
X93641866Y-49560666D01*
X93741866Y-49594000D01*
X94141866Y-49994000D01*
X94141866Y-49560666D01*
X94141866Y-48894000D02*
X94141866Y-49294000D01*
X94141866Y-49094000D02*
X93441866Y-49094000D01*
X93541866Y-49160666D01*
X93608533Y-49227333D01*
X93641866Y-49294000D01*
X95311866Y-55127333D02*
X94611866Y-55127333D01*
X94945200Y-55127333D02*
X94945200Y-54727333D01*
X95311866Y-54727333D02*
X94611866Y-54727333D01*
X94611866Y-54494000D02*
X94611866Y-54094000D01*
X95311866Y-54294000D02*
X94611866Y-54294000D01*
X94611866Y-53960666D02*
X94611866Y-53560666D01*
X95311866Y-53760666D02*
X94611866Y-53760666D01*
X95311866Y-53327333D02*
X94611866Y-53327333D01*
X94611866Y-53060666D01*
X94645200Y-52994000D01*
X94678533Y-52960666D01*
X94745200Y-52927333D01*
X94845200Y-52927333D01*
X94911866Y-52960666D01*
X94945200Y-52994000D01*
X94978533Y-53060666D01*
X94978533Y-53327333D01*
X95278533Y-52660666D02*
X95311866Y-52560666D01*
X95311866Y-52394000D01*
X95278533Y-52327333D01*
X95245200Y-52294000D01*
X95178533Y-52260666D01*
X95111866Y-52260666D01*
X95045200Y-52294000D01*
X95011866Y-52327333D01*
X94978533Y-52394000D01*
X94945200Y-52527333D01*
X94911866Y-52594000D01*
X94878533Y-52627333D01*
X94811866Y-52660666D01*
X94745200Y-52660666D01*
X94678533Y-52627333D01*
X94645200Y-52594000D01*
X94611866Y-52527333D01*
X94611866Y-52360666D01*
X94645200Y-52260666D01*
X95245200Y-51960666D02*
X95278533Y-51927333D01*
X95311866Y-51960666D01*
X95278533Y-51994000D01*
X95245200Y-51960666D01*
X95311866Y-51960666D01*
X94878533Y-51960666D02*
X94911866Y-51927333D01*
X94945200Y-51960666D01*
X94911866Y-51994000D01*
X94878533Y-51960666D01*
X94945200Y-51960666D01*
X94578533Y-51127333D02*
X95478533Y-51727333D01*
X94578533Y-50394000D02*
X95478533Y-50994000D01*
X94645200Y-49794000D02*
X94611866Y-49860666D01*
X94611866Y-49960666D01*
X94645200Y-50060666D01*
X94711866Y-50127333D01*
X94778533Y-50160666D01*
X94911866Y-50194000D01*
X95011866Y-50194000D01*
X95145200Y-50160666D01*
X95211866Y-50127333D01*
X95278533Y-50060666D01*
X95311866Y-49960666D01*
X95311866Y-49894000D01*
X95278533Y-49794000D01*
X95245200Y-49760666D01*
X95011866Y-49760666D01*
X95011866Y-49894000D01*
X95311866Y-49460666D02*
X94611866Y-49460666D01*
X94611866Y-49227333D02*
X94611866Y-48827333D01*
X95311866Y-49027333D02*
X94611866Y-49027333D01*
X95311866Y-48594000D02*
X94611866Y-48594000D01*
X94945200Y-48594000D02*
X94945200Y-48194000D01*
X95311866Y-48194000D02*
X94611866Y-48194000D01*
X94611866Y-47860666D02*
X95178533Y-47860666D01*
X95245200Y-47827333D01*
X95278533Y-47794000D01*
X95311866Y-47727333D01*
X95311866Y-47594000D01*
X95278533Y-47527333D01*
X95245200Y-47494000D01*
X95178533Y-47460666D01*
X94611866Y-47460666D01*
X94945200Y-46894000D02*
X94978533Y-46794000D01*
X95011866Y-46760666D01*
X95078533Y-46727333D01*
X95178533Y-46727333D01*
X95245200Y-46760666D01*
X95278533Y-46794000D01*
X95311866Y-46860666D01*
X95311866Y-47127333D01*
X94611866Y-47127333D01*
X94611866Y-46894000D01*
X94645200Y-46827333D01*
X94678533Y-46794000D01*
X94745200Y-46760666D01*
X94811866Y-46760666D01*
X94878533Y-46794000D01*
X94911866Y-46827333D01*
X94945200Y-46894000D01*
X94945200Y-47127333D01*
X95245200Y-46427333D02*
X95278533Y-46394000D01*
X95311866Y-46427333D01*
X95278533Y-46460666D01*
X95245200Y-46427333D01*
X95311866Y-46427333D01*
X95245200Y-45694000D02*
X95278533Y-45727333D01*
X95311866Y-45827333D01*
X95311866Y-45894000D01*
X95278533Y-45994000D01*
X95211866Y-46060666D01*
X95145200Y-46094000D01*
X95011866Y-46127333D01*
X94911866Y-46127333D01*
X94778533Y-46094000D01*
X94711866Y-46060666D01*
X94645200Y-45994000D01*
X94611866Y-45894000D01*
X94611866Y-45827333D01*
X94645200Y-45727333D01*
X94678533Y-45694000D01*
X94611866Y-45260666D02*
X94611866Y-45127333D01*
X94645200Y-45060666D01*
X94711866Y-44994000D01*
X94845200Y-44960666D01*
X95078533Y-44960666D01*
X95211866Y-44994000D01*
X95278533Y-45060666D01*
X95311866Y-45127333D01*
X95311866Y-45260666D01*
X95278533Y-45327333D01*
X95211866Y-45394000D01*
X95078533Y-45427333D01*
X94845200Y-45427333D01*
X94711866Y-45394000D01*
X94645200Y-45327333D01*
X94611866Y-45260666D01*
X95311866Y-44660666D02*
X94611866Y-44660666D01*
X95111866Y-44427333D01*
X94611866Y-44194000D01*
X95311866Y-44194000D01*
X94578533Y-43360666D02*
X95478533Y-43960666D01*
X96481866Y-55127333D02*
X95781866Y-55127333D01*
X96281866Y-54894000D01*
X95781866Y-54660666D01*
X96481866Y-54660666D01*
X96281866Y-54360666D02*
X96281866Y-54027333D01*
X96481866Y-54427333D02*
X95781866Y-54194000D01*
X96481866Y-53960666D01*
X96481866Y-53394000D02*
X96481866Y-53727333D01*
X95781866Y-53727333D01*
X96415200Y-52760666D02*
X96448533Y-52794000D01*
X96481866Y-52894000D01*
X96481866Y-52960666D01*
X96448533Y-53060666D01*
X96381866Y-53127333D01*
X96315200Y-53160666D01*
X96181866Y-53194000D01*
X96081866Y-53194000D01*
X95948533Y-53160666D01*
X95881866Y-53127333D01*
X95815200Y-53060666D01*
X95781866Y-52960666D01*
X95781866Y-52894000D01*
X95815200Y-52794000D01*
X95848533Y-52760666D01*
X95781866Y-52327333D02*
X95781866Y-52194000D01*
X95815200Y-52127333D01*
X95881866Y-52060666D01*
X96015200Y-52027333D01*
X96248533Y-52027333D01*
X96381866Y-52060666D01*
X96448533Y-52127333D01*
X96481866Y-52194000D01*
X96481866Y-52327333D01*
X96448533Y-52394000D01*
X96381866Y-52460666D01*
X96248533Y-52494000D01*
X96015200Y-52494000D01*
X95881866Y-52460666D01*
X95815200Y-52394000D01*
X95781866Y-52327333D01*
X96481866Y-51394000D02*
X96481866Y-51727333D01*
X95781866Y-51727333D01*
X96481866Y-51160666D02*
X95781866Y-51160666D01*
X96281866Y-50927333D01*
X95781866Y-50694000D01*
X96481866Y-50694000D01*
X96481866Y-50360666D02*
X95781866Y-50360666D01*
X96281866Y-50127333D01*
X95781866Y-49894000D01*
X96481866Y-49894000D01*
X96281866Y-49594000D02*
X96281866Y-49260666D01*
X96481866Y-49660666D02*
X95781866Y-49427333D01*
X96481866Y-49194000D01*
X96415200Y-48560666D02*
X96448533Y-48594000D01*
X96481866Y-48694000D01*
X96481866Y-48760666D01*
X96448533Y-48860666D01*
X96381866Y-48927333D01*
X96315200Y-48960666D01*
X96181866Y-48994000D01*
X96081866Y-48994000D01*
X95948533Y-48960666D01*
X95881866Y-48927333D01*
X95815200Y-48860666D01*
X95781866Y-48760666D01*
X95781866Y-48694000D01*
X95815200Y-48594000D01*
X95848533Y-48560666D01*
X96481866Y-48260666D02*
X95781866Y-48260666D01*
X96481866Y-47860666D02*
X96081866Y-48160666D01*
X95781866Y-47860666D02*
X96181866Y-48260666D01*
X96281866Y-47594000D02*
X96281866Y-47260666D01*
X96481866Y-47660666D02*
X95781866Y-47427333D01*
X96481866Y-47194000D01*
X96148533Y-46827333D02*
X96481866Y-46827333D01*
X95781866Y-47060666D02*
X96148533Y-46827333D01*
X95781866Y-46594000D01*
X95748533Y-45860666D02*
X96648533Y-46460666D01*
X97185200Y-55127333D02*
X97885200Y-55127333D01*
X97218533Y-55127333D02*
X97185200Y-55060666D01*
X97185200Y-54927333D01*
X97218533Y-54860666D01*
X97251866Y-54827333D01*
X97318533Y-54794000D01*
X97518533Y-54794000D01*
X97585200Y-54827333D01*
X97618533Y-54860666D01*
X97651866Y-54927333D01*
X97651866Y-55060666D01*
X97618533Y-55127333D01*
X97651866Y-54494000D02*
X96951866Y-54494000D01*
X97285200Y-54494000D02*
X97285200Y-54094000D01*
X97651866Y-54094000D02*
X96951866Y-54094000D01*
X97451866Y-53794000D02*
X97451866Y-53460666D01*
X97651866Y-53860666D02*
X96951866Y-53627333D01*
X97651866Y-53394000D01*
X96951866Y-53260666D02*
X96951866Y-52860666D01*
X97651866Y-53060666D02*
X96951866Y-53060666D01*
X97718533Y-52794000D02*
X97718533Y-52260666D01*
X97651866Y-52094000D02*
X96951866Y-52094000D01*
X96951866Y-51827333D01*
X96985200Y-51760666D01*
X97018533Y-51727333D01*
X97085200Y-51694000D01*
X97185200Y-51694000D01*
X97251866Y-51727333D01*
X97285200Y-51760666D01*
X97318533Y-51827333D01*
X97318533Y-52094000D01*
X97451866Y-51427333D02*
X97451866Y-51094000D01*
X97651866Y-51494000D02*
X96951866Y-51260666D01*
X97651866Y-51027333D01*
X97618533Y-50827333D02*
X97651866Y-50727333D01*
X97651866Y-50560666D01*
X97618533Y-50494000D01*
X97585200Y-50460666D01*
X97518533Y-50427333D01*
X97451866Y-50427333D01*
X97385200Y-50460666D01*
X97351866Y-50494000D01*
X97318533Y-50560666D01*
X97285200Y-50694000D01*
X97251866Y-50760666D01*
X97218533Y-50794000D01*
X97151866Y-50827333D01*
X97085200Y-50827333D01*
X97018533Y-50794000D01*
X96985200Y-50760666D01*
X96951866Y-50694000D01*
X96951866Y-50527333D01*
X96985200Y-50427333D01*
X97618533Y-50160666D02*
X97651866Y-50060666D01*
X97651866Y-49894000D01*
X97618533Y-49827333D01*
X97585200Y-49794000D01*
X97518533Y-49760666D01*
X97451866Y-49760666D01*
X97385200Y-49794000D01*
X97351866Y-49827333D01*
X97318533Y-49894000D01*
X97285200Y-50027333D01*
X97251866Y-50094000D01*
X97218533Y-50127333D01*
X97151866Y-50160666D01*
X97085200Y-50160666D01*
X97018533Y-50127333D01*
X96985200Y-50094000D01*
X96951866Y-50027333D01*
X96951866Y-49860666D01*
X96985200Y-49760666D01*
X97651866Y-49460666D02*
X96951866Y-49460666D01*
X96951866Y-49227333D02*
X97651866Y-48994000D01*
X96951866Y-48760666D01*
X97285200Y-48527333D02*
X97285200Y-48294000D01*
X97651866Y-48194000D02*
X97651866Y-48527333D01*
X96951866Y-48527333D01*
X96951866Y-48194000D01*
X97718533Y-48060666D02*
X97718533Y-47527333D01*
X96951866Y-47460666D02*
X96951866Y-47060666D01*
X97651866Y-47260666D02*
X96951866Y-47260666D01*
X97451866Y-46860666D02*
X97451866Y-46527333D01*
X97651866Y-46927333D02*
X96951866Y-46694000D01*
X97651866Y-46460666D01*
X96985200Y-45860666D02*
X96951866Y-45927333D01*
X96951866Y-46027333D01*
X96985200Y-46127333D01*
X97051866Y-46194000D01*
X97118533Y-46227333D01*
X97251866Y-46260666D01*
X97351866Y-46260666D01*
X97485200Y-46227333D01*
X97551866Y-46194000D01*
X97618533Y-46127333D01*
X97651866Y-46027333D01*
X97651866Y-45960666D01*
X97618533Y-45860666D01*
X97585200Y-45827333D01*
X97351866Y-45827333D01*
X97351866Y-45960666D01*
D11*
X65094904Y-58400904D02*
X64637761Y-58400904D01*
X64866333Y-58400904D02*
X64866333Y-57600904D01*
X64790142Y-57715190D01*
X64713952Y-57791380D01*
X64637761Y-57829476D01*
X65437761Y-58400904D02*
X65437761Y-57600904D01*
X65894904Y-58400904D02*
X65552047Y-57943761D01*
X65894904Y-57600904D02*
X65437761Y-58058047D01*
X66847285Y-58400904D02*
X66847285Y-57600904D01*
X67152047Y-57600904D01*
X67228238Y-57639000D01*
X67266333Y-57677095D01*
X67304428Y-57753285D01*
X67304428Y-57867571D01*
X67266333Y-57943761D01*
X67228238Y-57981857D01*
X67152047Y-58019952D01*
X66847285Y-58019952D01*
X67609190Y-58172333D02*
X67990142Y-58172333D01*
X67533000Y-58400904D02*
X67799666Y-57600904D01*
X68066333Y-58400904D01*
X68294904Y-58362809D02*
X68409190Y-58400904D01*
X68599666Y-58400904D01*
X68675857Y-58362809D01*
X68713952Y-58324714D01*
X68752047Y-58248523D01*
X68752047Y-58172333D01*
X68713952Y-58096142D01*
X68675857Y-58058047D01*
X68599666Y-58019952D01*
X68447285Y-57981857D01*
X68371095Y-57943761D01*
X68333000Y-57905666D01*
X68294904Y-57829476D01*
X68294904Y-57753285D01*
X68333000Y-57677095D01*
X68371095Y-57639000D01*
X68447285Y-57600904D01*
X68637761Y-57600904D01*
X68752047Y-57639000D01*
X69056809Y-58362809D02*
X69171095Y-58400904D01*
X69361571Y-58400904D01*
X69437761Y-58362809D01*
X69475857Y-58324714D01*
X69513952Y-58248523D01*
X69513952Y-58172333D01*
X69475857Y-58096142D01*
X69437761Y-58058047D01*
X69361571Y-58019952D01*
X69209190Y-57981857D01*
X69133000Y-57943761D01*
X69094904Y-57905666D01*
X69056809Y-57829476D01*
X69056809Y-57753285D01*
X69094904Y-57677095D01*
X69133000Y-57639000D01*
X69209190Y-57600904D01*
X69399666Y-57600904D01*
X69513952Y-57639000D01*
X69856809Y-58400904D02*
X69856809Y-57600904D01*
X70123476Y-57600904D02*
X70390142Y-58400904D01*
X70656809Y-57600904D01*
X70923476Y-57981857D02*
X71190142Y-57981857D01*
X71304428Y-58400904D02*
X70923476Y-58400904D01*
X70923476Y-57600904D01*
X71304428Y-57600904D01*
X72142523Y-57600904D02*
X72599666Y-57600904D01*
X72371095Y-58400904D02*
X72371095Y-57600904D01*
X72828238Y-58172333D02*
X73209190Y-58172333D01*
X72752047Y-58400904D02*
X73018714Y-57600904D01*
X73285380Y-58400904D01*
X73971095Y-57639000D02*
X73894904Y-57600904D01*
X73780619Y-57600904D01*
X73666333Y-57639000D01*
X73590142Y-57715190D01*
X73552047Y-57791380D01*
X73513952Y-57943761D01*
X73513952Y-58058047D01*
X73552047Y-58210428D01*
X73590142Y-58286619D01*
X73666333Y-58362809D01*
X73780619Y-58400904D01*
X73856809Y-58400904D01*
X73971095Y-58362809D01*
X74009190Y-58324714D01*
X74009190Y-58058047D01*
X73856809Y-58058047D01*
X74885380Y-57600904D02*
X75075857Y-58400904D01*
X75228238Y-57829476D01*
X75380619Y-58400904D01*
X75571095Y-57600904D01*
X75875857Y-58400904D02*
X75875857Y-57600904D01*
X76142523Y-57600904D02*
X76599666Y-57600904D01*
X76371095Y-58400904D02*
X76371095Y-57600904D01*
X76866333Y-58400904D02*
X76866333Y-57600904D01*
X76866333Y-57981857D02*
X77323476Y-57981857D01*
X77323476Y-58400904D02*
X77323476Y-57600904D01*
X78313952Y-58400904D02*
X78313952Y-57600904D01*
X78656809Y-57677095D02*
X78694904Y-57639000D01*
X78771095Y-57600904D01*
X78961571Y-57600904D01*
X79037761Y-57639000D01*
X79075857Y-57677095D01*
X79113952Y-57753285D01*
X79113952Y-57829476D01*
X79075857Y-57943761D01*
X78618714Y-58400904D01*
X79113952Y-58400904D01*
X79913952Y-58324714D02*
X79875857Y-58362809D01*
X79761571Y-58400904D01*
X79685380Y-58400904D01*
X79571095Y-58362809D01*
X79494904Y-58286619D01*
X79456809Y-58210428D01*
X79418714Y-58058047D01*
X79418714Y-57943761D01*
X79456809Y-57791380D01*
X79494904Y-57715190D01*
X79571095Y-57639000D01*
X79685380Y-57600904D01*
X79761571Y-57600904D01*
X79875857Y-57639000D01*
X79913952Y-57677095D01*
X80866333Y-58400904D02*
X80866333Y-57600904D01*
X81818714Y-57562809D02*
X81133000Y-58591380D01*
X82352047Y-57981857D02*
X82085380Y-57981857D01*
X82085380Y-58400904D02*
X82085380Y-57600904D01*
X82466333Y-57600904D01*
X71246998Y-54482999D02*
G75*
G02X71247000Y-49911000I1778002J2285999D01*
G01*
X71247000Y-53848000D02*
G75*
G02X71247000Y-50546000I1778000J1651000D01*
G01*
X71512032Y-53213000D02*
G75*
G02X71374001Y-51442355I1512968J1008646D01*
G01*
X75692002Y-49911001D02*
G75*
G02X75692000Y-54483000I-1778002J-2285999D01*
G01*
X72318714Y-52649380D02*
X72318714Y-51649380D01*
X72890142Y-52649380D01*
X72890142Y-51649380D01*
X73699666Y-52125571D02*
X73366333Y-52125571D01*
X73366333Y-52649380D02*
X73366333Y-51649380D01*
X73842523Y-51649380D01*
X74794904Y-52554142D02*
X74747285Y-52601761D01*
X74604428Y-52649380D01*
X74509190Y-52649380D01*
X74366333Y-52601761D01*
X74271095Y-52506523D01*
X74223476Y-52411285D01*
X74175857Y-52220809D01*
X74175857Y-52077952D01*
X74223476Y-51887476D01*
X74271095Y-51792238D01*
X74366333Y-51697000D01*
X74509190Y-51649380D01*
X74604428Y-51649380D01*
X74747285Y-51697000D01*
X74794904Y-51744619D01*
X75692000Y-50546000D02*
G75*
G02X75692000Y-53848000I-1778000J-1651000D01*
G01*
X75692000Y-51308000D02*
G75*
G02X75692000Y-53086000I-1778000J-889000D01*
G01*
D15*
%TO.C,LOGO1*%
G36*
X56910067Y-42146270D02*
G01*
X56966915Y-42447822D01*
X57386441Y-42620764D01*
X57638087Y-42449647D01*
X57708561Y-42402002D01*
X57772266Y-42359462D01*
X57826229Y-42323967D01*
X57867476Y-42297462D01*
X57893037Y-42281888D01*
X57899998Y-42278530D01*
X57912538Y-42287166D01*
X57939334Y-42311044D01*
X57977383Y-42347111D01*
X58023682Y-42392319D01*
X58075226Y-42443616D01*
X58129012Y-42497953D01*
X58182038Y-42552280D01*
X58231298Y-42603547D01*
X58273790Y-42648703D01*
X58306510Y-42684698D01*
X58326454Y-42708482D01*
X58331222Y-42716442D01*
X58324360Y-42731117D01*
X58305123Y-42763266D01*
X58275533Y-42809744D01*
X58237613Y-42867408D01*
X58193385Y-42933112D01*
X58167757Y-42970588D01*
X58121044Y-43039020D01*
X58079535Y-43100772D01*
X58045243Y-43152771D01*
X58020183Y-43191944D01*
X58006367Y-43215217D01*
X58004291Y-43220107D01*
X58008998Y-43234007D01*
X58021826Y-43266402D01*
X58040841Y-43312737D01*
X58064106Y-43368458D01*
X58089687Y-43429010D01*
X58115648Y-43489838D01*
X58140053Y-43546388D01*
X58160966Y-43594104D01*
X58176452Y-43628433D01*
X58184575Y-43644820D01*
X58185055Y-43645464D01*
X58197810Y-43648593D01*
X58231780Y-43655573D01*
X58283443Y-43665719D01*
X58349279Y-43678344D01*
X58425767Y-43692761D01*
X58470393Y-43701075D01*
X58552124Y-43716636D01*
X58625946Y-43731444D01*
X58688124Y-43744688D01*
X58734925Y-43755557D01*
X58762612Y-43763241D01*
X58768177Y-43765679D01*
X58773629Y-43782182D01*
X58778027Y-43819452D01*
X58781375Y-43873132D01*
X58783677Y-43938864D01*
X58784935Y-44012289D01*
X58785151Y-44089048D01*
X58784330Y-44164784D01*
X58782474Y-44235138D01*
X58779585Y-44295752D01*
X58775668Y-44342268D01*
X58770725Y-44370327D01*
X58767760Y-44376168D01*
X58750037Y-44383169D01*
X58712484Y-44393179D01*
X58660067Y-44405021D01*
X58597755Y-44417519D01*
X58576003Y-44421562D01*
X58471127Y-44440772D01*
X58388283Y-44456243D01*
X58324733Y-44468589D01*
X58277740Y-44478425D01*
X58244566Y-44486366D01*
X58222474Y-44493028D01*
X58208727Y-44499025D01*
X58200587Y-44504971D01*
X58199448Y-44506146D01*
X58188080Y-44525078D01*
X58170738Y-44561921D01*
X58149153Y-44612165D01*
X58125057Y-44671298D01*
X58100182Y-44734808D01*
X58076260Y-44798184D01*
X58055022Y-44856914D01*
X58038200Y-44906487D01*
X58027525Y-44942391D01*
X58024730Y-44960114D01*
X58024963Y-44960735D01*
X58034434Y-44975222D01*
X58055921Y-45007096D01*
X58087166Y-45053041D01*
X58125910Y-45109737D01*
X58169896Y-45173869D01*
X58182422Y-45192094D01*
X58227087Y-45258166D01*
X58266391Y-45318452D01*
X58298191Y-45369487D01*
X58320348Y-45407812D01*
X58330720Y-45429963D01*
X58331222Y-45432684D01*
X58322508Y-45446988D01*
X58298428Y-45475324D01*
X58262079Y-45514648D01*
X58216556Y-45561913D01*
X58164955Y-45614075D01*
X58110370Y-45668087D01*
X58055897Y-45720905D01*
X58004632Y-45769483D01*
X57959670Y-45810775D01*
X57924107Y-45841737D01*
X57901038Y-45859322D01*
X57894657Y-45862193D01*
X57879802Y-45855430D01*
X57849389Y-45837191D01*
X57808371Y-45810549D01*
X57776812Y-45789104D01*
X57719628Y-45749755D01*
X57651909Y-45703423D01*
X57583983Y-45657165D01*
X57547464Y-45632407D01*
X57423855Y-45548799D01*
X57320094Y-45604902D01*
X57272823Y-45629480D01*
X57232626Y-45648583D01*
X57205429Y-45659479D01*
X57198505Y-45660995D01*
X57190180Y-45649801D01*
X57173757Y-45618169D01*
X57150460Y-45569017D01*
X57121517Y-45505262D01*
X57088153Y-45429823D01*
X57051594Y-45345616D01*
X57013067Y-45255560D01*
X56973797Y-45162573D01*
X56935011Y-45069572D01*
X56897933Y-44979475D01*
X56863792Y-44895200D01*
X56833811Y-44819665D01*
X56809219Y-44755786D01*
X56791239Y-44706483D01*
X56781100Y-44674673D01*
X56779469Y-44663748D01*
X56792394Y-44649813D01*
X56820692Y-44627192D01*
X56858449Y-44600585D01*
X56861618Y-44598480D01*
X56959203Y-44520366D01*
X57037889Y-44429234D01*
X57096994Y-44327997D01*
X57135835Y-44219570D01*
X57153731Y-44106866D01*
X57150000Y-43992800D01*
X57123960Y-43880286D01*
X57074928Y-43772237D01*
X57060503Y-43748597D01*
X56985472Y-43653139D01*
X56896833Y-43576484D01*
X56797652Y-43519032D01*
X56690998Y-43481181D01*
X56579939Y-43463330D01*
X56467542Y-43465877D01*
X56356876Y-43489222D01*
X56251009Y-43533762D01*
X56153008Y-43599897D01*
X56122693Y-43626739D01*
X56045541Y-43710764D01*
X55989321Y-43799218D01*
X55950756Y-43898367D01*
X55929277Y-43996555D01*
X55923975Y-44106949D01*
X55941655Y-44217892D01*
X55980522Y-44325633D01*
X56038780Y-44426421D01*
X56114634Y-44516508D01*
X56206286Y-44592144D01*
X56218331Y-44600116D01*
X56256492Y-44626226D01*
X56285502Y-44648847D01*
X56299371Y-44663291D01*
X56299572Y-44663748D01*
X56296595Y-44679373D01*
X56284792Y-44714834D01*
X56265389Y-44767214D01*
X56239615Y-44833597D01*
X56208694Y-44911066D01*
X56173854Y-44996702D01*
X56136320Y-45087589D01*
X56097320Y-45180811D01*
X56058080Y-45273449D01*
X56019827Y-45362587D01*
X55983786Y-45445307D01*
X55951186Y-45518693D01*
X55923251Y-45579827D01*
X55901208Y-45625793D01*
X55886285Y-45653673D01*
X55880275Y-45660995D01*
X55861912Y-45655293D01*
X55827551Y-45640001D01*
X55783119Y-45617851D01*
X55758686Y-45604902D01*
X55654925Y-45548799D01*
X55531316Y-45632407D01*
X55468217Y-45675239D01*
X55399133Y-45722374D01*
X55334396Y-45766755D01*
X55301969Y-45789104D01*
X55256362Y-45819729D01*
X55217743Y-45843999D01*
X55191151Y-45858839D01*
X55182513Y-45861976D01*
X55169942Y-45853513D01*
X55142119Y-45829888D01*
X55101742Y-45793554D01*
X55051508Y-45746963D01*
X54994115Y-45692569D01*
X54957817Y-45657644D01*
X54894313Y-45595248D01*
X54839430Y-45539440D01*
X54795389Y-45492606D01*
X54764408Y-45457134D01*
X54748705Y-45435413D01*
X54747198Y-45431004D01*
X54754189Y-45414237D01*
X54773509Y-45380334D01*
X54803012Y-45332728D01*
X54840558Y-45274851D01*
X54884003Y-45210136D01*
X54896358Y-45192094D01*
X54941376Y-45126519D01*
X54981763Y-45067480D01*
X55015263Y-45018294D01*
X55039617Y-44982280D01*
X55052567Y-44962754D01*
X55053818Y-44960735D01*
X55051947Y-44945174D01*
X55042016Y-44910961D01*
X55025756Y-44862607D01*
X55004898Y-44804623D01*
X54981176Y-44741522D01*
X54956319Y-44677815D01*
X54932061Y-44618013D01*
X54910132Y-44566628D01*
X54892265Y-44528171D01*
X54880190Y-44507154D01*
X54879332Y-44506146D01*
X54871949Y-44500140D01*
X54859478Y-44494200D01*
X54839183Y-44487712D01*
X54808325Y-44480061D01*
X54764169Y-44470632D01*
X54703977Y-44458811D01*
X54625010Y-44443981D01*
X54524533Y-44425529D01*
X54502778Y-44421562D01*
X54438301Y-44409105D01*
X54382092Y-44396918D01*
X54339116Y-44386178D01*
X54314343Y-44378061D01*
X54311021Y-44376168D01*
X54305547Y-44359390D01*
X54301097Y-44321897D01*
X54297675Y-44268046D01*
X54295284Y-44202196D01*
X54293926Y-44128705D01*
X54293604Y-44051932D01*
X54294322Y-43976235D01*
X54296082Y-43905972D01*
X54298887Y-43845502D01*
X54302741Y-43799182D01*
X54307646Y-43771371D01*
X54310603Y-43765679D01*
X54327066Y-43759938D01*
X54364552Y-43750597D01*
X54419328Y-43738467D01*
X54487658Y-43724359D01*
X54565809Y-43709082D01*
X54608387Y-43701075D01*
X54689174Y-43685973D01*
X54761216Y-43672292D01*
X54820992Y-43660719D01*
X54864982Y-43651939D01*
X54889664Y-43646639D01*
X54893726Y-43645464D01*
X54900592Y-43632217D01*
X54915105Y-43600309D01*
X54935332Y-43554299D01*
X54959337Y-43498744D01*
X54985185Y-43438205D01*
X55010943Y-43377238D01*
X55034676Y-43320403D01*
X55054449Y-43272258D01*
X55068327Y-43237362D01*
X55074377Y-43220273D01*
X55074489Y-43219526D01*
X55067631Y-43206045D01*
X55048405Y-43175022D01*
X55018831Y-43129541D01*
X54980930Y-43072684D01*
X54936723Y-43007535D01*
X54911024Y-42970114D01*
X54864196Y-42901499D01*
X54822604Y-42839204D01*
X54788278Y-42786381D01*
X54763246Y-42746179D01*
X54749538Y-42721752D01*
X54747559Y-42716276D01*
X54756069Y-42703530D01*
X54779596Y-42676315D01*
X54815135Y-42637680D01*
X54859680Y-42590675D01*
X54910226Y-42538347D01*
X54963767Y-42483747D01*
X55017298Y-42429922D01*
X55067814Y-42379922D01*
X55112309Y-42336795D01*
X55147778Y-42303591D01*
X55171216Y-42283358D01*
X55179057Y-42278530D01*
X55191823Y-42285319D01*
X55222359Y-42304394D01*
X55267693Y-42333813D01*
X55324859Y-42371633D01*
X55390887Y-42415913D01*
X55440693Y-42449647D01*
X55692339Y-42620764D01*
X55902102Y-42534293D01*
X56111866Y-42447822D01*
X56168714Y-42146270D01*
X56225563Y-41844718D01*
X56853218Y-41844718D01*
X56910067Y-42146270D01*
G37*
X56910067Y-42146270D02*
X56966915Y-42447822D01*
X57386441Y-42620764D01*
X57638087Y-42449647D01*
X57708561Y-42402002D01*
X57772266Y-42359462D01*
X57826229Y-42323967D01*
X57867476Y-42297462D01*
X57893037Y-42281888D01*
X57899998Y-42278530D01*
X57912538Y-42287166D01*
X57939334Y-42311044D01*
X57977383Y-42347111D01*
X58023682Y-42392319D01*
X58075226Y-42443616D01*
X58129012Y-42497953D01*
X58182038Y-42552280D01*
X58231298Y-42603547D01*
X58273790Y-42648703D01*
X58306510Y-42684698D01*
X58326454Y-42708482D01*
X58331222Y-42716442D01*
X58324360Y-42731117D01*
X58305123Y-42763266D01*
X58275533Y-42809744D01*
X58237613Y-42867408D01*
X58193385Y-42933112D01*
X58167757Y-42970588D01*
X58121044Y-43039020D01*
X58079535Y-43100772D01*
X58045243Y-43152771D01*
X58020183Y-43191944D01*
X58006367Y-43215217D01*
X58004291Y-43220107D01*
X58008998Y-43234007D01*
X58021826Y-43266402D01*
X58040841Y-43312737D01*
X58064106Y-43368458D01*
X58089687Y-43429010D01*
X58115648Y-43489838D01*
X58140053Y-43546388D01*
X58160966Y-43594104D01*
X58176452Y-43628433D01*
X58184575Y-43644820D01*
X58185055Y-43645464D01*
X58197810Y-43648593D01*
X58231780Y-43655573D01*
X58283443Y-43665719D01*
X58349279Y-43678344D01*
X58425767Y-43692761D01*
X58470393Y-43701075D01*
X58552124Y-43716636D01*
X58625946Y-43731444D01*
X58688124Y-43744688D01*
X58734925Y-43755557D01*
X58762612Y-43763241D01*
X58768177Y-43765679D01*
X58773629Y-43782182D01*
X58778027Y-43819452D01*
X58781375Y-43873132D01*
X58783677Y-43938864D01*
X58784935Y-44012289D01*
X58785151Y-44089048D01*
X58784330Y-44164784D01*
X58782474Y-44235138D01*
X58779585Y-44295752D01*
X58775668Y-44342268D01*
X58770725Y-44370327D01*
X58767760Y-44376168D01*
X58750037Y-44383169D01*
X58712484Y-44393179D01*
X58660067Y-44405021D01*
X58597755Y-44417519D01*
X58576003Y-44421562D01*
X58471127Y-44440772D01*
X58388283Y-44456243D01*
X58324733Y-44468589D01*
X58277740Y-44478425D01*
X58244566Y-44486366D01*
X58222474Y-44493028D01*
X58208727Y-44499025D01*
X58200587Y-44504971D01*
X58199448Y-44506146D01*
X58188080Y-44525078D01*
X58170738Y-44561921D01*
X58149153Y-44612165D01*
X58125057Y-44671298D01*
X58100182Y-44734808D01*
X58076260Y-44798184D01*
X58055022Y-44856914D01*
X58038200Y-44906487D01*
X58027525Y-44942391D01*
X58024730Y-44960114D01*
X58024963Y-44960735D01*
X58034434Y-44975222D01*
X58055921Y-45007096D01*
X58087166Y-45053041D01*
X58125910Y-45109737D01*
X58169896Y-45173869D01*
X58182422Y-45192094D01*
X58227087Y-45258166D01*
X58266391Y-45318452D01*
X58298191Y-45369487D01*
X58320348Y-45407812D01*
X58330720Y-45429963D01*
X58331222Y-45432684D01*
X58322508Y-45446988D01*
X58298428Y-45475324D01*
X58262079Y-45514648D01*
X58216556Y-45561913D01*
X58164955Y-45614075D01*
X58110370Y-45668087D01*
X58055897Y-45720905D01*
X58004632Y-45769483D01*
X57959670Y-45810775D01*
X57924107Y-45841737D01*
X57901038Y-45859322D01*
X57894657Y-45862193D01*
X57879802Y-45855430D01*
X57849389Y-45837191D01*
X57808371Y-45810549D01*
X57776812Y-45789104D01*
X57719628Y-45749755D01*
X57651909Y-45703423D01*
X57583983Y-45657165D01*
X57547464Y-45632407D01*
X57423855Y-45548799D01*
X57320094Y-45604902D01*
X57272823Y-45629480D01*
X57232626Y-45648583D01*
X57205429Y-45659479D01*
X57198505Y-45660995D01*
X57190180Y-45649801D01*
X57173757Y-45618169D01*
X57150460Y-45569017D01*
X57121517Y-45505262D01*
X57088153Y-45429823D01*
X57051594Y-45345616D01*
X57013067Y-45255560D01*
X56973797Y-45162573D01*
X56935011Y-45069572D01*
X56897933Y-44979475D01*
X56863792Y-44895200D01*
X56833811Y-44819665D01*
X56809219Y-44755786D01*
X56791239Y-44706483D01*
X56781100Y-44674673D01*
X56779469Y-44663748D01*
X56792394Y-44649813D01*
X56820692Y-44627192D01*
X56858449Y-44600585D01*
X56861618Y-44598480D01*
X56959203Y-44520366D01*
X57037889Y-44429234D01*
X57096994Y-44327997D01*
X57135835Y-44219570D01*
X57153731Y-44106866D01*
X57150000Y-43992800D01*
X57123960Y-43880286D01*
X57074928Y-43772237D01*
X57060503Y-43748597D01*
X56985472Y-43653139D01*
X56896833Y-43576484D01*
X56797652Y-43519032D01*
X56690998Y-43481181D01*
X56579939Y-43463330D01*
X56467542Y-43465877D01*
X56356876Y-43489222D01*
X56251009Y-43533762D01*
X56153008Y-43599897D01*
X56122693Y-43626739D01*
X56045541Y-43710764D01*
X55989321Y-43799218D01*
X55950756Y-43898367D01*
X55929277Y-43996555D01*
X55923975Y-44106949D01*
X55941655Y-44217892D01*
X55980522Y-44325633D01*
X56038780Y-44426421D01*
X56114634Y-44516508D01*
X56206286Y-44592144D01*
X56218331Y-44600116D01*
X56256492Y-44626226D01*
X56285502Y-44648847D01*
X56299371Y-44663291D01*
X56299572Y-44663748D01*
X56296595Y-44679373D01*
X56284792Y-44714834D01*
X56265389Y-44767214D01*
X56239615Y-44833597D01*
X56208694Y-44911066D01*
X56173854Y-44996702D01*
X56136320Y-45087589D01*
X56097320Y-45180811D01*
X56058080Y-45273449D01*
X56019827Y-45362587D01*
X55983786Y-45445307D01*
X55951186Y-45518693D01*
X55923251Y-45579827D01*
X55901208Y-45625793D01*
X55886285Y-45653673D01*
X55880275Y-45660995D01*
X55861912Y-45655293D01*
X55827551Y-45640001D01*
X55783119Y-45617851D01*
X55758686Y-45604902D01*
X55654925Y-45548799D01*
X55531316Y-45632407D01*
X55468217Y-45675239D01*
X55399133Y-45722374D01*
X55334396Y-45766755D01*
X55301969Y-45789104D01*
X55256362Y-45819729D01*
X55217743Y-45843999D01*
X55191151Y-45858839D01*
X55182513Y-45861976D01*
X55169942Y-45853513D01*
X55142119Y-45829888D01*
X55101742Y-45793554D01*
X55051508Y-45746963D01*
X54994115Y-45692569D01*
X54957817Y-45657644D01*
X54894313Y-45595248D01*
X54839430Y-45539440D01*
X54795389Y-45492606D01*
X54764408Y-45457134D01*
X54748705Y-45435413D01*
X54747198Y-45431004D01*
X54754189Y-45414237D01*
X54773509Y-45380334D01*
X54803012Y-45332728D01*
X54840558Y-45274851D01*
X54884003Y-45210136D01*
X54896358Y-45192094D01*
X54941376Y-45126519D01*
X54981763Y-45067480D01*
X55015263Y-45018294D01*
X55039617Y-44982280D01*
X55052567Y-44962754D01*
X55053818Y-44960735D01*
X55051947Y-44945174D01*
X55042016Y-44910961D01*
X55025756Y-44862607D01*
X55004898Y-44804623D01*
X54981176Y-44741522D01*
X54956319Y-44677815D01*
X54932061Y-44618013D01*
X54910132Y-44566628D01*
X54892265Y-44528171D01*
X54880190Y-44507154D01*
X54879332Y-44506146D01*
X54871949Y-44500140D01*
X54859478Y-44494200D01*
X54839183Y-44487712D01*
X54808325Y-44480061D01*
X54764169Y-44470632D01*
X54703977Y-44458811D01*
X54625010Y-44443981D01*
X54524533Y-44425529D01*
X54502778Y-44421562D01*
X54438301Y-44409105D01*
X54382092Y-44396918D01*
X54339116Y-44386178D01*
X54314343Y-44378061D01*
X54311021Y-44376168D01*
X54305547Y-44359390D01*
X54301097Y-44321897D01*
X54297675Y-44268046D01*
X54295284Y-44202196D01*
X54293926Y-44128705D01*
X54293604Y-44051932D01*
X54294322Y-43976235D01*
X54296082Y-43905972D01*
X54298887Y-43845502D01*
X54302741Y-43799182D01*
X54307646Y-43771371D01*
X54310603Y-43765679D01*
X54327066Y-43759938D01*
X54364552Y-43750597D01*
X54419328Y-43738467D01*
X54487658Y-43724359D01*
X54565809Y-43709082D01*
X54608387Y-43701075D01*
X54689174Y-43685973D01*
X54761216Y-43672292D01*
X54820992Y-43660719D01*
X54864982Y-43651939D01*
X54889664Y-43646639D01*
X54893726Y-43645464D01*
X54900592Y-43632217D01*
X54915105Y-43600309D01*
X54935332Y-43554299D01*
X54959337Y-43498744D01*
X54985185Y-43438205D01*
X55010943Y-43377238D01*
X55034676Y-43320403D01*
X55054449Y-43272258D01*
X55068327Y-43237362D01*
X55074377Y-43220273D01*
X55074489Y-43219526D01*
X55067631Y-43206045D01*
X55048405Y-43175022D01*
X55018831Y-43129541D01*
X54980930Y-43072684D01*
X54936723Y-43007535D01*
X54911024Y-42970114D01*
X54864196Y-42901499D01*
X54822604Y-42839204D01*
X54788278Y-42786381D01*
X54763246Y-42746179D01*
X54749538Y-42721752D01*
X54747559Y-42716276D01*
X54756069Y-42703530D01*
X54779596Y-42676315D01*
X54815135Y-42637680D01*
X54859680Y-42590675D01*
X54910226Y-42538347D01*
X54963767Y-42483747D01*
X55017298Y-42429922D01*
X55067814Y-42379922D01*
X55112309Y-42336795D01*
X55147778Y-42303591D01*
X55171216Y-42283358D01*
X55179057Y-42278530D01*
X55191823Y-42285319D01*
X55222359Y-42304394D01*
X55267693Y-42333813D01*
X55324859Y-42371633D01*
X55390887Y-42415913D01*
X55440693Y-42449647D01*
X55692339Y-42620764D01*
X55902102Y-42534293D01*
X56111866Y-42447822D01*
X56168714Y-42146270D01*
X56225563Y-41844718D01*
X56853218Y-41844718D01*
X56910067Y-42146270D01*
D14*
%TO.C,R1*%
X51297621Y-42089800D02*
X51623179Y-42089800D01*
X51297621Y-41069800D02*
X51623179Y-41069800D01*
%TO.C,R3*%
X44096721Y-42089800D02*
X44422279Y-42089800D01*
X44096721Y-41069800D02*
X44422279Y-41069800D01*
%TO.C,R2*%
X48549779Y-41069800D02*
X48224221Y-41069800D01*
X48549779Y-42089800D02*
X48224221Y-42089800D01*
%TO.C,U1*%
X53614000Y-52070000D02*
X53614000Y-48620000D01*
X53614000Y-52070000D02*
X53614000Y-54020000D01*
X48494000Y-52070000D02*
X48494000Y-50120000D01*
X48494000Y-52070000D02*
X48494000Y-54020000D01*
%TO.C,C2*%
X56226000Y-51720000D02*
X56226000Y-52420000D01*
X55026000Y-52420000D02*
X55026000Y-51720000D01*
%TO.C,C1*%
X56804000Y-52420000D02*
X56804000Y-51720000D01*
X58004000Y-51720000D02*
X58004000Y-52420000D01*
%TO.C,C3*%
X50007000Y-57750000D02*
X49307000Y-57750000D01*
X49307000Y-56550000D02*
X50007000Y-56550000D01*
%TO.C,C4*%
X49307000Y-58582000D02*
X50007000Y-58582000D01*
X50007000Y-59782000D02*
X49307000Y-59782000D01*
%TO.C,J2*%
D11*
X42166666Y-39452380D02*
X42166666Y-40166666D01*
X42119047Y-40309523D01*
X42023809Y-40404761D01*
X41880952Y-40452380D01*
X41785714Y-40452380D01*
X42595238Y-39547619D02*
X42642857Y-39500000D01*
X42738095Y-39452380D01*
X42976190Y-39452380D01*
X43071428Y-39500000D01*
X43119047Y-39547619D01*
X43166666Y-39642857D01*
X43166666Y-39738095D01*
X43119047Y-39880952D01*
X42547619Y-40452380D01*
X43166666Y-40452380D01*
%TO.C,R1*%
X51293733Y-43632380D02*
X50960400Y-43156190D01*
X50722304Y-43632380D02*
X50722304Y-42632380D01*
X51103257Y-42632380D01*
X51198495Y-42680000D01*
X51246114Y-42727619D01*
X51293733Y-42822857D01*
X51293733Y-42965714D01*
X51246114Y-43060952D01*
X51198495Y-43108571D01*
X51103257Y-43156190D01*
X50722304Y-43156190D01*
X52246114Y-43632380D02*
X51674685Y-43632380D01*
X51960400Y-43632380D02*
X51960400Y-42632380D01*
X51865161Y-42775238D01*
X51769923Y-42870476D01*
X51674685Y-42918095D01*
%TO.C,R3*%
X44029333Y-43632380D02*
X43696000Y-43156190D01*
X43457904Y-43632380D02*
X43457904Y-42632380D01*
X43838857Y-42632380D01*
X43934095Y-42680000D01*
X43981714Y-42727619D01*
X44029333Y-42822857D01*
X44029333Y-42965714D01*
X43981714Y-43060952D01*
X43934095Y-43108571D01*
X43838857Y-43156190D01*
X43457904Y-43156190D01*
X44362666Y-42632380D02*
X44981714Y-42632380D01*
X44648380Y-43013333D01*
X44791238Y-43013333D01*
X44886476Y-43060952D01*
X44934095Y-43108571D01*
X44981714Y-43203809D01*
X44981714Y-43441904D01*
X44934095Y-43537142D01*
X44886476Y-43584761D01*
X44791238Y-43632380D01*
X44505523Y-43632380D01*
X44410285Y-43584761D01*
X44362666Y-43537142D01*
%TO.C,R2*%
X48220333Y-43632380D02*
X47887000Y-43156190D01*
X47648904Y-43632380D02*
X47648904Y-42632380D01*
X48029857Y-42632380D01*
X48125095Y-42680000D01*
X48172714Y-42727619D01*
X48220333Y-42822857D01*
X48220333Y-42965714D01*
X48172714Y-43060952D01*
X48125095Y-43108571D01*
X48029857Y-43156190D01*
X47648904Y-43156190D01*
X48601285Y-42727619D02*
X48648904Y-42680000D01*
X48744142Y-42632380D01*
X48982238Y-42632380D01*
X49077476Y-42680000D01*
X49125095Y-42727619D01*
X49172714Y-42822857D01*
X49172714Y-42918095D01*
X49125095Y-43060952D01*
X48553666Y-43632380D01*
X49172714Y-43632380D01*
%TO.C,U1*%
X54102095Y-48791880D02*
X54102095Y-49601404D01*
X54149714Y-49696642D01*
X54197333Y-49744261D01*
X54292571Y-49791880D01*
X54483047Y-49791880D01*
X54578285Y-49744261D01*
X54625904Y-49696642D01*
X54673523Y-49601404D01*
X54673523Y-48791880D01*
X55673523Y-49791880D02*
X55102095Y-49791880D01*
X55387809Y-49791880D02*
X55387809Y-48791880D01*
X55292571Y-48934738D01*
X55197333Y-49029976D01*
X55102095Y-49077595D01*
%TO.C,C2*%
X55983142Y-54776666D02*
X56030761Y-54824285D01*
X56078380Y-54967142D01*
X56078380Y-55062380D01*
X56030761Y-55205238D01*
X55935523Y-55300476D01*
X55840285Y-55348095D01*
X55649809Y-55395714D01*
X55506952Y-55395714D01*
X55316476Y-55348095D01*
X55221238Y-55300476D01*
X55126000Y-55205238D01*
X55078380Y-55062380D01*
X55078380Y-54967142D01*
X55126000Y-54824285D01*
X55173619Y-54776666D01*
X55173619Y-54395714D02*
X55126000Y-54348095D01*
X55078380Y-54252857D01*
X55078380Y-54014761D01*
X55126000Y-53919523D01*
X55173619Y-53871904D01*
X55268857Y-53824285D01*
X55364095Y-53824285D01*
X55506952Y-53871904D01*
X56078380Y-54443333D01*
X56078380Y-53824285D01*
%TO.C,C1*%
X57761142Y-54776666D02*
X57808761Y-54824285D01*
X57856380Y-54967142D01*
X57856380Y-55062380D01*
X57808761Y-55205238D01*
X57713523Y-55300476D01*
X57618285Y-55348095D01*
X57427809Y-55395714D01*
X57284952Y-55395714D01*
X57094476Y-55348095D01*
X56999238Y-55300476D01*
X56904000Y-55205238D01*
X56856380Y-55062380D01*
X56856380Y-54967142D01*
X56904000Y-54824285D01*
X56951619Y-54776666D01*
X57856380Y-53824285D02*
X57856380Y-54395714D01*
X57856380Y-54110000D02*
X56856380Y-54110000D01*
X56999238Y-54205238D01*
X57094476Y-54300476D01*
X57142095Y-54395714D01*
%TO.C,C3*%
X52157333Y-57507142D02*
X52109714Y-57554761D01*
X51966857Y-57602380D01*
X51871619Y-57602380D01*
X51728761Y-57554761D01*
X51633523Y-57459523D01*
X51585904Y-57364285D01*
X51538285Y-57173809D01*
X51538285Y-57030952D01*
X51585904Y-56840476D01*
X51633523Y-56745238D01*
X51728761Y-56650000D01*
X51871619Y-56602380D01*
X51966857Y-56602380D01*
X52109714Y-56650000D01*
X52157333Y-56697619D01*
X52490666Y-56602380D02*
X53109714Y-56602380D01*
X52776380Y-56983333D01*
X52919238Y-56983333D01*
X53014476Y-57030952D01*
X53062095Y-57078571D01*
X53109714Y-57173809D01*
X53109714Y-57411904D01*
X53062095Y-57507142D01*
X53014476Y-57554761D01*
X52919238Y-57602380D01*
X52633523Y-57602380D01*
X52538285Y-57554761D01*
X52490666Y-57507142D01*
%TO.C,C4*%
X52157333Y-59539142D02*
X52109714Y-59586761D01*
X51966857Y-59634380D01*
X51871619Y-59634380D01*
X51728761Y-59586761D01*
X51633523Y-59491523D01*
X51585904Y-59396285D01*
X51538285Y-59205809D01*
X51538285Y-59062952D01*
X51585904Y-58872476D01*
X51633523Y-58777238D01*
X51728761Y-58682000D01*
X51871619Y-58634380D01*
X51966857Y-58634380D01*
X52109714Y-58682000D01*
X52157333Y-58729619D01*
X53014476Y-58967714D02*
X53014476Y-59634380D01*
X52776380Y-58586761D02*
X52538285Y-59301047D01*
X53157333Y-59301047D01*
%TD*%
%LPC*%
D16*
%TO.C,AE1*%
X59673000Y-50247500D03*
D17*
X59660000Y-53719500D03*
X64414400Y-53721000D03*
%TD*%
D18*
%TO.C,H3*%
X37640800Y-59483600D03*
%TD*%
%TO.C,H2*%
X95640800Y-36483600D03*
%TD*%
%TO.C,H4*%
X95640800Y-59483600D03*
%TD*%
%TO.C,H1*%
X37640800Y-36483600D03*
%TD*%
D19*
%TO.C,J2*%
X90770800Y-35213600D03*
X90770800Y-37753600D03*
X88230800Y-35213600D03*
X88230800Y-37753600D03*
X85690800Y-35213600D03*
X85690800Y-37753600D03*
X83150800Y-35213600D03*
X83150800Y-37753600D03*
X80610800Y-35213600D03*
X80610800Y-37753600D03*
X78070800Y-35213600D03*
X78070800Y-37753600D03*
X75530800Y-35213600D03*
X75530800Y-37753600D03*
X72990800Y-35213600D03*
X72990800Y-37753600D03*
X70450800Y-35213600D03*
X70450800Y-37753600D03*
X67910800Y-35213600D03*
X67910800Y-37753600D03*
X65370800Y-35213600D03*
X65370800Y-37753600D03*
X62830800Y-35213600D03*
X62830800Y-37753600D03*
X60290800Y-35213600D03*
X60290800Y-37753600D03*
X57750800Y-35213600D03*
X57750800Y-37753600D03*
X55210800Y-35213600D03*
X55210800Y-37753600D03*
X52670800Y-35213600D03*
X52670800Y-37753600D03*
X50130800Y-35213600D03*
X50130800Y-37753600D03*
X47590800Y-35213600D03*
X47590800Y-37753600D03*
X45050800Y-35213600D03*
X45050800Y-37753600D03*
X42510800Y-35213600D03*
D20*
X42510800Y-37753600D03*
%TD*%
D10*
%TO.C,R1*%
G36*
X52488091Y-41105853D02*
G01*
X52509326Y-41109003D01*
X52530150Y-41114219D01*
X52550362Y-41121451D01*
X52569768Y-41130630D01*
X52588181Y-41141666D01*
X52605424Y-41154454D01*
X52621330Y-41168870D01*
X52635746Y-41184776D01*
X52648534Y-41202019D01*
X52659570Y-41220432D01*
X52668749Y-41239838D01*
X52675981Y-41260050D01*
X52681197Y-41280874D01*
X52684347Y-41302109D01*
X52685400Y-41323550D01*
X52685400Y-41836050D01*
X52684347Y-41857491D01*
X52681197Y-41878726D01*
X52675981Y-41899550D01*
X52668749Y-41919762D01*
X52659570Y-41939168D01*
X52648534Y-41957581D01*
X52635746Y-41974824D01*
X52621330Y-41990730D01*
X52605424Y-42005146D01*
X52588181Y-42017934D01*
X52569768Y-42028970D01*
X52550362Y-42038149D01*
X52530150Y-42045381D01*
X52509326Y-42050597D01*
X52488091Y-42053747D01*
X52466650Y-42054800D01*
X52029150Y-42054800D01*
X52007709Y-42053747D01*
X51986474Y-42050597D01*
X51965650Y-42045381D01*
X51945438Y-42038149D01*
X51926032Y-42028970D01*
X51907619Y-42017934D01*
X51890376Y-42005146D01*
X51874470Y-41990730D01*
X51860054Y-41974824D01*
X51847266Y-41957581D01*
X51836230Y-41939168D01*
X51827051Y-41919762D01*
X51819819Y-41899550D01*
X51814603Y-41878726D01*
X51811453Y-41857491D01*
X51810400Y-41836050D01*
X51810400Y-41323550D01*
X51811453Y-41302109D01*
X51814603Y-41280874D01*
X51819819Y-41260050D01*
X51827051Y-41239838D01*
X51836230Y-41220432D01*
X51847266Y-41202019D01*
X51860054Y-41184776D01*
X51874470Y-41168870D01*
X51890376Y-41154454D01*
X51907619Y-41141666D01*
X51926032Y-41130630D01*
X51945438Y-41121451D01*
X51965650Y-41114219D01*
X51986474Y-41109003D01*
X52007709Y-41105853D01*
X52029150Y-41104800D01*
X52466650Y-41104800D01*
X52488091Y-41105853D01*
G37*
G36*
X50913091Y-41105853D02*
G01*
X50934326Y-41109003D01*
X50955150Y-41114219D01*
X50975362Y-41121451D01*
X50994768Y-41130630D01*
X51013181Y-41141666D01*
X51030424Y-41154454D01*
X51046330Y-41168870D01*
X51060746Y-41184776D01*
X51073534Y-41202019D01*
X51084570Y-41220432D01*
X51093749Y-41239838D01*
X51100981Y-41260050D01*
X51106197Y-41280874D01*
X51109347Y-41302109D01*
X51110400Y-41323550D01*
X51110400Y-41836050D01*
X51109347Y-41857491D01*
X51106197Y-41878726D01*
X51100981Y-41899550D01*
X51093749Y-41919762D01*
X51084570Y-41939168D01*
X51073534Y-41957581D01*
X51060746Y-41974824D01*
X51046330Y-41990730D01*
X51030424Y-42005146D01*
X51013181Y-42017934D01*
X50994768Y-42028970D01*
X50975362Y-42038149D01*
X50955150Y-42045381D01*
X50934326Y-42050597D01*
X50913091Y-42053747D01*
X50891650Y-42054800D01*
X50454150Y-42054800D01*
X50432709Y-42053747D01*
X50411474Y-42050597D01*
X50390650Y-42045381D01*
X50370438Y-42038149D01*
X50351032Y-42028970D01*
X50332619Y-42017934D01*
X50315376Y-42005146D01*
X50299470Y-41990730D01*
X50285054Y-41974824D01*
X50272266Y-41957581D01*
X50261230Y-41939168D01*
X50252051Y-41919762D01*
X50244819Y-41899550D01*
X50239603Y-41878726D01*
X50236453Y-41857491D01*
X50235400Y-41836050D01*
X50235400Y-41323550D01*
X50236453Y-41302109D01*
X50239603Y-41280874D01*
X50244819Y-41260050D01*
X50252051Y-41239838D01*
X50261230Y-41220432D01*
X50272266Y-41202019D01*
X50285054Y-41184776D01*
X50299470Y-41168870D01*
X50315376Y-41154454D01*
X50332619Y-41141666D01*
X50351032Y-41130630D01*
X50370438Y-41121451D01*
X50390650Y-41114219D01*
X50411474Y-41109003D01*
X50432709Y-41105853D01*
X50454150Y-41104800D01*
X50891650Y-41104800D01*
X50913091Y-41105853D01*
G37*
%TD*%
%TO.C,R3*%
G36*
X45287191Y-41105853D02*
G01*
X45308426Y-41109003D01*
X45329250Y-41114219D01*
X45349462Y-41121451D01*
X45368868Y-41130630D01*
X45387281Y-41141666D01*
X45404524Y-41154454D01*
X45420430Y-41168870D01*
X45434846Y-41184776D01*
X45447634Y-41202019D01*
X45458670Y-41220432D01*
X45467849Y-41239838D01*
X45475081Y-41260050D01*
X45480297Y-41280874D01*
X45483447Y-41302109D01*
X45484500Y-41323550D01*
X45484500Y-41836050D01*
X45483447Y-41857491D01*
X45480297Y-41878726D01*
X45475081Y-41899550D01*
X45467849Y-41919762D01*
X45458670Y-41939168D01*
X45447634Y-41957581D01*
X45434846Y-41974824D01*
X45420430Y-41990730D01*
X45404524Y-42005146D01*
X45387281Y-42017934D01*
X45368868Y-42028970D01*
X45349462Y-42038149D01*
X45329250Y-42045381D01*
X45308426Y-42050597D01*
X45287191Y-42053747D01*
X45265750Y-42054800D01*
X44828250Y-42054800D01*
X44806809Y-42053747D01*
X44785574Y-42050597D01*
X44764750Y-42045381D01*
X44744538Y-42038149D01*
X44725132Y-42028970D01*
X44706719Y-42017934D01*
X44689476Y-42005146D01*
X44673570Y-41990730D01*
X44659154Y-41974824D01*
X44646366Y-41957581D01*
X44635330Y-41939168D01*
X44626151Y-41919762D01*
X44618919Y-41899550D01*
X44613703Y-41878726D01*
X44610553Y-41857491D01*
X44609500Y-41836050D01*
X44609500Y-41323550D01*
X44610553Y-41302109D01*
X44613703Y-41280874D01*
X44618919Y-41260050D01*
X44626151Y-41239838D01*
X44635330Y-41220432D01*
X44646366Y-41202019D01*
X44659154Y-41184776D01*
X44673570Y-41168870D01*
X44689476Y-41154454D01*
X44706719Y-41141666D01*
X44725132Y-41130630D01*
X44744538Y-41121451D01*
X44764750Y-41114219D01*
X44785574Y-41109003D01*
X44806809Y-41105853D01*
X44828250Y-41104800D01*
X45265750Y-41104800D01*
X45287191Y-41105853D01*
G37*
G36*
X43712191Y-41105853D02*
G01*
X43733426Y-41109003D01*
X43754250Y-41114219D01*
X43774462Y-41121451D01*
X43793868Y-41130630D01*
X43812281Y-41141666D01*
X43829524Y-41154454D01*
X43845430Y-41168870D01*
X43859846Y-41184776D01*
X43872634Y-41202019D01*
X43883670Y-41220432D01*
X43892849Y-41239838D01*
X43900081Y-41260050D01*
X43905297Y-41280874D01*
X43908447Y-41302109D01*
X43909500Y-41323550D01*
X43909500Y-41836050D01*
X43908447Y-41857491D01*
X43905297Y-41878726D01*
X43900081Y-41899550D01*
X43892849Y-41919762D01*
X43883670Y-41939168D01*
X43872634Y-41957581D01*
X43859846Y-41974824D01*
X43845430Y-41990730D01*
X43829524Y-42005146D01*
X43812281Y-42017934D01*
X43793868Y-42028970D01*
X43774462Y-42038149D01*
X43754250Y-42045381D01*
X43733426Y-42050597D01*
X43712191Y-42053747D01*
X43690750Y-42054800D01*
X43253250Y-42054800D01*
X43231809Y-42053747D01*
X43210574Y-42050597D01*
X43189750Y-42045381D01*
X43169538Y-42038149D01*
X43150132Y-42028970D01*
X43131719Y-42017934D01*
X43114476Y-42005146D01*
X43098570Y-41990730D01*
X43084154Y-41974824D01*
X43071366Y-41957581D01*
X43060330Y-41939168D01*
X43051151Y-41919762D01*
X43043919Y-41899550D01*
X43038703Y-41878726D01*
X43035553Y-41857491D01*
X43034500Y-41836050D01*
X43034500Y-41323550D01*
X43035553Y-41302109D01*
X43038703Y-41280874D01*
X43043919Y-41260050D01*
X43051151Y-41239838D01*
X43060330Y-41220432D01*
X43071366Y-41202019D01*
X43084154Y-41184776D01*
X43098570Y-41168870D01*
X43114476Y-41154454D01*
X43131719Y-41141666D01*
X43150132Y-41130630D01*
X43169538Y-41121451D01*
X43189750Y-41114219D01*
X43210574Y-41109003D01*
X43231809Y-41105853D01*
X43253250Y-41104800D01*
X43690750Y-41104800D01*
X43712191Y-41105853D01*
G37*
%TD*%
%TO.C,R2*%
G36*
X47839691Y-41105853D02*
G01*
X47860926Y-41109003D01*
X47881750Y-41114219D01*
X47901962Y-41121451D01*
X47921368Y-41130630D01*
X47939781Y-41141666D01*
X47957024Y-41154454D01*
X47972930Y-41168870D01*
X47987346Y-41184776D01*
X48000134Y-41202019D01*
X48011170Y-41220432D01*
X48020349Y-41239838D01*
X48027581Y-41260050D01*
X48032797Y-41280874D01*
X48035947Y-41302109D01*
X48037000Y-41323550D01*
X48037000Y-41836050D01*
X48035947Y-41857491D01*
X48032797Y-41878726D01*
X48027581Y-41899550D01*
X48020349Y-41919762D01*
X48011170Y-41939168D01*
X48000134Y-41957581D01*
X47987346Y-41974824D01*
X47972930Y-41990730D01*
X47957024Y-42005146D01*
X47939781Y-42017934D01*
X47921368Y-42028970D01*
X47901962Y-42038149D01*
X47881750Y-42045381D01*
X47860926Y-42050597D01*
X47839691Y-42053747D01*
X47818250Y-42054800D01*
X47380750Y-42054800D01*
X47359309Y-42053747D01*
X47338074Y-42050597D01*
X47317250Y-42045381D01*
X47297038Y-42038149D01*
X47277632Y-42028970D01*
X47259219Y-42017934D01*
X47241976Y-42005146D01*
X47226070Y-41990730D01*
X47211654Y-41974824D01*
X47198866Y-41957581D01*
X47187830Y-41939168D01*
X47178651Y-41919762D01*
X47171419Y-41899550D01*
X47166203Y-41878726D01*
X47163053Y-41857491D01*
X47162000Y-41836050D01*
X47162000Y-41323550D01*
X47163053Y-41302109D01*
X47166203Y-41280874D01*
X47171419Y-41260050D01*
X47178651Y-41239838D01*
X47187830Y-41220432D01*
X47198866Y-41202019D01*
X47211654Y-41184776D01*
X47226070Y-41168870D01*
X47241976Y-41154454D01*
X47259219Y-41141666D01*
X47277632Y-41130630D01*
X47297038Y-41121451D01*
X47317250Y-41114219D01*
X47338074Y-41109003D01*
X47359309Y-41105853D01*
X47380750Y-41104800D01*
X47818250Y-41104800D01*
X47839691Y-41105853D01*
G37*
G36*
X49414691Y-41105853D02*
G01*
X49435926Y-41109003D01*
X49456750Y-41114219D01*
X49476962Y-41121451D01*
X49496368Y-41130630D01*
X49514781Y-41141666D01*
X49532024Y-41154454D01*
X49547930Y-41168870D01*
X49562346Y-41184776D01*
X49575134Y-41202019D01*
X49586170Y-41220432D01*
X49595349Y-41239838D01*
X49602581Y-41260050D01*
X49607797Y-41280874D01*
X49610947Y-41302109D01*
X49612000Y-41323550D01*
X49612000Y-41836050D01*
X49610947Y-41857491D01*
X49607797Y-41878726D01*
X49602581Y-41899550D01*
X49595349Y-41919762D01*
X49586170Y-41939168D01*
X49575134Y-41957581D01*
X49562346Y-41974824D01*
X49547930Y-41990730D01*
X49532024Y-42005146D01*
X49514781Y-42017934D01*
X49496368Y-42028970D01*
X49476962Y-42038149D01*
X49456750Y-42045381D01*
X49435926Y-42050597D01*
X49414691Y-42053747D01*
X49393250Y-42054800D01*
X48955750Y-42054800D01*
X48934309Y-42053747D01*
X48913074Y-42050597D01*
X48892250Y-42045381D01*
X48872038Y-42038149D01*
X48852632Y-42028970D01*
X48834219Y-42017934D01*
X48816976Y-42005146D01*
X48801070Y-41990730D01*
X48786654Y-41974824D01*
X48773866Y-41957581D01*
X48762830Y-41939168D01*
X48753651Y-41919762D01*
X48746419Y-41899550D01*
X48741203Y-41878726D01*
X48738053Y-41857491D01*
X48737000Y-41836050D01*
X48737000Y-41323550D01*
X48738053Y-41302109D01*
X48741203Y-41280874D01*
X48746419Y-41260050D01*
X48753651Y-41239838D01*
X48762830Y-41220432D01*
X48773866Y-41202019D01*
X48786654Y-41184776D01*
X48801070Y-41168870D01*
X48816976Y-41154454D01*
X48834219Y-41141666D01*
X48852632Y-41130630D01*
X48872038Y-41121451D01*
X48892250Y-41114219D01*
X48913074Y-41109003D01*
X48934309Y-41105853D01*
X48955750Y-41104800D01*
X49393250Y-41104800D01*
X49414691Y-41105853D01*
G37*
%TD*%
%TO.C,U1*%
G36*
X53123703Y-53770722D02*
G01*
X53138264Y-53772882D01*
X53152543Y-53776459D01*
X53166403Y-53781418D01*
X53179710Y-53787712D01*
X53192336Y-53795280D01*
X53204159Y-53804048D01*
X53215066Y-53813934D01*
X53224952Y-53824841D01*
X53233720Y-53836664D01*
X53241288Y-53849290D01*
X53247582Y-53862597D01*
X53252541Y-53876457D01*
X53256118Y-53890736D01*
X53258278Y-53905297D01*
X53259000Y-53920000D01*
X53259000Y-55370000D01*
X53258278Y-55384703D01*
X53256118Y-55399264D01*
X53252541Y-55413543D01*
X53247582Y-55427403D01*
X53241288Y-55440710D01*
X53233720Y-55453336D01*
X53224952Y-55465159D01*
X53215066Y-55476066D01*
X53204159Y-55485952D01*
X53192336Y-55494720D01*
X53179710Y-55502288D01*
X53166403Y-55508582D01*
X53152543Y-55513541D01*
X53138264Y-55517118D01*
X53123703Y-55519278D01*
X53109000Y-55520000D01*
X52809000Y-55520000D01*
X52794297Y-55519278D01*
X52779736Y-55517118D01*
X52765457Y-55513541D01*
X52751597Y-55508582D01*
X52738290Y-55502288D01*
X52725664Y-55494720D01*
X52713841Y-55485952D01*
X52702934Y-55476066D01*
X52693048Y-55465159D01*
X52684280Y-55453336D01*
X52676712Y-55440710D01*
X52670418Y-55427403D01*
X52665459Y-55413543D01*
X52661882Y-55399264D01*
X52659722Y-55384703D01*
X52659000Y-55370000D01*
X52659000Y-53920000D01*
X52659722Y-53905297D01*
X52661882Y-53890736D01*
X52665459Y-53876457D01*
X52670418Y-53862597D01*
X52676712Y-53849290D01*
X52684280Y-53836664D01*
X52693048Y-53824841D01*
X52702934Y-53813934D01*
X52713841Y-53804048D01*
X52725664Y-53795280D01*
X52738290Y-53787712D01*
X52751597Y-53781418D01*
X52765457Y-53776459D01*
X52779736Y-53772882D01*
X52794297Y-53770722D01*
X52809000Y-53770000D01*
X53109000Y-53770000D01*
X53123703Y-53770722D01*
G37*
G36*
X51853703Y-53770722D02*
G01*
X51868264Y-53772882D01*
X51882543Y-53776459D01*
X51896403Y-53781418D01*
X51909710Y-53787712D01*
X51922336Y-53795280D01*
X51934159Y-53804048D01*
X51945066Y-53813934D01*
X51954952Y-53824841D01*
X51963720Y-53836664D01*
X51971288Y-53849290D01*
X51977582Y-53862597D01*
X51982541Y-53876457D01*
X51986118Y-53890736D01*
X51988278Y-53905297D01*
X51989000Y-53920000D01*
X51989000Y-55370000D01*
X51988278Y-55384703D01*
X51986118Y-55399264D01*
X51982541Y-55413543D01*
X51977582Y-55427403D01*
X51971288Y-55440710D01*
X51963720Y-55453336D01*
X51954952Y-55465159D01*
X51945066Y-55476066D01*
X51934159Y-55485952D01*
X51922336Y-55494720D01*
X51909710Y-55502288D01*
X51896403Y-55508582D01*
X51882543Y-55513541D01*
X51868264Y-55517118D01*
X51853703Y-55519278D01*
X51839000Y-55520000D01*
X51539000Y-55520000D01*
X51524297Y-55519278D01*
X51509736Y-55517118D01*
X51495457Y-55513541D01*
X51481597Y-55508582D01*
X51468290Y-55502288D01*
X51455664Y-55494720D01*
X51443841Y-55485952D01*
X51432934Y-55476066D01*
X51423048Y-55465159D01*
X51414280Y-55453336D01*
X51406712Y-55440710D01*
X51400418Y-55427403D01*
X51395459Y-55413543D01*
X51391882Y-55399264D01*
X51389722Y-55384703D01*
X51389000Y-55370000D01*
X51389000Y-53920000D01*
X51389722Y-53905297D01*
X51391882Y-53890736D01*
X51395459Y-53876457D01*
X51400418Y-53862597D01*
X51406712Y-53849290D01*
X51414280Y-53836664D01*
X51423048Y-53824841D01*
X51432934Y-53813934D01*
X51443841Y-53804048D01*
X51455664Y-53795280D01*
X51468290Y-53787712D01*
X51481597Y-53781418D01*
X51495457Y-53776459D01*
X51509736Y-53772882D01*
X51524297Y-53770722D01*
X51539000Y-53770000D01*
X51839000Y-53770000D01*
X51853703Y-53770722D01*
G37*
G36*
X50583703Y-53770722D02*
G01*
X50598264Y-53772882D01*
X50612543Y-53776459D01*
X50626403Y-53781418D01*
X50639710Y-53787712D01*
X50652336Y-53795280D01*
X50664159Y-53804048D01*
X50675066Y-53813934D01*
X50684952Y-53824841D01*
X50693720Y-53836664D01*
X50701288Y-53849290D01*
X50707582Y-53862597D01*
X50712541Y-53876457D01*
X50716118Y-53890736D01*
X50718278Y-53905297D01*
X50719000Y-53920000D01*
X50719000Y-55370000D01*
X50718278Y-55384703D01*
X50716118Y-55399264D01*
X50712541Y-55413543D01*
X50707582Y-55427403D01*
X50701288Y-55440710D01*
X50693720Y-55453336D01*
X50684952Y-55465159D01*
X50675066Y-55476066D01*
X50664159Y-55485952D01*
X50652336Y-55494720D01*
X50639710Y-55502288D01*
X50626403Y-55508582D01*
X50612543Y-55513541D01*
X50598264Y-55517118D01*
X50583703Y-55519278D01*
X50569000Y-55520000D01*
X50269000Y-55520000D01*
X50254297Y-55519278D01*
X50239736Y-55517118D01*
X50225457Y-55513541D01*
X50211597Y-55508582D01*
X50198290Y-55502288D01*
X50185664Y-55494720D01*
X50173841Y-55485952D01*
X50162934Y-55476066D01*
X50153048Y-55465159D01*
X50144280Y-55453336D01*
X50136712Y-55440710D01*
X50130418Y-55427403D01*
X50125459Y-55413543D01*
X50121882Y-55399264D01*
X50119722Y-55384703D01*
X50119000Y-55370000D01*
X50119000Y-53920000D01*
X50119722Y-53905297D01*
X50121882Y-53890736D01*
X50125459Y-53876457D01*
X50130418Y-53862597D01*
X50136712Y-53849290D01*
X50144280Y-53836664D01*
X50153048Y-53824841D01*
X50162934Y-53813934D01*
X50173841Y-53804048D01*
X50185664Y-53795280D01*
X50198290Y-53787712D01*
X50211597Y-53781418D01*
X50225457Y-53776459D01*
X50239736Y-53772882D01*
X50254297Y-53770722D01*
X50269000Y-53770000D01*
X50569000Y-53770000D01*
X50583703Y-53770722D01*
G37*
G36*
X49313703Y-53770722D02*
G01*
X49328264Y-53772882D01*
X49342543Y-53776459D01*
X49356403Y-53781418D01*
X49369710Y-53787712D01*
X49382336Y-53795280D01*
X49394159Y-53804048D01*
X49405066Y-53813934D01*
X49414952Y-53824841D01*
X49423720Y-53836664D01*
X49431288Y-53849290D01*
X49437582Y-53862597D01*
X49442541Y-53876457D01*
X49446118Y-53890736D01*
X49448278Y-53905297D01*
X49449000Y-53920000D01*
X49449000Y-55370000D01*
X49448278Y-55384703D01*
X49446118Y-55399264D01*
X49442541Y-55413543D01*
X49437582Y-55427403D01*
X49431288Y-55440710D01*
X49423720Y-55453336D01*
X49414952Y-55465159D01*
X49405066Y-55476066D01*
X49394159Y-55485952D01*
X49382336Y-55494720D01*
X49369710Y-55502288D01*
X49356403Y-55508582D01*
X49342543Y-55513541D01*
X49328264Y-55517118D01*
X49313703Y-55519278D01*
X49299000Y-55520000D01*
X48999000Y-55520000D01*
X48984297Y-55519278D01*
X48969736Y-55517118D01*
X48955457Y-55513541D01*
X48941597Y-55508582D01*
X48928290Y-55502288D01*
X48915664Y-55494720D01*
X48903841Y-55485952D01*
X48892934Y-55476066D01*
X48883048Y-55465159D01*
X48874280Y-55453336D01*
X48866712Y-55440710D01*
X48860418Y-55427403D01*
X48855459Y-55413543D01*
X48851882Y-55399264D01*
X48849722Y-55384703D01*
X48849000Y-55370000D01*
X48849000Y-53920000D01*
X48849722Y-53905297D01*
X48851882Y-53890736D01*
X48855459Y-53876457D01*
X48860418Y-53862597D01*
X48866712Y-53849290D01*
X48874280Y-53836664D01*
X48883048Y-53824841D01*
X48892934Y-53813934D01*
X48903841Y-53804048D01*
X48915664Y-53795280D01*
X48928290Y-53787712D01*
X48941597Y-53781418D01*
X48955457Y-53776459D01*
X48969736Y-53772882D01*
X48984297Y-53770722D01*
X48999000Y-53770000D01*
X49299000Y-53770000D01*
X49313703Y-53770722D01*
G37*
G36*
X49313703Y-48620722D02*
G01*
X49328264Y-48622882D01*
X49342543Y-48626459D01*
X49356403Y-48631418D01*
X49369710Y-48637712D01*
X49382336Y-48645280D01*
X49394159Y-48654048D01*
X49405066Y-48663934D01*
X49414952Y-48674841D01*
X49423720Y-48686664D01*
X49431288Y-48699290D01*
X49437582Y-48712597D01*
X49442541Y-48726457D01*
X49446118Y-48740736D01*
X49448278Y-48755297D01*
X49449000Y-48770000D01*
X49449000Y-50220000D01*
X49448278Y-50234703D01*
X49446118Y-50249264D01*
X49442541Y-50263543D01*
X49437582Y-50277403D01*
X49431288Y-50290710D01*
X49423720Y-50303336D01*
X49414952Y-50315159D01*
X49405066Y-50326066D01*
X49394159Y-50335952D01*
X49382336Y-50344720D01*
X49369710Y-50352288D01*
X49356403Y-50358582D01*
X49342543Y-50363541D01*
X49328264Y-50367118D01*
X49313703Y-50369278D01*
X49299000Y-50370000D01*
X48999000Y-50370000D01*
X48984297Y-50369278D01*
X48969736Y-50367118D01*
X48955457Y-50363541D01*
X48941597Y-50358582D01*
X48928290Y-50352288D01*
X48915664Y-50344720D01*
X48903841Y-50335952D01*
X48892934Y-50326066D01*
X48883048Y-50315159D01*
X48874280Y-50303336D01*
X48866712Y-50290710D01*
X48860418Y-50277403D01*
X48855459Y-50263543D01*
X48851882Y-50249264D01*
X48849722Y-50234703D01*
X48849000Y-50220000D01*
X48849000Y-48770000D01*
X48849722Y-48755297D01*
X48851882Y-48740736D01*
X48855459Y-48726457D01*
X48860418Y-48712597D01*
X48866712Y-48699290D01*
X48874280Y-48686664D01*
X48883048Y-48674841D01*
X48892934Y-48663934D01*
X48903841Y-48654048D01*
X48915664Y-48645280D01*
X48928290Y-48637712D01*
X48941597Y-48631418D01*
X48955457Y-48626459D01*
X48969736Y-48622882D01*
X48984297Y-48620722D01*
X48999000Y-48620000D01*
X49299000Y-48620000D01*
X49313703Y-48620722D01*
G37*
G36*
X50583703Y-48620722D02*
G01*
X50598264Y-48622882D01*
X50612543Y-48626459D01*
X50626403Y-48631418D01*
X50639710Y-48637712D01*
X50652336Y-48645280D01*
X50664159Y-48654048D01*
X50675066Y-48663934D01*
X50684952Y-48674841D01*
X50693720Y-48686664D01*
X50701288Y-48699290D01*
X50707582Y-48712597D01*
X50712541Y-48726457D01*
X50716118Y-48740736D01*
X50718278Y-48755297D01*
X50719000Y-48770000D01*
X50719000Y-50220000D01*
X50718278Y-50234703D01*
X50716118Y-50249264D01*
X50712541Y-50263543D01*
X50707582Y-50277403D01*
X50701288Y-50290710D01*
X50693720Y-50303336D01*
X50684952Y-50315159D01*
X50675066Y-50326066D01*
X50664159Y-50335952D01*
X50652336Y-50344720D01*
X50639710Y-50352288D01*
X50626403Y-50358582D01*
X50612543Y-50363541D01*
X50598264Y-50367118D01*
X50583703Y-50369278D01*
X50569000Y-50370000D01*
X50269000Y-50370000D01*
X50254297Y-50369278D01*
X50239736Y-50367118D01*
X50225457Y-50363541D01*
X50211597Y-50358582D01*
X50198290Y-50352288D01*
X50185664Y-50344720D01*
X50173841Y-50335952D01*
X50162934Y-50326066D01*
X50153048Y-50315159D01*
X50144280Y-50303336D01*
X50136712Y-50290710D01*
X50130418Y-50277403D01*
X50125459Y-50263543D01*
X50121882Y-50249264D01*
X50119722Y-50234703D01*
X50119000Y-50220000D01*
X50119000Y-48770000D01*
X50119722Y-48755297D01*
X50121882Y-48740736D01*
X50125459Y-48726457D01*
X50130418Y-48712597D01*
X50136712Y-48699290D01*
X50144280Y-48686664D01*
X50153048Y-48674841D01*
X50162934Y-48663934D01*
X50173841Y-48654048D01*
X50185664Y-48645280D01*
X50198290Y-48637712D01*
X50211597Y-48631418D01*
X50225457Y-48626459D01*
X50239736Y-48622882D01*
X50254297Y-48620722D01*
X50269000Y-48620000D01*
X50569000Y-48620000D01*
X50583703Y-48620722D01*
G37*
G36*
X51853703Y-48620722D02*
G01*
X51868264Y-48622882D01*
X51882543Y-48626459D01*
X51896403Y-48631418D01*
X51909710Y-48637712D01*
X51922336Y-48645280D01*
X51934159Y-48654048D01*
X51945066Y-48663934D01*
X51954952Y-48674841D01*
X51963720Y-48686664D01*
X51971288Y-48699290D01*
X51977582Y-48712597D01*
X51982541Y-48726457D01*
X51986118Y-48740736D01*
X51988278Y-48755297D01*
X51989000Y-48770000D01*
X51989000Y-50220000D01*
X51988278Y-50234703D01*
X51986118Y-50249264D01*
X51982541Y-50263543D01*
X51977582Y-50277403D01*
X51971288Y-50290710D01*
X51963720Y-50303336D01*
X51954952Y-50315159D01*
X51945066Y-50326066D01*
X51934159Y-50335952D01*
X51922336Y-50344720D01*
X51909710Y-50352288D01*
X51896403Y-50358582D01*
X51882543Y-50363541D01*
X51868264Y-50367118D01*
X51853703Y-50369278D01*
X51839000Y-50370000D01*
X51539000Y-50370000D01*
X51524297Y-50369278D01*
X51509736Y-50367118D01*
X51495457Y-50363541D01*
X51481597Y-50358582D01*
X51468290Y-50352288D01*
X51455664Y-50344720D01*
X51443841Y-50335952D01*
X51432934Y-50326066D01*
X51423048Y-50315159D01*
X51414280Y-50303336D01*
X51406712Y-50290710D01*
X51400418Y-50277403D01*
X51395459Y-50263543D01*
X51391882Y-50249264D01*
X51389722Y-50234703D01*
X51389000Y-50220000D01*
X51389000Y-48770000D01*
X51389722Y-48755297D01*
X51391882Y-48740736D01*
X51395459Y-48726457D01*
X51400418Y-48712597D01*
X51406712Y-48699290D01*
X51414280Y-48686664D01*
X51423048Y-48674841D01*
X51432934Y-48663934D01*
X51443841Y-48654048D01*
X51455664Y-48645280D01*
X51468290Y-48637712D01*
X51481597Y-48631418D01*
X51495457Y-48626459D01*
X51509736Y-48622882D01*
X51524297Y-48620722D01*
X51539000Y-48620000D01*
X51839000Y-48620000D01*
X51853703Y-48620722D01*
G37*
G36*
X53123703Y-48620722D02*
G01*
X53138264Y-48622882D01*
X53152543Y-48626459D01*
X53166403Y-48631418D01*
X53179710Y-48637712D01*
X53192336Y-48645280D01*
X53204159Y-48654048D01*
X53215066Y-48663934D01*
X53224952Y-48674841D01*
X53233720Y-48686664D01*
X53241288Y-48699290D01*
X53247582Y-48712597D01*
X53252541Y-48726457D01*
X53256118Y-48740736D01*
X53258278Y-48755297D01*
X53259000Y-48770000D01*
X53259000Y-50220000D01*
X53258278Y-50234703D01*
X53256118Y-50249264D01*
X53252541Y-50263543D01*
X53247582Y-50277403D01*
X53241288Y-50290710D01*
X53233720Y-50303336D01*
X53224952Y-50315159D01*
X53215066Y-50326066D01*
X53204159Y-50335952D01*
X53192336Y-50344720D01*
X53179710Y-50352288D01*
X53166403Y-50358582D01*
X53152543Y-50363541D01*
X53138264Y-50367118D01*
X53123703Y-50369278D01*
X53109000Y-50370000D01*
X52809000Y-50370000D01*
X52794297Y-50369278D01*
X52779736Y-50367118D01*
X52765457Y-50363541D01*
X52751597Y-50358582D01*
X52738290Y-50352288D01*
X52725664Y-50344720D01*
X52713841Y-50335952D01*
X52702934Y-50326066D01*
X52693048Y-50315159D01*
X52684280Y-50303336D01*
X52676712Y-50290710D01*
X52670418Y-50277403D01*
X52665459Y-50263543D01*
X52661882Y-50249264D01*
X52659722Y-50234703D01*
X52659000Y-50220000D01*
X52659000Y-48770000D01*
X52659722Y-48755297D01*
X52661882Y-48740736D01*
X52665459Y-48726457D01*
X52670418Y-48712597D01*
X52676712Y-48699290D01*
X52684280Y-48686664D01*
X52693048Y-48674841D01*
X52702934Y-48663934D01*
X52713841Y-48654048D01*
X52725664Y-48645280D01*
X52738290Y-48637712D01*
X52751597Y-48631418D01*
X52765457Y-48626459D01*
X52779736Y-48622882D01*
X52794297Y-48620722D01*
X52809000Y-48620000D01*
X53109000Y-48620000D01*
X53123703Y-48620722D01*
G37*
%TD*%
D21*
%TO.C,C2*%
X55626000Y-51320000D03*
X55626000Y-52820000D03*
%TD*%
%TO.C,C1*%
X57404000Y-52820000D03*
X57404000Y-51320000D03*
%TD*%
D22*
%TO.C,C3*%
X50407000Y-57150000D03*
X48907000Y-57150000D03*
%TD*%
%TO.C,C4*%
X48907000Y-59182000D03*
X50407000Y-59182000D03*
%TD*%
M02*
