%TF.GenerationSoftware,KiCad,Pcbnew,(5.1.5)-3*%
%TF.CreationDate,2021-10-20T11:59:03+01:00*%
%TF.ProjectId,pHAT_PASSIVE_TAG,70484154-5f50-4415-9353-4956455f5441,1*%
%TF.SameCoordinates,Original*%
%TF.FileFunction,Other,Fab,Top*%
%FSLAX46Y46*%
G04 Gerber Fmt 4.6, Leading zero omitted, Abs format (unit mm)*
G04 Created by KiCad (PCBNEW (5.1.5)-3) date 2021-10-20 11:59:03*
%MOMM*%
%LPD*%
G04 APERTURE LIST*
%ADD10C,0.100000*%
%ADD11C,0.150000*%
%ADD12C,0.300000*%
%ADD13C,0.400000*%
%ADD14C,0.060000*%
%ADD15C,0.075000*%
G04 APERTURE END LIST*
D10*
D11*
X177002200Y-166007200D02*
X177002200Y-198007200D01*
X285002200Y-198007200D01*
X285002200Y-166007200D01*
X177002200Y-166007200D01*
D10*
D11*
X10000000Y-10000000D02*
X10000000Y-200007200D01*
X287002200Y-200007200D01*
X287002200Y-10000000D01*
X10000000Y-10000000D01*
D10*
D11*
X12000000Y-12000000D02*
X12000000Y-198007200D01*
X285002200Y-198007200D01*
X285002200Y-12000000D01*
X12000000Y-12000000D01*
D10*
D11*
X60000000Y-12000000D02*
X60000000Y-10000000D01*
D10*
D11*
X110000000Y-12000000D02*
X110000000Y-10000000D01*
D10*
D11*
X160000000Y-12000000D02*
X160000000Y-10000000D01*
D10*
D11*
X210000000Y-12000000D02*
X210000000Y-10000000D01*
D10*
D11*
X260000000Y-12000000D02*
X260000000Y-10000000D01*
D10*
D11*
X36065476Y-11588095D02*
X35322619Y-11588095D01*
X35694047Y-11588095D02*
X35694047Y-10288095D01*
X35570238Y-10473809D01*
X35446428Y-10597619D01*
X35322619Y-10659523D01*
D10*
D11*
X85322619Y-10411904D02*
X85384523Y-10350000D01*
X85508333Y-10288095D01*
X85817857Y-10288095D01*
X85941666Y-10350000D01*
X86003571Y-10411904D01*
X86065476Y-10535714D01*
X86065476Y-10659523D01*
X86003571Y-10845238D01*
X85260714Y-11588095D01*
X86065476Y-11588095D01*
D10*
D11*
X135260714Y-10288095D02*
X136065476Y-10288095D01*
X135632142Y-10783333D01*
X135817857Y-10783333D01*
X135941666Y-10845238D01*
X136003571Y-10907142D01*
X136065476Y-11030952D01*
X136065476Y-11340476D01*
X136003571Y-11464285D01*
X135941666Y-11526190D01*
X135817857Y-11588095D01*
X135446428Y-11588095D01*
X135322619Y-11526190D01*
X135260714Y-11464285D01*
D10*
D11*
X185941666Y-10721428D02*
X185941666Y-11588095D01*
X185632142Y-10226190D02*
X185322619Y-11154761D01*
X186127380Y-11154761D01*
D10*
D11*
X236003571Y-10288095D02*
X235384523Y-10288095D01*
X235322619Y-10907142D01*
X235384523Y-10845238D01*
X235508333Y-10783333D01*
X235817857Y-10783333D01*
X235941666Y-10845238D01*
X236003571Y-10907142D01*
X236065476Y-11030952D01*
X236065476Y-11340476D01*
X236003571Y-11464285D01*
X235941666Y-11526190D01*
X235817857Y-11588095D01*
X235508333Y-11588095D01*
X235384523Y-11526190D01*
X235322619Y-11464285D01*
D10*
D11*
X285941666Y-10288095D02*
X285694047Y-10288095D01*
X285570238Y-10350000D01*
X285508333Y-10411904D01*
X285384523Y-10597619D01*
X285322619Y-10845238D01*
X285322619Y-11340476D01*
X285384523Y-11464285D01*
X285446428Y-11526190D01*
X285570238Y-11588095D01*
X285817857Y-11588095D01*
X285941666Y-11526190D01*
X286003571Y-11464285D01*
X286065476Y-11340476D01*
X286065476Y-11030952D01*
X286003571Y-10907142D01*
X285941666Y-10845238D01*
X285817857Y-10783333D01*
X285570238Y-10783333D01*
X285446428Y-10845238D01*
X285384523Y-10907142D01*
X285322619Y-11030952D01*
D10*
D11*
X60000000Y-198007200D02*
X60000000Y-200007200D01*
D10*
D11*
X110000000Y-198007200D02*
X110000000Y-200007200D01*
D10*
D11*
X160000000Y-198007200D02*
X160000000Y-200007200D01*
D10*
D11*
X210000000Y-198007200D02*
X210000000Y-200007200D01*
D10*
D11*
X260000000Y-198007200D02*
X260000000Y-200007200D01*
D10*
D11*
X36065476Y-199595295D02*
X35322619Y-199595295D01*
X35694047Y-199595295D02*
X35694047Y-198295295D01*
X35570238Y-198481009D01*
X35446428Y-198604819D01*
X35322619Y-198666723D01*
D10*
D11*
X85322619Y-198419104D02*
X85384523Y-198357200D01*
X85508333Y-198295295D01*
X85817857Y-198295295D01*
X85941666Y-198357200D01*
X86003571Y-198419104D01*
X86065476Y-198542914D01*
X86065476Y-198666723D01*
X86003571Y-198852438D01*
X85260714Y-199595295D01*
X86065476Y-199595295D01*
D10*
D11*
X135260714Y-198295295D02*
X136065476Y-198295295D01*
X135632142Y-198790533D01*
X135817857Y-198790533D01*
X135941666Y-198852438D01*
X136003571Y-198914342D01*
X136065476Y-199038152D01*
X136065476Y-199347676D01*
X136003571Y-199471485D01*
X135941666Y-199533390D01*
X135817857Y-199595295D01*
X135446428Y-199595295D01*
X135322619Y-199533390D01*
X135260714Y-199471485D01*
D10*
D11*
X185941666Y-198728628D02*
X185941666Y-199595295D01*
X185632142Y-198233390D02*
X185322619Y-199161961D01*
X186127380Y-199161961D01*
D10*
D11*
X236003571Y-198295295D02*
X235384523Y-198295295D01*
X235322619Y-198914342D01*
X235384523Y-198852438D01*
X235508333Y-198790533D01*
X235817857Y-198790533D01*
X235941666Y-198852438D01*
X236003571Y-198914342D01*
X236065476Y-199038152D01*
X236065476Y-199347676D01*
X236003571Y-199471485D01*
X235941666Y-199533390D01*
X235817857Y-199595295D01*
X235508333Y-199595295D01*
X235384523Y-199533390D01*
X235322619Y-199471485D01*
D10*
D11*
X285941666Y-198295295D02*
X285694047Y-198295295D01*
X285570238Y-198357200D01*
X285508333Y-198419104D01*
X285384523Y-198604819D01*
X285322619Y-198852438D01*
X285322619Y-199347676D01*
X285384523Y-199471485D01*
X285446428Y-199533390D01*
X285570238Y-199595295D01*
X285817857Y-199595295D01*
X285941666Y-199533390D01*
X286003571Y-199471485D01*
X286065476Y-199347676D01*
X286065476Y-199038152D01*
X286003571Y-198914342D01*
X285941666Y-198852438D01*
X285817857Y-198790533D01*
X285570238Y-198790533D01*
X285446428Y-198852438D01*
X285384523Y-198914342D01*
X285322619Y-199038152D01*
D10*
D11*
X10000000Y-60000000D02*
X12000000Y-60000000D01*
D10*
D11*
X10000000Y-110000000D02*
X12000000Y-110000000D01*
D10*
D11*
X10000000Y-160000000D02*
X12000000Y-160000000D01*
D10*
D11*
X10690476Y-35216666D02*
X11309523Y-35216666D01*
X10566666Y-35588095D02*
X11000000Y-34288095D01*
X11433333Y-35588095D01*
D10*
D11*
X11092857Y-84907142D02*
X11278571Y-84969047D01*
X11340476Y-85030952D01*
X11402380Y-85154761D01*
X11402380Y-85340476D01*
X11340476Y-85464285D01*
X11278571Y-85526190D01*
X11154761Y-85588095D01*
X10659523Y-85588095D01*
X10659523Y-84288095D01*
X11092857Y-84288095D01*
X11216666Y-84350000D01*
X11278571Y-84411904D01*
X11340476Y-84535714D01*
X11340476Y-84659523D01*
X11278571Y-84783333D01*
X11216666Y-84845238D01*
X11092857Y-84907142D01*
X10659523Y-84907142D01*
D10*
D11*
X11402380Y-135464285D02*
X11340476Y-135526190D01*
X11154761Y-135588095D01*
X11030952Y-135588095D01*
X10845238Y-135526190D01*
X10721428Y-135402380D01*
X10659523Y-135278571D01*
X10597619Y-135030952D01*
X10597619Y-134845238D01*
X10659523Y-134597619D01*
X10721428Y-134473809D01*
X10845238Y-134350000D01*
X11030952Y-134288095D01*
X11154761Y-134288095D01*
X11340476Y-134350000D01*
X11402380Y-134411904D01*
D10*
D11*
X10659523Y-185588095D02*
X10659523Y-184288095D01*
X10969047Y-184288095D01*
X11154761Y-184350000D01*
X11278571Y-184473809D01*
X11340476Y-184597619D01*
X11402380Y-184845238D01*
X11402380Y-185030952D01*
X11340476Y-185278571D01*
X11278571Y-185402380D01*
X11154761Y-185526190D01*
X10969047Y-185588095D01*
X10659523Y-185588095D01*
D10*
D11*
X287002200Y-60000000D02*
X285002200Y-60000000D01*
D10*
D11*
X287002200Y-110000000D02*
X285002200Y-110000000D01*
D10*
D11*
X287002200Y-160000000D02*
X285002200Y-160000000D01*
D10*
D11*
X285692676Y-35216666D02*
X286311723Y-35216666D01*
X285568866Y-35588095D02*
X286002200Y-34288095D01*
X286435533Y-35588095D01*
D10*
D11*
X286095057Y-84907142D02*
X286280771Y-84969047D01*
X286342676Y-85030952D01*
X286404580Y-85154761D01*
X286404580Y-85340476D01*
X286342676Y-85464285D01*
X286280771Y-85526190D01*
X286156961Y-85588095D01*
X285661723Y-85588095D01*
X285661723Y-84288095D01*
X286095057Y-84288095D01*
X286218866Y-84350000D01*
X286280771Y-84411904D01*
X286342676Y-84535714D01*
X286342676Y-84659523D01*
X286280771Y-84783333D01*
X286218866Y-84845238D01*
X286095057Y-84907142D01*
X285661723Y-84907142D01*
D10*
D11*
X286404580Y-135464285D02*
X286342676Y-135526190D01*
X286156961Y-135588095D01*
X286033152Y-135588095D01*
X285847438Y-135526190D01*
X285723628Y-135402380D01*
X285661723Y-135278571D01*
X285599819Y-135030952D01*
X285599819Y-134845238D01*
X285661723Y-134597619D01*
X285723628Y-134473809D01*
X285847438Y-134350000D01*
X286033152Y-134288095D01*
X286156961Y-134288095D01*
X286342676Y-134350000D01*
X286404580Y-134411904D01*
D10*
D11*
X285661723Y-185588095D02*
X285661723Y-184288095D01*
X285971247Y-184288095D01*
X286156961Y-184350000D01*
X286280771Y-184473809D01*
X286342676Y-184597619D01*
X286404580Y-184845238D01*
X286404580Y-185030952D01*
X286342676Y-185278571D01*
X286280771Y-185402380D01*
X286156961Y-185526190D01*
X285971247Y-185588095D01*
X285661723Y-185588095D01*
D10*
D11*
X200434342Y-193785771D02*
X200434342Y-192285771D01*
X200791485Y-192285771D01*
X201005771Y-192357200D01*
X201148628Y-192500057D01*
X201220057Y-192642914D01*
X201291485Y-192928628D01*
X201291485Y-193142914D01*
X201220057Y-193428628D01*
X201148628Y-193571485D01*
X201005771Y-193714342D01*
X200791485Y-193785771D01*
X200434342Y-193785771D01*
X202577200Y-193785771D02*
X202577200Y-193000057D01*
X202505771Y-192857200D01*
X202362914Y-192785771D01*
X202077200Y-192785771D01*
X201934342Y-192857200D01*
X202577200Y-193714342D02*
X202434342Y-193785771D01*
X202077200Y-193785771D01*
X201934342Y-193714342D01*
X201862914Y-193571485D01*
X201862914Y-193428628D01*
X201934342Y-193285771D01*
X202077200Y-193214342D01*
X202434342Y-193214342D01*
X202577200Y-193142914D01*
X203077200Y-192785771D02*
X203648628Y-192785771D01*
X203291485Y-192285771D02*
X203291485Y-193571485D01*
X203362914Y-193714342D01*
X203505771Y-193785771D01*
X203648628Y-193785771D01*
X204720057Y-193714342D02*
X204577200Y-193785771D01*
X204291485Y-193785771D01*
X204148628Y-193714342D01*
X204077200Y-193571485D01*
X204077200Y-193000057D01*
X204148628Y-192857200D01*
X204291485Y-192785771D01*
X204577200Y-192785771D01*
X204720057Y-192857200D01*
X204791485Y-193000057D01*
X204791485Y-193142914D01*
X204077200Y-193285771D01*
X205434342Y-193642914D02*
X205505771Y-193714342D01*
X205434342Y-193785771D01*
X205362914Y-193714342D01*
X205434342Y-193642914D01*
X205434342Y-193785771D01*
X205434342Y-192857200D02*
X205505771Y-192928628D01*
X205434342Y-193000057D01*
X205362914Y-192928628D01*
X205434342Y-192857200D01*
X205434342Y-193000057D01*
X207220057Y-192428628D02*
X207291485Y-192357200D01*
X207434342Y-192285771D01*
X207791485Y-192285771D01*
X207934342Y-192357200D01*
X208005771Y-192428628D01*
X208077200Y-192571485D01*
X208077200Y-192714342D01*
X208005771Y-192928628D01*
X207148628Y-193785771D01*
X208077200Y-193785771D01*
X209005771Y-192285771D02*
X209148628Y-192285771D01*
X209291485Y-192357200D01*
X209362914Y-192428628D01*
X209434342Y-192571485D01*
X209505771Y-192857200D01*
X209505771Y-193214342D01*
X209434342Y-193500057D01*
X209362914Y-193642914D01*
X209291485Y-193714342D01*
X209148628Y-193785771D01*
X209005771Y-193785771D01*
X208862914Y-193714342D01*
X208791485Y-193642914D01*
X208720057Y-193500057D01*
X208648628Y-193214342D01*
X208648628Y-192857200D01*
X208720057Y-192571485D01*
X208791485Y-192428628D01*
X208862914Y-192357200D01*
X209005771Y-192285771D01*
X210934342Y-193785771D02*
X210077200Y-193785771D01*
X210505771Y-193785771D02*
X210505771Y-192285771D01*
X210362914Y-192500057D01*
X210220057Y-192642914D01*
X210077200Y-192714342D01*
X211648628Y-193785771D02*
X211934342Y-193785771D01*
X212077200Y-193714342D01*
X212148628Y-193642914D01*
X212291485Y-193428628D01*
X212362914Y-193142914D01*
X212362914Y-192571485D01*
X212291485Y-192428628D01*
X212220057Y-192357200D01*
X212077200Y-192285771D01*
X211791485Y-192285771D01*
X211648628Y-192357200D01*
X211577200Y-192428628D01*
X211505771Y-192571485D01*
X211505771Y-192928628D01*
X211577200Y-193071485D01*
X211648628Y-193142914D01*
X211791485Y-193214342D01*
X212077200Y-193214342D01*
X212220057Y-193142914D01*
X212291485Y-193071485D01*
X212362914Y-192928628D01*
X213005771Y-193214342D02*
X214148628Y-193214342D01*
X215148628Y-192285771D02*
X215291485Y-192285771D01*
X215434342Y-192357200D01*
X215505771Y-192428628D01*
X215577200Y-192571485D01*
X215648628Y-192857200D01*
X215648628Y-193214342D01*
X215577200Y-193500057D01*
X215505771Y-193642914D01*
X215434342Y-193714342D01*
X215291485Y-193785771D01*
X215148628Y-193785771D01*
X215005771Y-193714342D01*
X214934342Y-193642914D01*
X214862914Y-193500057D01*
X214791485Y-193214342D01*
X214791485Y-192857200D01*
X214862914Y-192571485D01*
X214934342Y-192428628D01*
X215005771Y-192357200D01*
X215148628Y-192285771D01*
X216934342Y-192785771D02*
X216934342Y-193785771D01*
X216577200Y-192214342D02*
X216220057Y-193285771D01*
X217148628Y-193285771D01*
X217720057Y-193214342D02*
X218862914Y-193214342D01*
X219505771Y-192428628D02*
X219577200Y-192357200D01*
X219720057Y-192285771D01*
X220077200Y-192285771D01*
X220220057Y-192357200D01*
X220291485Y-192428628D01*
X220362914Y-192571485D01*
X220362914Y-192714342D01*
X220291485Y-192928628D01*
X219434342Y-193785771D01*
X220362914Y-193785771D01*
X221077200Y-193785771D02*
X221362914Y-193785771D01*
X221505771Y-193714342D01*
X221577200Y-193642914D01*
X221720057Y-193428628D01*
X221791485Y-193142914D01*
X221791485Y-192571485D01*
X221720057Y-192428628D01*
X221648628Y-192357200D01*
X221505771Y-192285771D01*
X221220057Y-192285771D01*
X221077200Y-192357200D01*
X221005771Y-192428628D01*
X220934342Y-192571485D01*
X220934342Y-192928628D01*
X221005771Y-193071485D01*
X221077200Y-193142914D01*
X221220057Y-193214342D01*
X221505771Y-193214342D01*
X221648628Y-193142914D01*
X221720057Y-193071485D01*
X221791485Y-192928628D01*
D10*
D11*
X177002200Y-194507200D02*
X285002200Y-194507200D01*
D10*
D11*
X178434342Y-196585771D02*
X178434342Y-195085771D01*
X179291485Y-196585771D02*
X178648628Y-195728628D01*
X179291485Y-195085771D02*
X178434342Y-195942914D01*
X179934342Y-196585771D02*
X179934342Y-195585771D01*
X179934342Y-195085771D02*
X179862914Y-195157200D01*
X179934342Y-195228628D01*
X180005771Y-195157200D01*
X179934342Y-195085771D01*
X179934342Y-195228628D01*
X181505771Y-196442914D02*
X181434342Y-196514342D01*
X181220057Y-196585771D01*
X181077200Y-196585771D01*
X180862914Y-196514342D01*
X180720057Y-196371485D01*
X180648628Y-196228628D01*
X180577200Y-195942914D01*
X180577200Y-195728628D01*
X180648628Y-195442914D01*
X180720057Y-195300057D01*
X180862914Y-195157200D01*
X181077200Y-195085771D01*
X181220057Y-195085771D01*
X181434342Y-195157200D01*
X181505771Y-195228628D01*
X182791485Y-196585771D02*
X182791485Y-195800057D01*
X182720057Y-195657200D01*
X182577200Y-195585771D01*
X182291485Y-195585771D01*
X182148628Y-195657200D01*
X182791485Y-196514342D02*
X182648628Y-196585771D01*
X182291485Y-196585771D01*
X182148628Y-196514342D01*
X182077200Y-196371485D01*
X182077200Y-196228628D01*
X182148628Y-196085771D01*
X182291485Y-196014342D01*
X182648628Y-196014342D01*
X182791485Y-195942914D01*
X184148628Y-196585771D02*
X184148628Y-195085771D01*
X184148628Y-196514342D02*
X184005771Y-196585771D01*
X183720057Y-196585771D01*
X183577200Y-196514342D01*
X183505771Y-196442914D01*
X183434342Y-196300057D01*
X183434342Y-195871485D01*
X183505771Y-195728628D01*
X183577200Y-195657200D01*
X183720057Y-195585771D01*
X184005771Y-195585771D01*
X184148628Y-195657200D01*
X186005771Y-195800057D02*
X186505771Y-195800057D01*
X186720057Y-196585771D02*
X186005771Y-196585771D01*
X186005771Y-195085771D01*
X186720057Y-195085771D01*
X187362914Y-196442914D02*
X187434342Y-196514342D01*
X187362914Y-196585771D01*
X187291485Y-196514342D01*
X187362914Y-196442914D01*
X187362914Y-196585771D01*
X188077200Y-196585771D02*
X188077200Y-195085771D01*
X188434342Y-195085771D01*
X188648628Y-195157200D01*
X188791485Y-195300057D01*
X188862914Y-195442914D01*
X188934342Y-195728628D01*
X188934342Y-195942914D01*
X188862914Y-196228628D01*
X188791485Y-196371485D01*
X188648628Y-196514342D01*
X188434342Y-196585771D01*
X188077200Y-196585771D01*
X189577200Y-196442914D02*
X189648628Y-196514342D01*
X189577200Y-196585771D01*
X189505771Y-196514342D01*
X189577200Y-196442914D01*
X189577200Y-196585771D01*
X190220057Y-196157200D02*
X190934342Y-196157200D01*
X190077200Y-196585771D02*
X190577200Y-195085771D01*
X191077200Y-196585771D01*
X191577200Y-196442914D02*
X191648628Y-196514342D01*
X191577200Y-196585771D01*
X191505771Y-196514342D01*
X191577200Y-196442914D01*
X191577200Y-196585771D01*
X194577200Y-196585771D02*
X194577200Y-195085771D01*
X194720057Y-196014342D02*
X195148628Y-196585771D01*
X195148628Y-195585771D02*
X194577200Y-196157200D01*
X195791485Y-196585771D02*
X195791485Y-195585771D01*
X195791485Y-195085771D02*
X195720057Y-195157200D01*
X195791485Y-195228628D01*
X195862914Y-195157200D01*
X195791485Y-195085771D01*
X195791485Y-195228628D01*
X197148628Y-196514342D02*
X197005771Y-196585771D01*
X196720057Y-196585771D01*
X196577200Y-196514342D01*
X196505771Y-196442914D01*
X196434342Y-196300057D01*
X196434342Y-195871485D01*
X196505771Y-195728628D01*
X196577200Y-195657200D01*
X196720057Y-195585771D01*
X197005771Y-195585771D01*
X197148628Y-195657200D01*
X198434342Y-196585771D02*
X198434342Y-195800057D01*
X198362914Y-195657200D01*
X198220057Y-195585771D01*
X197934342Y-195585771D01*
X197791485Y-195657200D01*
X198434342Y-196514342D02*
X198291485Y-196585771D01*
X197934342Y-196585771D01*
X197791485Y-196514342D01*
X197720057Y-196371485D01*
X197720057Y-196228628D01*
X197791485Y-196085771D01*
X197934342Y-196014342D01*
X198291485Y-196014342D01*
X198434342Y-195942914D01*
X199791485Y-196585771D02*
X199791485Y-195085771D01*
X199791485Y-196514342D02*
X199648628Y-196585771D01*
X199362914Y-196585771D01*
X199220057Y-196514342D01*
X199148628Y-196442914D01*
X199077200Y-196300057D01*
X199077200Y-195871485D01*
X199148628Y-195728628D01*
X199220057Y-195657200D01*
X199362914Y-195585771D01*
X199648628Y-195585771D01*
X199791485Y-195657200D01*
X202077200Y-197157200D02*
X202005771Y-197085771D01*
X201862914Y-196871485D01*
X201791485Y-196728628D01*
X201720057Y-196514342D01*
X201648628Y-196157200D01*
X201648628Y-195871485D01*
X201720057Y-195514342D01*
X201791485Y-195300057D01*
X201862914Y-195157200D01*
X202005771Y-194942914D01*
X202077200Y-194871485D01*
X203362914Y-195085771D02*
X202648628Y-195085771D01*
X202577200Y-195800057D01*
X202648628Y-195728628D01*
X202791485Y-195657200D01*
X203148628Y-195657200D01*
X203291485Y-195728628D01*
X203362914Y-195800057D01*
X203434342Y-195942914D01*
X203434342Y-196300057D01*
X203362914Y-196442914D01*
X203291485Y-196514342D01*
X203148628Y-196585771D01*
X202791485Y-196585771D01*
X202648628Y-196514342D01*
X202577200Y-196442914D01*
X204077200Y-196442914D02*
X204148628Y-196514342D01*
X204077200Y-196585771D01*
X204005771Y-196514342D01*
X204077200Y-196442914D01*
X204077200Y-196585771D01*
X205577200Y-196585771D02*
X204720057Y-196585771D01*
X205148628Y-196585771D02*
X205148628Y-195085771D01*
X205005771Y-195300057D01*
X204862914Y-195442914D01*
X204720057Y-195514342D01*
X206220057Y-196442914D02*
X206291485Y-196514342D01*
X206220057Y-196585771D01*
X206148628Y-196514342D01*
X206220057Y-196442914D01*
X206220057Y-196585771D01*
X207648628Y-195085771D02*
X206934342Y-195085771D01*
X206862914Y-195800057D01*
X206934342Y-195728628D01*
X207077200Y-195657200D01*
X207434342Y-195657200D01*
X207577200Y-195728628D01*
X207648628Y-195800057D01*
X207720057Y-195942914D01*
X207720057Y-196300057D01*
X207648628Y-196442914D01*
X207577200Y-196514342D01*
X207434342Y-196585771D01*
X207077200Y-196585771D01*
X206934342Y-196514342D01*
X206862914Y-196442914D01*
X208220057Y-197157200D02*
X208291485Y-197085771D01*
X208434342Y-196871485D01*
X208505771Y-196728628D01*
X208577200Y-196514342D01*
X208648628Y-196157200D01*
X208648628Y-195871485D01*
X208577200Y-195514342D01*
X208505771Y-195300057D01*
X208434342Y-195157200D01*
X208291485Y-194942914D01*
X208220057Y-194871485D01*
X209362914Y-196014342D02*
X210505771Y-196014342D01*
X211077200Y-195085771D02*
X212005771Y-195085771D01*
X211505771Y-195657200D01*
X211720057Y-195657200D01*
X211862914Y-195728628D01*
X211934342Y-195800057D01*
X212005771Y-195942914D01*
X212005771Y-196300057D01*
X211934342Y-196442914D01*
X211862914Y-196514342D01*
X211720057Y-196585771D01*
X211291485Y-196585771D01*
X211148628Y-196514342D01*
X211077200Y-196442914D01*
D10*
D11*
X177002200Y-191507200D02*
X285002200Y-191507200D01*
D10*
D12*
X264411485Y-193785771D02*
X263911485Y-193071485D01*
X263554342Y-193785771D02*
X263554342Y-192285771D01*
X264125771Y-192285771D01*
X264268628Y-192357200D01*
X264340057Y-192428628D01*
X264411485Y-192571485D01*
X264411485Y-192785771D01*
X264340057Y-192928628D01*
X264268628Y-193000057D01*
X264125771Y-193071485D01*
X263554342Y-193071485D01*
X265625771Y-193714342D02*
X265482914Y-193785771D01*
X265197200Y-193785771D01*
X265054342Y-193714342D01*
X264982914Y-193571485D01*
X264982914Y-193000057D01*
X265054342Y-192857200D01*
X265197200Y-192785771D01*
X265482914Y-192785771D01*
X265625771Y-192857200D01*
X265697200Y-193000057D01*
X265697200Y-193142914D01*
X264982914Y-193285771D01*
X266197200Y-192785771D02*
X266554342Y-193785771D01*
X266911485Y-192785771D01*
X267482914Y-193642914D02*
X267554342Y-193714342D01*
X267482914Y-193785771D01*
X267411485Y-193714342D01*
X267482914Y-193642914D01*
X267482914Y-193785771D01*
X267482914Y-192857200D02*
X267554342Y-192928628D01*
X267482914Y-193000057D01*
X267411485Y-192928628D01*
X267482914Y-192857200D01*
X267482914Y-193000057D01*
X270125771Y-193785771D02*
X269268628Y-193785771D01*
X269697200Y-193785771D02*
X269697200Y-192285771D01*
X269554342Y-192500057D01*
X269411485Y-192642914D01*
X269268628Y-192714342D01*
D10*
D11*
X178362914Y-193714342D02*
X178577200Y-193785771D01*
X178934342Y-193785771D01*
X179077200Y-193714342D01*
X179148628Y-193642914D01*
X179220057Y-193500057D01*
X179220057Y-193357200D01*
X179148628Y-193214342D01*
X179077200Y-193142914D01*
X178934342Y-193071485D01*
X178648628Y-193000057D01*
X178505771Y-192928628D01*
X178434342Y-192857200D01*
X178362914Y-192714342D01*
X178362914Y-192571485D01*
X178434342Y-192428628D01*
X178505771Y-192357200D01*
X178648628Y-192285771D01*
X179005771Y-192285771D01*
X179220057Y-192357200D01*
X179862914Y-193785771D02*
X179862914Y-192785771D01*
X179862914Y-192285771D02*
X179791485Y-192357200D01*
X179862914Y-192428628D01*
X179934342Y-192357200D01*
X179862914Y-192285771D01*
X179862914Y-192428628D01*
X180434342Y-192785771D02*
X181220057Y-192785771D01*
X180434342Y-193785771D01*
X181220057Y-193785771D01*
X182362914Y-193714342D02*
X182220057Y-193785771D01*
X181934342Y-193785771D01*
X181791485Y-193714342D01*
X181720057Y-193571485D01*
X181720057Y-193000057D01*
X181791485Y-192857200D01*
X181934342Y-192785771D01*
X182220057Y-192785771D01*
X182362914Y-192857200D01*
X182434342Y-193000057D01*
X182434342Y-193142914D01*
X181720057Y-193285771D01*
X183077200Y-193642914D02*
X183148628Y-193714342D01*
X183077200Y-193785771D01*
X183005771Y-193714342D01*
X183077200Y-193642914D01*
X183077200Y-193785771D01*
X183077200Y-192857200D02*
X183148628Y-192928628D01*
X183077200Y-193000057D01*
X183005771Y-192928628D01*
X183077200Y-192857200D01*
X183077200Y-193000057D01*
X184862914Y-193357200D02*
X185577200Y-193357200D01*
X184720057Y-193785771D02*
X185220057Y-192285771D01*
X185720057Y-193785771D01*
X186862914Y-192785771D02*
X186862914Y-193785771D01*
X186505771Y-192214342D02*
X186148628Y-193285771D01*
X187077200Y-193285771D01*
D10*
D11*
X263434342Y-196585771D02*
X263434342Y-195085771D01*
X264791485Y-196585771D02*
X264791485Y-195085771D01*
X264791485Y-196514342D02*
X264648628Y-196585771D01*
X264362914Y-196585771D01*
X264220057Y-196514342D01*
X264148628Y-196442914D01*
X264077200Y-196300057D01*
X264077200Y-195871485D01*
X264148628Y-195728628D01*
X264220057Y-195657200D01*
X264362914Y-195585771D01*
X264648628Y-195585771D01*
X264791485Y-195657200D01*
X265505771Y-196442914D02*
X265577200Y-196514342D01*
X265505771Y-196585771D01*
X265434342Y-196514342D01*
X265505771Y-196442914D01*
X265505771Y-196585771D01*
X265505771Y-195657200D02*
X265577200Y-195728628D01*
X265505771Y-195800057D01*
X265434342Y-195728628D01*
X265505771Y-195657200D01*
X265505771Y-195800057D01*
X268148628Y-196585771D02*
X267291485Y-196585771D01*
X267720057Y-196585771D02*
X267720057Y-195085771D01*
X267577200Y-195300057D01*
X267434342Y-195442914D01*
X267291485Y-195514342D01*
X269862914Y-195014342D02*
X268577200Y-196942914D01*
X271148628Y-196585771D02*
X270291485Y-196585771D01*
X270720057Y-196585771D02*
X270720057Y-195085771D01*
X270577200Y-195300057D01*
X270434342Y-195442914D01*
X270291485Y-195514342D01*
D10*
D11*
X177002200Y-187507200D02*
X285002200Y-187507200D01*
D10*
D13*
X178714580Y-188211961D02*
X179857438Y-188211961D01*
X179036009Y-190211961D02*
X179286009Y-188211961D01*
X180274104Y-190211961D02*
X180440771Y-188878628D01*
X180524104Y-188211961D02*
X180416961Y-188307200D01*
X180500295Y-188402438D01*
X180607438Y-188307200D01*
X180524104Y-188211961D01*
X180500295Y-188402438D01*
X181107438Y-188878628D02*
X181869342Y-188878628D01*
X181476485Y-188211961D02*
X181262200Y-189926247D01*
X181333628Y-190116723D01*
X181512200Y-190211961D01*
X181702676Y-190211961D01*
X182655057Y-190211961D02*
X182476485Y-190116723D01*
X182405057Y-189926247D01*
X182619342Y-188211961D01*
X184190771Y-190116723D02*
X183988390Y-190211961D01*
X183607438Y-190211961D01*
X183428866Y-190116723D01*
X183357438Y-189926247D01*
X183452676Y-189164342D01*
X183571723Y-188973866D01*
X183774104Y-188878628D01*
X184155057Y-188878628D01*
X184333628Y-188973866D01*
X184405057Y-189164342D01*
X184381247Y-189354819D01*
X183405057Y-189545295D01*
X185155057Y-190021485D02*
X185238390Y-190116723D01*
X185131247Y-190211961D01*
X185047914Y-190116723D01*
X185155057Y-190021485D01*
X185131247Y-190211961D01*
X185286009Y-188973866D02*
X185369342Y-189069104D01*
X185262200Y-189164342D01*
X185178866Y-189069104D01*
X185286009Y-188973866D01*
X185262200Y-189164342D01*
X188750295Y-190211961D02*
X188202676Y-189259580D01*
X187607438Y-190211961D02*
X187857438Y-188211961D01*
X188619342Y-188211961D01*
X188797914Y-188307200D01*
X188881247Y-188402438D01*
X188952676Y-188592914D01*
X188916961Y-188878628D01*
X188797914Y-189069104D01*
X188690771Y-189164342D01*
X188488390Y-189259580D01*
X187726485Y-189259580D01*
X190405057Y-189164342D02*
X189738390Y-189164342D01*
X189607438Y-190211961D02*
X189857438Y-188211961D01*
X190809819Y-188211961D01*
X191321723Y-190211961D02*
X191571723Y-188211961D01*
X192059819Y-189640533D01*
X192905057Y-188211961D01*
X192655057Y-190211961D01*
X194714580Y-188211961D02*
X194333628Y-188211961D01*
X194131247Y-188307200D01*
X194024104Y-188402438D01*
X193797914Y-188688152D01*
X193655057Y-189069104D01*
X193559819Y-189831009D01*
X193631247Y-190021485D01*
X193714580Y-190116723D01*
X193893152Y-190211961D01*
X194274104Y-190211961D01*
X194476485Y-190116723D01*
X194583628Y-190021485D01*
X194702676Y-189831009D01*
X194762200Y-189354819D01*
X194690771Y-189164342D01*
X194607438Y-189069104D01*
X194428866Y-188973866D01*
X194047914Y-188973866D01*
X193845533Y-189069104D01*
X193738390Y-189164342D01*
X193619342Y-189354819D01*
X195607438Y-190211961D02*
X195988390Y-190211961D01*
X196190771Y-190116723D01*
X196297914Y-190021485D01*
X196524104Y-189735771D01*
X196666961Y-189354819D01*
X196762200Y-188592914D01*
X196690771Y-188402438D01*
X196607438Y-188307200D01*
X196428866Y-188211961D01*
X196047914Y-188211961D01*
X195845533Y-188307200D01*
X195738390Y-188402438D01*
X195619342Y-188592914D01*
X195559819Y-189069104D01*
X195631247Y-189259580D01*
X195714580Y-189354819D01*
X195893152Y-189450057D01*
X196274104Y-189450057D01*
X196476485Y-189354819D01*
X196583628Y-189259580D01*
X196702676Y-189069104D01*
X197416961Y-190211961D02*
X197666961Y-188211961D01*
X197547914Y-189164342D02*
X198690771Y-189164342D01*
X198559819Y-190211961D02*
X198809819Y-188211961D01*
X200678866Y-190021485D02*
X200571723Y-190116723D01*
X200274104Y-190211961D01*
X200083628Y-190211961D01*
X199809819Y-190116723D01*
X199643152Y-189926247D01*
X199571723Y-189735771D01*
X199524104Y-189354819D01*
X199559819Y-189069104D01*
X199702676Y-188688152D01*
X199821723Y-188497676D01*
X200036009Y-188307200D01*
X200333628Y-188211961D01*
X200524104Y-188211961D01*
X200797914Y-188307200D01*
X200881247Y-188402438D01*
X201571723Y-188211961D02*
X201797914Y-190211961D01*
X202357438Y-188783390D01*
X202559819Y-190211961D01*
X203286009Y-188211961D01*
X203893152Y-189450057D02*
X205416961Y-189450057D01*
X206702676Y-189069104D02*
X206524104Y-188973866D01*
X206440771Y-188878628D01*
X206369342Y-188688152D01*
X206381247Y-188592914D01*
X206500295Y-188402438D01*
X206607438Y-188307200D01*
X206809819Y-188211961D01*
X207190771Y-188211961D01*
X207369342Y-188307200D01*
X207452676Y-188402438D01*
X207524104Y-188592914D01*
X207512200Y-188688152D01*
X207393152Y-188878628D01*
X207286009Y-188973866D01*
X207083628Y-189069104D01*
X206702676Y-189069104D01*
X206500295Y-189164342D01*
X206393152Y-189259580D01*
X206274104Y-189450057D01*
X206226485Y-189831009D01*
X206297914Y-190021485D01*
X206381247Y-190116723D01*
X206559819Y-190211961D01*
X206940771Y-190211961D01*
X207143152Y-190116723D01*
X207250295Y-190021485D01*
X207369342Y-189831009D01*
X207416961Y-189450057D01*
X207345533Y-189259580D01*
X207262200Y-189164342D01*
X207083628Y-189069104D01*
X209286009Y-188211961D02*
X208905057Y-188211961D01*
X208702676Y-188307200D01*
X208595533Y-188402438D01*
X208369342Y-188688152D01*
X208226485Y-189069104D01*
X208131247Y-189831009D01*
X208202676Y-190021485D01*
X208286009Y-190116723D01*
X208464580Y-190211961D01*
X208845533Y-190211961D01*
X209047914Y-190116723D01*
X209155057Y-190021485D01*
X209274104Y-189831009D01*
X209333628Y-189354819D01*
X209262200Y-189164342D01*
X209178866Y-189069104D01*
X209000295Y-188973866D01*
X208619342Y-188973866D01*
X208416961Y-189069104D01*
X208309819Y-189164342D01*
X208190771Y-189354819D01*
X210512200Y-189069104D02*
X210333628Y-188973866D01*
X210250295Y-188878628D01*
X210178866Y-188688152D01*
X210190771Y-188592914D01*
X210309819Y-188402438D01*
X210416961Y-188307200D01*
X210619342Y-188211961D01*
X211000295Y-188211961D01*
X211178866Y-188307200D01*
X211262200Y-188402438D01*
X211333628Y-188592914D01*
X211321723Y-188688152D01*
X211202676Y-188878628D01*
X211095533Y-188973866D01*
X210893152Y-189069104D01*
X210512200Y-189069104D01*
X210309819Y-189164342D01*
X210202676Y-189259580D01*
X210083628Y-189450057D01*
X210036009Y-189831009D01*
X210107438Y-190021485D01*
X210190771Y-190116723D01*
X210369342Y-190211961D01*
X210750295Y-190211961D01*
X210952676Y-190116723D01*
X211059819Y-190021485D01*
X211178866Y-189831009D01*
X211226485Y-189450057D01*
X211155057Y-189259580D01*
X211071723Y-189164342D01*
X210893152Y-189069104D01*
X212083628Y-189450057D02*
X213607438Y-189450057D01*
X214381247Y-190116723D02*
X214655057Y-190211961D01*
X215131247Y-190211961D01*
X215333628Y-190116723D01*
X215440771Y-190021485D01*
X215559819Y-189831009D01*
X215583628Y-189640533D01*
X215512200Y-189450057D01*
X215428866Y-189354819D01*
X215250295Y-189259580D01*
X214881247Y-189164342D01*
X214702676Y-189069104D01*
X214619342Y-188973866D01*
X214547914Y-188783390D01*
X214571723Y-188592914D01*
X214690771Y-188402438D01*
X214797914Y-188307200D01*
X215000295Y-188211961D01*
X215476485Y-188211961D01*
X215750295Y-188307200D01*
X216500295Y-188402438D02*
X216607438Y-188307200D01*
X216809819Y-188211961D01*
X217286009Y-188211961D01*
X217464580Y-188307200D01*
X217547914Y-188402438D01*
X217619342Y-188592914D01*
X217595533Y-188783390D01*
X217464580Y-189069104D01*
X216178866Y-190211961D01*
X217416961Y-190211961D01*
X219964580Y-188878628D02*
X219714580Y-190878628D01*
X219952676Y-188973866D02*
X220155057Y-188878628D01*
X220536009Y-188878628D01*
X220714580Y-188973866D01*
X220797914Y-189069104D01*
X220869342Y-189259580D01*
X220797914Y-189831009D01*
X220678866Y-190021485D01*
X220571723Y-190116723D01*
X220369342Y-190211961D01*
X219988390Y-190211961D01*
X219809819Y-190116723D01*
X222464580Y-190211961D02*
X222595533Y-189164342D01*
X222524104Y-188973866D01*
X222345533Y-188878628D01*
X221964580Y-188878628D01*
X221762200Y-188973866D01*
X222476485Y-190116723D02*
X222274104Y-190211961D01*
X221797914Y-190211961D01*
X221619342Y-190116723D01*
X221547914Y-189926247D01*
X221571723Y-189735771D01*
X221690771Y-189545295D01*
X221893152Y-189450057D01*
X222369342Y-189450057D01*
X222571723Y-189354819D01*
X223416961Y-190211961D02*
X223583628Y-188878628D01*
X223536009Y-189259580D02*
X223655057Y-189069104D01*
X223762199Y-188973866D01*
X223964580Y-188878628D01*
X224155057Y-188878628D01*
X224536009Y-188878628D02*
X225297914Y-188878628D01*
X224905057Y-188211961D02*
X224690771Y-189926247D01*
X224762200Y-190116723D01*
X224940771Y-190211961D01*
X225131247Y-190211961D01*
X225797914Y-190211961D02*
X225964580Y-188878628D01*
X226047914Y-188211961D02*
X225940771Y-188307200D01*
X226024104Y-188402438D01*
X226131247Y-188307200D01*
X226047914Y-188211961D01*
X226024104Y-188402438D01*
X227607438Y-190211961D02*
X227738390Y-189164342D01*
X227666961Y-188973866D01*
X227488390Y-188878628D01*
X227107438Y-188878628D01*
X226905057Y-188973866D01*
X227619342Y-190116723D02*
X227416961Y-190211961D01*
X226940771Y-190211961D01*
X226762200Y-190116723D01*
X226690771Y-189926247D01*
X226714580Y-189735771D01*
X226833628Y-189545295D01*
X227036009Y-189450057D01*
X227512200Y-189450057D01*
X227714580Y-189354819D01*
X228845533Y-190211961D02*
X228666961Y-190116723D01*
X228595533Y-189926247D01*
X228809819Y-188211961D01*
X231131247Y-190211961D02*
X231381247Y-188211961D01*
X231262199Y-189164342D02*
X232405057Y-189164342D01*
X232274104Y-190211961D02*
X232524104Y-188211961D01*
X233202676Y-189640533D02*
X234155057Y-189640533D01*
X232940771Y-190211961D02*
X233857438Y-188211961D01*
X234274104Y-190211961D01*
X234905057Y-188211961D02*
X236047914Y-188211961D01*
X235226485Y-190211961D02*
X235476485Y-188211961D01*
X237869342Y-188878628D02*
X238631247Y-188878628D01*
X237988390Y-190211961D02*
X238202676Y-188497676D01*
X238321723Y-188307200D01*
X238524104Y-188211961D01*
X238714580Y-188211961D01*
X239416961Y-190211961D02*
X239238390Y-190116723D01*
X239155057Y-190021485D01*
X239083628Y-189831009D01*
X239155057Y-189259580D01*
X239274104Y-189069104D01*
X239381247Y-188973866D01*
X239583628Y-188878628D01*
X239869342Y-188878628D01*
X240047914Y-188973866D01*
X240131247Y-189069104D01*
X240202676Y-189259580D01*
X240131247Y-189831009D01*
X240012199Y-190021485D01*
X239905057Y-190116723D01*
X239702676Y-190211961D01*
X239416961Y-190211961D01*
X240940771Y-190211961D02*
X241107438Y-188878628D01*
X241059819Y-189259580D02*
X241178866Y-189069104D01*
X241286009Y-188973866D01*
X241488390Y-188878628D01*
X241678866Y-188878628D01*
X243869342Y-188878628D02*
X243619342Y-190878628D01*
X243857438Y-188973866D02*
X244059819Y-188878628D01*
X244440771Y-188878628D01*
X244619342Y-188973866D01*
X244702676Y-189069104D01*
X244774104Y-189259580D01*
X244702676Y-189831009D01*
X244583628Y-190021485D01*
X244476485Y-190116723D01*
X244274104Y-190211961D01*
X243893152Y-190211961D01*
X243714580Y-190116723D01*
X245512199Y-190211961D02*
X245678866Y-188878628D01*
X245762199Y-188211961D02*
X245655057Y-188307200D01*
X245738390Y-188402438D01*
X245845533Y-188307200D01*
X245762199Y-188211961D01*
X245738390Y-188402438D01*
X248047914Y-188211961D02*
X249381247Y-188211961D01*
X247797914Y-190211961D01*
X249131247Y-190211961D01*
X250666961Y-190116723D02*
X250464580Y-190211961D01*
X250083628Y-190211961D01*
X249905057Y-190116723D01*
X249833628Y-189926247D01*
X249928866Y-189164342D01*
X250047914Y-188973866D01*
X250250295Y-188878628D01*
X250631247Y-188878628D01*
X250809819Y-188973866D01*
X250881247Y-189164342D01*
X250857438Y-189354819D01*
X249881247Y-189545295D01*
X251607438Y-190211961D02*
X251774104Y-188878628D01*
X251726485Y-189259580D02*
X251845533Y-189069104D01*
X251952676Y-188973866D01*
X252155057Y-188878628D01*
X252345533Y-188878628D01*
X253131247Y-190211961D02*
X252952676Y-190116723D01*
X252869342Y-190021485D01*
X252797914Y-189831009D01*
X252869342Y-189259580D01*
X252988390Y-189069104D01*
X253095533Y-188973866D01*
X253297914Y-188878628D01*
X253583628Y-188878628D01*
X253762200Y-188973866D01*
X253845533Y-189069104D01*
X253916961Y-189259580D01*
X253845533Y-189831009D01*
X253726485Y-190021485D01*
X253619342Y-190116723D01*
X253416961Y-190211961D01*
X253131247Y-190211961D01*
D10*
D11*
X178934342Y-185600057D02*
X178434342Y-185600057D01*
X178434342Y-186385771D02*
X178434342Y-184885771D01*
X179148628Y-184885771D01*
X179720057Y-186385771D02*
X179720057Y-185385771D01*
X179720057Y-184885771D02*
X179648628Y-184957200D01*
X179720057Y-185028628D01*
X179791485Y-184957200D01*
X179720057Y-184885771D01*
X179720057Y-185028628D01*
X180648628Y-186385771D02*
X180505771Y-186314342D01*
X180434342Y-186171485D01*
X180434342Y-184885771D01*
X181791485Y-186314342D02*
X181648628Y-186385771D01*
X181362914Y-186385771D01*
X181220057Y-186314342D01*
X181148628Y-186171485D01*
X181148628Y-185600057D01*
X181220057Y-185457200D01*
X181362914Y-185385771D01*
X181648628Y-185385771D01*
X181791485Y-185457200D01*
X181862914Y-185600057D01*
X181862914Y-185742914D01*
X181148628Y-185885771D01*
X182505771Y-186242914D02*
X182577200Y-186314342D01*
X182505771Y-186385771D01*
X182434342Y-186314342D01*
X182505771Y-186242914D01*
X182505771Y-186385771D01*
X182505771Y-185457200D02*
X182577200Y-185528628D01*
X182505771Y-185600057D01*
X182434342Y-185528628D01*
X182505771Y-185457200D01*
X182505771Y-185600057D01*
X184362914Y-185385771D02*
X184362914Y-186885771D01*
X184362914Y-185457200D02*
X184505771Y-185385771D01*
X184791485Y-185385771D01*
X184934342Y-185457200D01*
X185005771Y-185528628D01*
X185077200Y-185671485D01*
X185077200Y-186100057D01*
X185005771Y-186242914D01*
X184934342Y-186314342D01*
X184791485Y-186385771D01*
X184505771Y-186385771D01*
X184362914Y-186314342D01*
X185720057Y-186385771D02*
X185720057Y-184885771D01*
X185720057Y-185600057D02*
X186577200Y-185600057D01*
X186577200Y-186385771D02*
X186577200Y-184885771D01*
X187220057Y-185957200D02*
X187934342Y-185957200D01*
X187077200Y-186385771D02*
X187577200Y-184885771D01*
X188077200Y-186385771D01*
X188362914Y-184885771D02*
X189220057Y-184885771D01*
X188791485Y-186385771D02*
X188791485Y-184885771D01*
X189362914Y-186528628D02*
X190505771Y-186528628D01*
X190862914Y-186385771D02*
X190862914Y-184885771D01*
X191434342Y-184885771D01*
X191577200Y-184957200D01*
X191648628Y-185028628D01*
X191720057Y-185171485D01*
X191720057Y-185385771D01*
X191648628Y-185528628D01*
X191577200Y-185600057D01*
X191434342Y-185671485D01*
X190862914Y-185671485D01*
X192291485Y-185957200D02*
X193005771Y-185957200D01*
X192148628Y-186385771D02*
X192648628Y-184885771D01*
X193148628Y-186385771D01*
X193577200Y-186314342D02*
X193791485Y-186385771D01*
X194148628Y-186385771D01*
X194291485Y-186314342D01*
X194362914Y-186242914D01*
X194434342Y-186100057D01*
X194434342Y-185957200D01*
X194362914Y-185814342D01*
X194291485Y-185742914D01*
X194148628Y-185671485D01*
X193862914Y-185600057D01*
X193720057Y-185528628D01*
X193648628Y-185457200D01*
X193577200Y-185314342D01*
X193577200Y-185171485D01*
X193648628Y-185028628D01*
X193720057Y-184957200D01*
X193862914Y-184885771D01*
X194220057Y-184885771D01*
X194434342Y-184957200D01*
X195005771Y-186314342D02*
X195220057Y-186385771D01*
X195577200Y-186385771D01*
X195720057Y-186314342D01*
X195791485Y-186242914D01*
X195862914Y-186100057D01*
X195862914Y-185957200D01*
X195791485Y-185814342D01*
X195720057Y-185742914D01*
X195577200Y-185671485D01*
X195291485Y-185600057D01*
X195148628Y-185528628D01*
X195077200Y-185457200D01*
X195005771Y-185314342D01*
X195005771Y-185171485D01*
X195077200Y-185028628D01*
X195148628Y-184957200D01*
X195291485Y-184885771D01*
X195648628Y-184885771D01*
X195862914Y-184957200D01*
X196505771Y-186385771D02*
X196505771Y-184885771D01*
X197005771Y-184885771D02*
X197505771Y-186385771D01*
X198005771Y-184885771D01*
X198505771Y-185600057D02*
X199005771Y-185600057D01*
X199220057Y-186385771D02*
X198505771Y-186385771D01*
X198505771Y-184885771D01*
X199220057Y-184885771D01*
X199505771Y-186528628D02*
X200648628Y-186528628D01*
X200791485Y-184885771D02*
X201648628Y-184885771D01*
X201220057Y-186385771D02*
X201220057Y-184885771D01*
X202077200Y-185957200D02*
X202791485Y-185957200D01*
X201934342Y-186385771D02*
X202434342Y-184885771D01*
X202934342Y-186385771D01*
X204220057Y-184957200D02*
X204077200Y-184885771D01*
X203862914Y-184885771D01*
X203648628Y-184957200D01*
X203505771Y-185100057D01*
X203434342Y-185242914D01*
X203362914Y-185528628D01*
X203362914Y-185742914D01*
X203434342Y-186028628D01*
X203505771Y-186171485D01*
X203648628Y-186314342D01*
X203862914Y-186385771D01*
X204005771Y-186385771D01*
X204220057Y-186314342D01*
X204291485Y-186242914D01*
X204291485Y-185742914D01*
X204005771Y-185742914D01*
X204934342Y-186242914D02*
X205005771Y-186314342D01*
X204934342Y-186385771D01*
X204862914Y-186314342D01*
X204934342Y-186242914D01*
X204934342Y-186385771D01*
X205648628Y-186385771D02*
X205648628Y-184885771D01*
X205791485Y-185814342D02*
X206220057Y-186385771D01*
X206220057Y-185385771D02*
X205648628Y-185957200D01*
X206862914Y-186385771D02*
X206862914Y-185385771D01*
X206862914Y-184885771D02*
X206791485Y-184957200D01*
X206862914Y-185028628D01*
X206934342Y-184957200D01*
X206862914Y-184885771D01*
X206862914Y-185028628D01*
X208220057Y-186314342D02*
X208077200Y-186385771D01*
X207791485Y-186385771D01*
X207648628Y-186314342D01*
X207577200Y-186242914D01*
X207505771Y-186100057D01*
X207505771Y-185671485D01*
X207577200Y-185528628D01*
X207648628Y-185457200D01*
X207791485Y-185385771D01*
X208077200Y-185385771D01*
X208220057Y-185457200D01*
X209505771Y-186385771D02*
X209505771Y-185600057D01*
X209434342Y-185457200D01*
X209291485Y-185385771D01*
X209005771Y-185385771D01*
X208862914Y-185457200D01*
X209505771Y-186314342D02*
X209362914Y-186385771D01*
X209005771Y-186385771D01*
X208862914Y-186314342D01*
X208791485Y-186171485D01*
X208791485Y-186028628D01*
X208862914Y-185885771D01*
X209005771Y-185814342D01*
X209362914Y-185814342D01*
X209505771Y-185742914D01*
X210862914Y-186385771D02*
X210862914Y-184885771D01*
X210862914Y-186314342D02*
X210720057Y-186385771D01*
X210434342Y-186385771D01*
X210291485Y-186314342D01*
X210220057Y-186242914D01*
X210148628Y-186100057D01*
X210148628Y-185671485D01*
X210220057Y-185528628D01*
X210291485Y-185457200D01*
X210434342Y-185385771D01*
X210720057Y-185385771D01*
X210862914Y-185457200D01*
X211220057Y-186528628D02*
X212362914Y-186528628D01*
X212720057Y-185385771D02*
X212720057Y-186885771D01*
X212720057Y-185457200D02*
X212862914Y-185385771D01*
X213148628Y-185385771D01*
X213291485Y-185457200D01*
X213362914Y-185528628D01*
X213434342Y-185671485D01*
X213434342Y-186100057D01*
X213362914Y-186242914D01*
X213291485Y-186314342D01*
X213148628Y-186385771D01*
X212862914Y-186385771D01*
X212720057Y-186314342D01*
X214720057Y-186314342D02*
X214577200Y-186385771D01*
X214291485Y-186385771D01*
X214148628Y-186314342D01*
X214077200Y-186242914D01*
X214005771Y-186100057D01*
X214005771Y-185671485D01*
X214077200Y-185528628D01*
X214148628Y-185457200D01*
X214291485Y-185385771D01*
X214577200Y-185385771D01*
X214720057Y-185457200D01*
X215362914Y-186385771D02*
X215362914Y-184885771D01*
X215362914Y-185457200D02*
X215505771Y-185385771D01*
X215791485Y-185385771D01*
X215934342Y-185457200D01*
X216005771Y-185528628D01*
X216077200Y-185671485D01*
X216077200Y-186100057D01*
X216005771Y-186242914D01*
X215934342Y-186314342D01*
X215791485Y-186385771D01*
X215505771Y-186385771D01*
X215362914Y-186314342D01*
D10*
D11*
X177002200Y-181507200D02*
X285002200Y-181507200D01*
D10*
D11*
X178362914Y-183614342D02*
X178577200Y-183685771D01*
X178934342Y-183685771D01*
X179077200Y-183614342D01*
X179148628Y-183542914D01*
X179220057Y-183400057D01*
X179220057Y-183257200D01*
X179148628Y-183114342D01*
X179077200Y-183042914D01*
X178934342Y-182971485D01*
X178648628Y-182900057D01*
X178505771Y-182828628D01*
X178434342Y-182757200D01*
X178362914Y-182614342D01*
X178362914Y-182471485D01*
X178434342Y-182328628D01*
X178505771Y-182257200D01*
X178648628Y-182185771D01*
X179005771Y-182185771D01*
X179220057Y-182257200D01*
X179862914Y-183685771D02*
X179862914Y-182185771D01*
X180505771Y-183685771D02*
X180505771Y-182900057D01*
X180434342Y-182757200D01*
X180291485Y-182685771D01*
X180077200Y-182685771D01*
X179934342Y-182757200D01*
X179862914Y-182828628D01*
X181791485Y-183614342D02*
X181648628Y-183685771D01*
X181362914Y-183685771D01*
X181220057Y-183614342D01*
X181148628Y-183471485D01*
X181148628Y-182900057D01*
X181220057Y-182757200D01*
X181362914Y-182685771D01*
X181648628Y-182685771D01*
X181791485Y-182757200D01*
X181862914Y-182900057D01*
X181862914Y-183042914D01*
X181148628Y-183185771D01*
X183077200Y-183614342D02*
X182934342Y-183685771D01*
X182648628Y-183685771D01*
X182505771Y-183614342D01*
X182434342Y-183471485D01*
X182434342Y-182900057D01*
X182505771Y-182757200D01*
X182648628Y-182685771D01*
X182934342Y-182685771D01*
X183077200Y-182757200D01*
X183148628Y-182900057D01*
X183148628Y-183042914D01*
X182434342Y-183185771D01*
X183577200Y-182685771D02*
X184148628Y-182685771D01*
X183791485Y-182185771D02*
X183791485Y-183471485D01*
X183862914Y-183614342D01*
X184005771Y-183685771D01*
X184148628Y-183685771D01*
X184648628Y-183542914D02*
X184720057Y-183614342D01*
X184648628Y-183685771D01*
X184577200Y-183614342D01*
X184648628Y-183542914D01*
X184648628Y-183685771D01*
X184648628Y-182757200D02*
X184720057Y-182828628D01*
X184648628Y-182900057D01*
X184577200Y-182828628D01*
X184648628Y-182757200D01*
X184648628Y-182900057D01*
D10*
D12*
X178554342Y-180685771D02*
X178554342Y-179185771D01*
X179054342Y-180257200D01*
X179554342Y-179185771D01*
X179554342Y-180685771D01*
X180268628Y-180685771D02*
X180268628Y-179185771D01*
X180768628Y-180257200D01*
X181268628Y-179185771D01*
X181268628Y-180685771D01*
X183125771Y-179900057D02*
X183625771Y-179900057D01*
X183840057Y-180685771D02*
X183125771Y-180685771D01*
X183125771Y-179185771D01*
X183840057Y-179185771D01*
X184697200Y-180685771D02*
X184554342Y-180614342D01*
X184482914Y-180471485D01*
X184482914Y-179185771D01*
X185840057Y-180614342D02*
X185697200Y-180685771D01*
X185411485Y-180685771D01*
X185268628Y-180614342D01*
X185197200Y-180471485D01*
X185197200Y-179900057D01*
X185268628Y-179757200D01*
X185411485Y-179685771D01*
X185697200Y-179685771D01*
X185840057Y-179757200D01*
X185911485Y-179900057D01*
X185911485Y-180042914D01*
X185197200Y-180185771D01*
X187197200Y-180614342D02*
X187054342Y-180685771D01*
X186768628Y-180685771D01*
X186625771Y-180614342D01*
X186554342Y-180542914D01*
X186482914Y-180400057D01*
X186482914Y-179971485D01*
X186554342Y-179828628D01*
X186625771Y-179757200D01*
X186768628Y-179685771D01*
X187054342Y-179685771D01*
X187197200Y-179757200D01*
X187625771Y-179685771D02*
X188197200Y-179685771D01*
X187840057Y-179185771D02*
X187840057Y-180471485D01*
X187911485Y-180614342D01*
X188054342Y-180685771D01*
X188197200Y-180685771D01*
X188697200Y-180685771D02*
X188697200Y-179685771D01*
X188697200Y-179971485D02*
X188768628Y-179828628D01*
X188840057Y-179757200D01*
X188982914Y-179685771D01*
X189125771Y-179685771D01*
X189840057Y-180685771D02*
X189697200Y-180614342D01*
X189625771Y-180542914D01*
X189554342Y-180400057D01*
X189554342Y-179971485D01*
X189625771Y-179828628D01*
X189697200Y-179757200D01*
X189840057Y-179685771D01*
X190054342Y-179685771D01*
X190197200Y-179757200D01*
X190268628Y-179828628D01*
X190340057Y-179971485D01*
X190340057Y-180400057D01*
X190268628Y-180542914D01*
X190197200Y-180614342D01*
X190054342Y-180685771D01*
X189840057Y-180685771D01*
X190982914Y-179685771D02*
X190982914Y-180685771D01*
X190982914Y-179828628D02*
X191054342Y-179757200D01*
X191197200Y-179685771D01*
X191411485Y-179685771D01*
X191554342Y-179757200D01*
X191625771Y-179900057D01*
X191625771Y-180685771D01*
X192340057Y-180685771D02*
X192340057Y-179685771D01*
X192340057Y-179185771D02*
X192268628Y-179257200D01*
X192340057Y-179328628D01*
X192411485Y-179257200D01*
X192340057Y-179185771D01*
X192340057Y-179328628D01*
X193697200Y-180614342D02*
X193554342Y-180685771D01*
X193268628Y-180685771D01*
X193125771Y-180614342D01*
X193054342Y-180542914D01*
X192982914Y-180400057D01*
X192982914Y-179971485D01*
X193054342Y-179828628D01*
X193125771Y-179757200D01*
X193268628Y-179685771D01*
X193554342Y-179685771D01*
X193697200Y-179757200D01*
X194268628Y-180614342D02*
X194411485Y-180685771D01*
X194697200Y-180685771D01*
X194840057Y-180614342D01*
X194911485Y-180471485D01*
X194911485Y-180400057D01*
X194840057Y-180257200D01*
X194697200Y-180185771D01*
X194482914Y-180185771D01*
X194340057Y-180114342D01*
X194268628Y-179971485D01*
X194268628Y-179900057D01*
X194340057Y-179757200D01*
X194482914Y-179685771D01*
X194697200Y-179685771D01*
X194840057Y-179757200D01*
D10*
D11*
X178434342Y-177685771D02*
X178434342Y-176185771D01*
X178934342Y-177257200D01*
X179434342Y-176185771D01*
X179434342Y-177685771D01*
X180148628Y-177685771D02*
X180148628Y-176185771D01*
X180648628Y-176185771D02*
X181505771Y-176185771D01*
X181077200Y-177685771D02*
X181077200Y-176185771D01*
X183862914Y-177685771D02*
X183148628Y-177685771D01*
X183148628Y-176185771D01*
X184362914Y-177685771D02*
X184362914Y-176685771D01*
X184362914Y-176185771D02*
X184291485Y-176257200D01*
X184362914Y-176328628D01*
X184434342Y-176257200D01*
X184362914Y-176185771D01*
X184362914Y-176328628D01*
X185720057Y-177614342D02*
X185577200Y-177685771D01*
X185291485Y-177685771D01*
X185148628Y-177614342D01*
X185077200Y-177542914D01*
X185005771Y-177400057D01*
X185005771Y-176971485D01*
X185077200Y-176828628D01*
X185148628Y-176757200D01*
X185291485Y-176685771D01*
X185577200Y-176685771D01*
X185720057Y-176757200D01*
X186934342Y-177614342D02*
X186791485Y-177685771D01*
X186505771Y-177685771D01*
X186362914Y-177614342D01*
X186291485Y-177471485D01*
X186291485Y-176900057D01*
X186362914Y-176757200D01*
X186505771Y-176685771D01*
X186791485Y-176685771D01*
X186934342Y-176757200D01*
X187005771Y-176900057D01*
X187005771Y-177042914D01*
X186291485Y-177185771D01*
X187648628Y-176685771D02*
X187648628Y-177685771D01*
X187648628Y-176828628D02*
X187720057Y-176757200D01*
X187862914Y-176685771D01*
X188077200Y-176685771D01*
X188220057Y-176757200D01*
X188291485Y-176900057D01*
X188291485Y-177685771D01*
X188934342Y-177614342D02*
X189077200Y-177685771D01*
X189362914Y-177685771D01*
X189505771Y-177614342D01*
X189577200Y-177471485D01*
X189577200Y-177400057D01*
X189505771Y-177257200D01*
X189362914Y-177185771D01*
X189148628Y-177185771D01*
X189005771Y-177114342D01*
X188934342Y-176971485D01*
X188934342Y-176900057D01*
X189005771Y-176757200D01*
X189148628Y-176685771D01*
X189362914Y-176685771D01*
X189505771Y-176757200D01*
X190791485Y-177614342D02*
X190648628Y-177685771D01*
X190362914Y-177685771D01*
X190220057Y-177614342D01*
X190148628Y-177471485D01*
X190148628Y-176900057D01*
X190220057Y-176757200D01*
X190362914Y-176685771D01*
X190648628Y-176685771D01*
X190791485Y-176757200D01*
X190862914Y-176900057D01*
X190862914Y-177042914D01*
X190148628Y-177185771D01*
X192148628Y-177685771D02*
X192148628Y-176185771D01*
X192148628Y-177614342D02*
X192005771Y-177685771D01*
X191720057Y-177685771D01*
X191577200Y-177614342D01*
X191505771Y-177542914D01*
X191434342Y-177400057D01*
X191434342Y-176971485D01*
X191505771Y-176828628D01*
X191577200Y-176757200D01*
X191720057Y-176685771D01*
X192005771Y-176685771D01*
X192148628Y-176757200D01*
X194291485Y-176185771D02*
X194577200Y-176185771D01*
X194720057Y-176257200D01*
X194862914Y-176400057D01*
X194934342Y-176685771D01*
X194934342Y-177185771D01*
X194862914Y-177471485D01*
X194720057Y-177614342D01*
X194577200Y-177685771D01*
X194291485Y-177685771D01*
X194148628Y-177614342D01*
X194005771Y-177471485D01*
X193934342Y-177185771D01*
X193934342Y-176685771D01*
X194005771Y-176400057D01*
X194148628Y-176257200D01*
X194291485Y-176185771D01*
X195577200Y-176685771D02*
X195577200Y-178185771D01*
X195577200Y-176757200D02*
X195720057Y-176685771D01*
X196005771Y-176685771D01*
X196148628Y-176757200D01*
X196220057Y-176828628D01*
X196291485Y-176971485D01*
X196291485Y-177400057D01*
X196220057Y-177542914D01*
X196148628Y-177614342D01*
X196005771Y-177685771D01*
X195720057Y-177685771D01*
X195577200Y-177614342D01*
X197505771Y-177614342D02*
X197362914Y-177685771D01*
X197077200Y-177685771D01*
X196934342Y-177614342D01*
X196862914Y-177471485D01*
X196862914Y-176900057D01*
X196934342Y-176757200D01*
X197077200Y-176685771D01*
X197362914Y-176685771D01*
X197505771Y-176757200D01*
X197577200Y-176900057D01*
X197577200Y-177042914D01*
X196862914Y-177185771D01*
X198220057Y-176685771D02*
X198220057Y-177685771D01*
X198220057Y-176828628D02*
X198291485Y-176757200D01*
X198434342Y-176685771D01*
X198648628Y-176685771D01*
X198791485Y-176757200D01*
X198862914Y-176900057D01*
X198862914Y-177685771D01*
X200648628Y-177614342D02*
X200862914Y-177685771D01*
X201220057Y-177685771D01*
X201362914Y-177614342D01*
X201434342Y-177542914D01*
X201505771Y-177400057D01*
X201505771Y-177257200D01*
X201434342Y-177114342D01*
X201362914Y-177042914D01*
X201220057Y-176971485D01*
X200934342Y-176900057D01*
X200791485Y-176828628D01*
X200720057Y-176757200D01*
X200648628Y-176614342D01*
X200648628Y-176471485D01*
X200720057Y-176328628D01*
X200791485Y-176257200D01*
X200934342Y-176185771D01*
X201291485Y-176185771D01*
X201505771Y-176257200D01*
X202362914Y-177685771D02*
X202220057Y-177614342D01*
X202148628Y-177542914D01*
X202077200Y-177400057D01*
X202077200Y-176971485D01*
X202148628Y-176828628D01*
X202220057Y-176757200D01*
X202362914Y-176685771D01*
X202577200Y-176685771D01*
X202720057Y-176757200D01*
X202791485Y-176828628D01*
X202862914Y-176971485D01*
X202862914Y-177400057D01*
X202791485Y-177542914D01*
X202720057Y-177614342D01*
X202577200Y-177685771D01*
X202362914Y-177685771D01*
X204148628Y-176685771D02*
X204148628Y-177685771D01*
X203505771Y-176685771D02*
X203505771Y-177471485D01*
X203577200Y-177614342D01*
X203720057Y-177685771D01*
X203934342Y-177685771D01*
X204077200Y-177614342D01*
X204148628Y-177542914D01*
X204862914Y-177685771D02*
X204862914Y-176685771D01*
X204862914Y-176971485D02*
X204934342Y-176828628D01*
X205005771Y-176757200D01*
X205148628Y-176685771D01*
X205291485Y-176685771D01*
X206434342Y-177614342D02*
X206291485Y-177685771D01*
X206005771Y-177685771D01*
X205862914Y-177614342D01*
X205791485Y-177542914D01*
X205720057Y-177400057D01*
X205720057Y-176971485D01*
X205791485Y-176828628D01*
X205862914Y-176757200D01*
X206005771Y-176685771D01*
X206291485Y-176685771D01*
X206434342Y-176757200D01*
X207648628Y-177614342D02*
X207505771Y-177685771D01*
X207220057Y-177685771D01*
X207077200Y-177614342D01*
X207005771Y-177471485D01*
X207005771Y-176900057D01*
X207077200Y-176757200D01*
X207220057Y-176685771D01*
X207505771Y-176685771D01*
X207648628Y-176757200D01*
X207720057Y-176900057D01*
X207720057Y-177042914D01*
X207005771Y-177185771D01*
X209505771Y-177685771D02*
X209505771Y-176185771D01*
X209505771Y-176900057D02*
X210362914Y-176900057D01*
X210362914Y-177685771D02*
X210362914Y-176185771D01*
X211720057Y-177685771D02*
X211720057Y-176900057D01*
X211648628Y-176757200D01*
X211505771Y-176685771D01*
X211220057Y-176685771D01*
X211077200Y-176757200D01*
X211720057Y-177614342D02*
X211577200Y-177685771D01*
X211220057Y-177685771D01*
X211077200Y-177614342D01*
X211005771Y-177471485D01*
X211005771Y-177328628D01*
X211077200Y-177185771D01*
X211220057Y-177114342D01*
X211577200Y-177114342D01*
X211720057Y-177042914D01*
X212434342Y-177685771D02*
X212434342Y-176685771D01*
X212434342Y-176971485D02*
X212505771Y-176828628D01*
X212577200Y-176757200D01*
X212720057Y-176685771D01*
X212862914Y-176685771D01*
X214005771Y-177685771D02*
X214005771Y-176185771D01*
X214005771Y-177614342D02*
X213862914Y-177685771D01*
X213577200Y-177685771D01*
X213434342Y-177614342D01*
X213362914Y-177542914D01*
X213291485Y-177400057D01*
X213291485Y-176971485D01*
X213362914Y-176828628D01*
X213434342Y-176757200D01*
X213577200Y-176685771D01*
X213862914Y-176685771D01*
X214005771Y-176757200D01*
X214577200Y-176685771D02*
X214862914Y-177685771D01*
X215148628Y-176971485D01*
X215434342Y-177685771D01*
X215720057Y-176685771D01*
X216934342Y-177685771D02*
X216934342Y-176900057D01*
X216862914Y-176757200D01*
X216720057Y-176685771D01*
X216434342Y-176685771D01*
X216291485Y-176757200D01*
X216934342Y-177614342D02*
X216791485Y-177685771D01*
X216434342Y-177685771D01*
X216291485Y-177614342D01*
X216220057Y-177471485D01*
X216220057Y-177328628D01*
X216291485Y-177185771D01*
X216434342Y-177114342D01*
X216791485Y-177114342D01*
X216934342Y-177042914D01*
X217648628Y-177685771D02*
X217648628Y-176685771D01*
X217648628Y-176971485D02*
X217720057Y-176828628D01*
X217791485Y-176757200D01*
X217934342Y-176685771D01*
X218077200Y-176685771D01*
X219148628Y-177614342D02*
X219005771Y-177685771D01*
X218720057Y-177685771D01*
X218577200Y-177614342D01*
X218505771Y-177471485D01*
X218505771Y-176900057D01*
X218577200Y-176757200D01*
X218720057Y-176685771D01*
X219005771Y-176685771D01*
X219148628Y-176757200D01*
X219220057Y-176900057D01*
X219220057Y-177042914D01*
X218505771Y-177185771D01*
D10*
D11*
X197002200Y-191507200D02*
X197002200Y-194507200D01*
D10*
D11*
X261002200Y-191507200D02*
X261002200Y-198007200D01*
%TO.C,H3*%
X40740800Y-59483600D02*
G75*
G03X40740800Y-59483600I-3100000J0D01*
G01*
X39015800Y-59483600D02*
G75*
G03X39015800Y-59483600I-1375000J0D01*
G01*
%TO.C,H2*%
X98740800Y-36483600D02*
G75*
G03X98740800Y-36483600I-3100000J0D01*
G01*
X97015800Y-36483600D02*
G75*
G03X97015800Y-36483600I-1375000J0D01*
G01*
%TO.C,H4*%
X98740800Y-59483600D02*
G75*
G03X98740800Y-59483600I-3100000J0D01*
G01*
X97015800Y-59483600D02*
G75*
G03X97015800Y-59483600I-1375000J0D01*
G01*
%TO.C,H1*%
X40740800Y-36483600D02*
G75*
G03X40740800Y-36483600I-3100000J0D01*
G01*
X39015800Y-36483600D02*
G75*
G03X39015800Y-36483600I-1375000J0D01*
G01*
D10*
%TO.C,R1*%
X52260400Y-41979800D02*
X50660400Y-41979800D01*
X52260400Y-41179800D02*
X52260400Y-41979800D01*
X50660400Y-41179800D02*
X52260400Y-41179800D01*
X50660400Y-41979800D02*
X50660400Y-41179800D01*
%TO.C,R3*%
X45059500Y-41979800D02*
X43459500Y-41979800D01*
X45059500Y-41179800D02*
X45059500Y-41979800D01*
X43459500Y-41179800D02*
X45059500Y-41179800D01*
X43459500Y-41979800D02*
X43459500Y-41179800D01*
%TO.C,R2*%
X47587000Y-41179800D02*
X49187000Y-41179800D01*
X47587000Y-41979800D02*
X47587000Y-41179800D01*
X49187000Y-41979800D02*
X47587000Y-41979800D01*
X49187000Y-41179800D02*
X49187000Y-41979800D01*
%TO.C,U1*%
X52529000Y-50120000D02*
X53504000Y-51095000D01*
X48604000Y-50120000D02*
X52529000Y-50120000D01*
X48604000Y-54020000D02*
X48604000Y-50120000D01*
X53504000Y-54020000D02*
X48604000Y-54020000D01*
X53504000Y-51095000D02*
X53504000Y-54020000D01*
%TO.C,C2*%
X55226000Y-51270000D02*
X56026000Y-51270000D01*
X55226000Y-52870000D02*
X55226000Y-51270000D01*
X56026000Y-52870000D02*
X55226000Y-52870000D01*
X56026000Y-51270000D02*
X56026000Y-52870000D01*
%TO.C,C1*%
X57804000Y-51270000D02*
X57804000Y-52870000D01*
X57804000Y-52870000D02*
X57004000Y-52870000D01*
X57004000Y-52870000D02*
X57004000Y-51270000D01*
X57004000Y-51270000D02*
X57804000Y-51270000D01*
%TO.C,C3*%
X50457000Y-56750000D02*
X50457000Y-57550000D01*
X48857000Y-56750000D02*
X50457000Y-56750000D01*
X48857000Y-57550000D02*
X48857000Y-56750000D01*
X50457000Y-57550000D02*
X48857000Y-57550000D01*
%TO.C,C4*%
X50457000Y-59582000D02*
X48857000Y-59582000D01*
X48857000Y-59582000D02*
X48857000Y-58782000D01*
X48857000Y-58782000D02*
X50457000Y-58782000D01*
X50457000Y-58782000D02*
X50457000Y-59582000D01*
%TD*%
%TO.C,R1*%
D11*
X50769923Y-43462180D02*
X50198495Y-43462180D01*
X50484209Y-43462180D02*
X50484209Y-42462180D01*
X50388971Y-42605038D01*
X50293733Y-42700276D01*
X50198495Y-42747895D01*
X51388971Y-42462180D02*
X51484209Y-42462180D01*
X51579447Y-42509800D01*
X51627066Y-42557419D01*
X51674685Y-42652657D01*
X51722304Y-42843133D01*
X51722304Y-43081228D01*
X51674685Y-43271704D01*
X51627066Y-43366942D01*
X51579447Y-43414561D01*
X51484209Y-43462180D01*
X51388971Y-43462180D01*
X51293733Y-43414561D01*
X51246114Y-43366942D01*
X51198495Y-43271704D01*
X51150876Y-43081228D01*
X51150876Y-42843133D01*
X51198495Y-42652657D01*
X51246114Y-42557419D01*
X51293733Y-42509800D01*
X51388971Y-42462180D01*
X52150876Y-43462180D02*
X52150876Y-42462180D01*
X52722304Y-43462180D02*
X52293733Y-42890752D01*
X52722304Y-42462180D02*
X52150876Y-43033609D01*
D14*
X51393733Y-41760752D02*
X51260400Y-41570276D01*
X51165161Y-41760752D02*
X51165161Y-41360752D01*
X51317542Y-41360752D01*
X51355638Y-41379800D01*
X51374685Y-41398847D01*
X51393733Y-41436942D01*
X51393733Y-41494085D01*
X51374685Y-41532180D01*
X51355638Y-41551228D01*
X51317542Y-41570276D01*
X51165161Y-41570276D01*
X51774685Y-41760752D02*
X51546114Y-41760752D01*
X51660400Y-41760752D02*
X51660400Y-41360752D01*
X51622304Y-41417895D01*
X51584209Y-41455990D01*
X51546114Y-41475038D01*
%TO.C,R3*%
D11*
X43569023Y-43462180D02*
X42997595Y-43462180D01*
X43283309Y-43462180D02*
X43283309Y-42462180D01*
X43188071Y-42605038D01*
X43092833Y-42700276D01*
X42997595Y-42747895D01*
X44188071Y-42462180D02*
X44283309Y-42462180D01*
X44378547Y-42509800D01*
X44426166Y-42557419D01*
X44473785Y-42652657D01*
X44521404Y-42843133D01*
X44521404Y-43081228D01*
X44473785Y-43271704D01*
X44426166Y-43366942D01*
X44378547Y-43414561D01*
X44283309Y-43462180D01*
X44188071Y-43462180D01*
X44092833Y-43414561D01*
X44045214Y-43366942D01*
X43997595Y-43271704D01*
X43949976Y-43081228D01*
X43949976Y-42843133D01*
X43997595Y-42652657D01*
X44045214Y-42557419D01*
X44092833Y-42509800D01*
X44188071Y-42462180D01*
X44949976Y-43462180D02*
X44949976Y-42462180D01*
X45521404Y-43462180D02*
X45092833Y-42890752D01*
X45521404Y-42462180D02*
X44949976Y-43033609D01*
D14*
X44192833Y-41760752D02*
X44059500Y-41570276D01*
X43964261Y-41760752D02*
X43964261Y-41360752D01*
X44116642Y-41360752D01*
X44154738Y-41379800D01*
X44173785Y-41398847D01*
X44192833Y-41436942D01*
X44192833Y-41494085D01*
X44173785Y-41532180D01*
X44154738Y-41551228D01*
X44116642Y-41570276D01*
X43964261Y-41570276D01*
X44326166Y-41360752D02*
X44573785Y-41360752D01*
X44440452Y-41513133D01*
X44497595Y-41513133D01*
X44535690Y-41532180D01*
X44554738Y-41551228D01*
X44573785Y-41589323D01*
X44573785Y-41684561D01*
X44554738Y-41722657D01*
X44535690Y-41741704D01*
X44497595Y-41760752D01*
X44383309Y-41760752D01*
X44345214Y-41741704D01*
X44326166Y-41722657D01*
%TO.C,R2*%
D11*
X47696523Y-40602180D02*
X47125095Y-40602180D01*
X47410809Y-40602180D02*
X47410809Y-39602180D01*
X47315571Y-39745038D01*
X47220333Y-39840276D01*
X47125095Y-39887895D01*
X48315571Y-39602180D02*
X48410809Y-39602180D01*
X48506047Y-39649800D01*
X48553666Y-39697419D01*
X48601285Y-39792657D01*
X48648904Y-39983133D01*
X48648904Y-40221228D01*
X48601285Y-40411704D01*
X48553666Y-40506942D01*
X48506047Y-40554561D01*
X48410809Y-40602180D01*
X48315571Y-40602180D01*
X48220333Y-40554561D01*
X48172714Y-40506942D01*
X48125095Y-40411704D01*
X48077476Y-40221228D01*
X48077476Y-39983133D01*
X48125095Y-39792657D01*
X48172714Y-39697419D01*
X48220333Y-39649800D01*
X48315571Y-39602180D01*
X49077476Y-40602180D02*
X49077476Y-39602180D01*
X49648904Y-40602180D02*
X49220333Y-40030752D01*
X49648904Y-39602180D02*
X49077476Y-40173609D01*
D14*
X48320333Y-41760752D02*
X48187000Y-41570276D01*
X48091761Y-41760752D02*
X48091761Y-41360752D01*
X48244142Y-41360752D01*
X48282238Y-41379800D01*
X48301285Y-41398847D01*
X48320333Y-41436942D01*
X48320333Y-41494085D01*
X48301285Y-41532180D01*
X48282238Y-41551228D01*
X48244142Y-41570276D01*
X48091761Y-41570276D01*
X48472714Y-41398847D02*
X48491761Y-41379800D01*
X48529857Y-41360752D01*
X48625095Y-41360752D01*
X48663190Y-41379800D01*
X48682238Y-41398847D01*
X48701285Y-41436942D01*
X48701285Y-41475038D01*
X48682238Y-41532180D01*
X48453666Y-41760752D01*
X48701285Y-41760752D01*
%TO.C,U1*%
D11*
X48106380Y-55641428D02*
X47106380Y-55641428D01*
X48106380Y-55070000D01*
X47106380Y-55070000D01*
X47106380Y-54736666D02*
X47106380Y-54165238D01*
X48106380Y-54450952D02*
X47106380Y-54450952D01*
X47106380Y-53927142D02*
X47106380Y-53308095D01*
X47487333Y-53641428D01*
X47487333Y-53498571D01*
X47534952Y-53403333D01*
X47582571Y-53355714D01*
X47677809Y-53308095D01*
X47915904Y-53308095D01*
X48011142Y-53355714D01*
X48058761Y-53403333D01*
X48106380Y-53498571D01*
X48106380Y-53784285D01*
X48058761Y-53879523D01*
X48011142Y-53927142D01*
X48106380Y-52879523D02*
X47106380Y-52879523D01*
X47582571Y-52879523D02*
X47582571Y-52308095D01*
X48106380Y-52308095D02*
X47106380Y-52308095D01*
X47201619Y-51879523D02*
X47154000Y-51831904D01*
X47106380Y-51736666D01*
X47106380Y-51498571D01*
X47154000Y-51403333D01*
X47201619Y-51355714D01*
X47296857Y-51308095D01*
X47392095Y-51308095D01*
X47534952Y-51355714D01*
X48106380Y-51927142D01*
X48106380Y-51308095D01*
X48106380Y-50355714D02*
X48106380Y-50927142D01*
X48106380Y-50641428D02*
X47106380Y-50641428D01*
X47249238Y-50736666D01*
X47344476Y-50831904D01*
X47392095Y-50927142D01*
X48106380Y-49403333D02*
X48106380Y-49974761D01*
X48106380Y-49689047D02*
X47106380Y-49689047D01*
X47249238Y-49784285D01*
X47344476Y-49879523D01*
X47392095Y-49974761D01*
X48106380Y-48450952D02*
X48106380Y-49022380D01*
X48106380Y-48736666D02*
X47106380Y-48736666D01*
X47249238Y-48831904D01*
X47344476Y-48927142D01*
X47392095Y-49022380D01*
X50517333Y-52816666D02*
X51310666Y-52816666D01*
X51404000Y-52770000D01*
X51450666Y-52723333D01*
X51497333Y-52630000D01*
X51497333Y-52443333D01*
X51450666Y-52350000D01*
X51404000Y-52303333D01*
X51310666Y-52256666D01*
X50517333Y-52256666D01*
X51497333Y-51276666D02*
X51497333Y-51836666D01*
X51497333Y-51556666D02*
X50517333Y-51556666D01*
X50657333Y-51650000D01*
X50750666Y-51743333D01*
X50797333Y-51836666D01*
%TO.C,C2*%
D15*
X55733142Y-52120000D02*
X55747428Y-52134285D01*
X55761714Y-52177142D01*
X55761714Y-52205714D01*
X55747428Y-52248571D01*
X55718857Y-52277142D01*
X55690285Y-52291428D01*
X55633142Y-52305714D01*
X55590285Y-52305714D01*
X55533142Y-52291428D01*
X55504571Y-52277142D01*
X55476000Y-52248571D01*
X55461714Y-52205714D01*
X55461714Y-52177142D01*
X55476000Y-52134285D01*
X55490285Y-52120000D01*
X55490285Y-52005714D02*
X55476000Y-51991428D01*
X55461714Y-51962857D01*
X55461714Y-51891428D01*
X55476000Y-51862857D01*
X55490285Y-51848571D01*
X55518857Y-51834285D01*
X55547428Y-51834285D01*
X55590285Y-51848571D01*
X55761714Y-52020000D01*
X55761714Y-51834285D01*
%TO.C,C1*%
X57511142Y-52120000D02*
X57525428Y-52134285D01*
X57539714Y-52177142D01*
X57539714Y-52205714D01*
X57525428Y-52248571D01*
X57496857Y-52277142D01*
X57468285Y-52291428D01*
X57411142Y-52305714D01*
X57368285Y-52305714D01*
X57311142Y-52291428D01*
X57282571Y-52277142D01*
X57254000Y-52248571D01*
X57239714Y-52205714D01*
X57239714Y-52177142D01*
X57254000Y-52134285D01*
X57268285Y-52120000D01*
X57539714Y-51834285D02*
X57539714Y-52005714D01*
X57539714Y-51920000D02*
X57239714Y-51920000D01*
X57282571Y-51948571D01*
X57311142Y-51977142D01*
X57325428Y-52005714D01*
%TO.C,C3*%
X49607000Y-57257142D02*
X49592714Y-57271428D01*
X49549857Y-57285714D01*
X49521285Y-57285714D01*
X49478428Y-57271428D01*
X49449857Y-57242857D01*
X49435571Y-57214285D01*
X49421285Y-57157142D01*
X49421285Y-57114285D01*
X49435571Y-57057142D01*
X49449857Y-57028571D01*
X49478428Y-57000000D01*
X49521285Y-56985714D01*
X49549857Y-56985714D01*
X49592714Y-57000000D01*
X49607000Y-57014285D01*
X49707000Y-56985714D02*
X49892714Y-56985714D01*
X49792714Y-57100000D01*
X49835571Y-57100000D01*
X49864142Y-57114285D01*
X49878428Y-57128571D01*
X49892714Y-57157142D01*
X49892714Y-57228571D01*
X49878428Y-57257142D01*
X49864142Y-57271428D01*
X49835571Y-57285714D01*
X49749857Y-57285714D01*
X49721285Y-57271428D01*
X49707000Y-57257142D01*
%TO.C,C4*%
X49607000Y-59289142D02*
X49592714Y-59303428D01*
X49549857Y-59317714D01*
X49521285Y-59317714D01*
X49478428Y-59303428D01*
X49449857Y-59274857D01*
X49435571Y-59246285D01*
X49421285Y-59189142D01*
X49421285Y-59146285D01*
X49435571Y-59089142D01*
X49449857Y-59060571D01*
X49478428Y-59032000D01*
X49521285Y-59017714D01*
X49549857Y-59017714D01*
X49592714Y-59032000D01*
X49607000Y-59046285D01*
X49864142Y-59117714D02*
X49864142Y-59317714D01*
X49792714Y-59003428D02*
X49721285Y-59217714D01*
X49907000Y-59217714D01*
%TD*%
M02*
