%TF.GenerationSoftware,KiCad,Pcbnew,(5.1.5)-3*%
%TF.CreationDate,2021-10-20T11:59:03+01:00*%
%TF.ProjectId,pHAT_PASSIVE_TAG,70484154-5f50-4415-9353-4956455f5441,1*%
%TF.SameCoordinates,Original*%
%TF.FileFunction,Copper,L1,Top*%
%TF.FilePolarity,Positive*%
%FSLAX46Y46*%
G04 Gerber Fmt 4.6, Leading zero omitted, Abs format (unit mm)*
G04 Created by KiCad (PCBNEW (5.1.5)-3) date 2021-10-20 11:59:03*
%MOMM*%
%LPD*%
G04 APERTURE LIST*
%ADD10C,0.100000*%
%ADD11C,0.150000*%
%ADD12C,0.300000*%
%ADD13C,0.400000*%
%TA.AperFunction,EtchedComponent*%
%ADD14C,0.249940*%
%TD*%
%TA.AperFunction,BGAPad,CuDef*%
%ADD15C,0.450000*%
%TD*%
%TA.AperFunction,ComponentPad*%
%ADD16C,0.800000*%
%TD*%
%TA.AperFunction,ComponentPad*%
%ADD17O,1.700000X1.700000*%
%TD*%
%TA.AperFunction,ComponentPad*%
%ADD18R,1.700000X1.700000*%
%TD*%
%TA.AperFunction,SMDPad,CuDef*%
%ADD19C,0.100000*%
%TD*%
%TA.AperFunction,SMDPad,CuDef*%
%ADD20R,0.750000X0.800000*%
%TD*%
%TA.AperFunction,SMDPad,CuDef*%
%ADD21R,0.800000X0.750000*%
%TD*%
%TA.AperFunction,ViaPad*%
%ADD22C,0.800000*%
%TD*%
%TA.AperFunction,Conductor*%
%ADD23C,0.250000*%
%TD*%
%TA.AperFunction,Conductor*%
%ADD24C,0.254000*%
%TD*%
G04 APERTURE END LIST*
D10*
D11*
X177002200Y-166007200D02*
X177002200Y-198007200D01*
X285002200Y-198007200D01*
X285002200Y-166007200D01*
X177002200Y-166007200D01*
D10*
D11*
X10000000Y-10000000D02*
X10000000Y-200007200D01*
X287002200Y-200007200D01*
X287002200Y-10000000D01*
X10000000Y-10000000D01*
D10*
D11*
X12000000Y-12000000D02*
X12000000Y-198007200D01*
X285002200Y-198007200D01*
X285002200Y-12000000D01*
X12000000Y-12000000D01*
D10*
D11*
X60000000Y-12000000D02*
X60000000Y-10000000D01*
D10*
D11*
X110000000Y-12000000D02*
X110000000Y-10000000D01*
D10*
D11*
X160000000Y-12000000D02*
X160000000Y-10000000D01*
D10*
D11*
X210000000Y-12000000D02*
X210000000Y-10000000D01*
D10*
D11*
X260000000Y-12000000D02*
X260000000Y-10000000D01*
D10*
D11*
X36065476Y-11588095D02*
X35322619Y-11588095D01*
X35694047Y-11588095D02*
X35694047Y-10288095D01*
X35570238Y-10473809D01*
X35446428Y-10597619D01*
X35322619Y-10659523D01*
D10*
D11*
X85322619Y-10411904D02*
X85384523Y-10350000D01*
X85508333Y-10288095D01*
X85817857Y-10288095D01*
X85941666Y-10350000D01*
X86003571Y-10411904D01*
X86065476Y-10535714D01*
X86065476Y-10659523D01*
X86003571Y-10845238D01*
X85260714Y-11588095D01*
X86065476Y-11588095D01*
D10*
D11*
X135260714Y-10288095D02*
X136065476Y-10288095D01*
X135632142Y-10783333D01*
X135817857Y-10783333D01*
X135941666Y-10845238D01*
X136003571Y-10907142D01*
X136065476Y-11030952D01*
X136065476Y-11340476D01*
X136003571Y-11464285D01*
X135941666Y-11526190D01*
X135817857Y-11588095D01*
X135446428Y-11588095D01*
X135322619Y-11526190D01*
X135260714Y-11464285D01*
D10*
D11*
X185941666Y-10721428D02*
X185941666Y-11588095D01*
X185632142Y-10226190D02*
X185322619Y-11154761D01*
X186127380Y-11154761D01*
D10*
D11*
X236003571Y-10288095D02*
X235384523Y-10288095D01*
X235322619Y-10907142D01*
X235384523Y-10845238D01*
X235508333Y-10783333D01*
X235817857Y-10783333D01*
X235941666Y-10845238D01*
X236003571Y-10907142D01*
X236065476Y-11030952D01*
X236065476Y-11340476D01*
X236003571Y-11464285D01*
X235941666Y-11526190D01*
X235817857Y-11588095D01*
X235508333Y-11588095D01*
X235384523Y-11526190D01*
X235322619Y-11464285D01*
D10*
D11*
X285941666Y-10288095D02*
X285694047Y-10288095D01*
X285570238Y-10350000D01*
X285508333Y-10411904D01*
X285384523Y-10597619D01*
X285322619Y-10845238D01*
X285322619Y-11340476D01*
X285384523Y-11464285D01*
X285446428Y-11526190D01*
X285570238Y-11588095D01*
X285817857Y-11588095D01*
X285941666Y-11526190D01*
X286003571Y-11464285D01*
X286065476Y-11340476D01*
X286065476Y-11030952D01*
X286003571Y-10907142D01*
X285941666Y-10845238D01*
X285817857Y-10783333D01*
X285570238Y-10783333D01*
X285446428Y-10845238D01*
X285384523Y-10907142D01*
X285322619Y-11030952D01*
D10*
D11*
X60000000Y-198007200D02*
X60000000Y-200007200D01*
D10*
D11*
X110000000Y-198007200D02*
X110000000Y-200007200D01*
D10*
D11*
X160000000Y-198007200D02*
X160000000Y-200007200D01*
D10*
D11*
X210000000Y-198007200D02*
X210000000Y-200007200D01*
D10*
D11*
X260000000Y-198007200D02*
X260000000Y-200007200D01*
D10*
D11*
X36065476Y-199595295D02*
X35322619Y-199595295D01*
X35694047Y-199595295D02*
X35694047Y-198295295D01*
X35570238Y-198481009D01*
X35446428Y-198604819D01*
X35322619Y-198666723D01*
D10*
D11*
X85322619Y-198419104D02*
X85384523Y-198357200D01*
X85508333Y-198295295D01*
X85817857Y-198295295D01*
X85941666Y-198357200D01*
X86003571Y-198419104D01*
X86065476Y-198542914D01*
X86065476Y-198666723D01*
X86003571Y-198852438D01*
X85260714Y-199595295D01*
X86065476Y-199595295D01*
D10*
D11*
X135260714Y-198295295D02*
X136065476Y-198295295D01*
X135632142Y-198790533D01*
X135817857Y-198790533D01*
X135941666Y-198852438D01*
X136003571Y-198914342D01*
X136065476Y-199038152D01*
X136065476Y-199347676D01*
X136003571Y-199471485D01*
X135941666Y-199533390D01*
X135817857Y-199595295D01*
X135446428Y-199595295D01*
X135322619Y-199533390D01*
X135260714Y-199471485D01*
D10*
D11*
X185941666Y-198728628D02*
X185941666Y-199595295D01*
X185632142Y-198233390D02*
X185322619Y-199161961D01*
X186127380Y-199161961D01*
D10*
D11*
X236003571Y-198295295D02*
X235384523Y-198295295D01*
X235322619Y-198914342D01*
X235384523Y-198852438D01*
X235508333Y-198790533D01*
X235817857Y-198790533D01*
X235941666Y-198852438D01*
X236003571Y-198914342D01*
X236065476Y-199038152D01*
X236065476Y-199347676D01*
X236003571Y-199471485D01*
X235941666Y-199533390D01*
X235817857Y-199595295D01*
X235508333Y-199595295D01*
X235384523Y-199533390D01*
X235322619Y-199471485D01*
D10*
D11*
X285941666Y-198295295D02*
X285694047Y-198295295D01*
X285570238Y-198357200D01*
X285508333Y-198419104D01*
X285384523Y-198604819D01*
X285322619Y-198852438D01*
X285322619Y-199347676D01*
X285384523Y-199471485D01*
X285446428Y-199533390D01*
X285570238Y-199595295D01*
X285817857Y-199595295D01*
X285941666Y-199533390D01*
X286003571Y-199471485D01*
X286065476Y-199347676D01*
X286065476Y-199038152D01*
X286003571Y-198914342D01*
X285941666Y-198852438D01*
X285817857Y-198790533D01*
X285570238Y-198790533D01*
X285446428Y-198852438D01*
X285384523Y-198914342D01*
X285322619Y-199038152D01*
D10*
D11*
X10000000Y-60000000D02*
X12000000Y-60000000D01*
D10*
D11*
X10000000Y-110000000D02*
X12000000Y-110000000D01*
D10*
D11*
X10000000Y-160000000D02*
X12000000Y-160000000D01*
D10*
D11*
X10690476Y-35216666D02*
X11309523Y-35216666D01*
X10566666Y-35588095D02*
X11000000Y-34288095D01*
X11433333Y-35588095D01*
D10*
D11*
X11092857Y-84907142D02*
X11278571Y-84969047D01*
X11340476Y-85030952D01*
X11402380Y-85154761D01*
X11402380Y-85340476D01*
X11340476Y-85464285D01*
X11278571Y-85526190D01*
X11154761Y-85588095D01*
X10659523Y-85588095D01*
X10659523Y-84288095D01*
X11092857Y-84288095D01*
X11216666Y-84350000D01*
X11278571Y-84411904D01*
X11340476Y-84535714D01*
X11340476Y-84659523D01*
X11278571Y-84783333D01*
X11216666Y-84845238D01*
X11092857Y-84907142D01*
X10659523Y-84907142D01*
D10*
D11*
X11402380Y-135464285D02*
X11340476Y-135526190D01*
X11154761Y-135588095D01*
X11030952Y-135588095D01*
X10845238Y-135526190D01*
X10721428Y-135402380D01*
X10659523Y-135278571D01*
X10597619Y-135030952D01*
X10597619Y-134845238D01*
X10659523Y-134597619D01*
X10721428Y-134473809D01*
X10845238Y-134350000D01*
X11030952Y-134288095D01*
X11154761Y-134288095D01*
X11340476Y-134350000D01*
X11402380Y-134411904D01*
D10*
D11*
X10659523Y-185588095D02*
X10659523Y-184288095D01*
X10969047Y-184288095D01*
X11154761Y-184350000D01*
X11278571Y-184473809D01*
X11340476Y-184597619D01*
X11402380Y-184845238D01*
X11402380Y-185030952D01*
X11340476Y-185278571D01*
X11278571Y-185402380D01*
X11154761Y-185526190D01*
X10969047Y-185588095D01*
X10659523Y-185588095D01*
D10*
D11*
X287002200Y-60000000D02*
X285002200Y-60000000D01*
D10*
D11*
X287002200Y-110000000D02*
X285002200Y-110000000D01*
D10*
D11*
X287002200Y-160000000D02*
X285002200Y-160000000D01*
D10*
D11*
X285692676Y-35216666D02*
X286311723Y-35216666D01*
X285568866Y-35588095D02*
X286002200Y-34288095D01*
X286435533Y-35588095D01*
D10*
D11*
X286095057Y-84907142D02*
X286280771Y-84969047D01*
X286342676Y-85030952D01*
X286404580Y-85154761D01*
X286404580Y-85340476D01*
X286342676Y-85464285D01*
X286280771Y-85526190D01*
X286156961Y-85588095D01*
X285661723Y-85588095D01*
X285661723Y-84288095D01*
X286095057Y-84288095D01*
X286218866Y-84350000D01*
X286280771Y-84411904D01*
X286342676Y-84535714D01*
X286342676Y-84659523D01*
X286280771Y-84783333D01*
X286218866Y-84845238D01*
X286095057Y-84907142D01*
X285661723Y-84907142D01*
D10*
D11*
X286404580Y-135464285D02*
X286342676Y-135526190D01*
X286156961Y-135588095D01*
X286033152Y-135588095D01*
X285847438Y-135526190D01*
X285723628Y-135402380D01*
X285661723Y-135278571D01*
X285599819Y-135030952D01*
X285599819Y-134845238D01*
X285661723Y-134597619D01*
X285723628Y-134473809D01*
X285847438Y-134350000D01*
X286033152Y-134288095D01*
X286156961Y-134288095D01*
X286342676Y-134350000D01*
X286404580Y-134411904D01*
D10*
D11*
X285661723Y-185588095D02*
X285661723Y-184288095D01*
X285971247Y-184288095D01*
X286156961Y-184350000D01*
X286280771Y-184473809D01*
X286342676Y-184597619D01*
X286404580Y-184845238D01*
X286404580Y-185030952D01*
X286342676Y-185278571D01*
X286280771Y-185402380D01*
X286156961Y-185526190D01*
X285971247Y-185588095D01*
X285661723Y-185588095D01*
D10*
D11*
X200434342Y-193785771D02*
X200434342Y-192285771D01*
X200791485Y-192285771D01*
X201005771Y-192357200D01*
X201148628Y-192500057D01*
X201220057Y-192642914D01*
X201291485Y-192928628D01*
X201291485Y-193142914D01*
X201220057Y-193428628D01*
X201148628Y-193571485D01*
X201005771Y-193714342D01*
X200791485Y-193785771D01*
X200434342Y-193785771D01*
X202577200Y-193785771D02*
X202577200Y-193000057D01*
X202505771Y-192857200D01*
X202362914Y-192785771D01*
X202077200Y-192785771D01*
X201934342Y-192857200D01*
X202577200Y-193714342D02*
X202434342Y-193785771D01*
X202077200Y-193785771D01*
X201934342Y-193714342D01*
X201862914Y-193571485D01*
X201862914Y-193428628D01*
X201934342Y-193285771D01*
X202077200Y-193214342D01*
X202434342Y-193214342D01*
X202577200Y-193142914D01*
X203077200Y-192785771D02*
X203648628Y-192785771D01*
X203291485Y-192285771D02*
X203291485Y-193571485D01*
X203362914Y-193714342D01*
X203505771Y-193785771D01*
X203648628Y-193785771D01*
X204720057Y-193714342D02*
X204577200Y-193785771D01*
X204291485Y-193785771D01*
X204148628Y-193714342D01*
X204077200Y-193571485D01*
X204077200Y-193000057D01*
X204148628Y-192857200D01*
X204291485Y-192785771D01*
X204577200Y-192785771D01*
X204720057Y-192857200D01*
X204791485Y-193000057D01*
X204791485Y-193142914D01*
X204077200Y-193285771D01*
X205434342Y-193642914D02*
X205505771Y-193714342D01*
X205434342Y-193785771D01*
X205362914Y-193714342D01*
X205434342Y-193642914D01*
X205434342Y-193785771D01*
X205434342Y-192857200D02*
X205505771Y-192928628D01*
X205434342Y-193000057D01*
X205362914Y-192928628D01*
X205434342Y-192857200D01*
X205434342Y-193000057D01*
X207220057Y-192428628D02*
X207291485Y-192357200D01*
X207434342Y-192285771D01*
X207791485Y-192285771D01*
X207934342Y-192357200D01*
X208005771Y-192428628D01*
X208077200Y-192571485D01*
X208077200Y-192714342D01*
X208005771Y-192928628D01*
X207148628Y-193785771D01*
X208077200Y-193785771D01*
X209005771Y-192285771D02*
X209148628Y-192285771D01*
X209291485Y-192357200D01*
X209362914Y-192428628D01*
X209434342Y-192571485D01*
X209505771Y-192857200D01*
X209505771Y-193214342D01*
X209434342Y-193500057D01*
X209362914Y-193642914D01*
X209291485Y-193714342D01*
X209148628Y-193785771D01*
X209005771Y-193785771D01*
X208862914Y-193714342D01*
X208791485Y-193642914D01*
X208720057Y-193500057D01*
X208648628Y-193214342D01*
X208648628Y-192857200D01*
X208720057Y-192571485D01*
X208791485Y-192428628D01*
X208862914Y-192357200D01*
X209005771Y-192285771D01*
X210934342Y-193785771D02*
X210077200Y-193785771D01*
X210505771Y-193785771D02*
X210505771Y-192285771D01*
X210362914Y-192500057D01*
X210220057Y-192642914D01*
X210077200Y-192714342D01*
X211648628Y-193785771D02*
X211934342Y-193785771D01*
X212077200Y-193714342D01*
X212148628Y-193642914D01*
X212291485Y-193428628D01*
X212362914Y-193142914D01*
X212362914Y-192571485D01*
X212291485Y-192428628D01*
X212220057Y-192357200D01*
X212077200Y-192285771D01*
X211791485Y-192285771D01*
X211648628Y-192357200D01*
X211577200Y-192428628D01*
X211505771Y-192571485D01*
X211505771Y-192928628D01*
X211577200Y-193071485D01*
X211648628Y-193142914D01*
X211791485Y-193214342D01*
X212077200Y-193214342D01*
X212220057Y-193142914D01*
X212291485Y-193071485D01*
X212362914Y-192928628D01*
X213005771Y-193214342D02*
X214148628Y-193214342D01*
X215148628Y-192285771D02*
X215291485Y-192285771D01*
X215434342Y-192357200D01*
X215505771Y-192428628D01*
X215577200Y-192571485D01*
X215648628Y-192857200D01*
X215648628Y-193214342D01*
X215577200Y-193500057D01*
X215505771Y-193642914D01*
X215434342Y-193714342D01*
X215291485Y-193785771D01*
X215148628Y-193785771D01*
X215005771Y-193714342D01*
X214934342Y-193642914D01*
X214862914Y-193500057D01*
X214791485Y-193214342D01*
X214791485Y-192857200D01*
X214862914Y-192571485D01*
X214934342Y-192428628D01*
X215005771Y-192357200D01*
X215148628Y-192285771D01*
X216934342Y-192785771D02*
X216934342Y-193785771D01*
X216577200Y-192214342D02*
X216220057Y-193285771D01*
X217148628Y-193285771D01*
X217720057Y-193214342D02*
X218862914Y-193214342D01*
X219505771Y-192428628D02*
X219577200Y-192357200D01*
X219720057Y-192285771D01*
X220077200Y-192285771D01*
X220220057Y-192357200D01*
X220291485Y-192428628D01*
X220362914Y-192571485D01*
X220362914Y-192714342D01*
X220291485Y-192928628D01*
X219434342Y-193785771D01*
X220362914Y-193785771D01*
X221077200Y-193785771D02*
X221362914Y-193785771D01*
X221505771Y-193714342D01*
X221577200Y-193642914D01*
X221720057Y-193428628D01*
X221791485Y-193142914D01*
X221791485Y-192571485D01*
X221720057Y-192428628D01*
X221648628Y-192357200D01*
X221505771Y-192285771D01*
X221220057Y-192285771D01*
X221077200Y-192357200D01*
X221005771Y-192428628D01*
X220934342Y-192571485D01*
X220934342Y-192928628D01*
X221005771Y-193071485D01*
X221077200Y-193142914D01*
X221220057Y-193214342D01*
X221505771Y-193214342D01*
X221648628Y-193142914D01*
X221720057Y-193071485D01*
X221791485Y-192928628D01*
D10*
D11*
X177002200Y-194507200D02*
X285002200Y-194507200D01*
D10*
D11*
X178434342Y-196585771D02*
X178434342Y-195085771D01*
X179291485Y-196585771D02*
X178648628Y-195728628D01*
X179291485Y-195085771D02*
X178434342Y-195942914D01*
X179934342Y-196585771D02*
X179934342Y-195585771D01*
X179934342Y-195085771D02*
X179862914Y-195157200D01*
X179934342Y-195228628D01*
X180005771Y-195157200D01*
X179934342Y-195085771D01*
X179934342Y-195228628D01*
X181505771Y-196442914D02*
X181434342Y-196514342D01*
X181220057Y-196585771D01*
X181077200Y-196585771D01*
X180862914Y-196514342D01*
X180720057Y-196371485D01*
X180648628Y-196228628D01*
X180577200Y-195942914D01*
X180577200Y-195728628D01*
X180648628Y-195442914D01*
X180720057Y-195300057D01*
X180862914Y-195157200D01*
X181077200Y-195085771D01*
X181220057Y-195085771D01*
X181434342Y-195157200D01*
X181505771Y-195228628D01*
X182791485Y-196585771D02*
X182791485Y-195800057D01*
X182720057Y-195657200D01*
X182577200Y-195585771D01*
X182291485Y-195585771D01*
X182148628Y-195657200D01*
X182791485Y-196514342D02*
X182648628Y-196585771D01*
X182291485Y-196585771D01*
X182148628Y-196514342D01*
X182077200Y-196371485D01*
X182077200Y-196228628D01*
X182148628Y-196085771D01*
X182291485Y-196014342D01*
X182648628Y-196014342D01*
X182791485Y-195942914D01*
X184148628Y-196585771D02*
X184148628Y-195085771D01*
X184148628Y-196514342D02*
X184005771Y-196585771D01*
X183720057Y-196585771D01*
X183577200Y-196514342D01*
X183505771Y-196442914D01*
X183434342Y-196300057D01*
X183434342Y-195871485D01*
X183505771Y-195728628D01*
X183577200Y-195657200D01*
X183720057Y-195585771D01*
X184005771Y-195585771D01*
X184148628Y-195657200D01*
X186005771Y-195800057D02*
X186505771Y-195800057D01*
X186720057Y-196585771D02*
X186005771Y-196585771D01*
X186005771Y-195085771D01*
X186720057Y-195085771D01*
X187362914Y-196442914D02*
X187434342Y-196514342D01*
X187362914Y-196585771D01*
X187291485Y-196514342D01*
X187362914Y-196442914D01*
X187362914Y-196585771D01*
X188077200Y-196585771D02*
X188077200Y-195085771D01*
X188434342Y-195085771D01*
X188648628Y-195157200D01*
X188791485Y-195300057D01*
X188862914Y-195442914D01*
X188934342Y-195728628D01*
X188934342Y-195942914D01*
X188862914Y-196228628D01*
X188791485Y-196371485D01*
X188648628Y-196514342D01*
X188434342Y-196585771D01*
X188077200Y-196585771D01*
X189577200Y-196442914D02*
X189648628Y-196514342D01*
X189577200Y-196585771D01*
X189505771Y-196514342D01*
X189577200Y-196442914D01*
X189577200Y-196585771D01*
X190220057Y-196157200D02*
X190934342Y-196157200D01*
X190077200Y-196585771D02*
X190577200Y-195085771D01*
X191077200Y-196585771D01*
X191577200Y-196442914D02*
X191648628Y-196514342D01*
X191577200Y-196585771D01*
X191505771Y-196514342D01*
X191577200Y-196442914D01*
X191577200Y-196585771D01*
X194577200Y-196585771D02*
X194577200Y-195085771D01*
X194720057Y-196014342D02*
X195148628Y-196585771D01*
X195148628Y-195585771D02*
X194577200Y-196157200D01*
X195791485Y-196585771D02*
X195791485Y-195585771D01*
X195791485Y-195085771D02*
X195720057Y-195157200D01*
X195791485Y-195228628D01*
X195862914Y-195157200D01*
X195791485Y-195085771D01*
X195791485Y-195228628D01*
X197148628Y-196514342D02*
X197005771Y-196585771D01*
X196720057Y-196585771D01*
X196577200Y-196514342D01*
X196505771Y-196442914D01*
X196434342Y-196300057D01*
X196434342Y-195871485D01*
X196505771Y-195728628D01*
X196577200Y-195657200D01*
X196720057Y-195585771D01*
X197005771Y-195585771D01*
X197148628Y-195657200D01*
X198434342Y-196585771D02*
X198434342Y-195800057D01*
X198362914Y-195657200D01*
X198220057Y-195585771D01*
X197934342Y-195585771D01*
X197791485Y-195657200D01*
X198434342Y-196514342D02*
X198291485Y-196585771D01*
X197934342Y-196585771D01*
X197791485Y-196514342D01*
X197720057Y-196371485D01*
X197720057Y-196228628D01*
X197791485Y-196085771D01*
X197934342Y-196014342D01*
X198291485Y-196014342D01*
X198434342Y-195942914D01*
X199791485Y-196585771D02*
X199791485Y-195085771D01*
X199791485Y-196514342D02*
X199648628Y-196585771D01*
X199362914Y-196585771D01*
X199220057Y-196514342D01*
X199148628Y-196442914D01*
X199077200Y-196300057D01*
X199077200Y-195871485D01*
X199148628Y-195728628D01*
X199220057Y-195657200D01*
X199362914Y-195585771D01*
X199648628Y-195585771D01*
X199791485Y-195657200D01*
X202077200Y-197157200D02*
X202005771Y-197085771D01*
X201862914Y-196871485D01*
X201791485Y-196728628D01*
X201720057Y-196514342D01*
X201648628Y-196157200D01*
X201648628Y-195871485D01*
X201720057Y-195514342D01*
X201791485Y-195300057D01*
X201862914Y-195157200D01*
X202005771Y-194942914D01*
X202077200Y-194871485D01*
X203362914Y-195085771D02*
X202648628Y-195085771D01*
X202577200Y-195800057D01*
X202648628Y-195728628D01*
X202791485Y-195657200D01*
X203148628Y-195657200D01*
X203291485Y-195728628D01*
X203362914Y-195800057D01*
X203434342Y-195942914D01*
X203434342Y-196300057D01*
X203362914Y-196442914D01*
X203291485Y-196514342D01*
X203148628Y-196585771D01*
X202791485Y-196585771D01*
X202648628Y-196514342D01*
X202577200Y-196442914D01*
X204077200Y-196442914D02*
X204148628Y-196514342D01*
X204077200Y-196585771D01*
X204005771Y-196514342D01*
X204077200Y-196442914D01*
X204077200Y-196585771D01*
X205577200Y-196585771D02*
X204720057Y-196585771D01*
X205148628Y-196585771D02*
X205148628Y-195085771D01*
X205005771Y-195300057D01*
X204862914Y-195442914D01*
X204720057Y-195514342D01*
X206220057Y-196442914D02*
X206291485Y-196514342D01*
X206220057Y-196585771D01*
X206148628Y-196514342D01*
X206220057Y-196442914D01*
X206220057Y-196585771D01*
X207648628Y-195085771D02*
X206934342Y-195085771D01*
X206862914Y-195800057D01*
X206934342Y-195728628D01*
X207077200Y-195657200D01*
X207434342Y-195657200D01*
X207577200Y-195728628D01*
X207648628Y-195800057D01*
X207720057Y-195942914D01*
X207720057Y-196300057D01*
X207648628Y-196442914D01*
X207577200Y-196514342D01*
X207434342Y-196585771D01*
X207077200Y-196585771D01*
X206934342Y-196514342D01*
X206862914Y-196442914D01*
X208220057Y-197157200D02*
X208291485Y-197085771D01*
X208434342Y-196871485D01*
X208505771Y-196728628D01*
X208577200Y-196514342D01*
X208648628Y-196157200D01*
X208648628Y-195871485D01*
X208577200Y-195514342D01*
X208505771Y-195300057D01*
X208434342Y-195157200D01*
X208291485Y-194942914D01*
X208220057Y-194871485D01*
X209362914Y-196014342D02*
X210505771Y-196014342D01*
X211077200Y-195085771D02*
X212005771Y-195085771D01*
X211505771Y-195657200D01*
X211720057Y-195657200D01*
X211862914Y-195728628D01*
X211934342Y-195800057D01*
X212005771Y-195942914D01*
X212005771Y-196300057D01*
X211934342Y-196442914D01*
X211862914Y-196514342D01*
X211720057Y-196585771D01*
X211291485Y-196585771D01*
X211148628Y-196514342D01*
X211077200Y-196442914D01*
D10*
D11*
X177002200Y-191507200D02*
X285002200Y-191507200D01*
D10*
D12*
X264411485Y-193785771D02*
X263911485Y-193071485D01*
X263554342Y-193785771D02*
X263554342Y-192285771D01*
X264125771Y-192285771D01*
X264268628Y-192357200D01*
X264340057Y-192428628D01*
X264411485Y-192571485D01*
X264411485Y-192785771D01*
X264340057Y-192928628D01*
X264268628Y-193000057D01*
X264125771Y-193071485D01*
X263554342Y-193071485D01*
X265625771Y-193714342D02*
X265482914Y-193785771D01*
X265197200Y-193785771D01*
X265054342Y-193714342D01*
X264982914Y-193571485D01*
X264982914Y-193000057D01*
X265054342Y-192857200D01*
X265197200Y-192785771D01*
X265482914Y-192785771D01*
X265625771Y-192857200D01*
X265697200Y-193000057D01*
X265697200Y-193142914D01*
X264982914Y-193285771D01*
X266197200Y-192785771D02*
X266554342Y-193785771D01*
X266911485Y-192785771D01*
X267482914Y-193642914D02*
X267554342Y-193714342D01*
X267482914Y-193785771D01*
X267411485Y-193714342D01*
X267482914Y-193642914D01*
X267482914Y-193785771D01*
X267482914Y-192857200D02*
X267554342Y-192928628D01*
X267482914Y-193000057D01*
X267411485Y-192928628D01*
X267482914Y-192857200D01*
X267482914Y-193000057D01*
X270125771Y-193785771D02*
X269268628Y-193785771D01*
X269697200Y-193785771D02*
X269697200Y-192285771D01*
X269554342Y-192500057D01*
X269411485Y-192642914D01*
X269268628Y-192714342D01*
D10*
D11*
X178362914Y-193714342D02*
X178577200Y-193785771D01*
X178934342Y-193785771D01*
X179077200Y-193714342D01*
X179148628Y-193642914D01*
X179220057Y-193500057D01*
X179220057Y-193357200D01*
X179148628Y-193214342D01*
X179077200Y-193142914D01*
X178934342Y-193071485D01*
X178648628Y-193000057D01*
X178505771Y-192928628D01*
X178434342Y-192857200D01*
X178362914Y-192714342D01*
X178362914Y-192571485D01*
X178434342Y-192428628D01*
X178505771Y-192357200D01*
X178648628Y-192285771D01*
X179005771Y-192285771D01*
X179220057Y-192357200D01*
X179862914Y-193785771D02*
X179862914Y-192785771D01*
X179862914Y-192285771D02*
X179791485Y-192357200D01*
X179862914Y-192428628D01*
X179934342Y-192357200D01*
X179862914Y-192285771D01*
X179862914Y-192428628D01*
X180434342Y-192785771D02*
X181220057Y-192785771D01*
X180434342Y-193785771D01*
X181220057Y-193785771D01*
X182362914Y-193714342D02*
X182220057Y-193785771D01*
X181934342Y-193785771D01*
X181791485Y-193714342D01*
X181720057Y-193571485D01*
X181720057Y-193000057D01*
X181791485Y-192857200D01*
X181934342Y-192785771D01*
X182220057Y-192785771D01*
X182362914Y-192857200D01*
X182434342Y-193000057D01*
X182434342Y-193142914D01*
X181720057Y-193285771D01*
X183077200Y-193642914D02*
X183148628Y-193714342D01*
X183077200Y-193785771D01*
X183005771Y-193714342D01*
X183077200Y-193642914D01*
X183077200Y-193785771D01*
X183077200Y-192857200D02*
X183148628Y-192928628D01*
X183077200Y-193000057D01*
X183005771Y-192928628D01*
X183077200Y-192857200D01*
X183077200Y-193000057D01*
X184862914Y-193357200D02*
X185577200Y-193357200D01*
X184720057Y-193785771D02*
X185220057Y-192285771D01*
X185720057Y-193785771D01*
X186862914Y-192785771D02*
X186862914Y-193785771D01*
X186505771Y-192214342D02*
X186148628Y-193285771D01*
X187077200Y-193285771D01*
D10*
D11*
X263434342Y-196585771D02*
X263434342Y-195085771D01*
X264791485Y-196585771D02*
X264791485Y-195085771D01*
X264791485Y-196514342D02*
X264648628Y-196585771D01*
X264362914Y-196585771D01*
X264220057Y-196514342D01*
X264148628Y-196442914D01*
X264077200Y-196300057D01*
X264077200Y-195871485D01*
X264148628Y-195728628D01*
X264220057Y-195657200D01*
X264362914Y-195585771D01*
X264648628Y-195585771D01*
X264791485Y-195657200D01*
X265505771Y-196442914D02*
X265577200Y-196514342D01*
X265505771Y-196585771D01*
X265434342Y-196514342D01*
X265505771Y-196442914D01*
X265505771Y-196585771D01*
X265505771Y-195657200D02*
X265577200Y-195728628D01*
X265505771Y-195800057D01*
X265434342Y-195728628D01*
X265505771Y-195657200D01*
X265505771Y-195800057D01*
X268148628Y-196585771D02*
X267291485Y-196585771D01*
X267720057Y-196585771D02*
X267720057Y-195085771D01*
X267577200Y-195300057D01*
X267434342Y-195442914D01*
X267291485Y-195514342D01*
X269862914Y-195014342D02*
X268577200Y-196942914D01*
X271148628Y-196585771D02*
X270291485Y-196585771D01*
X270720057Y-196585771D02*
X270720057Y-195085771D01*
X270577200Y-195300057D01*
X270434342Y-195442914D01*
X270291485Y-195514342D01*
D10*
D11*
X177002200Y-187507200D02*
X285002200Y-187507200D01*
D10*
D13*
X178714580Y-188211961D02*
X179857438Y-188211961D01*
X179036009Y-190211961D02*
X179286009Y-188211961D01*
X180274104Y-190211961D02*
X180440771Y-188878628D01*
X180524104Y-188211961D02*
X180416961Y-188307200D01*
X180500295Y-188402438D01*
X180607438Y-188307200D01*
X180524104Y-188211961D01*
X180500295Y-188402438D01*
X181107438Y-188878628D02*
X181869342Y-188878628D01*
X181476485Y-188211961D02*
X181262200Y-189926247D01*
X181333628Y-190116723D01*
X181512200Y-190211961D01*
X181702676Y-190211961D01*
X182655057Y-190211961D02*
X182476485Y-190116723D01*
X182405057Y-189926247D01*
X182619342Y-188211961D01*
X184190771Y-190116723D02*
X183988390Y-190211961D01*
X183607438Y-190211961D01*
X183428866Y-190116723D01*
X183357438Y-189926247D01*
X183452676Y-189164342D01*
X183571723Y-188973866D01*
X183774104Y-188878628D01*
X184155057Y-188878628D01*
X184333628Y-188973866D01*
X184405057Y-189164342D01*
X184381247Y-189354819D01*
X183405057Y-189545295D01*
X185155057Y-190021485D02*
X185238390Y-190116723D01*
X185131247Y-190211961D01*
X185047914Y-190116723D01*
X185155057Y-190021485D01*
X185131247Y-190211961D01*
X185286009Y-188973866D02*
X185369342Y-189069104D01*
X185262200Y-189164342D01*
X185178866Y-189069104D01*
X185286009Y-188973866D01*
X185262200Y-189164342D01*
X188750295Y-190211961D02*
X188202676Y-189259580D01*
X187607438Y-190211961D02*
X187857438Y-188211961D01*
X188619342Y-188211961D01*
X188797914Y-188307200D01*
X188881247Y-188402438D01*
X188952676Y-188592914D01*
X188916961Y-188878628D01*
X188797914Y-189069104D01*
X188690771Y-189164342D01*
X188488390Y-189259580D01*
X187726485Y-189259580D01*
X190405057Y-189164342D02*
X189738390Y-189164342D01*
X189607438Y-190211961D02*
X189857438Y-188211961D01*
X190809819Y-188211961D01*
X191321723Y-190211961D02*
X191571723Y-188211961D01*
X192059819Y-189640533D01*
X192905057Y-188211961D01*
X192655057Y-190211961D01*
X194714580Y-188211961D02*
X194333628Y-188211961D01*
X194131247Y-188307200D01*
X194024104Y-188402438D01*
X193797914Y-188688152D01*
X193655057Y-189069104D01*
X193559819Y-189831009D01*
X193631247Y-190021485D01*
X193714580Y-190116723D01*
X193893152Y-190211961D01*
X194274104Y-190211961D01*
X194476485Y-190116723D01*
X194583628Y-190021485D01*
X194702676Y-189831009D01*
X194762200Y-189354819D01*
X194690771Y-189164342D01*
X194607438Y-189069104D01*
X194428866Y-188973866D01*
X194047914Y-188973866D01*
X193845533Y-189069104D01*
X193738390Y-189164342D01*
X193619342Y-189354819D01*
X195607438Y-190211961D02*
X195988390Y-190211961D01*
X196190771Y-190116723D01*
X196297914Y-190021485D01*
X196524104Y-189735771D01*
X196666961Y-189354819D01*
X196762200Y-188592914D01*
X196690771Y-188402438D01*
X196607438Y-188307200D01*
X196428866Y-188211961D01*
X196047914Y-188211961D01*
X195845533Y-188307200D01*
X195738390Y-188402438D01*
X195619342Y-188592914D01*
X195559819Y-189069104D01*
X195631247Y-189259580D01*
X195714580Y-189354819D01*
X195893152Y-189450057D01*
X196274104Y-189450057D01*
X196476485Y-189354819D01*
X196583628Y-189259580D01*
X196702676Y-189069104D01*
X197416961Y-190211961D02*
X197666961Y-188211961D01*
X197547914Y-189164342D02*
X198690771Y-189164342D01*
X198559819Y-190211961D02*
X198809819Y-188211961D01*
X200678866Y-190021485D02*
X200571723Y-190116723D01*
X200274104Y-190211961D01*
X200083628Y-190211961D01*
X199809819Y-190116723D01*
X199643152Y-189926247D01*
X199571723Y-189735771D01*
X199524104Y-189354819D01*
X199559819Y-189069104D01*
X199702676Y-188688152D01*
X199821723Y-188497676D01*
X200036009Y-188307200D01*
X200333628Y-188211961D01*
X200524104Y-188211961D01*
X200797914Y-188307200D01*
X200881247Y-188402438D01*
X201571723Y-188211961D02*
X201797914Y-190211961D01*
X202357438Y-188783390D01*
X202559819Y-190211961D01*
X203286009Y-188211961D01*
X203893152Y-189450057D02*
X205416961Y-189450057D01*
X206702676Y-189069104D02*
X206524104Y-188973866D01*
X206440771Y-188878628D01*
X206369342Y-188688152D01*
X206381247Y-188592914D01*
X206500295Y-188402438D01*
X206607438Y-188307200D01*
X206809819Y-188211961D01*
X207190771Y-188211961D01*
X207369342Y-188307200D01*
X207452676Y-188402438D01*
X207524104Y-188592914D01*
X207512200Y-188688152D01*
X207393152Y-188878628D01*
X207286009Y-188973866D01*
X207083628Y-189069104D01*
X206702676Y-189069104D01*
X206500295Y-189164342D01*
X206393152Y-189259580D01*
X206274104Y-189450057D01*
X206226485Y-189831009D01*
X206297914Y-190021485D01*
X206381247Y-190116723D01*
X206559819Y-190211961D01*
X206940771Y-190211961D01*
X207143152Y-190116723D01*
X207250295Y-190021485D01*
X207369342Y-189831009D01*
X207416961Y-189450057D01*
X207345533Y-189259580D01*
X207262200Y-189164342D01*
X207083628Y-189069104D01*
X209286009Y-188211961D02*
X208905057Y-188211961D01*
X208702676Y-188307200D01*
X208595533Y-188402438D01*
X208369342Y-188688152D01*
X208226485Y-189069104D01*
X208131247Y-189831009D01*
X208202676Y-190021485D01*
X208286009Y-190116723D01*
X208464580Y-190211961D01*
X208845533Y-190211961D01*
X209047914Y-190116723D01*
X209155057Y-190021485D01*
X209274104Y-189831009D01*
X209333628Y-189354819D01*
X209262200Y-189164342D01*
X209178866Y-189069104D01*
X209000295Y-188973866D01*
X208619342Y-188973866D01*
X208416961Y-189069104D01*
X208309819Y-189164342D01*
X208190771Y-189354819D01*
X210512200Y-189069104D02*
X210333628Y-188973866D01*
X210250295Y-188878628D01*
X210178866Y-188688152D01*
X210190771Y-188592914D01*
X210309819Y-188402438D01*
X210416961Y-188307200D01*
X210619342Y-188211961D01*
X211000295Y-188211961D01*
X211178866Y-188307200D01*
X211262200Y-188402438D01*
X211333628Y-188592914D01*
X211321723Y-188688152D01*
X211202676Y-188878628D01*
X211095533Y-188973866D01*
X210893152Y-189069104D01*
X210512200Y-189069104D01*
X210309819Y-189164342D01*
X210202676Y-189259580D01*
X210083628Y-189450057D01*
X210036009Y-189831009D01*
X210107438Y-190021485D01*
X210190771Y-190116723D01*
X210369342Y-190211961D01*
X210750295Y-190211961D01*
X210952676Y-190116723D01*
X211059819Y-190021485D01*
X211178866Y-189831009D01*
X211226485Y-189450057D01*
X211155057Y-189259580D01*
X211071723Y-189164342D01*
X210893152Y-189069104D01*
X212083628Y-189450057D02*
X213607438Y-189450057D01*
X214381247Y-190116723D02*
X214655057Y-190211961D01*
X215131247Y-190211961D01*
X215333628Y-190116723D01*
X215440771Y-190021485D01*
X215559819Y-189831009D01*
X215583628Y-189640533D01*
X215512200Y-189450057D01*
X215428866Y-189354819D01*
X215250295Y-189259580D01*
X214881247Y-189164342D01*
X214702676Y-189069104D01*
X214619342Y-188973866D01*
X214547914Y-188783390D01*
X214571723Y-188592914D01*
X214690771Y-188402438D01*
X214797914Y-188307200D01*
X215000295Y-188211961D01*
X215476485Y-188211961D01*
X215750295Y-188307200D01*
X216500295Y-188402438D02*
X216607438Y-188307200D01*
X216809819Y-188211961D01*
X217286009Y-188211961D01*
X217464580Y-188307200D01*
X217547914Y-188402438D01*
X217619342Y-188592914D01*
X217595533Y-188783390D01*
X217464580Y-189069104D01*
X216178866Y-190211961D01*
X217416961Y-190211961D01*
X219964580Y-188878628D02*
X219714580Y-190878628D01*
X219952676Y-188973866D02*
X220155057Y-188878628D01*
X220536009Y-188878628D01*
X220714580Y-188973866D01*
X220797914Y-189069104D01*
X220869342Y-189259580D01*
X220797914Y-189831009D01*
X220678866Y-190021485D01*
X220571723Y-190116723D01*
X220369342Y-190211961D01*
X219988390Y-190211961D01*
X219809819Y-190116723D01*
X222464580Y-190211961D02*
X222595533Y-189164342D01*
X222524104Y-188973866D01*
X222345533Y-188878628D01*
X221964580Y-188878628D01*
X221762200Y-188973866D01*
X222476485Y-190116723D02*
X222274104Y-190211961D01*
X221797914Y-190211961D01*
X221619342Y-190116723D01*
X221547914Y-189926247D01*
X221571723Y-189735771D01*
X221690771Y-189545295D01*
X221893152Y-189450057D01*
X222369342Y-189450057D01*
X222571723Y-189354819D01*
X223416961Y-190211961D02*
X223583628Y-188878628D01*
X223536009Y-189259580D02*
X223655057Y-189069104D01*
X223762199Y-188973866D01*
X223964580Y-188878628D01*
X224155057Y-188878628D01*
X224536009Y-188878628D02*
X225297914Y-188878628D01*
X224905057Y-188211961D02*
X224690771Y-189926247D01*
X224762200Y-190116723D01*
X224940771Y-190211961D01*
X225131247Y-190211961D01*
X225797914Y-190211961D02*
X225964580Y-188878628D01*
X226047914Y-188211961D02*
X225940771Y-188307200D01*
X226024104Y-188402438D01*
X226131247Y-188307200D01*
X226047914Y-188211961D01*
X226024104Y-188402438D01*
X227607438Y-190211961D02*
X227738390Y-189164342D01*
X227666961Y-188973866D01*
X227488390Y-188878628D01*
X227107438Y-188878628D01*
X226905057Y-188973866D01*
X227619342Y-190116723D02*
X227416961Y-190211961D01*
X226940771Y-190211961D01*
X226762200Y-190116723D01*
X226690771Y-189926247D01*
X226714580Y-189735771D01*
X226833628Y-189545295D01*
X227036009Y-189450057D01*
X227512200Y-189450057D01*
X227714580Y-189354819D01*
X228845533Y-190211961D02*
X228666961Y-190116723D01*
X228595533Y-189926247D01*
X228809819Y-188211961D01*
X231131247Y-190211961D02*
X231381247Y-188211961D01*
X231262199Y-189164342D02*
X232405057Y-189164342D01*
X232274104Y-190211961D02*
X232524104Y-188211961D01*
X233202676Y-189640533D02*
X234155057Y-189640533D01*
X232940771Y-190211961D02*
X233857438Y-188211961D01*
X234274104Y-190211961D01*
X234905057Y-188211961D02*
X236047914Y-188211961D01*
X235226485Y-190211961D02*
X235476485Y-188211961D01*
X237869342Y-188878628D02*
X238631247Y-188878628D01*
X237988390Y-190211961D02*
X238202676Y-188497676D01*
X238321723Y-188307200D01*
X238524104Y-188211961D01*
X238714580Y-188211961D01*
X239416961Y-190211961D02*
X239238390Y-190116723D01*
X239155057Y-190021485D01*
X239083628Y-189831009D01*
X239155057Y-189259580D01*
X239274104Y-189069104D01*
X239381247Y-188973866D01*
X239583628Y-188878628D01*
X239869342Y-188878628D01*
X240047914Y-188973866D01*
X240131247Y-189069104D01*
X240202676Y-189259580D01*
X240131247Y-189831009D01*
X240012199Y-190021485D01*
X239905057Y-190116723D01*
X239702676Y-190211961D01*
X239416961Y-190211961D01*
X240940771Y-190211961D02*
X241107438Y-188878628D01*
X241059819Y-189259580D02*
X241178866Y-189069104D01*
X241286009Y-188973866D01*
X241488390Y-188878628D01*
X241678866Y-188878628D01*
X243869342Y-188878628D02*
X243619342Y-190878628D01*
X243857438Y-188973866D02*
X244059819Y-188878628D01*
X244440771Y-188878628D01*
X244619342Y-188973866D01*
X244702676Y-189069104D01*
X244774104Y-189259580D01*
X244702676Y-189831009D01*
X244583628Y-190021485D01*
X244476485Y-190116723D01*
X244274104Y-190211961D01*
X243893152Y-190211961D01*
X243714580Y-190116723D01*
X245512199Y-190211961D02*
X245678866Y-188878628D01*
X245762199Y-188211961D02*
X245655057Y-188307200D01*
X245738390Y-188402438D01*
X245845533Y-188307200D01*
X245762199Y-188211961D01*
X245738390Y-188402438D01*
X248047914Y-188211961D02*
X249381247Y-188211961D01*
X247797914Y-190211961D01*
X249131247Y-190211961D01*
X250666961Y-190116723D02*
X250464580Y-190211961D01*
X250083628Y-190211961D01*
X249905057Y-190116723D01*
X249833628Y-189926247D01*
X249928866Y-189164342D01*
X250047914Y-188973866D01*
X250250295Y-188878628D01*
X250631247Y-188878628D01*
X250809819Y-188973866D01*
X250881247Y-189164342D01*
X250857438Y-189354819D01*
X249881247Y-189545295D01*
X251607438Y-190211961D02*
X251774104Y-188878628D01*
X251726485Y-189259580D02*
X251845533Y-189069104D01*
X251952676Y-188973866D01*
X252155057Y-188878628D01*
X252345533Y-188878628D01*
X253131247Y-190211961D02*
X252952676Y-190116723D01*
X252869342Y-190021485D01*
X252797914Y-189831009D01*
X252869342Y-189259580D01*
X252988390Y-189069104D01*
X253095533Y-188973866D01*
X253297914Y-188878628D01*
X253583628Y-188878628D01*
X253762200Y-188973866D01*
X253845533Y-189069104D01*
X253916961Y-189259580D01*
X253845533Y-189831009D01*
X253726485Y-190021485D01*
X253619342Y-190116723D01*
X253416961Y-190211961D01*
X253131247Y-190211961D01*
D10*
D11*
X178934342Y-185600057D02*
X178434342Y-185600057D01*
X178434342Y-186385771D02*
X178434342Y-184885771D01*
X179148628Y-184885771D01*
X179720057Y-186385771D02*
X179720057Y-185385771D01*
X179720057Y-184885771D02*
X179648628Y-184957200D01*
X179720057Y-185028628D01*
X179791485Y-184957200D01*
X179720057Y-184885771D01*
X179720057Y-185028628D01*
X180648628Y-186385771D02*
X180505771Y-186314342D01*
X180434342Y-186171485D01*
X180434342Y-184885771D01*
X181791485Y-186314342D02*
X181648628Y-186385771D01*
X181362914Y-186385771D01*
X181220057Y-186314342D01*
X181148628Y-186171485D01*
X181148628Y-185600057D01*
X181220057Y-185457200D01*
X181362914Y-185385771D01*
X181648628Y-185385771D01*
X181791485Y-185457200D01*
X181862914Y-185600057D01*
X181862914Y-185742914D01*
X181148628Y-185885771D01*
X182505771Y-186242914D02*
X182577200Y-186314342D01*
X182505771Y-186385771D01*
X182434342Y-186314342D01*
X182505771Y-186242914D01*
X182505771Y-186385771D01*
X182505771Y-185457200D02*
X182577200Y-185528628D01*
X182505771Y-185600057D01*
X182434342Y-185528628D01*
X182505771Y-185457200D01*
X182505771Y-185600057D01*
X184362914Y-185385771D02*
X184362914Y-186885771D01*
X184362914Y-185457200D02*
X184505771Y-185385771D01*
X184791485Y-185385771D01*
X184934342Y-185457200D01*
X185005771Y-185528628D01*
X185077200Y-185671485D01*
X185077200Y-186100057D01*
X185005771Y-186242914D01*
X184934342Y-186314342D01*
X184791485Y-186385771D01*
X184505771Y-186385771D01*
X184362914Y-186314342D01*
X185720057Y-186385771D02*
X185720057Y-184885771D01*
X185720057Y-185600057D02*
X186577200Y-185600057D01*
X186577200Y-186385771D02*
X186577200Y-184885771D01*
X187220057Y-185957200D02*
X187934342Y-185957200D01*
X187077200Y-186385771D02*
X187577200Y-184885771D01*
X188077200Y-186385771D01*
X188362914Y-184885771D02*
X189220057Y-184885771D01*
X188791485Y-186385771D02*
X188791485Y-184885771D01*
X189362914Y-186528628D02*
X190505771Y-186528628D01*
X190862914Y-186385771D02*
X190862914Y-184885771D01*
X191434342Y-184885771D01*
X191577200Y-184957200D01*
X191648628Y-185028628D01*
X191720057Y-185171485D01*
X191720057Y-185385771D01*
X191648628Y-185528628D01*
X191577200Y-185600057D01*
X191434342Y-185671485D01*
X190862914Y-185671485D01*
X192291485Y-185957200D02*
X193005771Y-185957200D01*
X192148628Y-186385771D02*
X192648628Y-184885771D01*
X193148628Y-186385771D01*
X193577200Y-186314342D02*
X193791485Y-186385771D01*
X194148628Y-186385771D01*
X194291485Y-186314342D01*
X194362914Y-186242914D01*
X194434342Y-186100057D01*
X194434342Y-185957200D01*
X194362914Y-185814342D01*
X194291485Y-185742914D01*
X194148628Y-185671485D01*
X193862914Y-185600057D01*
X193720057Y-185528628D01*
X193648628Y-185457200D01*
X193577200Y-185314342D01*
X193577200Y-185171485D01*
X193648628Y-185028628D01*
X193720057Y-184957200D01*
X193862914Y-184885771D01*
X194220057Y-184885771D01*
X194434342Y-184957200D01*
X195005771Y-186314342D02*
X195220057Y-186385771D01*
X195577200Y-186385771D01*
X195720057Y-186314342D01*
X195791485Y-186242914D01*
X195862914Y-186100057D01*
X195862914Y-185957200D01*
X195791485Y-185814342D01*
X195720057Y-185742914D01*
X195577200Y-185671485D01*
X195291485Y-185600057D01*
X195148628Y-185528628D01*
X195077200Y-185457200D01*
X195005771Y-185314342D01*
X195005771Y-185171485D01*
X195077200Y-185028628D01*
X195148628Y-184957200D01*
X195291485Y-184885771D01*
X195648628Y-184885771D01*
X195862914Y-184957200D01*
X196505771Y-186385771D02*
X196505771Y-184885771D01*
X197005771Y-184885771D02*
X197505771Y-186385771D01*
X198005771Y-184885771D01*
X198505771Y-185600057D02*
X199005771Y-185600057D01*
X199220057Y-186385771D02*
X198505771Y-186385771D01*
X198505771Y-184885771D01*
X199220057Y-184885771D01*
X199505771Y-186528628D02*
X200648628Y-186528628D01*
X200791485Y-184885771D02*
X201648628Y-184885771D01*
X201220057Y-186385771D02*
X201220057Y-184885771D01*
X202077200Y-185957200D02*
X202791485Y-185957200D01*
X201934342Y-186385771D02*
X202434342Y-184885771D01*
X202934342Y-186385771D01*
X204220057Y-184957200D02*
X204077200Y-184885771D01*
X203862914Y-184885771D01*
X203648628Y-184957200D01*
X203505771Y-185100057D01*
X203434342Y-185242914D01*
X203362914Y-185528628D01*
X203362914Y-185742914D01*
X203434342Y-186028628D01*
X203505771Y-186171485D01*
X203648628Y-186314342D01*
X203862914Y-186385771D01*
X204005771Y-186385771D01*
X204220057Y-186314342D01*
X204291485Y-186242914D01*
X204291485Y-185742914D01*
X204005771Y-185742914D01*
X204934342Y-186242914D02*
X205005771Y-186314342D01*
X204934342Y-186385771D01*
X204862914Y-186314342D01*
X204934342Y-186242914D01*
X204934342Y-186385771D01*
X205648628Y-186385771D02*
X205648628Y-184885771D01*
X205791485Y-185814342D02*
X206220057Y-186385771D01*
X206220057Y-185385771D02*
X205648628Y-185957200D01*
X206862914Y-186385771D02*
X206862914Y-185385771D01*
X206862914Y-184885771D02*
X206791485Y-184957200D01*
X206862914Y-185028628D01*
X206934342Y-184957200D01*
X206862914Y-184885771D01*
X206862914Y-185028628D01*
X208220057Y-186314342D02*
X208077200Y-186385771D01*
X207791485Y-186385771D01*
X207648628Y-186314342D01*
X207577200Y-186242914D01*
X207505771Y-186100057D01*
X207505771Y-185671485D01*
X207577200Y-185528628D01*
X207648628Y-185457200D01*
X207791485Y-185385771D01*
X208077200Y-185385771D01*
X208220057Y-185457200D01*
X209505771Y-186385771D02*
X209505771Y-185600057D01*
X209434342Y-185457200D01*
X209291485Y-185385771D01*
X209005771Y-185385771D01*
X208862914Y-185457200D01*
X209505771Y-186314342D02*
X209362914Y-186385771D01*
X209005771Y-186385771D01*
X208862914Y-186314342D01*
X208791485Y-186171485D01*
X208791485Y-186028628D01*
X208862914Y-185885771D01*
X209005771Y-185814342D01*
X209362914Y-185814342D01*
X209505771Y-185742914D01*
X210862914Y-186385771D02*
X210862914Y-184885771D01*
X210862914Y-186314342D02*
X210720057Y-186385771D01*
X210434342Y-186385771D01*
X210291485Y-186314342D01*
X210220057Y-186242914D01*
X210148628Y-186100057D01*
X210148628Y-185671485D01*
X210220057Y-185528628D01*
X210291485Y-185457200D01*
X210434342Y-185385771D01*
X210720057Y-185385771D01*
X210862914Y-185457200D01*
X211220057Y-186528628D02*
X212362914Y-186528628D01*
X212720057Y-185385771D02*
X212720057Y-186885771D01*
X212720057Y-185457200D02*
X212862914Y-185385771D01*
X213148628Y-185385771D01*
X213291485Y-185457200D01*
X213362914Y-185528628D01*
X213434342Y-185671485D01*
X213434342Y-186100057D01*
X213362914Y-186242914D01*
X213291485Y-186314342D01*
X213148628Y-186385771D01*
X212862914Y-186385771D01*
X212720057Y-186314342D01*
X214720057Y-186314342D02*
X214577200Y-186385771D01*
X214291485Y-186385771D01*
X214148628Y-186314342D01*
X214077200Y-186242914D01*
X214005771Y-186100057D01*
X214005771Y-185671485D01*
X214077200Y-185528628D01*
X214148628Y-185457200D01*
X214291485Y-185385771D01*
X214577200Y-185385771D01*
X214720057Y-185457200D01*
X215362914Y-186385771D02*
X215362914Y-184885771D01*
X215362914Y-185457200D02*
X215505771Y-185385771D01*
X215791485Y-185385771D01*
X215934342Y-185457200D01*
X216005771Y-185528628D01*
X216077200Y-185671485D01*
X216077200Y-186100057D01*
X216005771Y-186242914D01*
X215934342Y-186314342D01*
X215791485Y-186385771D01*
X215505771Y-186385771D01*
X215362914Y-186314342D01*
D10*
D11*
X177002200Y-181507200D02*
X285002200Y-181507200D01*
D10*
D11*
X178362914Y-183614342D02*
X178577200Y-183685771D01*
X178934342Y-183685771D01*
X179077200Y-183614342D01*
X179148628Y-183542914D01*
X179220057Y-183400057D01*
X179220057Y-183257200D01*
X179148628Y-183114342D01*
X179077200Y-183042914D01*
X178934342Y-182971485D01*
X178648628Y-182900057D01*
X178505771Y-182828628D01*
X178434342Y-182757200D01*
X178362914Y-182614342D01*
X178362914Y-182471485D01*
X178434342Y-182328628D01*
X178505771Y-182257200D01*
X178648628Y-182185771D01*
X179005771Y-182185771D01*
X179220057Y-182257200D01*
X179862914Y-183685771D02*
X179862914Y-182185771D01*
X180505771Y-183685771D02*
X180505771Y-182900057D01*
X180434342Y-182757200D01*
X180291485Y-182685771D01*
X180077200Y-182685771D01*
X179934342Y-182757200D01*
X179862914Y-182828628D01*
X181791485Y-183614342D02*
X181648628Y-183685771D01*
X181362914Y-183685771D01*
X181220057Y-183614342D01*
X181148628Y-183471485D01*
X181148628Y-182900057D01*
X181220057Y-182757200D01*
X181362914Y-182685771D01*
X181648628Y-182685771D01*
X181791485Y-182757200D01*
X181862914Y-182900057D01*
X181862914Y-183042914D01*
X181148628Y-183185771D01*
X183077200Y-183614342D02*
X182934342Y-183685771D01*
X182648628Y-183685771D01*
X182505771Y-183614342D01*
X182434342Y-183471485D01*
X182434342Y-182900057D01*
X182505771Y-182757200D01*
X182648628Y-182685771D01*
X182934342Y-182685771D01*
X183077200Y-182757200D01*
X183148628Y-182900057D01*
X183148628Y-183042914D01*
X182434342Y-183185771D01*
X183577200Y-182685771D02*
X184148628Y-182685771D01*
X183791485Y-182185771D02*
X183791485Y-183471485D01*
X183862914Y-183614342D01*
X184005771Y-183685771D01*
X184148628Y-183685771D01*
X184648628Y-183542914D02*
X184720057Y-183614342D01*
X184648628Y-183685771D01*
X184577200Y-183614342D01*
X184648628Y-183542914D01*
X184648628Y-183685771D01*
X184648628Y-182757200D02*
X184720057Y-182828628D01*
X184648628Y-182900057D01*
X184577200Y-182828628D01*
X184648628Y-182757200D01*
X184648628Y-182900057D01*
D10*
D12*
X178554342Y-180685771D02*
X178554342Y-179185771D01*
X179054342Y-180257200D01*
X179554342Y-179185771D01*
X179554342Y-180685771D01*
X180268628Y-180685771D02*
X180268628Y-179185771D01*
X180768628Y-180257200D01*
X181268628Y-179185771D01*
X181268628Y-180685771D01*
X183125771Y-179900057D02*
X183625771Y-179900057D01*
X183840057Y-180685771D02*
X183125771Y-180685771D01*
X183125771Y-179185771D01*
X183840057Y-179185771D01*
X184697200Y-180685771D02*
X184554342Y-180614342D01*
X184482914Y-180471485D01*
X184482914Y-179185771D01*
X185840057Y-180614342D02*
X185697200Y-180685771D01*
X185411485Y-180685771D01*
X185268628Y-180614342D01*
X185197200Y-180471485D01*
X185197200Y-179900057D01*
X185268628Y-179757200D01*
X185411485Y-179685771D01*
X185697200Y-179685771D01*
X185840057Y-179757200D01*
X185911485Y-179900057D01*
X185911485Y-180042914D01*
X185197200Y-180185771D01*
X187197200Y-180614342D02*
X187054342Y-180685771D01*
X186768628Y-180685771D01*
X186625771Y-180614342D01*
X186554342Y-180542914D01*
X186482914Y-180400057D01*
X186482914Y-179971485D01*
X186554342Y-179828628D01*
X186625771Y-179757200D01*
X186768628Y-179685771D01*
X187054342Y-179685771D01*
X187197200Y-179757200D01*
X187625771Y-179685771D02*
X188197200Y-179685771D01*
X187840057Y-179185771D02*
X187840057Y-180471485D01*
X187911485Y-180614342D01*
X188054342Y-180685771D01*
X188197200Y-180685771D01*
X188697200Y-180685771D02*
X188697200Y-179685771D01*
X188697200Y-179971485D02*
X188768628Y-179828628D01*
X188840057Y-179757200D01*
X188982914Y-179685771D01*
X189125771Y-179685771D01*
X189840057Y-180685771D02*
X189697200Y-180614342D01*
X189625771Y-180542914D01*
X189554342Y-180400057D01*
X189554342Y-179971485D01*
X189625771Y-179828628D01*
X189697200Y-179757200D01*
X189840057Y-179685771D01*
X190054342Y-179685771D01*
X190197200Y-179757200D01*
X190268628Y-179828628D01*
X190340057Y-179971485D01*
X190340057Y-180400057D01*
X190268628Y-180542914D01*
X190197200Y-180614342D01*
X190054342Y-180685771D01*
X189840057Y-180685771D01*
X190982914Y-179685771D02*
X190982914Y-180685771D01*
X190982914Y-179828628D02*
X191054342Y-179757200D01*
X191197200Y-179685771D01*
X191411485Y-179685771D01*
X191554342Y-179757200D01*
X191625771Y-179900057D01*
X191625771Y-180685771D01*
X192340057Y-180685771D02*
X192340057Y-179685771D01*
X192340057Y-179185771D02*
X192268628Y-179257200D01*
X192340057Y-179328628D01*
X192411485Y-179257200D01*
X192340057Y-179185771D01*
X192340057Y-179328628D01*
X193697200Y-180614342D02*
X193554342Y-180685771D01*
X193268628Y-180685771D01*
X193125771Y-180614342D01*
X193054342Y-180542914D01*
X192982914Y-180400057D01*
X192982914Y-179971485D01*
X193054342Y-179828628D01*
X193125771Y-179757200D01*
X193268628Y-179685771D01*
X193554342Y-179685771D01*
X193697200Y-179757200D01*
X194268628Y-180614342D02*
X194411485Y-180685771D01*
X194697200Y-180685771D01*
X194840057Y-180614342D01*
X194911485Y-180471485D01*
X194911485Y-180400057D01*
X194840057Y-180257200D01*
X194697200Y-180185771D01*
X194482914Y-180185771D01*
X194340057Y-180114342D01*
X194268628Y-179971485D01*
X194268628Y-179900057D01*
X194340057Y-179757200D01*
X194482914Y-179685771D01*
X194697200Y-179685771D01*
X194840057Y-179757200D01*
D10*
D11*
X178434342Y-177685771D02*
X178434342Y-176185771D01*
X178934342Y-177257200D01*
X179434342Y-176185771D01*
X179434342Y-177685771D01*
X180148628Y-177685771D02*
X180148628Y-176185771D01*
X180648628Y-176185771D02*
X181505771Y-176185771D01*
X181077200Y-177685771D02*
X181077200Y-176185771D01*
X183862914Y-177685771D02*
X183148628Y-177685771D01*
X183148628Y-176185771D01*
X184362914Y-177685771D02*
X184362914Y-176685771D01*
X184362914Y-176185771D02*
X184291485Y-176257200D01*
X184362914Y-176328628D01*
X184434342Y-176257200D01*
X184362914Y-176185771D01*
X184362914Y-176328628D01*
X185720057Y-177614342D02*
X185577200Y-177685771D01*
X185291485Y-177685771D01*
X185148628Y-177614342D01*
X185077200Y-177542914D01*
X185005771Y-177400057D01*
X185005771Y-176971485D01*
X185077200Y-176828628D01*
X185148628Y-176757200D01*
X185291485Y-176685771D01*
X185577200Y-176685771D01*
X185720057Y-176757200D01*
X186934342Y-177614342D02*
X186791485Y-177685771D01*
X186505771Y-177685771D01*
X186362914Y-177614342D01*
X186291485Y-177471485D01*
X186291485Y-176900057D01*
X186362914Y-176757200D01*
X186505771Y-176685771D01*
X186791485Y-176685771D01*
X186934342Y-176757200D01*
X187005771Y-176900057D01*
X187005771Y-177042914D01*
X186291485Y-177185771D01*
X187648628Y-176685771D02*
X187648628Y-177685771D01*
X187648628Y-176828628D02*
X187720057Y-176757200D01*
X187862914Y-176685771D01*
X188077200Y-176685771D01*
X188220057Y-176757200D01*
X188291485Y-176900057D01*
X188291485Y-177685771D01*
X188934342Y-177614342D02*
X189077200Y-177685771D01*
X189362914Y-177685771D01*
X189505771Y-177614342D01*
X189577200Y-177471485D01*
X189577200Y-177400057D01*
X189505771Y-177257200D01*
X189362914Y-177185771D01*
X189148628Y-177185771D01*
X189005771Y-177114342D01*
X188934342Y-176971485D01*
X188934342Y-176900057D01*
X189005771Y-176757200D01*
X189148628Y-176685771D01*
X189362914Y-176685771D01*
X189505771Y-176757200D01*
X190791485Y-177614342D02*
X190648628Y-177685771D01*
X190362914Y-177685771D01*
X190220057Y-177614342D01*
X190148628Y-177471485D01*
X190148628Y-176900057D01*
X190220057Y-176757200D01*
X190362914Y-176685771D01*
X190648628Y-176685771D01*
X190791485Y-176757200D01*
X190862914Y-176900057D01*
X190862914Y-177042914D01*
X190148628Y-177185771D01*
X192148628Y-177685771D02*
X192148628Y-176185771D01*
X192148628Y-177614342D02*
X192005771Y-177685771D01*
X191720057Y-177685771D01*
X191577200Y-177614342D01*
X191505771Y-177542914D01*
X191434342Y-177400057D01*
X191434342Y-176971485D01*
X191505771Y-176828628D01*
X191577200Y-176757200D01*
X191720057Y-176685771D01*
X192005771Y-176685771D01*
X192148628Y-176757200D01*
X194291485Y-176185771D02*
X194577200Y-176185771D01*
X194720057Y-176257200D01*
X194862914Y-176400057D01*
X194934342Y-176685771D01*
X194934342Y-177185771D01*
X194862914Y-177471485D01*
X194720057Y-177614342D01*
X194577200Y-177685771D01*
X194291485Y-177685771D01*
X194148628Y-177614342D01*
X194005771Y-177471485D01*
X193934342Y-177185771D01*
X193934342Y-176685771D01*
X194005771Y-176400057D01*
X194148628Y-176257200D01*
X194291485Y-176185771D01*
X195577200Y-176685771D02*
X195577200Y-178185771D01*
X195577200Y-176757200D02*
X195720057Y-176685771D01*
X196005771Y-176685771D01*
X196148628Y-176757200D01*
X196220057Y-176828628D01*
X196291485Y-176971485D01*
X196291485Y-177400057D01*
X196220057Y-177542914D01*
X196148628Y-177614342D01*
X196005771Y-177685771D01*
X195720057Y-177685771D01*
X195577200Y-177614342D01*
X197505771Y-177614342D02*
X197362914Y-177685771D01*
X197077200Y-177685771D01*
X196934342Y-177614342D01*
X196862914Y-177471485D01*
X196862914Y-176900057D01*
X196934342Y-176757200D01*
X197077200Y-176685771D01*
X197362914Y-176685771D01*
X197505771Y-176757200D01*
X197577200Y-176900057D01*
X197577200Y-177042914D01*
X196862914Y-177185771D01*
X198220057Y-176685771D02*
X198220057Y-177685771D01*
X198220057Y-176828628D02*
X198291485Y-176757200D01*
X198434342Y-176685771D01*
X198648628Y-176685771D01*
X198791485Y-176757200D01*
X198862914Y-176900057D01*
X198862914Y-177685771D01*
X200648628Y-177614342D02*
X200862914Y-177685771D01*
X201220057Y-177685771D01*
X201362914Y-177614342D01*
X201434342Y-177542914D01*
X201505771Y-177400057D01*
X201505771Y-177257200D01*
X201434342Y-177114342D01*
X201362914Y-177042914D01*
X201220057Y-176971485D01*
X200934342Y-176900057D01*
X200791485Y-176828628D01*
X200720057Y-176757200D01*
X200648628Y-176614342D01*
X200648628Y-176471485D01*
X200720057Y-176328628D01*
X200791485Y-176257200D01*
X200934342Y-176185771D01*
X201291485Y-176185771D01*
X201505771Y-176257200D01*
X202362914Y-177685771D02*
X202220057Y-177614342D01*
X202148628Y-177542914D01*
X202077200Y-177400057D01*
X202077200Y-176971485D01*
X202148628Y-176828628D01*
X202220057Y-176757200D01*
X202362914Y-176685771D01*
X202577200Y-176685771D01*
X202720057Y-176757200D01*
X202791485Y-176828628D01*
X202862914Y-176971485D01*
X202862914Y-177400057D01*
X202791485Y-177542914D01*
X202720057Y-177614342D01*
X202577200Y-177685771D01*
X202362914Y-177685771D01*
X204148628Y-176685771D02*
X204148628Y-177685771D01*
X203505771Y-176685771D02*
X203505771Y-177471485D01*
X203577200Y-177614342D01*
X203720057Y-177685771D01*
X203934342Y-177685771D01*
X204077200Y-177614342D01*
X204148628Y-177542914D01*
X204862914Y-177685771D02*
X204862914Y-176685771D01*
X204862914Y-176971485D02*
X204934342Y-176828628D01*
X205005771Y-176757200D01*
X205148628Y-176685771D01*
X205291485Y-176685771D01*
X206434342Y-177614342D02*
X206291485Y-177685771D01*
X206005771Y-177685771D01*
X205862914Y-177614342D01*
X205791485Y-177542914D01*
X205720057Y-177400057D01*
X205720057Y-176971485D01*
X205791485Y-176828628D01*
X205862914Y-176757200D01*
X206005771Y-176685771D01*
X206291485Y-176685771D01*
X206434342Y-176757200D01*
X207648628Y-177614342D02*
X207505771Y-177685771D01*
X207220057Y-177685771D01*
X207077200Y-177614342D01*
X207005771Y-177471485D01*
X207005771Y-176900057D01*
X207077200Y-176757200D01*
X207220057Y-176685771D01*
X207505771Y-176685771D01*
X207648628Y-176757200D01*
X207720057Y-176900057D01*
X207720057Y-177042914D01*
X207005771Y-177185771D01*
X209505771Y-177685771D02*
X209505771Y-176185771D01*
X209505771Y-176900057D02*
X210362914Y-176900057D01*
X210362914Y-177685771D02*
X210362914Y-176185771D01*
X211720057Y-177685771D02*
X211720057Y-176900057D01*
X211648628Y-176757200D01*
X211505771Y-176685771D01*
X211220057Y-176685771D01*
X211077200Y-176757200D01*
X211720057Y-177614342D02*
X211577200Y-177685771D01*
X211220057Y-177685771D01*
X211077200Y-177614342D01*
X211005771Y-177471485D01*
X211005771Y-177328628D01*
X211077200Y-177185771D01*
X211220057Y-177114342D01*
X211577200Y-177114342D01*
X211720057Y-177042914D01*
X212434342Y-177685771D02*
X212434342Y-176685771D01*
X212434342Y-176971485D02*
X212505771Y-176828628D01*
X212577200Y-176757200D01*
X212720057Y-176685771D01*
X212862914Y-176685771D01*
X214005771Y-177685771D02*
X214005771Y-176185771D01*
X214005771Y-177614342D02*
X213862914Y-177685771D01*
X213577200Y-177685771D01*
X213434342Y-177614342D01*
X213362914Y-177542914D01*
X213291485Y-177400057D01*
X213291485Y-176971485D01*
X213362914Y-176828628D01*
X213434342Y-176757200D01*
X213577200Y-176685771D01*
X213862914Y-176685771D01*
X214005771Y-176757200D01*
X214577200Y-176685771D02*
X214862914Y-177685771D01*
X215148628Y-176971485D01*
X215434342Y-177685771D01*
X215720057Y-176685771D01*
X216934342Y-177685771D02*
X216934342Y-176900057D01*
X216862914Y-176757200D01*
X216720057Y-176685771D01*
X216434342Y-176685771D01*
X216291485Y-176757200D01*
X216934342Y-177614342D02*
X216791485Y-177685771D01*
X216434342Y-177685771D01*
X216291485Y-177614342D01*
X216220057Y-177471485D01*
X216220057Y-177328628D01*
X216291485Y-177185771D01*
X216434342Y-177114342D01*
X216791485Y-177114342D01*
X216934342Y-177042914D01*
X217648628Y-177685771D02*
X217648628Y-176685771D01*
X217648628Y-176971485D02*
X217720057Y-176828628D01*
X217791485Y-176757200D01*
X217934342Y-176685771D01*
X218077200Y-176685771D01*
X219148628Y-177614342D02*
X219005771Y-177685771D01*
X218720057Y-177685771D01*
X218577200Y-177614342D01*
X218505771Y-177471485D01*
X218505771Y-176900057D01*
X218577200Y-176757200D01*
X218720057Y-176685771D01*
X219005771Y-176685771D01*
X219148628Y-176757200D01*
X219220057Y-176900057D01*
X219220057Y-177042914D01*
X218505771Y-177185771D01*
D10*
D11*
X197002200Y-191507200D02*
X197002200Y-194507200D01*
D10*
D11*
X261002200Y-191507200D02*
X261002200Y-198007200D01*
D14*
%TO.C,AE1*%
X61069980Y-45451120D02*
G75*
G02X64070030Y-42451070I3000050J0D01*
G01*
X83269890Y-61651040D02*
G75*
G03X86269940Y-58650990I0J3000050D01*
G01*
X86269940Y-45451120D02*
G75*
G03X83269890Y-42451070I-3000050J0D01*
G01*
X61070000Y-51649000D02*
X61470000Y-51174000D01*
X61470000Y-51174000D02*
X61470000Y-45451120D01*
X61070000Y-51649000D02*
X61070000Y-58674000D01*
X64060000Y-61651040D02*
X83269890Y-61651040D01*
X83269890Y-42451070D02*
X64070030Y-42451070D01*
X86269940Y-58650990D02*
X86269940Y-45451120D01*
X60668460Y-49794620D02*
X60669730Y-49772770D01*
X60665920Y-49816210D02*
X60668460Y-49794620D01*
X60662620Y-49837800D02*
X60665920Y-49816210D01*
X60653220Y-49880470D02*
X60658300Y-49859130D01*
X60647130Y-49901300D02*
X60653220Y-49880470D01*
X60640020Y-49921870D02*
X60647130Y-49901300D01*
X60632140Y-49942450D02*
X60640020Y-49921870D01*
X60623510Y-49962260D02*
X60632140Y-49942450D01*
X60613850Y-49981820D02*
X60623510Y-49962260D01*
X60603190Y-50000870D02*
X60613850Y-49981820D01*
X60592010Y-50019660D02*
X60603190Y-50000870D01*
X60579820Y-50037700D02*
X60592010Y-50019660D01*
X60658300Y-49859130D02*
X60662620Y-49837800D01*
X60566860Y-50055480D02*
X60579820Y-50037700D01*
X60553150Y-50072490D02*
X60566860Y-50055480D01*
X60538920Y-50088750D02*
X60553150Y-50072490D01*
X60523680Y-50104500D02*
X60538920Y-50088750D01*
X60507940Y-50119740D02*
X60523680Y-50104500D01*
X60491680Y-50133960D02*
X60507940Y-50119740D01*
X60474660Y-50147680D02*
X60491680Y-50133960D01*
X60256980Y-50243440D02*
X60278320Y-50239120D01*
X60241960Y-50250550D02*
X60263800Y-50249280D01*
X60235390Y-50246740D02*
X60256980Y-50243440D01*
X60213800Y-50249280D02*
X60235390Y-50246740D01*
X59673000Y-50247500D02*
X60220120Y-50251060D01*
X60220120Y-50251060D02*
X60241960Y-50250550D01*
X60456880Y-50160630D02*
X60474660Y-50147680D01*
X60278320Y-50239120D02*
X60299660Y-50234040D01*
X60299660Y-50234040D02*
X60320480Y-50227940D01*
X60401000Y-50194670D02*
X60420310Y-50184000D01*
X60320480Y-50227940D02*
X60341060Y-50220830D01*
X60341060Y-50220830D02*
X60361630Y-50212960D01*
X60361630Y-50212960D02*
X60381440Y-50204320D01*
X60381440Y-50204320D02*
X60401000Y-50194670D01*
X60420310Y-50184000D02*
X60438850Y-50172820D01*
X60438850Y-50172820D02*
X60456880Y-50160630D01*
X60669730Y-49772770D02*
X60670240Y-49750930D01*
X64038540Y-59650480D02*
X64070030Y-59650990D01*
X64007300Y-59648960D02*
X64038540Y-59650480D01*
X63975800Y-59646670D02*
X64007300Y-59648960D01*
X63944810Y-59643110D02*
X63975800Y-59646670D01*
X63913570Y-59638800D02*
X63944810Y-59643110D01*
X63882580Y-59633210D02*
X63913570Y-59638800D01*
X63851850Y-59626860D02*
X63882580Y-59633210D01*
X63821370Y-59619490D02*
X63851850Y-59626860D01*
X63791140Y-59611360D02*
X63821370Y-59619490D01*
X63760920Y-59601970D02*
X63791140Y-59611360D01*
X63731200Y-59591810D02*
X63760920Y-59601970D01*
X63701990Y-59580880D02*
X63731200Y-59591810D01*
X63672780Y-59568690D02*
X63701990Y-59580880D01*
X63644330Y-59555740D02*
X63672780Y-59568690D01*
X63616140Y-59542020D02*
X63644330Y-59555740D01*
X63588200Y-59527290D02*
X63616140Y-59542020D01*
X63561020Y-59511800D02*
X63588200Y-59527290D01*
X63534090Y-59495290D02*
X63561020Y-59511800D01*
X63507930Y-59478010D02*
X63534090Y-59495290D01*
X63482280Y-59459980D02*
X63507930Y-59478010D01*
X63457130Y-59441180D02*
X63482280Y-59459980D01*
X63432490Y-59421630D02*
X63457130Y-59441180D01*
X63408620Y-59401050D02*
X63432490Y-59421630D01*
X63385500Y-59379970D02*
X63408620Y-59401050D01*
X63362900Y-59358130D02*
X63385500Y-59379970D01*
X63341050Y-59335520D02*
X63362900Y-59358130D01*
X63319970Y-59312410D02*
X63341050Y-59335520D01*
X63299400Y-59288530D02*
X63319970Y-59312410D01*
X63279840Y-59263890D02*
X63299400Y-59288530D01*
X63261040Y-59238750D02*
X63279840Y-59263890D01*
X63243010Y-59213090D02*
X63261040Y-59238750D01*
X63225740Y-59186930D02*
X63243010Y-59213090D01*
X63209230Y-59160010D02*
X63225740Y-59186930D01*
X63193730Y-59132830D02*
X63209230Y-59160010D01*
X63179000Y-59104890D02*
X63193730Y-59132830D01*
X63165290Y-59076690D02*
X63179000Y-59104890D01*
X63152330Y-59048250D02*
X63165290Y-59076690D01*
X63140140Y-59019040D02*
X63152330Y-59048250D01*
X63129220Y-58989830D02*
X63140140Y-59019040D01*
X63119060Y-58960110D02*
X63129220Y-58989830D01*
X63109660Y-58929880D02*
X63119060Y-58960110D01*
X63101530Y-58899660D02*
X63109660Y-58929880D01*
X63094170Y-58869180D02*
X63101530Y-58899660D01*
X63087820Y-58838440D02*
X63094170Y-58869180D01*
X63082230Y-58807450D02*
X63087820Y-58838440D01*
X63077910Y-58776210D02*
X63082230Y-58807450D01*
X63074350Y-58745220D02*
X63077910Y-58776210D01*
X63072070Y-58713730D02*
X63074350Y-58745220D01*
X63070540Y-58682490D02*
X63072070Y-58713730D01*
X63070040Y-58650990D02*
X63070540Y-58682490D01*
X84269380Y-58682490D02*
X84269890Y-58650990D01*
X84267860Y-58713730D02*
X84269380Y-58682490D01*
X84265570Y-58745220D02*
X84267860Y-58713730D01*
X84262020Y-58776210D02*
X84265570Y-58745220D01*
X84257700Y-58807450D02*
X84262020Y-58776210D01*
X84252110Y-58838440D02*
X84257700Y-58807450D01*
X84245760Y-58869180D02*
X84252110Y-58838440D01*
X84238400Y-58899660D02*
X84245760Y-58869180D01*
X84230270Y-58929880D02*
X84238400Y-58899660D01*
X84220870Y-58960110D02*
X84230270Y-58929880D01*
X84210710Y-58989830D02*
X84220870Y-58960110D01*
X84199790Y-59019040D02*
X84210710Y-58989830D01*
X84187600Y-59048250D02*
X84199790Y-59019040D01*
X84174640Y-59076690D02*
X84187600Y-59048250D01*
X84160930Y-59104890D02*
X84174640Y-59076690D01*
X84146190Y-59132830D02*
X84160930Y-59104890D01*
X84130700Y-59160010D02*
X84146190Y-59132830D01*
X84114190Y-59186930D02*
X84130700Y-59160010D01*
X84096920Y-59213090D02*
X84114190Y-59186930D01*
X84078880Y-59238750D02*
X84096920Y-59213090D01*
X84060090Y-59263890D02*
X84078880Y-59238750D01*
X84040530Y-59288530D02*
X84060090Y-59263890D01*
X84019960Y-59312410D02*
X84040530Y-59288530D01*
X83998870Y-59335520D02*
X84019960Y-59312410D01*
X83977030Y-59358130D02*
X83998870Y-59335520D01*
X83954420Y-59379970D02*
X83977030Y-59358130D01*
X83931310Y-59401050D02*
X83954420Y-59379970D01*
X83907430Y-59421630D02*
X83931310Y-59401050D01*
X83882800Y-59441180D02*
X83907430Y-59421630D01*
X83857650Y-59459980D02*
X83882800Y-59441180D01*
X83832000Y-59478010D02*
X83857650Y-59459980D01*
X83805830Y-59495290D02*
X83832000Y-59478010D01*
X83778910Y-59511800D02*
X83805830Y-59495290D01*
X83751730Y-59527290D02*
X83778910Y-59511800D01*
X83723790Y-59542020D02*
X83751730Y-59527290D01*
X83695600Y-59555740D02*
X83723790Y-59542020D01*
X83667150Y-59568690D02*
X83695600Y-59555740D01*
X83637940Y-59580880D02*
X83667150Y-59568690D01*
X83608730Y-59591810D02*
X83637940Y-59580880D01*
X83579010Y-59601970D02*
X83608730Y-59591810D01*
X83548790Y-59611360D02*
X83579010Y-59601970D01*
X83518560Y-59619490D02*
X83548790Y-59611360D01*
X83488080Y-59626860D02*
X83518560Y-59619490D01*
X83457350Y-59633210D02*
X83488080Y-59626860D01*
X83426360Y-59638800D02*
X83457350Y-59633210D01*
X83395120Y-59643110D02*
X83426360Y-59638800D01*
X83364130Y-59646670D02*
X83395120Y-59643110D01*
X83332630Y-59648960D02*
X83364130Y-59646670D01*
X83301390Y-59650480D02*
X83332630Y-59648960D01*
X83269890Y-59650990D02*
X83301390Y-59650480D01*
X83301390Y-44451630D02*
X83269890Y-44451120D01*
X83332630Y-44453150D02*
X83301390Y-44451630D01*
X83364130Y-44455440D02*
X83332630Y-44453150D01*
X83395120Y-44458990D02*
X83364130Y-44455440D01*
X83426360Y-44463310D02*
X83395120Y-44458990D01*
X83457350Y-44468900D02*
X83426360Y-44463310D01*
X83488080Y-44475250D02*
X83457350Y-44468900D01*
X83518560Y-44482620D02*
X83488080Y-44475250D01*
X83548790Y-44490740D02*
X83518560Y-44482620D01*
X83579010Y-44500140D02*
X83548790Y-44490740D01*
X83608730Y-44510300D02*
X83579010Y-44500140D01*
X83637940Y-44521220D02*
X83608730Y-44510300D01*
X83667150Y-44533420D02*
X83637940Y-44521220D01*
X83695600Y-44546370D02*
X83667150Y-44533420D01*
X83723790Y-44560090D02*
X83695600Y-44546370D01*
X83751730Y-44574820D02*
X83723790Y-44560090D01*
X83778910Y-44590310D02*
X83751730Y-44574820D01*
X83805830Y-44606820D02*
X83778910Y-44590310D01*
X83832000Y-44624090D02*
X83805830Y-44606820D01*
X83857650Y-44642130D02*
X83832000Y-44624090D01*
X83882800Y-44660920D02*
X83857650Y-44642130D01*
X83907430Y-44680480D02*
X83882800Y-44660920D01*
X83931310Y-44701060D02*
X83907430Y-44680480D01*
X83954420Y-44722140D02*
X83931310Y-44701060D01*
X83977030Y-44743980D02*
X83954420Y-44722140D01*
X83998870Y-44766590D02*
X83977030Y-44743980D01*
X84019960Y-44789700D02*
X83998870Y-44766590D01*
X84040530Y-44813580D02*
X84019960Y-44789700D01*
X84060090Y-44838220D02*
X84040530Y-44813580D01*
X84078880Y-44863360D02*
X84060090Y-44838220D01*
X84096920Y-44889020D02*
X84078880Y-44863360D01*
X84114190Y-44915180D02*
X84096920Y-44889020D01*
X84130700Y-44942100D02*
X84114190Y-44915180D01*
X84146190Y-44969280D02*
X84130700Y-44942100D01*
X84160930Y-44997220D02*
X84146190Y-44969280D01*
X84174640Y-45025410D02*
X84160930Y-44997220D01*
X84187600Y-45053860D02*
X84174640Y-45025410D01*
X84199790Y-45083070D02*
X84187600Y-45053860D01*
X84210710Y-45112280D02*
X84199790Y-45083070D01*
X84220870Y-45142000D02*
X84210710Y-45112280D01*
X84230270Y-45172230D02*
X84220870Y-45142000D01*
X84238400Y-45202450D02*
X84230270Y-45172230D01*
X84245760Y-45232930D02*
X84238400Y-45202450D01*
X84252110Y-45263670D02*
X84245760Y-45232930D01*
X84257700Y-45294650D02*
X84252110Y-45263670D01*
X84262020Y-45325900D02*
X84257700Y-45294650D01*
X84265570Y-45356880D02*
X84262020Y-45325900D01*
X84267860Y-45388380D02*
X84265570Y-45356880D01*
X84269380Y-45419620D02*
X84267860Y-45388380D01*
X84269890Y-45451120D02*
X84269380Y-45419620D01*
X63070540Y-45419620D02*
X63070040Y-45451120D01*
X63072070Y-45388380D02*
X63070540Y-45419620D01*
X63074350Y-45356880D02*
X63072070Y-45388380D01*
X63077910Y-45325900D02*
X63074350Y-45356880D01*
X63082230Y-45294650D02*
X63077910Y-45325900D01*
X63087820Y-45263670D02*
X63082230Y-45294650D01*
X63094170Y-45232930D02*
X63087820Y-45263670D01*
X63101530Y-45202450D02*
X63094170Y-45232930D01*
X63109660Y-45172230D02*
X63101530Y-45202450D01*
X63119060Y-45142000D02*
X63109660Y-45172230D01*
X63129220Y-45112280D02*
X63119060Y-45142000D01*
X63140140Y-45083070D02*
X63129220Y-45112280D01*
X63152330Y-45053860D02*
X63140140Y-45083070D01*
X63165290Y-45025410D02*
X63152330Y-45053860D01*
X63179000Y-44997220D02*
X63165290Y-45025410D01*
X63193730Y-44969280D02*
X63179000Y-44997220D01*
X63209230Y-44942100D02*
X63193730Y-44969280D01*
X63225740Y-44915180D02*
X63209230Y-44942100D01*
X63243010Y-44889020D02*
X63225740Y-44915180D01*
X63261040Y-44863360D02*
X63243010Y-44889020D01*
X63279840Y-44838220D02*
X63261040Y-44863360D01*
X63299400Y-44813580D02*
X63279840Y-44838220D01*
X63319970Y-44789700D02*
X63299400Y-44813580D01*
X63341050Y-44766590D02*
X63319970Y-44789700D01*
X63362900Y-44743980D02*
X63341050Y-44766590D01*
X63385500Y-44722140D02*
X63362900Y-44743980D01*
X63408620Y-44701060D02*
X63385500Y-44722140D01*
X63432490Y-44680480D02*
X63408620Y-44701060D01*
X63457130Y-44660920D02*
X63432490Y-44680480D01*
X63482280Y-44642130D02*
X63457130Y-44660920D01*
X63507930Y-44624090D02*
X63482280Y-44642130D01*
X63534090Y-44606820D02*
X63507930Y-44624090D01*
X63561020Y-44590310D02*
X63534090Y-44606820D01*
X63588200Y-44574820D02*
X63561020Y-44590310D01*
X63616140Y-44560090D02*
X63588200Y-44574820D01*
X63644330Y-44546370D02*
X63616140Y-44560090D01*
X63672780Y-44533420D02*
X63644330Y-44546370D01*
X63701990Y-44521220D02*
X63672780Y-44533420D01*
X63731200Y-44510300D02*
X63701990Y-44521220D01*
X63760920Y-44500140D02*
X63731200Y-44510300D01*
X63791140Y-44490740D02*
X63760920Y-44500140D01*
X63821370Y-44482620D02*
X63791140Y-44490740D01*
X63851850Y-44475250D02*
X63821370Y-44482620D01*
X63882580Y-44468900D02*
X63851850Y-44475250D01*
X63913570Y-44463310D02*
X63882580Y-44468900D01*
X63944810Y-44458990D02*
X63913570Y-44463310D01*
X63975800Y-44455440D02*
X63944810Y-44458990D01*
X64007300Y-44453150D02*
X63975800Y-44455440D01*
X64038540Y-44451630D02*
X64007300Y-44453150D01*
X64070030Y-44451120D02*
X64038540Y-44451630D01*
X60669990Y-45451120D02*
X60669990Y-49750930D01*
X83269890Y-44451120D02*
X64070030Y-44451120D01*
X64070030Y-44051110D02*
X83269890Y-44051110D01*
X83269890Y-43651100D02*
X64070030Y-43651100D01*
X64070030Y-43251080D02*
X83269890Y-43251080D01*
X83269890Y-42851070D02*
X64070030Y-42851070D01*
X84269890Y-58650990D02*
X84269890Y-45451120D01*
X84669900Y-45451120D02*
X84669900Y-58650990D01*
X85069920Y-58650990D02*
X85069920Y-45451120D01*
X85469930Y-45451120D02*
X85469930Y-58650990D01*
X85869940Y-58650990D02*
X85869940Y-45451120D01*
X64070030Y-59650990D02*
X83269890Y-59650990D01*
X83269890Y-60051000D02*
X64070030Y-60051000D01*
X64070030Y-60451010D02*
X83269890Y-60451010D01*
X83269890Y-60851020D02*
X64070030Y-60851020D01*
X64050110Y-61251040D02*
X83269890Y-61251040D01*
X61469990Y-51799000D02*
X61469990Y-58650990D01*
X63074100Y-55050950D02*
X64410000Y-53724000D01*
X63070040Y-58650990D02*
X63074100Y-55050950D01*
X62670020Y-52274000D02*
X62670020Y-58650990D01*
X63070040Y-51774000D02*
X62670020Y-52274000D01*
X63070040Y-45451120D02*
X63070040Y-51774000D01*
X62670020Y-51624000D02*
X62670020Y-45451120D01*
X62270010Y-52124000D02*
X62670020Y-51624000D01*
X62270010Y-58650990D02*
X62270010Y-52124000D01*
X61870000Y-51974000D02*
X61870000Y-58650990D01*
X62270010Y-51474000D02*
X61870000Y-51974000D01*
X62270010Y-45451120D02*
X62270010Y-51474000D01*
X61870000Y-51324000D02*
X61870000Y-45451120D01*
X61469990Y-51799000D02*
X61870000Y-51324000D01*
X83269890Y-61251142D02*
G75*
G03X85869940Y-58627980I0J2600152D01*
G01*
X83269890Y-60851030D02*
G75*
G03X85469930Y-58650990I0J2200040D01*
G01*
X83270960Y-60449950D02*
G75*
G03X85069920Y-58650990I0J1798960D01*
G01*
X83270960Y-60049930D02*
G75*
G03X84669900Y-58650990I0J1398940D01*
G01*
X85869940Y-45451120D02*
G75*
G03X83269890Y-42851070I-2600050J0D01*
G01*
X85469930Y-45451120D02*
G75*
G03X83269890Y-43251080I-2200040J0D01*
G01*
X85069910Y-45451120D02*
G75*
G03X83269890Y-43651100I-1800020J0D01*
G01*
X84669900Y-45451120D02*
G75*
G03X83269890Y-44051110I-1400010J0D01*
G01*
X64064328Y-61249018D02*
G75*
G02X61469990Y-58650990I-4328J2590018D01*
G01*
X64054983Y-61654034D02*
G75*
G02X61070000Y-58689000I-4983J2980034D01*
G01*
X64063658Y-60849012D02*
G75*
G02X61870000Y-58650990I-3658J2190012D01*
G01*
X64062990Y-60449006D02*
G75*
G02X62270010Y-58650990I-2990J1790006D01*
G01*
X64062322Y-60049001D02*
G75*
G02X62670020Y-58650990I-2322J1390001D01*
G01*
X61469980Y-45451120D02*
G75*
G02X64070030Y-42851070I2600050J0D01*
G01*
X61869990Y-45451120D02*
G75*
G02X64070030Y-43251080I2200040J0D01*
G01*
X62270010Y-45451120D02*
G75*
G02X64070030Y-43651100I1800020J0D01*
G01*
X62670020Y-45451120D02*
G75*
G02X64070030Y-44051110I1400010J0D01*
G01*
X83269890Y-42051070D02*
X64070030Y-42051070D01*
X60669980Y-45451120D02*
G75*
G02X64070030Y-42051070I3400050J0D01*
G01*
X86669940Y-58650990D02*
X86669940Y-45451120D01*
X86669940Y-45451120D02*
G75*
G03X83269890Y-42051070I-3400050J0D01*
G01*
X64050110Y-62051040D02*
X83260000Y-62051040D01*
X83269890Y-62051040D02*
G75*
G03X86669940Y-58650990I0J3400050D01*
G01*
X61069980Y-51024000D02*
X61069980Y-45451120D01*
X60670000Y-51499000D02*
X60670000Y-58674000D01*
X60670000Y-51499000D02*
X61069980Y-51024000D01*
X64055654Y-62054028D02*
G75*
G02X60670000Y-58689000I-5654J3380028D01*
G01*
%TD*%
D15*
%TO.P,AE1,1*%
%TO.N,Net-(AE1-Pad1)*%
X59673000Y-50247500D03*
D16*
%TO.P,AE1,2*%
%TO.N,Net-(AE1-Pad2)*%
X59660000Y-53719500D03*
%TO.P,AE1,3*%
%TO.N,N/C*%
X64414400Y-53721000D03*
%TD*%
D17*
%TO.P,J2,40*%
%TO.N,Net-(J2-Pad40)*%
X90770800Y-35213600D03*
%TO.P,J2,39*%
%TO.N,Net-(J2-Pad39)*%
X90770800Y-37753600D03*
%TO.P,J2,38*%
%TO.N,Net-(J2-Pad38)*%
X88230800Y-35213600D03*
%TO.P,J2,37*%
%TO.N,Net-(J2-Pad37)*%
X88230800Y-37753600D03*
%TO.P,J2,36*%
%TO.N,Net-(J2-Pad36)*%
X85690800Y-35213600D03*
%TO.P,J2,35*%
%TO.N,Net-(J2-Pad35)*%
X85690800Y-37753600D03*
%TO.P,J2,34*%
%TO.N,Net-(J2-Pad34)*%
X83150800Y-35213600D03*
%TO.P,J2,33*%
%TO.N,Net-(J2-Pad33)*%
X83150800Y-37753600D03*
%TO.P,J2,32*%
%TO.N,Net-(J2-Pad32)*%
X80610800Y-35213600D03*
%TO.P,J2,31*%
%TO.N,Net-(J2-Pad31)*%
X80610800Y-37753600D03*
%TO.P,J2,30*%
%TO.N,Net-(J2-Pad30)*%
X78070800Y-35213600D03*
%TO.P,J2,29*%
%TO.N,Net-(J2-Pad29)*%
X78070800Y-37753600D03*
%TO.P,J2,28*%
%TO.N,Net-(J2-Pad28)*%
X75530800Y-35213600D03*
%TO.P,J2,27*%
%TO.N,Net-(J2-Pad27)*%
X75530800Y-37753600D03*
%TO.P,J2,26*%
%TO.N,Net-(J2-Pad26)*%
X72990800Y-35213600D03*
%TO.P,J2,25*%
%TO.N,Net-(J2-Pad25)*%
X72990800Y-37753600D03*
%TO.P,J2,24*%
%TO.N,Net-(J2-Pad24)*%
X70450800Y-35213600D03*
%TO.P,J2,23*%
%TO.N,Net-(J2-Pad23)*%
X70450800Y-37753600D03*
%TO.P,J2,22*%
%TO.N,Net-(J2-Pad22)*%
X67910800Y-35213600D03*
%TO.P,J2,21*%
%TO.N,Net-(J2-Pad21)*%
X67910800Y-37753600D03*
%TO.P,J2,20*%
%TO.N,Net-(J2-Pad20)*%
X65370800Y-35213600D03*
%TO.P,J2,19*%
%TO.N,Net-(J2-Pad19)*%
X65370800Y-37753600D03*
%TO.P,J2,18*%
%TO.N,Net-(J2-Pad18)*%
X62830800Y-35213600D03*
%TO.P,J2,17*%
%TO.N,Net-(J2-Pad17)*%
X62830800Y-37753600D03*
%TO.P,J2,16*%
%TO.N,Net-(J2-Pad16)*%
X60290800Y-35213600D03*
%TO.P,J2,15*%
%TO.N,Net-(J2-Pad15)*%
X60290800Y-37753600D03*
%TO.P,J2,14*%
%TO.N,Net-(J2-Pad14)*%
X57750800Y-35213600D03*
%TO.P,J2,13*%
%TO.N,Net-(J2-Pad13)*%
X57750800Y-37753600D03*
%TO.P,J2,12*%
%TO.N,Net-(J2-Pad12)*%
X55210800Y-35213600D03*
%TO.P,J2,11*%
%TO.N,Net-(J2-Pad11)*%
X55210800Y-37753600D03*
%TO.P,J2,10*%
%TO.N,Net-(J2-Pad10)*%
X52670800Y-35213600D03*
%TO.P,J2,9*%
%TO.N,GND*%
X52670800Y-37753600D03*
%TO.P,J2,8*%
%TO.N,Net-(J2-Pad8)*%
X50130800Y-35213600D03*
%TO.P,J2,7*%
%TO.N,/FD*%
X50130800Y-37753600D03*
%TO.P,J2,6*%
%TO.N,GND*%
X47590800Y-35213600D03*
%TO.P,J2,5*%
%TO.N,/SCL*%
X47590800Y-37753600D03*
%TO.P,J2,4*%
%TO.N,Net-(J2-Pad4)*%
X45050800Y-35213600D03*
%TO.P,J2,3*%
%TO.N,/SDA*%
X45050800Y-37753600D03*
%TO.P,J2,2*%
%TO.N,Net-(J2-Pad2)*%
X42510800Y-35213600D03*
D18*
%TO.P,J2,1*%
%TO.N,+3V3*%
X42510800Y-37753600D03*
%TD*%
%TA.AperFunction,SMDPad,CuDef*%
D19*
%TO.P,R1,2*%
%TO.N,/FD*%
G36*
X52488091Y-41105853D02*
G01*
X52509326Y-41109003D01*
X52530150Y-41114219D01*
X52550362Y-41121451D01*
X52569768Y-41130630D01*
X52588181Y-41141666D01*
X52605424Y-41154454D01*
X52621330Y-41168870D01*
X52635746Y-41184776D01*
X52648534Y-41202019D01*
X52659570Y-41220432D01*
X52668749Y-41239838D01*
X52675981Y-41260050D01*
X52681197Y-41280874D01*
X52684347Y-41302109D01*
X52685400Y-41323550D01*
X52685400Y-41836050D01*
X52684347Y-41857491D01*
X52681197Y-41878726D01*
X52675981Y-41899550D01*
X52668749Y-41919762D01*
X52659570Y-41939168D01*
X52648534Y-41957581D01*
X52635746Y-41974824D01*
X52621330Y-41990730D01*
X52605424Y-42005146D01*
X52588181Y-42017934D01*
X52569768Y-42028970D01*
X52550362Y-42038149D01*
X52530150Y-42045381D01*
X52509326Y-42050597D01*
X52488091Y-42053747D01*
X52466650Y-42054800D01*
X52029150Y-42054800D01*
X52007709Y-42053747D01*
X51986474Y-42050597D01*
X51965650Y-42045381D01*
X51945438Y-42038149D01*
X51926032Y-42028970D01*
X51907619Y-42017934D01*
X51890376Y-42005146D01*
X51874470Y-41990730D01*
X51860054Y-41974824D01*
X51847266Y-41957581D01*
X51836230Y-41939168D01*
X51827051Y-41919762D01*
X51819819Y-41899550D01*
X51814603Y-41878726D01*
X51811453Y-41857491D01*
X51810400Y-41836050D01*
X51810400Y-41323550D01*
X51811453Y-41302109D01*
X51814603Y-41280874D01*
X51819819Y-41260050D01*
X51827051Y-41239838D01*
X51836230Y-41220432D01*
X51847266Y-41202019D01*
X51860054Y-41184776D01*
X51874470Y-41168870D01*
X51890376Y-41154454D01*
X51907619Y-41141666D01*
X51926032Y-41130630D01*
X51945438Y-41121451D01*
X51965650Y-41114219D01*
X51986474Y-41109003D01*
X52007709Y-41105853D01*
X52029150Y-41104800D01*
X52466650Y-41104800D01*
X52488091Y-41105853D01*
G37*
%TD.AperFunction*%
%TA.AperFunction,SMDPad,CuDef*%
%TO.P,R1,1*%
%TO.N,+3V3*%
G36*
X50913091Y-41105853D02*
G01*
X50934326Y-41109003D01*
X50955150Y-41114219D01*
X50975362Y-41121451D01*
X50994768Y-41130630D01*
X51013181Y-41141666D01*
X51030424Y-41154454D01*
X51046330Y-41168870D01*
X51060746Y-41184776D01*
X51073534Y-41202019D01*
X51084570Y-41220432D01*
X51093749Y-41239838D01*
X51100981Y-41260050D01*
X51106197Y-41280874D01*
X51109347Y-41302109D01*
X51110400Y-41323550D01*
X51110400Y-41836050D01*
X51109347Y-41857491D01*
X51106197Y-41878726D01*
X51100981Y-41899550D01*
X51093749Y-41919762D01*
X51084570Y-41939168D01*
X51073534Y-41957581D01*
X51060746Y-41974824D01*
X51046330Y-41990730D01*
X51030424Y-42005146D01*
X51013181Y-42017934D01*
X50994768Y-42028970D01*
X50975362Y-42038149D01*
X50955150Y-42045381D01*
X50934326Y-42050597D01*
X50913091Y-42053747D01*
X50891650Y-42054800D01*
X50454150Y-42054800D01*
X50432709Y-42053747D01*
X50411474Y-42050597D01*
X50390650Y-42045381D01*
X50370438Y-42038149D01*
X50351032Y-42028970D01*
X50332619Y-42017934D01*
X50315376Y-42005146D01*
X50299470Y-41990730D01*
X50285054Y-41974824D01*
X50272266Y-41957581D01*
X50261230Y-41939168D01*
X50252051Y-41919762D01*
X50244819Y-41899550D01*
X50239603Y-41878726D01*
X50236453Y-41857491D01*
X50235400Y-41836050D01*
X50235400Y-41323550D01*
X50236453Y-41302109D01*
X50239603Y-41280874D01*
X50244819Y-41260050D01*
X50252051Y-41239838D01*
X50261230Y-41220432D01*
X50272266Y-41202019D01*
X50285054Y-41184776D01*
X50299470Y-41168870D01*
X50315376Y-41154454D01*
X50332619Y-41141666D01*
X50351032Y-41130630D01*
X50370438Y-41121451D01*
X50390650Y-41114219D01*
X50411474Y-41109003D01*
X50432709Y-41105853D01*
X50454150Y-41104800D01*
X50891650Y-41104800D01*
X50913091Y-41105853D01*
G37*
%TD.AperFunction*%
%TD*%
%TA.AperFunction,SMDPad,CuDef*%
%TO.P,R3,2*%
%TO.N,/SDA*%
G36*
X45287191Y-41105853D02*
G01*
X45308426Y-41109003D01*
X45329250Y-41114219D01*
X45349462Y-41121451D01*
X45368868Y-41130630D01*
X45387281Y-41141666D01*
X45404524Y-41154454D01*
X45420430Y-41168870D01*
X45434846Y-41184776D01*
X45447634Y-41202019D01*
X45458670Y-41220432D01*
X45467849Y-41239838D01*
X45475081Y-41260050D01*
X45480297Y-41280874D01*
X45483447Y-41302109D01*
X45484500Y-41323550D01*
X45484500Y-41836050D01*
X45483447Y-41857491D01*
X45480297Y-41878726D01*
X45475081Y-41899550D01*
X45467849Y-41919762D01*
X45458670Y-41939168D01*
X45447634Y-41957581D01*
X45434846Y-41974824D01*
X45420430Y-41990730D01*
X45404524Y-42005146D01*
X45387281Y-42017934D01*
X45368868Y-42028970D01*
X45349462Y-42038149D01*
X45329250Y-42045381D01*
X45308426Y-42050597D01*
X45287191Y-42053747D01*
X45265750Y-42054800D01*
X44828250Y-42054800D01*
X44806809Y-42053747D01*
X44785574Y-42050597D01*
X44764750Y-42045381D01*
X44744538Y-42038149D01*
X44725132Y-42028970D01*
X44706719Y-42017934D01*
X44689476Y-42005146D01*
X44673570Y-41990730D01*
X44659154Y-41974824D01*
X44646366Y-41957581D01*
X44635330Y-41939168D01*
X44626151Y-41919762D01*
X44618919Y-41899550D01*
X44613703Y-41878726D01*
X44610553Y-41857491D01*
X44609500Y-41836050D01*
X44609500Y-41323550D01*
X44610553Y-41302109D01*
X44613703Y-41280874D01*
X44618919Y-41260050D01*
X44626151Y-41239838D01*
X44635330Y-41220432D01*
X44646366Y-41202019D01*
X44659154Y-41184776D01*
X44673570Y-41168870D01*
X44689476Y-41154454D01*
X44706719Y-41141666D01*
X44725132Y-41130630D01*
X44744538Y-41121451D01*
X44764750Y-41114219D01*
X44785574Y-41109003D01*
X44806809Y-41105853D01*
X44828250Y-41104800D01*
X45265750Y-41104800D01*
X45287191Y-41105853D01*
G37*
%TD.AperFunction*%
%TA.AperFunction,SMDPad,CuDef*%
%TO.P,R3,1*%
%TO.N,+3V3*%
G36*
X43712191Y-41105853D02*
G01*
X43733426Y-41109003D01*
X43754250Y-41114219D01*
X43774462Y-41121451D01*
X43793868Y-41130630D01*
X43812281Y-41141666D01*
X43829524Y-41154454D01*
X43845430Y-41168870D01*
X43859846Y-41184776D01*
X43872634Y-41202019D01*
X43883670Y-41220432D01*
X43892849Y-41239838D01*
X43900081Y-41260050D01*
X43905297Y-41280874D01*
X43908447Y-41302109D01*
X43909500Y-41323550D01*
X43909500Y-41836050D01*
X43908447Y-41857491D01*
X43905297Y-41878726D01*
X43900081Y-41899550D01*
X43892849Y-41919762D01*
X43883670Y-41939168D01*
X43872634Y-41957581D01*
X43859846Y-41974824D01*
X43845430Y-41990730D01*
X43829524Y-42005146D01*
X43812281Y-42017934D01*
X43793868Y-42028970D01*
X43774462Y-42038149D01*
X43754250Y-42045381D01*
X43733426Y-42050597D01*
X43712191Y-42053747D01*
X43690750Y-42054800D01*
X43253250Y-42054800D01*
X43231809Y-42053747D01*
X43210574Y-42050597D01*
X43189750Y-42045381D01*
X43169538Y-42038149D01*
X43150132Y-42028970D01*
X43131719Y-42017934D01*
X43114476Y-42005146D01*
X43098570Y-41990730D01*
X43084154Y-41974824D01*
X43071366Y-41957581D01*
X43060330Y-41939168D01*
X43051151Y-41919762D01*
X43043919Y-41899550D01*
X43038703Y-41878726D01*
X43035553Y-41857491D01*
X43034500Y-41836050D01*
X43034500Y-41323550D01*
X43035553Y-41302109D01*
X43038703Y-41280874D01*
X43043919Y-41260050D01*
X43051151Y-41239838D01*
X43060330Y-41220432D01*
X43071366Y-41202019D01*
X43084154Y-41184776D01*
X43098570Y-41168870D01*
X43114476Y-41154454D01*
X43131719Y-41141666D01*
X43150132Y-41130630D01*
X43169538Y-41121451D01*
X43189750Y-41114219D01*
X43210574Y-41109003D01*
X43231809Y-41105853D01*
X43253250Y-41104800D01*
X43690750Y-41104800D01*
X43712191Y-41105853D01*
G37*
%TD.AperFunction*%
%TD*%
%TA.AperFunction,SMDPad,CuDef*%
%TO.P,R2,2*%
%TO.N,/SCL*%
G36*
X47839691Y-41105853D02*
G01*
X47860926Y-41109003D01*
X47881750Y-41114219D01*
X47901962Y-41121451D01*
X47921368Y-41130630D01*
X47939781Y-41141666D01*
X47957024Y-41154454D01*
X47972930Y-41168870D01*
X47987346Y-41184776D01*
X48000134Y-41202019D01*
X48011170Y-41220432D01*
X48020349Y-41239838D01*
X48027581Y-41260050D01*
X48032797Y-41280874D01*
X48035947Y-41302109D01*
X48037000Y-41323550D01*
X48037000Y-41836050D01*
X48035947Y-41857491D01*
X48032797Y-41878726D01*
X48027581Y-41899550D01*
X48020349Y-41919762D01*
X48011170Y-41939168D01*
X48000134Y-41957581D01*
X47987346Y-41974824D01*
X47972930Y-41990730D01*
X47957024Y-42005146D01*
X47939781Y-42017934D01*
X47921368Y-42028970D01*
X47901962Y-42038149D01*
X47881750Y-42045381D01*
X47860926Y-42050597D01*
X47839691Y-42053747D01*
X47818250Y-42054800D01*
X47380750Y-42054800D01*
X47359309Y-42053747D01*
X47338074Y-42050597D01*
X47317250Y-42045381D01*
X47297038Y-42038149D01*
X47277632Y-42028970D01*
X47259219Y-42017934D01*
X47241976Y-42005146D01*
X47226070Y-41990730D01*
X47211654Y-41974824D01*
X47198866Y-41957581D01*
X47187830Y-41939168D01*
X47178651Y-41919762D01*
X47171419Y-41899550D01*
X47166203Y-41878726D01*
X47163053Y-41857491D01*
X47162000Y-41836050D01*
X47162000Y-41323550D01*
X47163053Y-41302109D01*
X47166203Y-41280874D01*
X47171419Y-41260050D01*
X47178651Y-41239838D01*
X47187830Y-41220432D01*
X47198866Y-41202019D01*
X47211654Y-41184776D01*
X47226070Y-41168870D01*
X47241976Y-41154454D01*
X47259219Y-41141666D01*
X47277632Y-41130630D01*
X47297038Y-41121451D01*
X47317250Y-41114219D01*
X47338074Y-41109003D01*
X47359309Y-41105853D01*
X47380750Y-41104800D01*
X47818250Y-41104800D01*
X47839691Y-41105853D01*
G37*
%TD.AperFunction*%
%TA.AperFunction,SMDPad,CuDef*%
%TO.P,R2,1*%
%TO.N,+3V3*%
G36*
X49414691Y-41105853D02*
G01*
X49435926Y-41109003D01*
X49456750Y-41114219D01*
X49476962Y-41121451D01*
X49496368Y-41130630D01*
X49514781Y-41141666D01*
X49532024Y-41154454D01*
X49547930Y-41168870D01*
X49562346Y-41184776D01*
X49575134Y-41202019D01*
X49586170Y-41220432D01*
X49595349Y-41239838D01*
X49602581Y-41260050D01*
X49607797Y-41280874D01*
X49610947Y-41302109D01*
X49612000Y-41323550D01*
X49612000Y-41836050D01*
X49610947Y-41857491D01*
X49607797Y-41878726D01*
X49602581Y-41899550D01*
X49595349Y-41919762D01*
X49586170Y-41939168D01*
X49575134Y-41957581D01*
X49562346Y-41974824D01*
X49547930Y-41990730D01*
X49532024Y-42005146D01*
X49514781Y-42017934D01*
X49496368Y-42028970D01*
X49476962Y-42038149D01*
X49456750Y-42045381D01*
X49435926Y-42050597D01*
X49414691Y-42053747D01*
X49393250Y-42054800D01*
X48955750Y-42054800D01*
X48934309Y-42053747D01*
X48913074Y-42050597D01*
X48892250Y-42045381D01*
X48872038Y-42038149D01*
X48852632Y-42028970D01*
X48834219Y-42017934D01*
X48816976Y-42005146D01*
X48801070Y-41990730D01*
X48786654Y-41974824D01*
X48773866Y-41957581D01*
X48762830Y-41939168D01*
X48753651Y-41919762D01*
X48746419Y-41899550D01*
X48741203Y-41878726D01*
X48738053Y-41857491D01*
X48737000Y-41836050D01*
X48737000Y-41323550D01*
X48738053Y-41302109D01*
X48741203Y-41280874D01*
X48746419Y-41260050D01*
X48753651Y-41239838D01*
X48762830Y-41220432D01*
X48773866Y-41202019D01*
X48786654Y-41184776D01*
X48801070Y-41168870D01*
X48816976Y-41154454D01*
X48834219Y-41141666D01*
X48852632Y-41130630D01*
X48872038Y-41121451D01*
X48892250Y-41114219D01*
X48913074Y-41109003D01*
X48934309Y-41105853D01*
X48955750Y-41104800D01*
X49393250Y-41104800D01*
X49414691Y-41105853D01*
G37*
%TD.AperFunction*%
%TD*%
%TA.AperFunction,SMDPad,CuDef*%
%TO.P,U1,8*%
%TO.N,Net-(AE1-Pad2)*%
G36*
X53123703Y-53770722D02*
G01*
X53138264Y-53772882D01*
X53152543Y-53776459D01*
X53166403Y-53781418D01*
X53179710Y-53787712D01*
X53192336Y-53795280D01*
X53204159Y-53804048D01*
X53215066Y-53813934D01*
X53224952Y-53824841D01*
X53233720Y-53836664D01*
X53241288Y-53849290D01*
X53247582Y-53862597D01*
X53252541Y-53876457D01*
X53256118Y-53890736D01*
X53258278Y-53905297D01*
X53259000Y-53920000D01*
X53259000Y-55370000D01*
X53258278Y-55384703D01*
X53256118Y-55399264D01*
X53252541Y-55413543D01*
X53247582Y-55427403D01*
X53241288Y-55440710D01*
X53233720Y-55453336D01*
X53224952Y-55465159D01*
X53215066Y-55476066D01*
X53204159Y-55485952D01*
X53192336Y-55494720D01*
X53179710Y-55502288D01*
X53166403Y-55508582D01*
X53152543Y-55513541D01*
X53138264Y-55517118D01*
X53123703Y-55519278D01*
X53109000Y-55520000D01*
X52809000Y-55520000D01*
X52794297Y-55519278D01*
X52779736Y-55517118D01*
X52765457Y-55513541D01*
X52751597Y-55508582D01*
X52738290Y-55502288D01*
X52725664Y-55494720D01*
X52713841Y-55485952D01*
X52702934Y-55476066D01*
X52693048Y-55465159D01*
X52684280Y-55453336D01*
X52676712Y-55440710D01*
X52670418Y-55427403D01*
X52665459Y-55413543D01*
X52661882Y-55399264D01*
X52659722Y-55384703D01*
X52659000Y-55370000D01*
X52659000Y-53920000D01*
X52659722Y-53905297D01*
X52661882Y-53890736D01*
X52665459Y-53876457D01*
X52670418Y-53862597D01*
X52676712Y-53849290D01*
X52684280Y-53836664D01*
X52693048Y-53824841D01*
X52702934Y-53813934D01*
X52713841Y-53804048D01*
X52725664Y-53795280D01*
X52738290Y-53787712D01*
X52751597Y-53781418D01*
X52765457Y-53776459D01*
X52779736Y-53772882D01*
X52794297Y-53770722D01*
X52809000Y-53770000D01*
X53109000Y-53770000D01*
X53123703Y-53770722D01*
G37*
%TD.AperFunction*%
%TA.AperFunction,SMDPad,CuDef*%
%TO.P,U1,7*%
%TO.N,Net-(U1-Pad7)*%
G36*
X51853703Y-53770722D02*
G01*
X51868264Y-53772882D01*
X51882543Y-53776459D01*
X51896403Y-53781418D01*
X51909710Y-53787712D01*
X51922336Y-53795280D01*
X51934159Y-53804048D01*
X51945066Y-53813934D01*
X51954952Y-53824841D01*
X51963720Y-53836664D01*
X51971288Y-53849290D01*
X51977582Y-53862597D01*
X51982541Y-53876457D01*
X51986118Y-53890736D01*
X51988278Y-53905297D01*
X51989000Y-53920000D01*
X51989000Y-55370000D01*
X51988278Y-55384703D01*
X51986118Y-55399264D01*
X51982541Y-55413543D01*
X51977582Y-55427403D01*
X51971288Y-55440710D01*
X51963720Y-55453336D01*
X51954952Y-55465159D01*
X51945066Y-55476066D01*
X51934159Y-55485952D01*
X51922336Y-55494720D01*
X51909710Y-55502288D01*
X51896403Y-55508582D01*
X51882543Y-55513541D01*
X51868264Y-55517118D01*
X51853703Y-55519278D01*
X51839000Y-55520000D01*
X51539000Y-55520000D01*
X51524297Y-55519278D01*
X51509736Y-55517118D01*
X51495457Y-55513541D01*
X51481597Y-55508582D01*
X51468290Y-55502288D01*
X51455664Y-55494720D01*
X51443841Y-55485952D01*
X51432934Y-55476066D01*
X51423048Y-55465159D01*
X51414280Y-55453336D01*
X51406712Y-55440710D01*
X51400418Y-55427403D01*
X51395459Y-55413543D01*
X51391882Y-55399264D01*
X51389722Y-55384703D01*
X51389000Y-55370000D01*
X51389000Y-53920000D01*
X51389722Y-53905297D01*
X51391882Y-53890736D01*
X51395459Y-53876457D01*
X51400418Y-53862597D01*
X51406712Y-53849290D01*
X51414280Y-53836664D01*
X51423048Y-53824841D01*
X51432934Y-53813934D01*
X51443841Y-53804048D01*
X51455664Y-53795280D01*
X51468290Y-53787712D01*
X51481597Y-53781418D01*
X51495457Y-53776459D01*
X51509736Y-53772882D01*
X51524297Y-53770722D01*
X51539000Y-53770000D01*
X51839000Y-53770000D01*
X51853703Y-53770722D01*
G37*
%TD.AperFunction*%
%TA.AperFunction,SMDPad,CuDef*%
%TO.P,U1,6*%
%TO.N,+3V3*%
G36*
X50583703Y-53770722D02*
G01*
X50598264Y-53772882D01*
X50612543Y-53776459D01*
X50626403Y-53781418D01*
X50639710Y-53787712D01*
X50652336Y-53795280D01*
X50664159Y-53804048D01*
X50675066Y-53813934D01*
X50684952Y-53824841D01*
X50693720Y-53836664D01*
X50701288Y-53849290D01*
X50707582Y-53862597D01*
X50712541Y-53876457D01*
X50716118Y-53890736D01*
X50718278Y-53905297D01*
X50719000Y-53920000D01*
X50719000Y-55370000D01*
X50718278Y-55384703D01*
X50716118Y-55399264D01*
X50712541Y-55413543D01*
X50707582Y-55427403D01*
X50701288Y-55440710D01*
X50693720Y-55453336D01*
X50684952Y-55465159D01*
X50675066Y-55476066D01*
X50664159Y-55485952D01*
X50652336Y-55494720D01*
X50639710Y-55502288D01*
X50626403Y-55508582D01*
X50612543Y-55513541D01*
X50598264Y-55517118D01*
X50583703Y-55519278D01*
X50569000Y-55520000D01*
X50269000Y-55520000D01*
X50254297Y-55519278D01*
X50239736Y-55517118D01*
X50225457Y-55513541D01*
X50211597Y-55508582D01*
X50198290Y-55502288D01*
X50185664Y-55494720D01*
X50173841Y-55485952D01*
X50162934Y-55476066D01*
X50153048Y-55465159D01*
X50144280Y-55453336D01*
X50136712Y-55440710D01*
X50130418Y-55427403D01*
X50125459Y-55413543D01*
X50121882Y-55399264D01*
X50119722Y-55384703D01*
X50119000Y-55370000D01*
X50119000Y-53920000D01*
X50119722Y-53905297D01*
X50121882Y-53890736D01*
X50125459Y-53876457D01*
X50130418Y-53862597D01*
X50136712Y-53849290D01*
X50144280Y-53836664D01*
X50153048Y-53824841D01*
X50162934Y-53813934D01*
X50173841Y-53804048D01*
X50185664Y-53795280D01*
X50198290Y-53787712D01*
X50211597Y-53781418D01*
X50225457Y-53776459D01*
X50239736Y-53772882D01*
X50254297Y-53770722D01*
X50269000Y-53770000D01*
X50569000Y-53770000D01*
X50583703Y-53770722D01*
G37*
%TD.AperFunction*%
%TA.AperFunction,SMDPad,CuDef*%
%TO.P,U1,5*%
%TO.N,/SDA*%
G36*
X49313703Y-53770722D02*
G01*
X49328264Y-53772882D01*
X49342543Y-53776459D01*
X49356403Y-53781418D01*
X49369710Y-53787712D01*
X49382336Y-53795280D01*
X49394159Y-53804048D01*
X49405066Y-53813934D01*
X49414952Y-53824841D01*
X49423720Y-53836664D01*
X49431288Y-53849290D01*
X49437582Y-53862597D01*
X49442541Y-53876457D01*
X49446118Y-53890736D01*
X49448278Y-53905297D01*
X49449000Y-53920000D01*
X49449000Y-55370000D01*
X49448278Y-55384703D01*
X49446118Y-55399264D01*
X49442541Y-55413543D01*
X49437582Y-55427403D01*
X49431288Y-55440710D01*
X49423720Y-55453336D01*
X49414952Y-55465159D01*
X49405066Y-55476066D01*
X49394159Y-55485952D01*
X49382336Y-55494720D01*
X49369710Y-55502288D01*
X49356403Y-55508582D01*
X49342543Y-55513541D01*
X49328264Y-55517118D01*
X49313703Y-55519278D01*
X49299000Y-55520000D01*
X48999000Y-55520000D01*
X48984297Y-55519278D01*
X48969736Y-55517118D01*
X48955457Y-55513541D01*
X48941597Y-55508582D01*
X48928290Y-55502288D01*
X48915664Y-55494720D01*
X48903841Y-55485952D01*
X48892934Y-55476066D01*
X48883048Y-55465159D01*
X48874280Y-55453336D01*
X48866712Y-55440710D01*
X48860418Y-55427403D01*
X48855459Y-55413543D01*
X48851882Y-55399264D01*
X48849722Y-55384703D01*
X48849000Y-55370000D01*
X48849000Y-53920000D01*
X48849722Y-53905297D01*
X48851882Y-53890736D01*
X48855459Y-53876457D01*
X48860418Y-53862597D01*
X48866712Y-53849290D01*
X48874280Y-53836664D01*
X48883048Y-53824841D01*
X48892934Y-53813934D01*
X48903841Y-53804048D01*
X48915664Y-53795280D01*
X48928290Y-53787712D01*
X48941597Y-53781418D01*
X48955457Y-53776459D01*
X48969736Y-53772882D01*
X48984297Y-53770722D01*
X48999000Y-53770000D01*
X49299000Y-53770000D01*
X49313703Y-53770722D01*
G37*
%TD.AperFunction*%
%TA.AperFunction,SMDPad,CuDef*%
%TO.P,U1,4*%
%TO.N,/FD*%
G36*
X49313703Y-48620722D02*
G01*
X49328264Y-48622882D01*
X49342543Y-48626459D01*
X49356403Y-48631418D01*
X49369710Y-48637712D01*
X49382336Y-48645280D01*
X49394159Y-48654048D01*
X49405066Y-48663934D01*
X49414952Y-48674841D01*
X49423720Y-48686664D01*
X49431288Y-48699290D01*
X49437582Y-48712597D01*
X49442541Y-48726457D01*
X49446118Y-48740736D01*
X49448278Y-48755297D01*
X49449000Y-48770000D01*
X49449000Y-50220000D01*
X49448278Y-50234703D01*
X49446118Y-50249264D01*
X49442541Y-50263543D01*
X49437582Y-50277403D01*
X49431288Y-50290710D01*
X49423720Y-50303336D01*
X49414952Y-50315159D01*
X49405066Y-50326066D01*
X49394159Y-50335952D01*
X49382336Y-50344720D01*
X49369710Y-50352288D01*
X49356403Y-50358582D01*
X49342543Y-50363541D01*
X49328264Y-50367118D01*
X49313703Y-50369278D01*
X49299000Y-50370000D01*
X48999000Y-50370000D01*
X48984297Y-50369278D01*
X48969736Y-50367118D01*
X48955457Y-50363541D01*
X48941597Y-50358582D01*
X48928290Y-50352288D01*
X48915664Y-50344720D01*
X48903841Y-50335952D01*
X48892934Y-50326066D01*
X48883048Y-50315159D01*
X48874280Y-50303336D01*
X48866712Y-50290710D01*
X48860418Y-50277403D01*
X48855459Y-50263543D01*
X48851882Y-50249264D01*
X48849722Y-50234703D01*
X48849000Y-50220000D01*
X48849000Y-48770000D01*
X48849722Y-48755297D01*
X48851882Y-48740736D01*
X48855459Y-48726457D01*
X48860418Y-48712597D01*
X48866712Y-48699290D01*
X48874280Y-48686664D01*
X48883048Y-48674841D01*
X48892934Y-48663934D01*
X48903841Y-48654048D01*
X48915664Y-48645280D01*
X48928290Y-48637712D01*
X48941597Y-48631418D01*
X48955457Y-48626459D01*
X48969736Y-48622882D01*
X48984297Y-48620722D01*
X48999000Y-48620000D01*
X49299000Y-48620000D01*
X49313703Y-48620722D01*
G37*
%TD.AperFunction*%
%TA.AperFunction,SMDPad,CuDef*%
%TO.P,U1,3*%
%TO.N,/SCL*%
G36*
X50583703Y-48620722D02*
G01*
X50598264Y-48622882D01*
X50612543Y-48626459D01*
X50626403Y-48631418D01*
X50639710Y-48637712D01*
X50652336Y-48645280D01*
X50664159Y-48654048D01*
X50675066Y-48663934D01*
X50684952Y-48674841D01*
X50693720Y-48686664D01*
X50701288Y-48699290D01*
X50707582Y-48712597D01*
X50712541Y-48726457D01*
X50716118Y-48740736D01*
X50718278Y-48755297D01*
X50719000Y-48770000D01*
X50719000Y-50220000D01*
X50718278Y-50234703D01*
X50716118Y-50249264D01*
X50712541Y-50263543D01*
X50707582Y-50277403D01*
X50701288Y-50290710D01*
X50693720Y-50303336D01*
X50684952Y-50315159D01*
X50675066Y-50326066D01*
X50664159Y-50335952D01*
X50652336Y-50344720D01*
X50639710Y-50352288D01*
X50626403Y-50358582D01*
X50612543Y-50363541D01*
X50598264Y-50367118D01*
X50583703Y-50369278D01*
X50569000Y-50370000D01*
X50269000Y-50370000D01*
X50254297Y-50369278D01*
X50239736Y-50367118D01*
X50225457Y-50363541D01*
X50211597Y-50358582D01*
X50198290Y-50352288D01*
X50185664Y-50344720D01*
X50173841Y-50335952D01*
X50162934Y-50326066D01*
X50153048Y-50315159D01*
X50144280Y-50303336D01*
X50136712Y-50290710D01*
X50130418Y-50277403D01*
X50125459Y-50263543D01*
X50121882Y-50249264D01*
X50119722Y-50234703D01*
X50119000Y-50220000D01*
X50119000Y-48770000D01*
X50119722Y-48755297D01*
X50121882Y-48740736D01*
X50125459Y-48726457D01*
X50130418Y-48712597D01*
X50136712Y-48699290D01*
X50144280Y-48686664D01*
X50153048Y-48674841D01*
X50162934Y-48663934D01*
X50173841Y-48654048D01*
X50185664Y-48645280D01*
X50198290Y-48637712D01*
X50211597Y-48631418D01*
X50225457Y-48626459D01*
X50239736Y-48622882D01*
X50254297Y-48620722D01*
X50269000Y-48620000D01*
X50569000Y-48620000D01*
X50583703Y-48620722D01*
G37*
%TD.AperFunction*%
%TA.AperFunction,SMDPad,CuDef*%
%TO.P,U1,2*%
%TO.N,GND*%
G36*
X51853703Y-48620722D02*
G01*
X51868264Y-48622882D01*
X51882543Y-48626459D01*
X51896403Y-48631418D01*
X51909710Y-48637712D01*
X51922336Y-48645280D01*
X51934159Y-48654048D01*
X51945066Y-48663934D01*
X51954952Y-48674841D01*
X51963720Y-48686664D01*
X51971288Y-48699290D01*
X51977582Y-48712597D01*
X51982541Y-48726457D01*
X51986118Y-48740736D01*
X51988278Y-48755297D01*
X51989000Y-48770000D01*
X51989000Y-50220000D01*
X51988278Y-50234703D01*
X51986118Y-50249264D01*
X51982541Y-50263543D01*
X51977582Y-50277403D01*
X51971288Y-50290710D01*
X51963720Y-50303336D01*
X51954952Y-50315159D01*
X51945066Y-50326066D01*
X51934159Y-50335952D01*
X51922336Y-50344720D01*
X51909710Y-50352288D01*
X51896403Y-50358582D01*
X51882543Y-50363541D01*
X51868264Y-50367118D01*
X51853703Y-50369278D01*
X51839000Y-50370000D01*
X51539000Y-50370000D01*
X51524297Y-50369278D01*
X51509736Y-50367118D01*
X51495457Y-50363541D01*
X51481597Y-50358582D01*
X51468290Y-50352288D01*
X51455664Y-50344720D01*
X51443841Y-50335952D01*
X51432934Y-50326066D01*
X51423048Y-50315159D01*
X51414280Y-50303336D01*
X51406712Y-50290710D01*
X51400418Y-50277403D01*
X51395459Y-50263543D01*
X51391882Y-50249264D01*
X51389722Y-50234703D01*
X51389000Y-50220000D01*
X51389000Y-48770000D01*
X51389722Y-48755297D01*
X51391882Y-48740736D01*
X51395459Y-48726457D01*
X51400418Y-48712597D01*
X51406712Y-48699290D01*
X51414280Y-48686664D01*
X51423048Y-48674841D01*
X51432934Y-48663934D01*
X51443841Y-48654048D01*
X51455664Y-48645280D01*
X51468290Y-48637712D01*
X51481597Y-48631418D01*
X51495457Y-48626459D01*
X51509736Y-48622882D01*
X51524297Y-48620722D01*
X51539000Y-48620000D01*
X51839000Y-48620000D01*
X51853703Y-48620722D01*
G37*
%TD.AperFunction*%
%TA.AperFunction,SMDPad,CuDef*%
%TO.P,U1,1*%
%TO.N,Net-(AE1-Pad1)*%
G36*
X53123703Y-48620722D02*
G01*
X53138264Y-48622882D01*
X53152543Y-48626459D01*
X53166403Y-48631418D01*
X53179710Y-48637712D01*
X53192336Y-48645280D01*
X53204159Y-48654048D01*
X53215066Y-48663934D01*
X53224952Y-48674841D01*
X53233720Y-48686664D01*
X53241288Y-48699290D01*
X53247582Y-48712597D01*
X53252541Y-48726457D01*
X53256118Y-48740736D01*
X53258278Y-48755297D01*
X53259000Y-48770000D01*
X53259000Y-50220000D01*
X53258278Y-50234703D01*
X53256118Y-50249264D01*
X53252541Y-50263543D01*
X53247582Y-50277403D01*
X53241288Y-50290710D01*
X53233720Y-50303336D01*
X53224952Y-50315159D01*
X53215066Y-50326066D01*
X53204159Y-50335952D01*
X53192336Y-50344720D01*
X53179710Y-50352288D01*
X53166403Y-50358582D01*
X53152543Y-50363541D01*
X53138264Y-50367118D01*
X53123703Y-50369278D01*
X53109000Y-50370000D01*
X52809000Y-50370000D01*
X52794297Y-50369278D01*
X52779736Y-50367118D01*
X52765457Y-50363541D01*
X52751597Y-50358582D01*
X52738290Y-50352288D01*
X52725664Y-50344720D01*
X52713841Y-50335952D01*
X52702934Y-50326066D01*
X52693048Y-50315159D01*
X52684280Y-50303336D01*
X52676712Y-50290710D01*
X52670418Y-50277403D01*
X52665459Y-50263543D01*
X52661882Y-50249264D01*
X52659722Y-50234703D01*
X52659000Y-50220000D01*
X52659000Y-48770000D01*
X52659722Y-48755297D01*
X52661882Y-48740736D01*
X52665459Y-48726457D01*
X52670418Y-48712597D01*
X52676712Y-48699290D01*
X52684280Y-48686664D01*
X52693048Y-48674841D01*
X52702934Y-48663934D01*
X52713841Y-48654048D01*
X52725664Y-48645280D01*
X52738290Y-48637712D01*
X52751597Y-48631418D01*
X52765457Y-48626459D01*
X52779736Y-48622882D01*
X52794297Y-48620722D01*
X52809000Y-48620000D01*
X53109000Y-48620000D01*
X53123703Y-48620722D01*
G37*
%TD.AperFunction*%
%TD*%
D20*
%TO.P,C2,1*%
%TO.N,Net-(AE1-Pad1)*%
X55626000Y-51320000D03*
%TO.P,C2,2*%
%TO.N,Net-(AE1-Pad2)*%
X55626000Y-52820000D03*
%TD*%
%TO.P,C1,2*%
%TO.N,Net-(AE1-Pad2)*%
X57404000Y-52820000D03*
%TO.P,C1,1*%
%TO.N,Net-(AE1-Pad1)*%
X57404000Y-51320000D03*
%TD*%
D21*
%TO.P,C3,1*%
%TO.N,+3V3*%
X50407000Y-57150000D03*
%TO.P,C3,2*%
%TO.N,GND*%
X48907000Y-57150000D03*
%TD*%
%TO.P,C4,2*%
%TO.N,GND*%
X48907000Y-59182000D03*
%TO.P,C4,1*%
%TO.N,+3V3*%
X50407000Y-59182000D03*
%TD*%
D22*
%TO.N,GND*%
X47675800Y-57150000D03*
X47675800Y-59182000D03*
X51689000Y-47752000D03*
%TO.N,/FD*%
X49149000Y-46177200D03*
X51536600Y-46177200D03*
%TO.N,/SCL*%
X50419000Y-44881800D03*
X47599600Y-44881800D03*
%TO.N,/SDA*%
X47701200Y-54711600D03*
X45059600Y-54711600D03*
X45046900Y-47383700D03*
X45046900Y-44881800D03*
%TD*%
D23*
%TO.N,GND*%
X48907000Y-57150000D02*
X47675800Y-57150000D01*
X48907000Y-59182000D02*
X47675800Y-59182000D01*
X51689000Y-49685500D02*
X51689000Y-47752000D01*
D24*
%TO.N,Net-(AE1-Pad2)*%
X52959000Y-54835500D02*
X52959000Y-53086000D01*
X53225000Y-52820000D02*
X55626000Y-52820000D01*
X52959000Y-53086000D02*
X53225000Y-52820000D01*
X55626000Y-52820000D02*
X57404000Y-52820000D01*
X58760500Y-52820000D02*
X59660000Y-53719500D01*
X57404000Y-52820000D02*
X58760500Y-52820000D01*
%TO.N,Net-(AE1-Pad1)*%
X52959000Y-49685500D02*
X52959000Y-51054000D01*
X53225000Y-51320000D02*
X55626000Y-51320000D01*
X52959000Y-51054000D02*
X53225000Y-51320000D01*
X55626000Y-51320000D02*
X57404000Y-51320000D01*
X57404000Y-51320000D02*
X58600500Y-51320000D01*
X59673000Y-50247500D02*
X59683700Y-50247500D01*
X58600500Y-51320000D02*
X59156600Y-50774600D01*
X59683700Y-50247500D02*
X59156600Y-50774600D01*
X59156600Y-50774600D02*
X59353395Y-50567105D01*
D23*
%TO.N,/FD*%
X49149000Y-48810500D02*
X49149000Y-49685500D01*
X49149000Y-46177200D02*
X49149000Y-48810500D01*
X52247900Y-40876200D02*
X52247800Y-40876100D01*
X52247900Y-41351200D02*
X52247900Y-40876200D01*
X52247800Y-40876100D02*
X52247800Y-39954200D01*
X52247800Y-39954200D02*
X51790600Y-39497000D01*
X51790600Y-39497000D02*
X50419000Y-39497000D01*
X50419000Y-39497000D02*
X50114200Y-39192200D01*
X50114200Y-39192200D02*
X50130800Y-37753600D01*
X52247900Y-45465900D02*
X51536600Y-46177200D01*
X52247900Y-41351200D02*
X52247900Y-45465900D01*
%TO.N,/SCL*%
X50419000Y-49685500D02*
X50419000Y-47879000D01*
X47590800Y-37753600D02*
X47590800Y-42299700D01*
X50419000Y-47879000D02*
X50419000Y-44881800D01*
X47590800Y-44448736D02*
X47590800Y-42299700D01*
X47599600Y-44457536D02*
X47590800Y-44448736D01*
X47599600Y-44881800D02*
X47599600Y-44457536D01*
%TO.N,/SDA*%
X49149000Y-54708500D02*
X48849000Y-54708500D01*
X48845900Y-54711600D02*
X47701200Y-54711600D01*
X45050800Y-37753600D02*
X45047000Y-41579800D01*
D24*
X45046900Y-54698900D02*
X45059600Y-54711600D01*
X45046900Y-47383700D02*
X45046900Y-54698900D01*
X45047000Y-42054800D02*
X45047000Y-41579800D01*
X45046900Y-42054900D02*
X45047000Y-42054800D01*
X45046900Y-44881800D02*
X45046900Y-42054900D01*
%TD*%
D23*
%TO.N,+3V3*%
G36*
X42515800Y-37748600D02*
G01*
X42535800Y-37748600D01*
X42535800Y-37758600D01*
X42515800Y-37758600D01*
X42515800Y-38997350D01*
X42647050Y-39128600D01*
X43360800Y-39131140D01*
X43463718Y-39121003D01*
X43562681Y-39090983D01*
X43653886Y-39042233D01*
X43733827Y-38976627D01*
X43799433Y-38896686D01*
X43848183Y-38805481D01*
X43878203Y-38706518D01*
X43888340Y-38603600D01*
X43887175Y-38276094D01*
X43920910Y-38357539D01*
X44060443Y-38566365D01*
X44238035Y-38743957D01*
X44446861Y-38883490D01*
X44499657Y-38905359D01*
X44497803Y-40771432D01*
X44469459Y-40786582D01*
X44375789Y-40863455D01*
X44348133Y-40811714D01*
X44282527Y-40731773D01*
X44202586Y-40666167D01*
X44111381Y-40617417D01*
X44012418Y-40587397D01*
X43909500Y-40577260D01*
X43608250Y-40579800D01*
X43477000Y-40711050D01*
X43477000Y-41574800D01*
X43497000Y-41574800D01*
X43497000Y-41584800D01*
X43477000Y-41584800D01*
X43477000Y-42448550D01*
X43608250Y-42579800D01*
X43909500Y-42582340D01*
X44012418Y-42572203D01*
X44111381Y-42542183D01*
X44202586Y-42493433D01*
X44282527Y-42427827D01*
X44348133Y-42347886D01*
X44375789Y-42296145D01*
X44469459Y-42373018D01*
X44494901Y-42386617D01*
X44494900Y-44267074D01*
X44406081Y-44355893D01*
X44315794Y-44491016D01*
X44253604Y-44641156D01*
X44221900Y-44800545D01*
X44221900Y-44963055D01*
X44253604Y-45122444D01*
X44315794Y-45272584D01*
X44406081Y-45407707D01*
X44520993Y-45522619D01*
X44656116Y-45612906D01*
X44806256Y-45675096D01*
X44965645Y-45706800D01*
X45128155Y-45706800D01*
X45287544Y-45675096D01*
X45437684Y-45612906D01*
X45572807Y-45522619D01*
X45687719Y-45407707D01*
X45778006Y-45272584D01*
X45840196Y-45122444D01*
X45871900Y-44963055D01*
X45871900Y-44800545D01*
X45840196Y-44641156D01*
X45778006Y-44491016D01*
X45687719Y-44355893D01*
X45598900Y-44267074D01*
X45598900Y-42386723D01*
X45624541Y-42373018D01*
X45722404Y-42292704D01*
X45802718Y-42194841D01*
X45862397Y-42083189D01*
X45899147Y-41962041D01*
X45911556Y-41836050D01*
X45911556Y-41323550D01*
X45899147Y-41197559D01*
X45862397Y-41076411D01*
X45802718Y-40964759D01*
X45722404Y-40866896D01*
X45624541Y-40786582D01*
X45597801Y-40772289D01*
X45599655Y-38906307D01*
X45654739Y-38883490D01*
X45863565Y-38743957D01*
X46041157Y-38566365D01*
X46180690Y-38357539D01*
X46276802Y-38125504D01*
X46320800Y-37904313D01*
X46364798Y-38125504D01*
X46460910Y-38357539D01*
X46600443Y-38566365D01*
X46778035Y-38743957D01*
X46986861Y-38883490D01*
X47040800Y-38905832D01*
X47040801Y-40776511D01*
X47021959Y-40786582D01*
X46924096Y-40866896D01*
X46843782Y-40964759D01*
X46784103Y-41076411D01*
X46747353Y-41197559D01*
X46734944Y-41323550D01*
X46734944Y-41836050D01*
X46747353Y-41962041D01*
X46784103Y-42083189D01*
X46843782Y-42194841D01*
X46924096Y-42292704D01*
X47021959Y-42373018D01*
X47040801Y-42383089D01*
X47040800Y-44273874D01*
X46958781Y-44355893D01*
X46868494Y-44491016D01*
X46806304Y-44641156D01*
X46774600Y-44800545D01*
X46774600Y-44963055D01*
X46806304Y-45122444D01*
X46868494Y-45272584D01*
X46958781Y-45407707D01*
X47073693Y-45522619D01*
X47208816Y-45612906D01*
X47358956Y-45675096D01*
X47518345Y-45706800D01*
X47680855Y-45706800D01*
X47840244Y-45675096D01*
X47990384Y-45612906D01*
X48125507Y-45522619D01*
X48240419Y-45407707D01*
X48330706Y-45272584D01*
X48392896Y-45122444D01*
X48424600Y-44963055D01*
X48424600Y-44800545D01*
X48392896Y-44641156D01*
X48330706Y-44491016D01*
X48240419Y-44355893D01*
X48140800Y-44256274D01*
X48140800Y-42392389D01*
X48177041Y-42373018D01*
X48270711Y-42296145D01*
X48298367Y-42347886D01*
X48363973Y-42427827D01*
X48443914Y-42493433D01*
X48535119Y-42542183D01*
X48634082Y-42572203D01*
X48737000Y-42582340D01*
X49038250Y-42579800D01*
X49169500Y-42448550D01*
X49169500Y-41584800D01*
X49179500Y-41584800D01*
X49179500Y-42448550D01*
X49310750Y-42579800D01*
X49612000Y-42582340D01*
X49714918Y-42572203D01*
X49813881Y-42542183D01*
X49905086Y-42493433D01*
X49923700Y-42478157D01*
X49942314Y-42493433D01*
X50033519Y-42542183D01*
X50132482Y-42572203D01*
X50235400Y-42582340D01*
X50536650Y-42579800D01*
X50667900Y-42448550D01*
X50667900Y-41584800D01*
X49179500Y-41584800D01*
X49169500Y-41584800D01*
X49149500Y-41584800D01*
X49149500Y-41574800D01*
X49169500Y-41574800D01*
X49169500Y-40711050D01*
X49179500Y-40711050D01*
X49179500Y-41574800D01*
X50667900Y-41574800D01*
X50667900Y-40711050D01*
X50536650Y-40579800D01*
X50235400Y-40577260D01*
X50132482Y-40587397D01*
X50033519Y-40617417D01*
X49942314Y-40666167D01*
X49923700Y-40681443D01*
X49905086Y-40666167D01*
X49813881Y-40617417D01*
X49714918Y-40587397D01*
X49612000Y-40577260D01*
X49310750Y-40579800D01*
X49179500Y-40711050D01*
X49169500Y-40711050D01*
X49038250Y-40579800D01*
X48737000Y-40577260D01*
X48634082Y-40587397D01*
X48535119Y-40617417D01*
X48443914Y-40666167D01*
X48363973Y-40731773D01*
X48298367Y-40811714D01*
X48270711Y-40863455D01*
X48177041Y-40786582D01*
X48140800Y-40767211D01*
X48140800Y-38905832D01*
X48194739Y-38883490D01*
X48403565Y-38743957D01*
X48581157Y-38566365D01*
X48720690Y-38357539D01*
X48816802Y-38125504D01*
X48860800Y-37904313D01*
X48904798Y-38125504D01*
X49000910Y-38357539D01*
X49140443Y-38566365D01*
X49318035Y-38743957D01*
X49526861Y-38883490D01*
X49567531Y-38900336D01*
X49564512Y-39162028D01*
X49561540Y-39192200D01*
X49566534Y-39242902D01*
X49570951Y-39293757D01*
X49571845Y-39296832D01*
X49572159Y-39300018D01*
X49586954Y-39348792D01*
X49601202Y-39397788D01*
X49602680Y-39400632D01*
X49603609Y-39403694D01*
X49627646Y-39448665D01*
X49651167Y-39493919D01*
X49653169Y-39496416D01*
X49654679Y-39499242D01*
X49687063Y-39538702D01*
X49718927Y-39578454D01*
X49742141Y-39597958D01*
X50010987Y-39866804D01*
X50028210Y-39887790D01*
X50111958Y-39956521D01*
X50207506Y-40007592D01*
X50311181Y-40039042D01*
X50391982Y-40047000D01*
X50391991Y-40047000D01*
X50418999Y-40049660D01*
X50446007Y-40047000D01*
X51562783Y-40047000D01*
X51697800Y-40182018D01*
X51697800Y-40771915D01*
X51670359Y-40786582D01*
X51576689Y-40863455D01*
X51549033Y-40811714D01*
X51483427Y-40731773D01*
X51403486Y-40666167D01*
X51312281Y-40617417D01*
X51213318Y-40587397D01*
X51110400Y-40577260D01*
X50809150Y-40579800D01*
X50677900Y-40711050D01*
X50677900Y-41574800D01*
X50697900Y-41574800D01*
X50697900Y-41584800D01*
X50677900Y-41584800D01*
X50677900Y-42448550D01*
X50809150Y-42579800D01*
X51110400Y-42582340D01*
X51213318Y-42572203D01*
X51312281Y-42542183D01*
X51403486Y-42493433D01*
X51483427Y-42427827D01*
X51549033Y-42347886D01*
X51576689Y-42296145D01*
X51670359Y-42373018D01*
X51697900Y-42387739D01*
X51697901Y-45238081D01*
X51583782Y-45352200D01*
X51455345Y-45352200D01*
X51295956Y-45383904D01*
X51145816Y-45446094D01*
X51010693Y-45536381D01*
X50969000Y-45578074D01*
X50969000Y-45498526D01*
X51059819Y-45407707D01*
X51150106Y-45272584D01*
X51212296Y-45122444D01*
X51244000Y-44963055D01*
X51244000Y-44800545D01*
X51212296Y-44641156D01*
X51150106Y-44491016D01*
X51059819Y-44355893D01*
X50944907Y-44240981D01*
X50809784Y-44150694D01*
X50659644Y-44088504D01*
X50500255Y-44056800D01*
X50337745Y-44056800D01*
X50178356Y-44088504D01*
X50028216Y-44150694D01*
X49893093Y-44240981D01*
X49778181Y-44355893D01*
X49687894Y-44491016D01*
X49625704Y-44641156D01*
X49594000Y-44800545D01*
X49594000Y-44963055D01*
X49625704Y-45122444D01*
X49687894Y-45272584D01*
X49778181Y-45407707D01*
X49869001Y-45498527D01*
X49869001Y-45769796D01*
X49789819Y-45651293D01*
X49674907Y-45536381D01*
X49539784Y-45446094D01*
X49389644Y-45383904D01*
X49230255Y-45352200D01*
X49067745Y-45352200D01*
X48908356Y-45383904D01*
X48758216Y-45446094D01*
X48623093Y-45536381D01*
X48508181Y-45651293D01*
X48417894Y-45786416D01*
X48355704Y-45936556D01*
X48324000Y-46095945D01*
X48324000Y-46258455D01*
X48355704Y-46417844D01*
X48417894Y-46567984D01*
X48508181Y-46703107D01*
X48599000Y-46793926D01*
X48599001Y-48355361D01*
X48590960Y-48361960D01*
X48519195Y-48449405D01*
X48465870Y-48549170D01*
X48433032Y-48657422D01*
X48421944Y-48770000D01*
X48421944Y-50220000D01*
X48433032Y-50332578D01*
X48465870Y-50440830D01*
X48519195Y-50540595D01*
X48590960Y-50628040D01*
X48678405Y-50699805D01*
X48778170Y-50753130D01*
X48886422Y-50785968D01*
X48999000Y-50797056D01*
X49299000Y-50797056D01*
X49411578Y-50785968D01*
X49519830Y-50753130D01*
X49619595Y-50699805D01*
X49707040Y-50628040D01*
X49778805Y-50540595D01*
X49784000Y-50530876D01*
X49789195Y-50540595D01*
X49860960Y-50628040D01*
X49948405Y-50699805D01*
X50048170Y-50753130D01*
X50156422Y-50785968D01*
X50269000Y-50797056D01*
X50569000Y-50797056D01*
X50681578Y-50785968D01*
X50789830Y-50753130D01*
X50889595Y-50699805D01*
X50977040Y-50628040D01*
X51048805Y-50540595D01*
X51054000Y-50530876D01*
X51059195Y-50540595D01*
X51130960Y-50628040D01*
X51218405Y-50699805D01*
X51318170Y-50753130D01*
X51426422Y-50785968D01*
X51539000Y-50797056D01*
X51839000Y-50797056D01*
X51951578Y-50785968D01*
X52059830Y-50753130D01*
X52159595Y-50699805D01*
X52247040Y-50628040D01*
X52318805Y-50540595D01*
X52324000Y-50530876D01*
X52329195Y-50540595D01*
X52400960Y-50628040D01*
X52407001Y-50632998D01*
X52407001Y-51026884D01*
X52404330Y-51054000D01*
X52414989Y-51162210D01*
X52446552Y-51266262D01*
X52446553Y-51266263D01*
X52497810Y-51362158D01*
X52503653Y-51369278D01*
X52504655Y-52769501D01*
X52497809Y-52777843D01*
X52446552Y-52873738D01*
X52414989Y-52977790D01*
X52404330Y-53086000D01*
X52407001Y-53113116D01*
X52407001Y-53507002D01*
X52400960Y-53511960D01*
X52329195Y-53599405D01*
X52324000Y-53609124D01*
X52318805Y-53599405D01*
X52247040Y-53511960D01*
X52159595Y-53440195D01*
X52059830Y-53386870D01*
X51951578Y-53354032D01*
X51839000Y-53342944D01*
X51539000Y-53342944D01*
X51426422Y-53354032D01*
X51318170Y-53386870D01*
X51218405Y-53440195D01*
X51162521Y-53486058D01*
X51157633Y-53476914D01*
X51092027Y-53396973D01*
X51012086Y-53331367D01*
X50920881Y-53282617D01*
X50821918Y-53252597D01*
X50719000Y-53242460D01*
X50555250Y-53245000D01*
X50424000Y-53376250D01*
X50424000Y-54640000D01*
X50444000Y-54640000D01*
X50444000Y-54650000D01*
X50424000Y-54650000D01*
X50424000Y-55913750D01*
X50555250Y-56045000D01*
X50719000Y-56047540D01*
X50821918Y-56037403D01*
X50920881Y-56007383D01*
X51012086Y-55958633D01*
X51092027Y-55893027D01*
X51157633Y-55813086D01*
X51162521Y-55803942D01*
X51218405Y-55849805D01*
X51318170Y-55903130D01*
X51426422Y-55935968D01*
X51539000Y-55947056D01*
X51839000Y-55947056D01*
X51951578Y-55935968D01*
X52059830Y-55903130D01*
X52159595Y-55849805D01*
X52247040Y-55778040D01*
X52318805Y-55690595D01*
X52324000Y-55680876D01*
X52329195Y-55690595D01*
X52400960Y-55778040D01*
X52488405Y-55849805D01*
X52506865Y-55859672D01*
X52510061Y-60327000D01*
X41317361Y-60327000D01*
X41316484Y-59100745D01*
X46850800Y-59100745D01*
X46850800Y-59263255D01*
X46882504Y-59422644D01*
X46944694Y-59572784D01*
X47034981Y-59707907D01*
X47149893Y-59822819D01*
X47285016Y-59913106D01*
X47435156Y-59975296D01*
X47594545Y-60007000D01*
X47757055Y-60007000D01*
X47916444Y-59975296D01*
X48066584Y-59913106D01*
X48184687Y-59834191D01*
X48205026Y-59858974D01*
X48269740Y-59912084D01*
X48343573Y-59951548D01*
X48423686Y-59975850D01*
X48507000Y-59984056D01*
X49307000Y-59984056D01*
X49390314Y-59975850D01*
X49470427Y-59951548D01*
X49544260Y-59912084D01*
X49589068Y-59875310D01*
X49633973Y-59930027D01*
X49713914Y-59995633D01*
X49805119Y-60044383D01*
X49904082Y-60074403D01*
X50007000Y-60084540D01*
X50270750Y-60082000D01*
X50402000Y-59950750D01*
X50402000Y-59187000D01*
X50412000Y-59187000D01*
X50412000Y-59950750D01*
X50543250Y-60082000D01*
X50807000Y-60084540D01*
X50909918Y-60074403D01*
X51008881Y-60044383D01*
X51100086Y-59995633D01*
X51180027Y-59930027D01*
X51245633Y-59850086D01*
X51294383Y-59758881D01*
X51324403Y-59659918D01*
X51334540Y-59557000D01*
X51332000Y-59318250D01*
X51200750Y-59187000D01*
X50412000Y-59187000D01*
X50402000Y-59187000D01*
X50382000Y-59187000D01*
X50382000Y-59177000D01*
X50402000Y-59177000D01*
X50402000Y-58413250D01*
X50412000Y-58413250D01*
X50412000Y-59177000D01*
X51200750Y-59177000D01*
X51332000Y-59045750D01*
X51334540Y-58807000D01*
X51324403Y-58704082D01*
X51294383Y-58605119D01*
X51245633Y-58513914D01*
X51180027Y-58433973D01*
X51100086Y-58368367D01*
X51008881Y-58319617D01*
X50909918Y-58289597D01*
X50807000Y-58279460D01*
X50543250Y-58282000D01*
X50412000Y-58413250D01*
X50402000Y-58413250D01*
X50270750Y-58282000D01*
X50007000Y-58279460D01*
X49904082Y-58289597D01*
X49805119Y-58319617D01*
X49713914Y-58368367D01*
X49633973Y-58433973D01*
X49589068Y-58488690D01*
X49544260Y-58451916D01*
X49470427Y-58412452D01*
X49390314Y-58388150D01*
X49307000Y-58379944D01*
X48507000Y-58379944D01*
X48423686Y-58388150D01*
X48343573Y-58412452D01*
X48269740Y-58451916D01*
X48205026Y-58505026D01*
X48184687Y-58529809D01*
X48066584Y-58450894D01*
X47916444Y-58388704D01*
X47757055Y-58357000D01*
X47594545Y-58357000D01*
X47435156Y-58388704D01*
X47285016Y-58450894D01*
X47149893Y-58541181D01*
X47034981Y-58656093D01*
X46944694Y-58791216D01*
X46882504Y-58941356D01*
X46850800Y-59100745D01*
X41316484Y-59100745D01*
X41315030Y-57068745D01*
X46850800Y-57068745D01*
X46850800Y-57231255D01*
X46882504Y-57390644D01*
X46944694Y-57540784D01*
X47034981Y-57675907D01*
X47149893Y-57790819D01*
X47285016Y-57881106D01*
X47435156Y-57943296D01*
X47594545Y-57975000D01*
X47757055Y-57975000D01*
X47916444Y-57943296D01*
X48066584Y-57881106D01*
X48184687Y-57802191D01*
X48205026Y-57826974D01*
X48269740Y-57880084D01*
X48343573Y-57919548D01*
X48423686Y-57943850D01*
X48507000Y-57952056D01*
X49307000Y-57952056D01*
X49390314Y-57943850D01*
X49470427Y-57919548D01*
X49544260Y-57880084D01*
X49589068Y-57843310D01*
X49633973Y-57898027D01*
X49713914Y-57963633D01*
X49805119Y-58012383D01*
X49904082Y-58042403D01*
X50007000Y-58052540D01*
X50270750Y-58050000D01*
X50402000Y-57918750D01*
X50402000Y-57155000D01*
X50412000Y-57155000D01*
X50412000Y-57918750D01*
X50543250Y-58050000D01*
X50807000Y-58052540D01*
X50909918Y-58042403D01*
X51008881Y-58012383D01*
X51100086Y-57963633D01*
X51180027Y-57898027D01*
X51245633Y-57818086D01*
X51294383Y-57726881D01*
X51324403Y-57627918D01*
X51334540Y-57525000D01*
X51332000Y-57286250D01*
X51200750Y-57155000D01*
X50412000Y-57155000D01*
X50402000Y-57155000D01*
X50382000Y-57155000D01*
X50382000Y-57145000D01*
X50402000Y-57145000D01*
X50402000Y-56381250D01*
X50412000Y-56381250D01*
X50412000Y-57145000D01*
X51200750Y-57145000D01*
X51332000Y-57013750D01*
X51334540Y-56775000D01*
X51324403Y-56672082D01*
X51294383Y-56573119D01*
X51245633Y-56481914D01*
X51180027Y-56401973D01*
X51100086Y-56336367D01*
X51008881Y-56287617D01*
X50909918Y-56257597D01*
X50807000Y-56247460D01*
X50543250Y-56250000D01*
X50412000Y-56381250D01*
X50402000Y-56381250D01*
X50270750Y-56250000D01*
X50007000Y-56247460D01*
X49904082Y-56257597D01*
X49805119Y-56287617D01*
X49713914Y-56336367D01*
X49633973Y-56401973D01*
X49589068Y-56456690D01*
X49544260Y-56419916D01*
X49470427Y-56380452D01*
X49390314Y-56356150D01*
X49307000Y-56347944D01*
X48507000Y-56347944D01*
X48423686Y-56356150D01*
X48343573Y-56380452D01*
X48269740Y-56419916D01*
X48205026Y-56473026D01*
X48184687Y-56497809D01*
X48066584Y-56418894D01*
X47916444Y-56356704D01*
X47757055Y-56325000D01*
X47594545Y-56325000D01*
X47435156Y-56356704D01*
X47285016Y-56418894D01*
X47149893Y-56509181D01*
X47034981Y-56624093D01*
X46944694Y-56759216D01*
X46882504Y-56909356D01*
X46850800Y-57068745D01*
X41315030Y-57068745D01*
X41308040Y-47302445D01*
X44221900Y-47302445D01*
X44221900Y-47464955D01*
X44253604Y-47624344D01*
X44315794Y-47774484D01*
X44406081Y-47909607D01*
X44494900Y-47998426D01*
X44494901Y-54109573D01*
X44418781Y-54185693D01*
X44328494Y-54320816D01*
X44266304Y-54470956D01*
X44234600Y-54630345D01*
X44234600Y-54792855D01*
X44266304Y-54952244D01*
X44328494Y-55102384D01*
X44418781Y-55237507D01*
X44533693Y-55352419D01*
X44668816Y-55442706D01*
X44818956Y-55504896D01*
X44978345Y-55536600D01*
X45140855Y-55536600D01*
X45300244Y-55504896D01*
X45450384Y-55442706D01*
X45585507Y-55352419D01*
X45700419Y-55237507D01*
X45790706Y-55102384D01*
X45852896Y-54952244D01*
X45884600Y-54792855D01*
X45884600Y-54630345D01*
X46876200Y-54630345D01*
X46876200Y-54792855D01*
X46907904Y-54952244D01*
X46970094Y-55102384D01*
X47060381Y-55237507D01*
X47175293Y-55352419D01*
X47310416Y-55442706D01*
X47460556Y-55504896D01*
X47619945Y-55536600D01*
X47782455Y-55536600D01*
X47941844Y-55504896D01*
X48091984Y-55442706D01*
X48227107Y-55352419D01*
X48317926Y-55261600D01*
X48421944Y-55261600D01*
X48421944Y-55370000D01*
X48433032Y-55482578D01*
X48465870Y-55590830D01*
X48519195Y-55690595D01*
X48590960Y-55778040D01*
X48678405Y-55849805D01*
X48778170Y-55903130D01*
X48886422Y-55935968D01*
X48999000Y-55947056D01*
X49299000Y-55947056D01*
X49411578Y-55935968D01*
X49519830Y-55903130D01*
X49619595Y-55849805D01*
X49675479Y-55803942D01*
X49680367Y-55813086D01*
X49745973Y-55893027D01*
X49825914Y-55958633D01*
X49917119Y-56007383D01*
X50016082Y-56037403D01*
X50119000Y-56047540D01*
X50282750Y-56045000D01*
X50414000Y-55913750D01*
X50414000Y-54650000D01*
X50394000Y-54650000D01*
X50394000Y-54640000D01*
X50414000Y-54640000D01*
X50414000Y-53376250D01*
X50282750Y-53245000D01*
X50119000Y-53242460D01*
X50016082Y-53252597D01*
X49917119Y-53282617D01*
X49825914Y-53331367D01*
X49745973Y-53396973D01*
X49680367Y-53476914D01*
X49675479Y-53486058D01*
X49619595Y-53440195D01*
X49519830Y-53386870D01*
X49411578Y-53354032D01*
X49299000Y-53342944D01*
X48999000Y-53342944D01*
X48886422Y-53354032D01*
X48778170Y-53386870D01*
X48678405Y-53440195D01*
X48590960Y-53511960D01*
X48519195Y-53599405D01*
X48465870Y-53699170D01*
X48433032Y-53807422D01*
X48421944Y-53920000D01*
X48421944Y-54161600D01*
X48317926Y-54161600D01*
X48227107Y-54070781D01*
X48091984Y-53980494D01*
X47941844Y-53918304D01*
X47782455Y-53886600D01*
X47619945Y-53886600D01*
X47460556Y-53918304D01*
X47310416Y-53980494D01*
X47175293Y-54070781D01*
X47060381Y-54185693D01*
X46970094Y-54320816D01*
X46907904Y-54470956D01*
X46876200Y-54630345D01*
X45884600Y-54630345D01*
X45852896Y-54470956D01*
X45790706Y-54320816D01*
X45700419Y-54185693D01*
X45598900Y-54084174D01*
X45598900Y-47998426D01*
X45687719Y-47909607D01*
X45778006Y-47774484D01*
X45840196Y-47624344D01*
X45871900Y-47464955D01*
X45871900Y-47302445D01*
X45840196Y-47143056D01*
X45778006Y-46992916D01*
X45687719Y-46857793D01*
X45572807Y-46742881D01*
X45437684Y-46652594D01*
X45287544Y-46590404D01*
X45128155Y-46558700D01*
X44965645Y-46558700D01*
X44806256Y-46590404D01*
X44656116Y-46652594D01*
X44520993Y-46742881D01*
X44406081Y-46857793D01*
X44315794Y-46992916D01*
X44253604Y-47143056D01*
X44221900Y-47302445D01*
X41308040Y-47302445D01*
X41304284Y-42054800D01*
X42506960Y-42054800D01*
X42517097Y-42157718D01*
X42547117Y-42256681D01*
X42595867Y-42347886D01*
X42661473Y-42427827D01*
X42741414Y-42493433D01*
X42832619Y-42542183D01*
X42931582Y-42572203D01*
X43034500Y-42582340D01*
X43335750Y-42579800D01*
X43467000Y-42448550D01*
X43467000Y-41584800D01*
X42640750Y-41584800D01*
X42509500Y-41716050D01*
X42506960Y-42054800D01*
X41304284Y-42054800D01*
X41303604Y-41104800D01*
X42506960Y-41104800D01*
X42509500Y-41443550D01*
X42640750Y-41574800D01*
X43467000Y-41574800D01*
X43467000Y-40711050D01*
X43335750Y-40579800D01*
X43034500Y-40577260D01*
X42931582Y-40587397D01*
X42832619Y-40617417D01*
X42741414Y-40666167D01*
X42661473Y-40731773D01*
X42595867Y-40811714D01*
X42547117Y-40902919D01*
X42517097Y-41001882D01*
X42506960Y-41104800D01*
X41303604Y-41104800D01*
X41302089Y-38988376D01*
X41367714Y-39042233D01*
X41458919Y-39090983D01*
X41557882Y-39121003D01*
X41660800Y-39131140D01*
X42374550Y-39128600D01*
X42505800Y-38997350D01*
X42505800Y-37758600D01*
X42485800Y-37758600D01*
X42485800Y-37748600D01*
X42505800Y-37748600D01*
X42505800Y-37728600D01*
X42515800Y-37728600D01*
X42515800Y-37748600D01*
G37*
X42515800Y-37748600D02*
X42535800Y-37748600D01*
X42535800Y-37758600D01*
X42515800Y-37758600D01*
X42515800Y-38997350D01*
X42647050Y-39128600D01*
X43360800Y-39131140D01*
X43463718Y-39121003D01*
X43562681Y-39090983D01*
X43653886Y-39042233D01*
X43733827Y-38976627D01*
X43799433Y-38896686D01*
X43848183Y-38805481D01*
X43878203Y-38706518D01*
X43888340Y-38603600D01*
X43887175Y-38276094D01*
X43920910Y-38357539D01*
X44060443Y-38566365D01*
X44238035Y-38743957D01*
X44446861Y-38883490D01*
X44499657Y-38905359D01*
X44497803Y-40771432D01*
X44469459Y-40786582D01*
X44375789Y-40863455D01*
X44348133Y-40811714D01*
X44282527Y-40731773D01*
X44202586Y-40666167D01*
X44111381Y-40617417D01*
X44012418Y-40587397D01*
X43909500Y-40577260D01*
X43608250Y-40579800D01*
X43477000Y-40711050D01*
X43477000Y-41574800D01*
X43497000Y-41574800D01*
X43497000Y-41584800D01*
X43477000Y-41584800D01*
X43477000Y-42448550D01*
X43608250Y-42579800D01*
X43909500Y-42582340D01*
X44012418Y-42572203D01*
X44111381Y-42542183D01*
X44202586Y-42493433D01*
X44282527Y-42427827D01*
X44348133Y-42347886D01*
X44375789Y-42296145D01*
X44469459Y-42373018D01*
X44494901Y-42386617D01*
X44494900Y-44267074D01*
X44406081Y-44355893D01*
X44315794Y-44491016D01*
X44253604Y-44641156D01*
X44221900Y-44800545D01*
X44221900Y-44963055D01*
X44253604Y-45122444D01*
X44315794Y-45272584D01*
X44406081Y-45407707D01*
X44520993Y-45522619D01*
X44656116Y-45612906D01*
X44806256Y-45675096D01*
X44965645Y-45706800D01*
X45128155Y-45706800D01*
X45287544Y-45675096D01*
X45437684Y-45612906D01*
X45572807Y-45522619D01*
X45687719Y-45407707D01*
X45778006Y-45272584D01*
X45840196Y-45122444D01*
X45871900Y-44963055D01*
X45871900Y-44800545D01*
X45840196Y-44641156D01*
X45778006Y-44491016D01*
X45687719Y-44355893D01*
X45598900Y-44267074D01*
X45598900Y-42386723D01*
X45624541Y-42373018D01*
X45722404Y-42292704D01*
X45802718Y-42194841D01*
X45862397Y-42083189D01*
X45899147Y-41962041D01*
X45911556Y-41836050D01*
X45911556Y-41323550D01*
X45899147Y-41197559D01*
X45862397Y-41076411D01*
X45802718Y-40964759D01*
X45722404Y-40866896D01*
X45624541Y-40786582D01*
X45597801Y-40772289D01*
X45599655Y-38906307D01*
X45654739Y-38883490D01*
X45863565Y-38743957D01*
X46041157Y-38566365D01*
X46180690Y-38357539D01*
X46276802Y-38125504D01*
X46320800Y-37904313D01*
X46364798Y-38125504D01*
X46460910Y-38357539D01*
X46600443Y-38566365D01*
X46778035Y-38743957D01*
X46986861Y-38883490D01*
X47040800Y-38905832D01*
X47040801Y-40776511D01*
X47021959Y-40786582D01*
X46924096Y-40866896D01*
X46843782Y-40964759D01*
X46784103Y-41076411D01*
X46747353Y-41197559D01*
X46734944Y-41323550D01*
X46734944Y-41836050D01*
X46747353Y-41962041D01*
X46784103Y-42083189D01*
X46843782Y-42194841D01*
X46924096Y-42292704D01*
X47021959Y-42373018D01*
X47040801Y-42383089D01*
X47040800Y-44273874D01*
X46958781Y-44355893D01*
X46868494Y-44491016D01*
X46806304Y-44641156D01*
X46774600Y-44800545D01*
X46774600Y-44963055D01*
X46806304Y-45122444D01*
X46868494Y-45272584D01*
X46958781Y-45407707D01*
X47073693Y-45522619D01*
X47208816Y-45612906D01*
X47358956Y-45675096D01*
X47518345Y-45706800D01*
X47680855Y-45706800D01*
X47840244Y-45675096D01*
X47990384Y-45612906D01*
X48125507Y-45522619D01*
X48240419Y-45407707D01*
X48330706Y-45272584D01*
X48392896Y-45122444D01*
X48424600Y-44963055D01*
X48424600Y-44800545D01*
X48392896Y-44641156D01*
X48330706Y-44491016D01*
X48240419Y-44355893D01*
X48140800Y-44256274D01*
X48140800Y-42392389D01*
X48177041Y-42373018D01*
X48270711Y-42296145D01*
X48298367Y-42347886D01*
X48363973Y-42427827D01*
X48443914Y-42493433D01*
X48535119Y-42542183D01*
X48634082Y-42572203D01*
X48737000Y-42582340D01*
X49038250Y-42579800D01*
X49169500Y-42448550D01*
X49169500Y-41584800D01*
X49179500Y-41584800D01*
X49179500Y-42448550D01*
X49310750Y-42579800D01*
X49612000Y-42582340D01*
X49714918Y-42572203D01*
X49813881Y-42542183D01*
X49905086Y-42493433D01*
X49923700Y-42478157D01*
X49942314Y-42493433D01*
X50033519Y-42542183D01*
X50132482Y-42572203D01*
X50235400Y-42582340D01*
X50536650Y-42579800D01*
X50667900Y-42448550D01*
X50667900Y-41584800D01*
X49179500Y-41584800D01*
X49169500Y-41584800D01*
X49149500Y-41584800D01*
X49149500Y-41574800D01*
X49169500Y-41574800D01*
X49169500Y-40711050D01*
X49179500Y-40711050D01*
X49179500Y-41574800D01*
X50667900Y-41574800D01*
X50667900Y-40711050D01*
X50536650Y-40579800D01*
X50235400Y-40577260D01*
X50132482Y-40587397D01*
X50033519Y-40617417D01*
X49942314Y-40666167D01*
X49923700Y-40681443D01*
X49905086Y-40666167D01*
X49813881Y-40617417D01*
X49714918Y-40587397D01*
X49612000Y-40577260D01*
X49310750Y-40579800D01*
X49179500Y-40711050D01*
X49169500Y-40711050D01*
X49038250Y-40579800D01*
X48737000Y-40577260D01*
X48634082Y-40587397D01*
X48535119Y-40617417D01*
X48443914Y-40666167D01*
X48363973Y-40731773D01*
X48298367Y-40811714D01*
X48270711Y-40863455D01*
X48177041Y-40786582D01*
X48140800Y-40767211D01*
X48140800Y-38905832D01*
X48194739Y-38883490D01*
X48403565Y-38743957D01*
X48581157Y-38566365D01*
X48720690Y-38357539D01*
X48816802Y-38125504D01*
X48860800Y-37904313D01*
X48904798Y-38125504D01*
X49000910Y-38357539D01*
X49140443Y-38566365D01*
X49318035Y-38743957D01*
X49526861Y-38883490D01*
X49567531Y-38900336D01*
X49564512Y-39162028D01*
X49561540Y-39192200D01*
X49566534Y-39242902D01*
X49570951Y-39293757D01*
X49571845Y-39296832D01*
X49572159Y-39300018D01*
X49586954Y-39348792D01*
X49601202Y-39397788D01*
X49602680Y-39400632D01*
X49603609Y-39403694D01*
X49627646Y-39448665D01*
X49651167Y-39493919D01*
X49653169Y-39496416D01*
X49654679Y-39499242D01*
X49687063Y-39538702D01*
X49718927Y-39578454D01*
X49742141Y-39597958D01*
X50010987Y-39866804D01*
X50028210Y-39887790D01*
X50111958Y-39956521D01*
X50207506Y-40007592D01*
X50311181Y-40039042D01*
X50391982Y-40047000D01*
X50391991Y-40047000D01*
X50418999Y-40049660D01*
X50446007Y-40047000D01*
X51562783Y-40047000D01*
X51697800Y-40182018D01*
X51697800Y-40771915D01*
X51670359Y-40786582D01*
X51576689Y-40863455D01*
X51549033Y-40811714D01*
X51483427Y-40731773D01*
X51403486Y-40666167D01*
X51312281Y-40617417D01*
X51213318Y-40587397D01*
X51110400Y-40577260D01*
X50809150Y-40579800D01*
X50677900Y-40711050D01*
X50677900Y-41574800D01*
X50697900Y-41574800D01*
X50697900Y-41584800D01*
X50677900Y-41584800D01*
X50677900Y-42448550D01*
X50809150Y-42579800D01*
X51110400Y-42582340D01*
X51213318Y-42572203D01*
X51312281Y-42542183D01*
X51403486Y-42493433D01*
X51483427Y-42427827D01*
X51549033Y-42347886D01*
X51576689Y-42296145D01*
X51670359Y-42373018D01*
X51697900Y-42387739D01*
X51697901Y-45238081D01*
X51583782Y-45352200D01*
X51455345Y-45352200D01*
X51295956Y-45383904D01*
X51145816Y-45446094D01*
X51010693Y-45536381D01*
X50969000Y-45578074D01*
X50969000Y-45498526D01*
X51059819Y-45407707D01*
X51150106Y-45272584D01*
X51212296Y-45122444D01*
X51244000Y-44963055D01*
X51244000Y-44800545D01*
X51212296Y-44641156D01*
X51150106Y-44491016D01*
X51059819Y-44355893D01*
X50944907Y-44240981D01*
X50809784Y-44150694D01*
X50659644Y-44088504D01*
X50500255Y-44056800D01*
X50337745Y-44056800D01*
X50178356Y-44088504D01*
X50028216Y-44150694D01*
X49893093Y-44240981D01*
X49778181Y-44355893D01*
X49687894Y-44491016D01*
X49625704Y-44641156D01*
X49594000Y-44800545D01*
X49594000Y-44963055D01*
X49625704Y-45122444D01*
X49687894Y-45272584D01*
X49778181Y-45407707D01*
X49869001Y-45498527D01*
X49869001Y-45769796D01*
X49789819Y-45651293D01*
X49674907Y-45536381D01*
X49539784Y-45446094D01*
X49389644Y-45383904D01*
X49230255Y-45352200D01*
X49067745Y-45352200D01*
X48908356Y-45383904D01*
X48758216Y-45446094D01*
X48623093Y-45536381D01*
X48508181Y-45651293D01*
X48417894Y-45786416D01*
X48355704Y-45936556D01*
X48324000Y-46095945D01*
X48324000Y-46258455D01*
X48355704Y-46417844D01*
X48417894Y-46567984D01*
X48508181Y-46703107D01*
X48599000Y-46793926D01*
X48599001Y-48355361D01*
X48590960Y-48361960D01*
X48519195Y-48449405D01*
X48465870Y-48549170D01*
X48433032Y-48657422D01*
X48421944Y-48770000D01*
X48421944Y-50220000D01*
X48433032Y-50332578D01*
X48465870Y-50440830D01*
X48519195Y-50540595D01*
X48590960Y-50628040D01*
X48678405Y-50699805D01*
X48778170Y-50753130D01*
X48886422Y-50785968D01*
X48999000Y-50797056D01*
X49299000Y-50797056D01*
X49411578Y-50785968D01*
X49519830Y-50753130D01*
X49619595Y-50699805D01*
X49707040Y-50628040D01*
X49778805Y-50540595D01*
X49784000Y-50530876D01*
X49789195Y-50540595D01*
X49860960Y-50628040D01*
X49948405Y-50699805D01*
X50048170Y-50753130D01*
X50156422Y-50785968D01*
X50269000Y-50797056D01*
X50569000Y-50797056D01*
X50681578Y-50785968D01*
X50789830Y-50753130D01*
X50889595Y-50699805D01*
X50977040Y-50628040D01*
X51048805Y-50540595D01*
X51054000Y-50530876D01*
X51059195Y-50540595D01*
X51130960Y-50628040D01*
X51218405Y-50699805D01*
X51318170Y-50753130D01*
X51426422Y-50785968D01*
X51539000Y-50797056D01*
X51839000Y-50797056D01*
X51951578Y-50785968D01*
X52059830Y-50753130D01*
X52159595Y-50699805D01*
X52247040Y-50628040D01*
X52318805Y-50540595D01*
X52324000Y-50530876D01*
X52329195Y-50540595D01*
X52400960Y-50628040D01*
X52407001Y-50632998D01*
X52407001Y-51026884D01*
X52404330Y-51054000D01*
X52414989Y-51162210D01*
X52446552Y-51266262D01*
X52446553Y-51266263D01*
X52497810Y-51362158D01*
X52503653Y-51369278D01*
X52504655Y-52769501D01*
X52497809Y-52777843D01*
X52446552Y-52873738D01*
X52414989Y-52977790D01*
X52404330Y-53086000D01*
X52407001Y-53113116D01*
X52407001Y-53507002D01*
X52400960Y-53511960D01*
X52329195Y-53599405D01*
X52324000Y-53609124D01*
X52318805Y-53599405D01*
X52247040Y-53511960D01*
X52159595Y-53440195D01*
X52059830Y-53386870D01*
X51951578Y-53354032D01*
X51839000Y-53342944D01*
X51539000Y-53342944D01*
X51426422Y-53354032D01*
X51318170Y-53386870D01*
X51218405Y-53440195D01*
X51162521Y-53486058D01*
X51157633Y-53476914D01*
X51092027Y-53396973D01*
X51012086Y-53331367D01*
X50920881Y-53282617D01*
X50821918Y-53252597D01*
X50719000Y-53242460D01*
X50555250Y-53245000D01*
X50424000Y-53376250D01*
X50424000Y-54640000D01*
X50444000Y-54640000D01*
X50444000Y-54650000D01*
X50424000Y-54650000D01*
X50424000Y-55913750D01*
X50555250Y-56045000D01*
X50719000Y-56047540D01*
X50821918Y-56037403D01*
X50920881Y-56007383D01*
X51012086Y-55958633D01*
X51092027Y-55893027D01*
X51157633Y-55813086D01*
X51162521Y-55803942D01*
X51218405Y-55849805D01*
X51318170Y-55903130D01*
X51426422Y-55935968D01*
X51539000Y-55947056D01*
X51839000Y-55947056D01*
X51951578Y-55935968D01*
X52059830Y-55903130D01*
X52159595Y-55849805D01*
X52247040Y-55778040D01*
X52318805Y-55690595D01*
X52324000Y-55680876D01*
X52329195Y-55690595D01*
X52400960Y-55778040D01*
X52488405Y-55849805D01*
X52506865Y-55859672D01*
X52510061Y-60327000D01*
X41317361Y-60327000D01*
X41316484Y-59100745D01*
X46850800Y-59100745D01*
X46850800Y-59263255D01*
X46882504Y-59422644D01*
X46944694Y-59572784D01*
X47034981Y-59707907D01*
X47149893Y-59822819D01*
X47285016Y-59913106D01*
X47435156Y-59975296D01*
X47594545Y-60007000D01*
X47757055Y-60007000D01*
X47916444Y-59975296D01*
X48066584Y-59913106D01*
X48184687Y-59834191D01*
X48205026Y-59858974D01*
X48269740Y-59912084D01*
X48343573Y-59951548D01*
X48423686Y-59975850D01*
X48507000Y-59984056D01*
X49307000Y-59984056D01*
X49390314Y-59975850D01*
X49470427Y-59951548D01*
X49544260Y-59912084D01*
X49589068Y-59875310D01*
X49633973Y-59930027D01*
X49713914Y-59995633D01*
X49805119Y-60044383D01*
X49904082Y-60074403D01*
X50007000Y-60084540D01*
X50270750Y-60082000D01*
X50402000Y-59950750D01*
X50402000Y-59187000D01*
X50412000Y-59187000D01*
X50412000Y-59950750D01*
X50543250Y-60082000D01*
X50807000Y-60084540D01*
X50909918Y-60074403D01*
X51008881Y-60044383D01*
X51100086Y-59995633D01*
X51180027Y-59930027D01*
X51245633Y-59850086D01*
X51294383Y-59758881D01*
X51324403Y-59659918D01*
X51334540Y-59557000D01*
X51332000Y-59318250D01*
X51200750Y-59187000D01*
X50412000Y-59187000D01*
X50402000Y-59187000D01*
X50382000Y-59187000D01*
X50382000Y-59177000D01*
X50402000Y-59177000D01*
X50402000Y-58413250D01*
X50412000Y-58413250D01*
X50412000Y-59177000D01*
X51200750Y-59177000D01*
X51332000Y-59045750D01*
X51334540Y-58807000D01*
X51324403Y-58704082D01*
X51294383Y-58605119D01*
X51245633Y-58513914D01*
X51180027Y-58433973D01*
X51100086Y-58368367D01*
X51008881Y-58319617D01*
X50909918Y-58289597D01*
X50807000Y-58279460D01*
X50543250Y-58282000D01*
X50412000Y-58413250D01*
X50402000Y-58413250D01*
X50270750Y-58282000D01*
X50007000Y-58279460D01*
X49904082Y-58289597D01*
X49805119Y-58319617D01*
X49713914Y-58368367D01*
X49633973Y-58433973D01*
X49589068Y-58488690D01*
X49544260Y-58451916D01*
X49470427Y-58412452D01*
X49390314Y-58388150D01*
X49307000Y-58379944D01*
X48507000Y-58379944D01*
X48423686Y-58388150D01*
X48343573Y-58412452D01*
X48269740Y-58451916D01*
X48205026Y-58505026D01*
X48184687Y-58529809D01*
X48066584Y-58450894D01*
X47916444Y-58388704D01*
X47757055Y-58357000D01*
X47594545Y-58357000D01*
X47435156Y-58388704D01*
X47285016Y-58450894D01*
X47149893Y-58541181D01*
X47034981Y-58656093D01*
X46944694Y-58791216D01*
X46882504Y-58941356D01*
X46850800Y-59100745D01*
X41316484Y-59100745D01*
X41315030Y-57068745D01*
X46850800Y-57068745D01*
X46850800Y-57231255D01*
X46882504Y-57390644D01*
X46944694Y-57540784D01*
X47034981Y-57675907D01*
X47149893Y-57790819D01*
X47285016Y-57881106D01*
X47435156Y-57943296D01*
X47594545Y-57975000D01*
X47757055Y-57975000D01*
X47916444Y-57943296D01*
X48066584Y-57881106D01*
X48184687Y-57802191D01*
X48205026Y-57826974D01*
X48269740Y-57880084D01*
X48343573Y-57919548D01*
X48423686Y-57943850D01*
X48507000Y-57952056D01*
X49307000Y-57952056D01*
X49390314Y-57943850D01*
X49470427Y-57919548D01*
X49544260Y-57880084D01*
X49589068Y-57843310D01*
X49633973Y-57898027D01*
X49713914Y-57963633D01*
X49805119Y-58012383D01*
X49904082Y-58042403D01*
X50007000Y-58052540D01*
X50270750Y-58050000D01*
X50402000Y-57918750D01*
X50402000Y-57155000D01*
X50412000Y-57155000D01*
X50412000Y-57918750D01*
X50543250Y-58050000D01*
X50807000Y-58052540D01*
X50909918Y-58042403D01*
X51008881Y-58012383D01*
X51100086Y-57963633D01*
X51180027Y-57898027D01*
X51245633Y-57818086D01*
X51294383Y-57726881D01*
X51324403Y-57627918D01*
X51334540Y-57525000D01*
X51332000Y-57286250D01*
X51200750Y-57155000D01*
X50412000Y-57155000D01*
X50402000Y-57155000D01*
X50382000Y-57155000D01*
X50382000Y-57145000D01*
X50402000Y-57145000D01*
X50402000Y-56381250D01*
X50412000Y-56381250D01*
X50412000Y-57145000D01*
X51200750Y-57145000D01*
X51332000Y-57013750D01*
X51334540Y-56775000D01*
X51324403Y-56672082D01*
X51294383Y-56573119D01*
X51245633Y-56481914D01*
X51180027Y-56401973D01*
X51100086Y-56336367D01*
X51008881Y-56287617D01*
X50909918Y-56257597D01*
X50807000Y-56247460D01*
X50543250Y-56250000D01*
X50412000Y-56381250D01*
X50402000Y-56381250D01*
X50270750Y-56250000D01*
X50007000Y-56247460D01*
X49904082Y-56257597D01*
X49805119Y-56287617D01*
X49713914Y-56336367D01*
X49633973Y-56401973D01*
X49589068Y-56456690D01*
X49544260Y-56419916D01*
X49470427Y-56380452D01*
X49390314Y-56356150D01*
X49307000Y-56347944D01*
X48507000Y-56347944D01*
X48423686Y-56356150D01*
X48343573Y-56380452D01*
X48269740Y-56419916D01*
X48205026Y-56473026D01*
X48184687Y-56497809D01*
X48066584Y-56418894D01*
X47916444Y-56356704D01*
X47757055Y-56325000D01*
X47594545Y-56325000D01*
X47435156Y-56356704D01*
X47285016Y-56418894D01*
X47149893Y-56509181D01*
X47034981Y-56624093D01*
X46944694Y-56759216D01*
X46882504Y-56909356D01*
X46850800Y-57068745D01*
X41315030Y-57068745D01*
X41308040Y-47302445D01*
X44221900Y-47302445D01*
X44221900Y-47464955D01*
X44253604Y-47624344D01*
X44315794Y-47774484D01*
X44406081Y-47909607D01*
X44494900Y-47998426D01*
X44494901Y-54109573D01*
X44418781Y-54185693D01*
X44328494Y-54320816D01*
X44266304Y-54470956D01*
X44234600Y-54630345D01*
X44234600Y-54792855D01*
X44266304Y-54952244D01*
X44328494Y-55102384D01*
X44418781Y-55237507D01*
X44533693Y-55352419D01*
X44668816Y-55442706D01*
X44818956Y-55504896D01*
X44978345Y-55536600D01*
X45140855Y-55536600D01*
X45300244Y-55504896D01*
X45450384Y-55442706D01*
X45585507Y-55352419D01*
X45700419Y-55237507D01*
X45790706Y-55102384D01*
X45852896Y-54952244D01*
X45884600Y-54792855D01*
X45884600Y-54630345D01*
X46876200Y-54630345D01*
X46876200Y-54792855D01*
X46907904Y-54952244D01*
X46970094Y-55102384D01*
X47060381Y-55237507D01*
X47175293Y-55352419D01*
X47310416Y-55442706D01*
X47460556Y-55504896D01*
X47619945Y-55536600D01*
X47782455Y-55536600D01*
X47941844Y-55504896D01*
X48091984Y-55442706D01*
X48227107Y-55352419D01*
X48317926Y-55261600D01*
X48421944Y-55261600D01*
X48421944Y-55370000D01*
X48433032Y-55482578D01*
X48465870Y-55590830D01*
X48519195Y-55690595D01*
X48590960Y-55778040D01*
X48678405Y-55849805D01*
X48778170Y-55903130D01*
X48886422Y-55935968D01*
X48999000Y-55947056D01*
X49299000Y-55947056D01*
X49411578Y-55935968D01*
X49519830Y-55903130D01*
X49619595Y-55849805D01*
X49675479Y-55803942D01*
X49680367Y-55813086D01*
X49745973Y-55893027D01*
X49825914Y-55958633D01*
X49917119Y-56007383D01*
X50016082Y-56037403D01*
X50119000Y-56047540D01*
X50282750Y-56045000D01*
X50414000Y-55913750D01*
X50414000Y-54650000D01*
X50394000Y-54650000D01*
X50394000Y-54640000D01*
X50414000Y-54640000D01*
X50414000Y-53376250D01*
X50282750Y-53245000D01*
X50119000Y-53242460D01*
X50016082Y-53252597D01*
X49917119Y-53282617D01*
X49825914Y-53331367D01*
X49745973Y-53396973D01*
X49680367Y-53476914D01*
X49675479Y-53486058D01*
X49619595Y-53440195D01*
X49519830Y-53386870D01*
X49411578Y-53354032D01*
X49299000Y-53342944D01*
X48999000Y-53342944D01*
X48886422Y-53354032D01*
X48778170Y-53386870D01*
X48678405Y-53440195D01*
X48590960Y-53511960D01*
X48519195Y-53599405D01*
X48465870Y-53699170D01*
X48433032Y-53807422D01*
X48421944Y-53920000D01*
X48421944Y-54161600D01*
X48317926Y-54161600D01*
X48227107Y-54070781D01*
X48091984Y-53980494D01*
X47941844Y-53918304D01*
X47782455Y-53886600D01*
X47619945Y-53886600D01*
X47460556Y-53918304D01*
X47310416Y-53980494D01*
X47175293Y-54070781D01*
X47060381Y-54185693D01*
X46970094Y-54320816D01*
X46907904Y-54470956D01*
X46876200Y-54630345D01*
X45884600Y-54630345D01*
X45852896Y-54470956D01*
X45790706Y-54320816D01*
X45700419Y-54185693D01*
X45598900Y-54084174D01*
X45598900Y-47998426D01*
X45687719Y-47909607D01*
X45778006Y-47774484D01*
X45840196Y-47624344D01*
X45871900Y-47464955D01*
X45871900Y-47302445D01*
X45840196Y-47143056D01*
X45778006Y-46992916D01*
X45687719Y-46857793D01*
X45572807Y-46742881D01*
X45437684Y-46652594D01*
X45287544Y-46590404D01*
X45128155Y-46558700D01*
X44965645Y-46558700D01*
X44806256Y-46590404D01*
X44656116Y-46652594D01*
X44520993Y-46742881D01*
X44406081Y-46857793D01*
X44315794Y-46992916D01*
X44253604Y-47143056D01*
X44221900Y-47302445D01*
X41308040Y-47302445D01*
X41304284Y-42054800D01*
X42506960Y-42054800D01*
X42517097Y-42157718D01*
X42547117Y-42256681D01*
X42595867Y-42347886D01*
X42661473Y-42427827D01*
X42741414Y-42493433D01*
X42832619Y-42542183D01*
X42931582Y-42572203D01*
X43034500Y-42582340D01*
X43335750Y-42579800D01*
X43467000Y-42448550D01*
X43467000Y-41584800D01*
X42640750Y-41584800D01*
X42509500Y-41716050D01*
X42506960Y-42054800D01*
X41304284Y-42054800D01*
X41303604Y-41104800D01*
X42506960Y-41104800D01*
X42509500Y-41443550D01*
X42640750Y-41574800D01*
X43467000Y-41574800D01*
X43467000Y-40711050D01*
X43335750Y-40579800D01*
X43034500Y-40577260D01*
X42931582Y-40587397D01*
X42832619Y-40617417D01*
X42741414Y-40666167D01*
X42661473Y-40731773D01*
X42595867Y-40811714D01*
X42547117Y-40902919D01*
X42517097Y-41001882D01*
X42506960Y-41104800D01*
X41303604Y-41104800D01*
X41302089Y-38988376D01*
X41367714Y-39042233D01*
X41458919Y-39090983D01*
X41557882Y-39121003D01*
X41660800Y-39131140D01*
X42374550Y-39128600D01*
X42505800Y-38997350D01*
X42505800Y-37758600D01*
X42485800Y-37758600D01*
X42485800Y-37748600D01*
X42505800Y-37748600D01*
X42505800Y-37728600D01*
X42515800Y-37728600D01*
X42515800Y-37748600D01*
%TD*%
M02*
