%TF.GenerationSoftware,KiCad,Pcbnew,(5.1.5)-3*%
%TF.CreationDate,2021-10-20T10:58:11+01:00*%
%TF.ProjectId,pHAT_PASSIVE_TAG,70484154-5f50-4415-9353-4956455f5441,1*%
%TF.SameCoordinates,Original*%
%TF.FileFunction,Plated,1,2,PTH,Drill*%
%TF.FilePolarity,Positive*%
%FSLAX46Y46*%
G04 Gerber Fmt 4.6, Leading zero omitted, Abs format (unit mm)*
G04 Created by KiCad (PCBNEW (5.1.5)-3) date 2021-10-20 10:58:11*
%MOMM*%
%LPD*%
G04 APERTURE LIST*
%TA.AperFunction,ViaDrill*%
%ADD10C,0.400000*%
%TD*%
%TA.AperFunction,ComponentDrill*%
%ADD11C,0.400000*%
%TD*%
%TA.AperFunction,ComponentDrill*%
%ADD12C,1.000000*%
%TD*%
G04 APERTURE END LIST*
D10*
X45046900Y-44881800D03*
X45046900Y-47383700D03*
X45059600Y-54711600D03*
X47599600Y-44881800D03*
X47675800Y-57150000D03*
X47675800Y-59182000D03*
X47701200Y-54711600D03*
X49149000Y-46177200D03*
X50419000Y-44881800D03*
X51536600Y-46177200D03*
X51689000Y-47752000D03*
D11*
%TO.C,AE1*%
X59660000Y-53719500D03*
X64414400Y-53721000D03*
D12*
%TO.C,J2*%
X42510800Y-35213600D03*
X42510800Y-37753600D03*
X45050800Y-35213600D03*
X45050800Y-37753600D03*
X47590800Y-35213600D03*
X47590800Y-37753600D03*
X50130800Y-35213600D03*
X50130800Y-37753600D03*
X52670800Y-35213600D03*
X52670800Y-37753600D03*
X55210800Y-35213600D03*
X55210800Y-37753600D03*
X57750800Y-35213600D03*
X57750800Y-37753600D03*
X60290800Y-35213600D03*
X60290800Y-37753600D03*
X62830800Y-35213600D03*
X62830800Y-37753600D03*
X65370800Y-35213600D03*
X65370800Y-37753600D03*
X67910800Y-35213600D03*
X67910800Y-37753600D03*
X70450800Y-35213600D03*
X70450800Y-37753600D03*
X72990800Y-35213600D03*
X72990800Y-37753600D03*
X75530800Y-35213600D03*
X75530800Y-37753600D03*
X78070800Y-35213600D03*
X78070800Y-37753600D03*
X80610800Y-35213600D03*
X80610800Y-37753600D03*
X83150800Y-35213600D03*
X83150800Y-37753600D03*
X85690800Y-35213600D03*
X85690800Y-37753600D03*
X88230800Y-35213600D03*
X88230800Y-37753600D03*
X90770800Y-35213600D03*
X90770800Y-37753600D03*
M02*
